<svg width="324" height="320" viewBox="0 0 324 320" fill="none" xmlns="http://www.w3.org/2000/svg">
<path fill-rule="evenodd" clip-rule="evenodd" d="M13.332 2.5C13.332 1.12109 12.2109 0 10.832 0C9.45312 0 8.33203 1.12109 8.33203 2.5V7.91016H2.5C1.12109 7.91016 0 9.03125 0 10.4102C0 11.7891 1.12109 12.9102 2.5 12.9102H8.33203V19.3164C8.33203 20.6992 9.45312 21.8164 10.832 21.8164C12.2109 21.8164 13.332 20.6992 13.332 19.3164V12.9102H19.4336C20.8164 12.9102 21.9336 11.7891 21.9336 10.4102C21.9336 9.03125 20.8164 7.91016 19.4336 7.91016H13.332V2.5Z" transform="translate(120.641 116.359) scale(4)" fill="white"/>
<path d="M0 0H80.4244V80H0V0Z" transform="scale(4)" fill="white" fill-opacity="0.5"/>
</svg>
