<svg xmlns="http://www.w3.org/2000/svg" viewBox="0 0 705 705"><defs><style>.cls-1{fill:#fff;stroke:#000;}.cls-1,.cls-3,.cls-5{stroke-miterlimit:10;}.cls-2{font-size:72px;fill:#7f70df;font-family:Impact, Impact;}.cls-3,.cls-4,.cls-5{fill:none;stroke:#7f70df;}.cls-3,.cls-4{stroke-width:6px;}.cls-4{stroke-linecap:round;stroke-linejoin:round;}.cls-5{stroke-width:5px;}</style></defs><title>Babysitting</title><g id="Layer_8" data-name="Layer 8"><rect class="cls-1" x="2" y="2" width="700" height="700"/></g><g id="Layer_9" data-name="Layer 9"><text class="cls-2" transform="translate(193.539 628.451)">Babysitting</text></g><g id="carut"><path class="cls-3" d="M348.173,97.255c8.063,14.037,37.366,71.89,14.406,136.4l-149.66.621a1.856,1.856,0,0,0-1.852,1.952c.781,14.7,10.666,107.893,135.788,112.527,0,0,135.855,6.29,142.145-113.213,0,0-32.088-33.322-22.917-70.628a1.351,1.351,0,0,0-.708-1.544c-6.246-3.073-40.262-21.069-44.2-50.315a.708.708,0,0,0-.858-.609c-6.078,1.379-47.224,9.556-71.564-15.615A.362.362,0,0,0,348.173,97.255Z" transform="translate(2.5 3.5)"/><line class="cls-4" x1="362.981" y1="237.159" x2="488.984" y2="237.159"/><path class="cls-4" d="M466.358,163.836" transform="translate(2.5 3.5)"/><ellipse class="cls-4" cx="293.378" cy="440.304" rx="27.045" ry="27.674"/><circle class="cls-4" cx="294.007" cy="440.304" r="15.095"/><ellipse class="cls-4" cx="411.622" cy="440.304" rx="27.045" ry="27.674"/><circle class="cls-4" cx="412.251" cy="440.304" r="15.095"/><path class="cls-3" d="M283.959,337.429l101.891,84.281s1.258-2.516,10.063-8.805l-77.7-65.558a12.072,12.072,0,0,0-6.043-2.7C308.005,344.029,299.391,342.3,283.959,337.429Z" transform="translate(2.5 3.5)"/><path class="cls-3" d="M353.2,376.494l37.683-30.26a175.66,175.66,0,0,0,27.054-10.362.567.567,0,0,1,.6.951l-56.588,47.267C359.834,382.368,354.086,377.189,353.2,376.494Z" transform="translate(2.5 3.5)"/><path class="cls-3" d="M342.027,385.467l9.182,7.6-35.8,29.9a25.709,25.709,0,0,0-7.215-7.819,1.392,1.392,0,0,1-.066-2.221Z" transform="translate(2.5 3.5)"/><line class="cls-4" x1="423.572" y1="115.761" x2="365.079" y2="237.15"/><line class="cls-4" x1="366.232" y1="237.159" x2="468.858" y2="167.336"/></g><g id="Border"><rect class="cls-5" x="2.5" y="2.5" width="700" height="700"/></g></svg>