<?xml version="1.0" encoding="utf-8"?>
<!-- Generator: Adobe Illustrator 21.0.0, SVG Export Plug-In . SVG Version: 6.00 Build 0)  -->
<svg version="1.0" xmlns="http://www.w3.org/2000/svg" xmlns:xlink="http://www.w3.org/1999/xlink" x="0px" y="0px"
	 viewBox="0 0 700 700" style="enable-background:new 0 0 700 700;" xml:space="preserve">
<style type="text/css">
	.st0{fill:#FFFFFF;stroke:#000000;stroke-miterlimit:10;}
	.st1{fill:none;}
	.st2{fill:#7F70DF;}
	.st3{font-family:'Impact';}
	.st4{font-size:72px;}
	.st5{display:none;}
	.st6{display:inline;}
	.st7{fill:#FFFFFF;}
	.st8{opacity:0.3;fill:#7F70DF;}
	.st9{fill:none;stroke:#7F70DF;stroke-width:6;stroke-miterlimit:10;}
	.st10{fill:none;stroke:#7F70DF;stroke-width:6;stroke-linecap:round;stroke-linejoin:round;stroke-miterlimit:10;}
	.st11{display:inline;opacity:0.25;fill:#7F70DF;stroke:#7F70DF;stroke-width:0.25;stroke-miterlimit:10;}
	.st12{display:inline;opacity:0.4;fill:#7F70DF;stroke:#7F70DF;stroke-width:0.25;stroke-miterlimit:10;}
	.st13{fill:none;stroke:#7F70DF;stroke-width:5;stroke-miterlimit:10;}
	.st14{display:inline;fill:none;stroke:#7F70DF;stroke-width:10;stroke-miterlimit:10;}
</style>
<g id="Layer_8">
	<rect x="-0.5" y="-1.5" class="st0" width="700" height="700"/>
</g>
<g id="Layer_7">
</g>
<g id="Layer_9">
	<rect x="187" y="568" class="st1" width="346" height="64"/>
	<text transform="matrix(1 0 0 1 191.0391 624.9512)" class="st2 st3 st4">Babysitting</text>
</g>
<g id="check" class="st5">
	<g class="st6">
		<path class="st1" d="M359.121,597.188c-3.094-1.523-5.139-2.684-6.135-3.48s-1.594-1.529-1.793-2.197s-0.299-1.717-0.299-3.146
			c0-1.055,0.199-1.846,0.598-2.373s0.996-0.791,1.793-0.791c0.984,0,1.6,0.287,1.846,0.861s0.369,1.939,0.369,4.096v2.531h12.586
			v-2.707c0-2.344-0.123-4.066-0.369-5.168s-0.949-2.297-2.109-3.586s-2.824-2.326-4.993-3.111
			c-2.168-0.785-4.799-1.178-7.893-1.178c-3.117,0-5.854,0.48-8.209,1.441c-2.355,0.961-4.025,2.326-5.01,4.096
			s-1.477,4.518-1.477,8.244c0,2.625,0.457,4.893,1.371,6.803s3.457,4.037,7.629,6.381c4.969,2.766,7.723,4.43,8.262,4.992
			c0.516,0.563,0.773,1.957,0.773,4.184c0,1.617-0.199,2.678-0.598,3.182s-1.102,0.756-2.109,0.756
			c-0.938,0-1.564-0.375-1.881-1.125S351,613.512,351,611.004v-2.953h-12.586v2.25c0,3.891,0.48,6.797,1.441,8.719
			c0.961,1.922,2.725,3.445,5.291,4.57c2.567,1.125,5.655,1.688,9.264,1.688c3.258,0,6.041-0.521,8.35-1.564
			c2.309-1.043,3.955-2.531,4.939-4.465s1.477-4.799,1.477-8.596c0-3.398-0.645-5.988-1.934-7.77S363.247,599.203,359.121,597.188z"
			/>
		<path class="st1" d="M385.851,422.709c0,0,0.51-1.01,3.107-3.341c1.944-2.224,4.234-4.121,6.784-5.61l-2.214-1.868l-9.046,9.687
			L385.851,422.709z"/>
		<path class="st1" d="M407.672,611.25v-24.961h3.832v-7.383h-3.832v-7.348h-14.238v7.348h-3.059v7.383h3.059v23.695
			c0,4.641,0.129,7.588,0.387,8.842s0.914,2.367,1.969,3.34s2.273,1.594,3.656,1.863s3.691,0.404,6.926,0.404h5.73v-7.523
			c-2.32,0-3.639-0.176-3.955-0.527S407.672,614.32,407.672,611.25z"/>
		<rect x="372.973" y="567.516" class="st1" width="14.625" height="7.418"/>
		<rect x="372.973" y="577.781" class="st1" width="14.625" height="46.652"/>
		<path class="st1" d="M429.61,611.25v-24.961h3.832v-7.383h-3.832v-7.348h-14.238v7.348h-3.059v7.383h3.059v23.695
			c0,4.641,0.129,7.588,0.387,8.842s0.914,2.367,1.969,3.34s2.273,1.594,3.656,1.863s3.691,0.404,6.926,0.404h5.73v-7.523
			c-2.32,0-3.639-0.176-3.955-0.527S429.61,614.32,429.61,611.25z"/>
		<rect x="436.571" y="567.516" class="st1" width="14.625" height="7.418"/>
		<path class="st1" d="M388.958,419.368c-4.277,4.895-6.881,11.353-6.881,18.436c0,15.284,12.109,27.674,27.045,27.674
			s27.045-12.39,27.045-27.674s-12.109-27.674-27.045-27.674c-4.869,0-9.434,1.323-13.381,3.628l0.173,0.146
			C392.678,416.216,390.467,418.013,388.958,419.368z M409.751,422.709c8.337,0,15.095,6.758,15.095,15.095
			c0,8.337-6.758,15.095-15.095,15.095s-15.095-6.758-15.095-15.095C394.656,429.468,401.414,422.709,409.751,422.709z"/>
		<path class="st1" d="M511.981,581.306c-1.148-1.456-2.455-2.548-3.92-3.276c-1.465-0.728-3.088-1.092-4.869-1.092
			c-3.258,0-5.684,0.973-7.277,2.918s-2.391,5.133-2.391,9.563v16.945c0,3.094,0.305,5.479,0.914,7.154s1.74,3.029,3.393,4.061
			s3.756,1.547,6.311,1.547c1.477,0,2.889-0.282,4.236-0.846s2.631-1.398,3.85-2.503v3.52c0,2.018-0.176,3.343-0.527,3.977
			s-1.066,0.95-2.145,0.95c-1.5,0-2.25-1.031-2.25-3.094h-13.781c0.094,4.5,1.512,7.518,4.254,9.053s6.375,2.303,10.898,2.303
			c3.68,0,6.732-0.416,9.158-1.248s4.318-2.039,5.678-3.621s2.15-3.082,2.373-4.5s0.334-4.553,0.334-9.404v-35.93H513
			L511.981,581.306z M511.981,604.605c0,2.648-0.141,4.348-0.422,5.098s-0.891,1.125-1.828,1.125c-0.82,0-1.359-0.311-1.617-0.932
			s-0.387-1.975-0.387-4.061v-15.68c0-1.969,0.17-3.287,0.51-3.955s0.92-1.002,1.74-1.002c0.844,0,1.389,0.293,1.635,0.879
			s0.369,1.945,0.369,4.078V604.605z"/>
		<rect x="436.571" y="577.781" class="st1" width="14.625" height="46.652"/>
		<path class="st1" d="M300.55,580.418c-0.75-1.102-1.84-1.957-3.27-2.566c-1.43-0.609-3.117-0.914-5.063-0.914
			c-1.688,0-3.252,0.335-4.693,1.004c-1.441,0.67-2.748,1.686-3.92,3.048v-13.474h-14.203v56.918h13.289l0.914-3.524
			c1.195,1.456,2.514,2.548,3.955,3.276c1.441,0.728,2.994,1.092,4.658,1.092c2.32,0,4.324-0.615,6.012-1.846
			s2.76-2.684,3.217-4.359s0.686-4.225,0.686-7.646v-21.023c0-3.445-0.076-5.695-0.229-6.75
			C301.751,582.598,301.3,581.52,300.55,580.418z M287.929,610.688c0,2.766-0.135,4.512-0.404,5.238
			c-0.27,0.727-0.85,1.09-1.74,1.09c-0.867,0-1.447-0.352-1.74-1.055c-0.293-0.703-0.439-2.309-0.439-4.816v-20.109
			c0-2.602,0.128-4.225,0.387-4.869c0.258-0.645,0.82-0.967,1.688-0.967c0.891,0,1.488,0.369,1.793,1.107
			c0.304,0.738,0.457,2.314,0.457,4.729V610.688z"/>
		<path class="st1" d="M283.959,338.429l10.114,8.366l3.967-4.244C294.151,341.519,289.498,340.178,283.959,338.429z"/>
		<path class="st1" d="M259.382,579.486c-2.438-1.699-6.059-2.549-10.863-2.549c-4.008,0-7.266,0.75-9.773,2.25
			c-2.508,1.5-4.178,3.229-5.01,5.186c-0.832,1.957-1.248,4.74-1.248,8.35v3.129h13.324v-4.887c0-2.602,0.117-4.213,0.352-4.834
			c0.234-0.621,0.832-0.932,1.793-0.932c0.844,0,1.447,0.369,1.811,1.107c0.363,0.738,0.545,2.326,0.545,4.764
			c0,1.945-0.164,3.234-0.492,3.867c-0.329,0.633-2.825,1.863-7.488,3.691c-4.359,1.688-7.09,3.164-8.191,4.43
			c-1.102,1.266-1.652,3.645-1.652,7.137v3.832c0,4.711,1.037,7.764,3.111,9.158s4.354,2.092,6.838,2.092
			c1.898,0,3.533-0.417,4.904-1.25c1.371-0.834,2.49-2.084,3.357-3.751v4.157h13.816V601.02c0-7.711-0.246-12.803-0.738-15.275
			S261.82,581.186,259.382,579.486z M250.312,611.848c0,2.344-0.135,3.791-0.404,4.342c-0.27,0.551-0.85,0.826-1.74,0.826
			c-0.938,0-1.564-0.352-1.881-1.055s-0.475-2.262-0.475-4.676c0-2.109,0.181-3.727,0.545-4.852c0.363-1.125,1.682-2.52,3.955-4.184
			V611.848z"/>
		<path class="st1" d="M219.445,593.689c3.07-0.702,5.127-1.709,6.17-3.021c1.042-1.312,1.564-3.63,1.564-6.956
			c0-4.919-0.738-8.484-2.215-10.698c-1.477-2.213-3.416-3.683-5.818-4.409c-2.403-0.726-5.936-1.089-10.6-1.089h-14.766v56.918
			h17.121c5.953,0,9.891-0.34,11.813-1.021c1.921-0.68,3.322-1.946,4.201-3.799s1.318-4.701,1.318-8.548v-5.276
			c0-3.705-0.61-6.455-1.828-8.249C225.187,595.747,222.867,594.464,219.445,593.689z M213.433,609.387
			c0,2.297-0.287,3.738-0.861,4.324c-0.575,0.586-1.904,0.914-3.99,0.984V598.77c2.203,0.07,3.563,0.363,4.078,0.879
			c0.515,0.516,0.773,1.992,0.773,4.43V609.387z M212.835,588.803c-0.399,0.715-1.324,1.072-2.777,1.072
			c-0.352,0-0.844,0.012-1.477,0.035v-12.656c1.523,0.023,2.549,0.129,3.076,0.316s0.955,0.639,1.283,1.354
			c0.328,0.715,0.492,1.963,0.492,3.744C213.433,586.043,213.234,588.088,212.835,588.803z"/>
		<path class="st1" d="M421.072,113.261c0,0-49.059,12.579-74.846-18.24c0,0,42.769,65.412,16.353,139.629L211,235.279
			c0,0,0.037,81.428,87.272,107.023l166.577-178.198C457.371,160.347,424.416,142.235,421.072,113.261z"/>
		<path class="st1" d="M321.416,609.281l-4.667-31.5h-12.894l7.777,39.023c0.586,2.883,0.88,4.512,0.88,4.887
			c0,0.773-0.317,1.271-0.951,1.494c-0.634,0.223-2.055,0.334-4.261,0.334v7.453h8.612c3.937,0,6.802-0.299,8.595-0.896
			s3.193-1.529,4.2-2.795c1.008-1.266,1.729-2.871,2.162-4.816s0.971-5.589,1.613-10.933l4.059-33.751h-12.85L321.416,609.281z"/>
		<path class="st1" d="M485.403,578.66c-1.547-1.148-3.539-1.723-5.977-1.723c-1.945,0-3.662,0.429-5.15,1.285
			c-1.488,0.857-2.748,2.143-3.779,3.856l0.246-4.298h-14.449v46.652h14.203v-31.535c0-3.516,0.129-5.678,0.387-6.486
			s0.891-1.213,1.898-1.213c0.961,0,1.547,0.352,1.758,1.055s0.316,2.66,0.316,5.871v32.309h14.203v-32.695
			c0-4.078-0.223-6.99-0.668-8.736S486.95,579.809,485.403,578.66z"/>
		<path class="st7" d="M246.357,606.434c-0.364,1.125-0.545,2.742-0.545,4.852c0,2.414,0.158,3.973,0.475,4.676
			s0.943,1.055,1.881,1.055c0.891,0,1.471-0.275,1.74-0.826c0.269-0.551,0.404-1.998,0.404-4.342v-9.598
			C248.039,603.914,246.72,605.309,246.357,606.434z"/>
		<path class="st7" d="M211.658,577.57c-0.527-0.188-1.553-0.293-3.076-0.316v12.656c0.633-0.023,1.125-0.035,1.477-0.035
			c1.453,0,2.378-0.357,2.777-1.072c0.398-0.715,0.598-2.76,0.598-6.135c0-1.781-0.164-3.029-0.492-3.744
			C212.612,578.209,212.185,577.758,211.658,577.57z"/>
		<path class="st7" d="M285.679,585.199c-0.867,0-1.43,0.322-1.688,0.967c-0.258,0.645-0.387,2.268-0.387,4.869v20.109
			c0,2.508,0.146,4.113,0.439,4.816c0.293,0.703,0.873,1.055,1.74,1.055c0.891,0,1.471-0.363,1.74-1.09
			c0.269-0.727,0.404-2.473,0.404-5.238v-19.652c0-2.414-0.153-3.99-0.457-4.729C287.167,585.568,286.57,585.199,285.679,585.199z"
			/>
		<path class="st7" d="M509.977,585.199c-0.82,0-1.4,0.334-1.74,1.002s-0.51,1.986-0.51,3.955v15.68
			c0,2.086,0.129,3.439,0.387,4.061s0.797,0.932,1.617,0.932c0.938,0,1.547-0.375,1.828-1.125s0.422-2.449,0.422-5.098v-14.449
			c0-2.133-0.123-3.492-0.369-4.078S510.821,585.199,509.977,585.199z"/>
		<path class="st7" d="M-0.5-1.5v700h700v-700H-0.5z M228.234,611.066c0,3.847-0.439,6.695-1.318,8.548s-2.28,3.119-4.201,3.799
			c-1.922,0.681-5.859,1.021-11.813,1.021h-17.121v-56.918h14.766c4.664,0,8.197,0.363,10.6,1.089
			c2.402,0.727,4.342,2.196,5.818,4.409c1.477,2.214,2.215,5.779,2.215,10.698c0,3.326-0.522,5.645-1.564,6.956
			c-1.043,1.313-3.1,2.319-6.17,3.021c3.422,0.774,5.742,2.058,6.961,3.852c1.218,1.794,1.828,4.544,1.828,8.249V611.066z
			 M264.515,624.434h-13.816v-4.157c-0.867,1.667-1.986,2.917-3.357,3.751c-1.371,0.833-3.006,1.25-4.904,1.25
			c-2.484,0-4.764-0.697-6.838-2.092s-3.111-4.447-3.111-9.158v-3.832c0-3.492,0.55-5.871,1.652-7.137
			c1.102-1.266,3.832-2.742,8.191-4.43c4.664-1.828,7.16-3.059,7.488-3.691c0.328-0.633,0.492-1.922,0.492-3.867
			c0-2.438-0.182-4.025-0.545-4.764c-0.364-0.738-0.967-1.107-1.811-1.107c-0.961,0-1.559,0.311-1.793,0.932
			c-0.234,0.621-0.352,2.232-0.352,4.834v4.887h-13.324v-3.129c0-3.609,0.416-6.393,1.248-8.35c0.832-1.957,2.501-3.686,5.01-5.186
			c2.508-1.5,5.766-2.25,9.773-2.25c4.804,0,8.425,0.85,10.863,2.549c2.438,1.699,3.902,3.785,4.395,6.258s0.738,7.564,0.738,15.275
			V624.434z M302.132,611.426c0,3.422-0.229,5.971-0.686,7.646s-1.529,3.129-3.217,4.359s-3.691,1.846-6.012,1.846
			c-1.665,0-3.217-0.364-4.658-1.092c-1.441-0.729-2.76-1.82-3.955-3.276l-0.914,3.524h-13.289v-56.918h14.203v13.474
			c1.172-1.362,2.479-2.378,3.92-3.048c1.441-0.669,3.006-1.004,4.693-1.004c1.945,0,3.633,0.305,5.063,0.914
			c1.429,0.609,2.519,1.465,3.27,2.566c0.75,1.102,1.201,2.18,1.354,3.234c0.152,1.055,0.229,3.305,0.229,6.75V611.426z
			 M332.483,611.532c-0.642,5.344-1.18,8.987-1.613,10.933s-1.154,3.551-2.162,4.816c-1.007,1.266-2.407,2.197-4.2,2.795
			s-4.658,0.896-8.595,0.896H307.3v-7.453c2.207,0,3.627-0.111,4.261-0.334c0.634-0.223,0.951-0.721,0.951-1.494
			c0-0.375-0.293-2.004-0.88-4.887l-7.777-39.023h12.894l4.667,31.5l2.276-31.5h12.85L332.483,611.532z M367.7,619.248
			c-0.984,1.934-2.631,3.422-4.939,4.465c-2.309,1.043-5.092,1.564-8.35,1.564c-3.609,0-6.697-0.563-9.264-1.688
			c-2.566-1.125-4.33-2.648-5.291-4.57c-0.961-1.922-1.441-4.828-1.441-8.719v-2.25H351v2.953c0,2.508,0.158,4.137,0.475,4.887
			s0.943,1.125,1.881,1.125c1.008,0,1.711-0.252,2.109-0.756s0.598-1.564,0.598-3.182c0-2.227-0.258-3.621-0.773-4.184
			c-0.539-0.563-3.293-2.227-8.262-4.992c-4.172-2.344-6.715-4.471-7.629-6.381s-1.371-4.178-1.371-6.803
			c0-3.727,0.492-6.475,1.477-8.244s2.654-3.135,5.01-4.096c2.356-0.961,5.092-1.441,8.209-1.441c3.094,0,5.725,0.393,7.893,1.178
			c2.168,0.785,3.833,1.822,4.993,3.111s1.863,2.484,2.109,3.586s0.369,2.824,0.369,5.168v2.707H355.5v-2.531
			c0-2.156-0.123-3.521-0.369-4.096s-0.861-0.861-1.846-0.861c-0.797,0-1.395,0.264-1.793,0.791s-0.598,1.318-0.598,2.373
			c0,1.43,0.1,2.479,0.299,3.146s0.797,1.4,1.793,2.197s3.041,1.957,6.135,3.48c4.125,2.016,6.833,3.914,8.122,5.695
			s1.934,4.371,1.934,7.77C369.176,614.449,368.684,617.314,367.7,619.248z M387.598,624.434h-14.625v-46.652h14.625V624.434z
			 M387.598,574.934h-14.625v-7.418h14.625V574.934z M412.102,624.434h-5.73c-3.234,0-5.543-0.135-6.926-0.404
			s-2.602-0.891-3.656-1.863s-1.711-2.086-1.969-3.34s-0.387-4.201-0.387-8.842v-23.695h-3.059v-7.383h3.059v-7.348h14.238v7.348
			h3.832v7.383h-3.832v24.961c0,3.07,0.158,4.781,0.475,5.133s1.635,0.527,3.955,0.527V624.434z M434.04,624.434h-5.73
			c-3.234,0-5.543-0.135-6.926-0.404s-2.602-0.891-3.656-1.863s-1.711-2.086-1.969-3.34s-0.387-4.201-0.387-8.842v-23.695h-3.059
			v-7.383h3.059v-7.348h14.238v7.348h3.832v7.383h-3.832v24.961c0,3.07,0.158,4.781,0.475,5.133s1.635,0.527,3.955,0.527V624.434z
			 M451.196,624.434h-14.625v-46.652h14.625V624.434z M451.196,574.934h-14.625v-7.418h14.625V574.934z M489.059,624.434h-14.203
			v-32.309c0-3.211-0.105-5.168-0.316-5.871s-0.797-1.055-1.758-1.055c-1.008,0-1.641,0.404-1.898,1.213s-0.387,2.971-0.387,6.486
			v31.535h-14.203v-46.652h14.449l-0.246,4.298c1.031-1.714,2.291-2.999,3.779-3.856c1.488-0.856,3.205-1.285,5.15-1.285
			c2.438,0,4.43,0.574,5.977,1.723s2.543,2.596,2.988,4.342s0.668,4.658,0.668,8.736V624.434z M526.219,613.711
			c0,4.852-0.111,7.986-0.334,9.404s-1.014,2.918-2.373,4.5s-3.252,2.789-5.678,3.621s-5.479,1.248-9.158,1.248
			c-4.523,0-8.156-0.768-10.898-2.303s-4.16-4.553-4.254-9.053h13.781c0,2.063,0.75,3.094,2.25,3.094
			c1.078,0,1.793-0.316,2.145-0.95s0.527-1.959,0.527-3.977v-3.52c-1.219,1.104-2.502,1.939-3.85,2.503s-2.76,0.846-4.236,0.846
			c-2.555,0-4.658-0.516-6.311-1.547s-2.783-2.385-3.393-4.061s-0.914-4.061-0.914-7.154v-16.945c0-4.43,0.797-7.617,2.391-9.563
			s4.02-2.918,7.277-2.918c1.781,0,3.404,0.364,4.869,1.092c1.465,0.729,2.771,1.82,3.92,3.276l1.02-3.524h13.219V613.711z
			 M653.5,133.5L393.528,411.89l2.214,1.868c3.947-2.305,8.511-3.628,13.381-3.628c14.937,0,27.045,12.39,27.045,27.674
			s-12.109,27.674-27.045,27.674s-27.045-12.39-27.045-27.674c0-7.083,2.604-13.541,6.881-18.436
			c-2.597,2.331-3.107,3.341-3.107,3.341l-1.369-1.132L286.5,526.5c0,0-25,28-59,0l-157-214c0,0-10-18,5.5-33.5l55.5-40.5
			c0,0,18-10,33,4l99,137l30.573-32.706l-10.114-8.366c5.539,1.749,10.192,3.09,14.081,4.122l0.232-0.248
			C211.037,316.708,211,235.279,211,235.279l151.579-0.629c26.416-74.217-16.353-139.629-16.353-139.629
			c25.787,30.819,74.846,18.24,74.846,18.24c3.343,28.974,36.298,47.086,43.776,50.842L564.5,57.5c0,0,15-18,36-7l53,50
			C653.5,100.5,665.5,115.5,653.5,133.5z"/>
		<path class="st7" d="M208.582,598.77v15.926c2.086-0.07,3.416-0.398,3.99-0.984c0.574-0.586,0.861-2.027,0.861-4.324v-5.309
			c0-2.438-0.258-3.914-0.773-4.43C212.144,599.133,210.784,598.84,208.582,598.77z"/>
		<circle class="st7" cx="409.751" cy="437.804" r="15.095"/>
		<path class="st7" d="M388.958,419.368c1.51-1.355,3.72-3.152,6.956-5.464l-0.173-0.146
			C393.192,415.247,390.901,417.144,388.958,419.368z"/>
		<path class="st8" d="M291.507,452.899c-8.337,0-15.095-6.758-15.095-15.095c0-8.337,6.758-15.095,15.095-15.095
			c8.337,0,15.095,6.758,15.095,15.095C306.602,446.141,299.844,452.899,291.507,452.899z"/>
		<path class="st7" d="M600.5,50.5c-21-11-36,7-36,7l-99.651,106.604c0.963,0.484,1.509,0.732,1.509,0.732
			C456.294,202.573,489,236.537,489,236.537c-3.06,58.149-36.798,86.508-70.634,100.306c0.367,0.133,0.552,0.662,0.171,0.98
			l-56.588,47.267c-2.115-1.723-7.862-6.902-8.749-7.597l37.683-30.26c10.39-2.969,19.456-6.809,25.153-9.463
			c-34.912,13.56-69.18,11.978-69.18,11.978c-11.876-0.44-22.692-1.693-32.582-3.585c1.433,0.478,2.777,1.198,3.942,2.181
			l75.312,63.545L653.5,133.5c12-18,0-33,0-33L600.5,50.5z"/>
		<path class="st8" d="M600.5,50.5c-21-11-36,7-36,7l-99.651,106.604c0.963,0.484,1.509,0.732,1.509,0.732
			C456.294,202.573,489,236.537,489,236.537c-3.06,58.149-36.798,86.508-70.634,100.306c0.367,0.133,0.552,0.662,0.171,0.98
			l-56.588,47.267c-2.115-1.723-7.862-6.902-8.749-7.597l37.683-30.26c10.39-2.969,19.456-6.809,25.153-9.463
			c-34.912,13.56-69.18,11.978-69.18,11.978c-11.876-0.44-22.692-1.693-32.582-3.585c1.433,0.478,2.777,1.198,3.942,2.181
			l75.312,63.545L653.5,133.5c12-18,0-33,0-33L600.5,50.5z"/>
		<path class="st7" d="M263.5,379.5l-99-137c-15-14-33-4-33-4L76,279c-15.5,15.5-5.5,33.5-5.5,33.5l157,214c34,28,59,0,59,0
			l97.982-104.923l-90.409-74.783L263.5,379.5z M290.878,465.479c-14.937,0-27.045-12.39-27.045-27.674s12.109-27.674,27.045-27.674
			s27.045,12.39,27.045,27.674S305.815,465.479,290.878,465.479z M342.027,386.467l9.182,7.596l-35.801,29.905
			c-2.448-4.08-5.425-6.572-7.215-7.819c-0.757-0.528-0.784-1.64-0.066-2.221L342.027,386.467z"/>
		<path class="st8" d="M263.5,379.5l-99-137c-15-14-33-4-33-4L76,279c-15.5,15.5-5.5,33.5-5.5,33.5l157,214c34,28,59,0,59,0
			l97.982-104.923l-90.409-74.783L263.5,379.5z M290.878,465.479c-14.937,0-27.045-12.39-27.045-27.674s12.109-27.674,27.045-27.674
			s27.045,12.39,27.045,27.674S305.815,465.479,290.878,465.479z M342.027,386.467l9.182,7.596l-35.801,29.905
			c-2.448-4.08-5.425-6.572-7.215-7.819c-0.757-0.528-0.784-1.64-0.066-2.221L342.027,386.467z"/>
		<path class="st7" d="M298.272,342.302l-0.232,0.248c5.155,1.367,8.964,2.189,11.677,2.682
			C305.739,344.365,301.937,343.377,298.272,342.302z"/>
		<path class="st8" d="M298.272,342.302l-0.232,0.248c5.155,1.367,8.964,2.189,11.677,2.682
			C305.739,344.365,301.937,343.377,298.272,342.302z"/>
		<circle class="st7" cx="291.507" cy="437.804" r="15.095"/>
		<circle class="st8" cx="291.507" cy="437.804" r="15.095"/>
		<path class="st7" d="M309.718,345.233c1.496,0.326,3.014,0.637,4.555,0.932c-0.684-0.228-1.381-0.418-2.1-0.524
			C311.484,345.539,310.66,345.404,309.718,345.233z"/>
		<path class="st8" d="M309.718,345.233c1.496,0.326,3.014,0.637,4.555,0.932c-0.684-0.228-1.381-0.418-2.1-0.524
			C311.484,345.539,310.66,345.404,309.718,345.233z"/>
		<path class="st7" d="M417.936,336.873c-0.58,0.279-1.222,0.582-1.901,0.899c0.777-0.302,1.554-0.611,2.331-0.928
			C418.239,336.798,418.091,336.798,417.936,336.873z"/>
		<path class="st8" d="M417.936,336.873c-0.58,0.279-1.222,0.582-1.901,0.899c0.777-0.302,1.554-0.611,2.331-0.928
			C418.239,336.798,418.091,336.798,417.936,336.873z"/>
	</g>
</g>
<g id="carut">
	<g>
		<path class="st9" d="M348.173,97.255c8.063,14.037,37.366,71.89,14.406,136.395l-149.66,0.621
			c-1.063,0.004-1.908,0.89-1.852,1.952c0.781,14.697,10.666,107.893,135.788,112.527c0,0,135.855,6.29,142.145-113.213
			c0,0-32.088-33.322-22.917-70.628c0.153-0.62-0.135-1.262-0.708-1.544c-6.246-3.073-40.262-21.069-44.203-50.315
			c-0.056-0.419-0.446-0.703-0.858-0.609c-6.078,1.379-47.224,9.556-71.564-15.615C348.454,96.521,347.961,96.887,348.173,97.255z"
			/>
		<line class="st10" x1="360.481" y1="233.659" x2="486.484" y2="233.659"/>
		<path class="st10" d="M466.358,163.836"/>
		<ellipse class="st10" cx="290.878" cy="436.804" rx="27.045" ry="27.674"/>
		<circle class="st10" cx="291.507" cy="436.804" r="15.095"/>
		<ellipse class="st10" cx="409.122" cy="436.804" rx="27.045" ry="27.674"/>
		<circle class="st10" cx="409.751" cy="436.804" r="15.095"/>
		<path class="st9" d="M283.959,337.429l101.891,84.281c0,0,1.258-2.516,10.063-8.805l-77.699-65.558
			c-1.721-1.452-3.815-2.378-6.043-2.705C308.005,344.029,299.391,342.302,283.959,337.429z"/>
		<path class="st9" d="M353.2,376.494l37.682-30.26c11.63-3.323,21.613-7.743,27.054-10.362c0.603-0.29,1.114,0.523,0.6,0.951
			l-56.588,47.267C359.834,382.368,354.086,377.189,353.2,376.494z"/>
		<path class="st9" d="M342.027,385.467l9.182,7.596l-35.801,29.905c-2.448-4.08-5.425-6.572-7.215-7.819
			c-0.757-0.528-0.784-1.64-0.066-2.221L342.027,385.467z"/>
	</g>
	<line class="st10" x1="421.072" y1="112.261" x2="362.579" y2="233.65"/>
	<line class="st10" x1="363.732" y1="233.659" x2="466.358" y2="163.836"/>
</g>
<g id="shading" class="st5">
	<path class="st11" d="M364,231l102-67c0,0-38-16-45-52L364,231z"/>
	<path class="st11" d="M489,234H213c0,0-9,110,137,116C350,350,486,352,489,234z"/>
	<path class="st12" d="M289,342l52,43l-33,28l7,10l36-30l35,29l9-10l-33-28l53-44l-28,7l-34,29l-33-30C320,346,288,339,289,342z"/>
</g>
<g id="Border">
	<rect y="-1" class="st13" width="700" height="700"/>
</g>
<g id="guideLInes" class="st5">
	<rect x="23" y="56" class="st14" width="654" height="447.5"/>
	<rect x="23" y="574.5" class="st14" width="654" height="90"/>
</g>
</svg>
