<svg xmlns="http://www.w3.org/2000/svg" viewBox="0 0 705 705"><defs><style>.cls-1,.cls-4,.cls-5,.cls-8{fill:none;}.cls-2{fill:#fff;}.cls-3,.cls-6,.cls-7{fill:#7f70df;}.cls-3{opacity:0.3;}.cls-4,.cls-5,.cls-6,.cls-7,.cls-8{stroke:#7f70df;}.cls-4,.cls-6,.cls-7,.cls-8{stroke-miterlimit:10;}.cls-4,.cls-5{stroke-width:6px;}.cls-5{stroke-linecap:round;stroke-linejoin:round;}.cls-6,.cls-7{stroke-width:0.25px;}.cls-6{opacity:0.25;}.cls-7{opacity:0.4;}.cls-8{stroke-width:5px;}</style></defs><title>BabysittingCHECKED</title><g id="check"><path class="cls-1" d="M359.121,597.188a39,39,0,0,1-6.135-3.48,4.981,4.981,0,0,1-1.793-2.2,11.992,11.992,0,0,1-.3-3.146,3.912,3.912,0,0,1,.6-2.373,2.1,2.1,0,0,1,1.793-.791q1.477,0,1.846.861a13.478,13.478,0,0,1,.369,4.1v2.531h12.586V589.98a26.022,26.022,0,0,0-.369-5.168,8.355,8.355,0,0,0-2.109-3.586,12.119,12.119,0,0,0-4.993-3.111,23.286,23.286,0,0,0-7.893-1.178,21.624,21.624,0,0,0-8.209,1.441,9.588,9.588,0,0,0-5.01,4.1q-1.477,2.654-1.477,8.244a15.622,15.622,0,0,0,1.371,6.8q1.371,2.865,7.629,6.381,7.453,4.148,8.262,4.992.773.844.773,4.184a5.648,5.648,0,0,1-.6,3.182,2.548,2.548,0,0,1-2.109.756,1.841,1.841,0,0,1-1.881-1.125A15.534,15.534,0,0,1,351,611v-2.953H338.414v2.25q0,5.836,1.441,8.719a10.119,10.119,0,0,0,5.291,4.57,23,23,0,0,0,9.264,1.688,20.192,20.192,0,0,0,8.35-1.564,9.816,9.816,0,0,0,4.939-4.465q1.477-2.9,1.477-8.6,0-5.1-1.934-7.77T359.121,597.188Z" transform="translate(2.5 3.5)"/><path class="cls-1" d="M385.851,422.709a14.965,14.965,0,0,1,3.107-3.341,27.285,27.285,0,0,1,6.784-5.61l-2.214-1.868-9.046,9.687Z" transform="translate(2.5 3.5)"/><path class="cls-1" d="M407.672,611.25V586.289H411.5v-7.383h-3.832v-7.348H393.434v7.348h-3.059v7.383h3.059v23.7a59.211,59.211,0,0,0,.387,8.842,6.191,6.191,0,0,0,1.969,3.34,7.384,7.384,0,0,0,3.656,1.863,40.964,40.964,0,0,0,6.926.4h5.73V616.91q-3.48,0-3.955-.527T407.672,611.25Z" transform="translate(2.5 3.5)"/><rect class="cls-1" x="375.473" y="571.016" width="14.625" height="7.418"/><rect class="cls-1" x="375.473" y="581.281" width="14.625" height="46.652"/><path class="cls-1" d="M429.61,611.25V586.289h3.832v-7.383H429.61v-7.348H415.372v7.348h-3.059v7.383h3.059v23.7a59.211,59.211,0,0,0,.387,8.842,6.191,6.191,0,0,0,1.969,3.34,7.384,7.384,0,0,0,3.656,1.863,40.964,40.964,0,0,0,6.926.4h5.73V616.91q-3.48,0-3.955-.527T429.61,611.25Z" transform="translate(2.5 3.5)"/><rect class="cls-1" x="439.071" y="571.016" width="14.625" height="7.418"/><path class="cls-1" d="M388.958,419.368a27.931,27.931,0,0,0-6.881,18.436c0,15.284,12.109,27.674,27.045,27.674s27.045-12.39,27.045-27.674-12.109-27.674-27.045-27.674a26.44,26.44,0,0,0-13.381,3.628l.173.146A80.855,80.855,0,0,0,388.958,419.368Zm20.793,3.341a15.1,15.1,0,1,1-15.1,15.1A15.1,15.1,0,0,1,409.751,422.709Z" transform="translate(2.5 3.5)"/><path class="cls-1" d="M511.981,581.306a11.561,11.561,0,0,0-3.92-3.276,10.794,10.794,0,0,0-4.869-1.092q-4.887,0-7.277,2.918t-2.391,9.563v16.945a21.843,21.843,0,0,0,.914,7.154,7.913,7.913,0,0,0,3.393,4.061,11.737,11.737,0,0,0,6.311,1.547,10.874,10.874,0,0,0,4.236-.846,13.5,13.5,0,0,0,3.85-2.5v3.52a9.6,9.6,0,0,1-.527,3.977,2.232,2.232,0,0,1-2.145.95q-2.25,0-2.25-3.094H493.524q.141,6.75,4.254,9.053t10.9,2.3a28.605,28.605,0,0,0,9.158-1.248,12.726,12.726,0,0,0,5.678-3.621,9.373,9.373,0,0,0,2.373-4.5,79.405,79.405,0,0,0,.334-9.4v-35.93H513Zm0,23.3a18.56,18.56,0,0,1-.422,5.1,1.743,1.743,0,0,1-1.828,1.125,1.566,1.566,0,0,1-1.617-.932,13.132,13.132,0,0,1-.387-4.061v-15.68a10.058,10.058,0,0,1,.51-3.955,1.794,1.794,0,0,1,1.74-1,1.575,1.575,0,0,1,1.635.879,13.5,13.5,0,0,1,.369,4.078Z" transform="translate(2.5 3.5)"/><rect class="cls-1" x="439.071" y="581.281" width="14.625" height="46.652"/><path class="cls-1" d="M300.55,580.418a7.282,7.282,0,0,0-3.27-2.566,12.848,12.848,0,0,0-5.062-.914,11.012,11.012,0,0,0-4.693,1,11.664,11.664,0,0,0-3.92,3.048V567.516H269.4v56.918h13.289l.914-3.524a12.373,12.373,0,0,0,3.955,3.276,10.191,10.191,0,0,0,4.658,1.092,9.926,9.926,0,0,0,6.012-1.846,8.015,8.015,0,0,0,3.217-4.359,31.384,31.384,0,0,0,.686-7.646V590.4a60.7,60.7,0,0,0-.229-6.75A7.765,7.765,0,0,0,300.55,580.418Zm-12.621,30.27a19.95,19.95,0,0,1-.4,5.238,1.661,1.661,0,0,1-1.74,1.09,1.7,1.7,0,0,1-1.74-1.055,15.9,15.9,0,0,1-.439-4.816V591.035a17.68,17.68,0,0,1,.387-4.869,1.616,1.616,0,0,1,1.688-.967,1.755,1.755,0,0,1,1.793,1.107,15.226,15.226,0,0,1,.457,4.729Z" transform="translate(2.5 3.5)"/><path class="cls-1" d="M283.959,338.429l10.114,8.366,3.967-4.244C294.151,341.519,289.5,340.178,283.959,338.429Z" transform="translate(2.5 3.5)"/><path class="cls-1" d="M259.382,579.486q-3.657-2.549-10.863-2.549a18.854,18.854,0,0,0-9.773,2.25,11.579,11.579,0,0,0-5.01,5.186,22.069,22.069,0,0,0-1.248,8.35v3.129h13.324v-4.887a18.927,18.927,0,0,1,.352-4.834q.351-.932,1.793-.932a1.871,1.871,0,0,1,1.811,1.107,13.032,13.032,0,0,1,.545,4.764,9.81,9.81,0,0,1-.492,3.867q-.493.949-7.488,3.691-6.539,2.531-8.191,4.43t-1.652,7.137v3.832q0,7.066,3.111,9.158a12,12,0,0,0,6.838,2.092,8.664,8.664,0,0,0,8.262-5v4.157h13.816V601.02q0-11.566-.738-15.275A9.933,9.933,0,0,0,259.382,579.486Zm-9.07,32.361a13.359,13.359,0,0,1-.4,4.342,1.741,1.741,0,0,1-1.74.826,1.856,1.856,0,0,1-1.881-1.055,14.133,14.133,0,0,1-.475-4.676,16.6,16.6,0,0,1,.545-4.852q.545-1.687,3.955-4.184Z" transform="translate(2.5 3.5)"/><path class="cls-1" d="M219.445,593.689q4.605-1.053,6.17-3.021t1.564-6.956q0-7.378-2.215-10.7a10.512,10.512,0,0,0-5.818-4.409,38.977,38.977,0,0,0-10.6-1.089H193.781v56.918H210.9q8.93,0,11.813-1.021a7.109,7.109,0,0,0,4.2-3.8q1.318-2.779,1.318-8.548V605.79q0-5.558-1.828-8.249T219.445,593.689Zm-6.012,15.7q0,3.445-.861,4.324t-3.99.984V598.77q3.3.105,4.078.879t.773,4.43Zm-.6-20.584q-.6,1.072-2.777,1.072-.527,0-1.477.035V577.254a11.408,11.408,0,0,1,3.076.316,2.361,2.361,0,0,1,1.283,1.354,9.917,9.917,0,0,1,.492,3.744Q213.433,587.73,212.835,588.8Z" transform="translate(2.5 3.5)"/><path class="cls-1" d="M421.072,113.261s-49.059,12.579-74.846-18.24c0,0,42.769,65.412,16.353,139.629L211,235.279s.037,81.428,87.272,107.023L464.849,164.1C457.371,160.347,424.416,142.235,421.072,113.261Z" transform="translate(2.5 3.5)"/><path class="cls-1" d="M321.416,609.281l-4.667-31.5H303.855l7.777,39.023q.88,4.324.88,4.887a1.412,1.412,0,0,1-.951,1.494,16.429,16.429,0,0,1-4.261.334v7.453h8.612a29.651,29.651,0,0,0,8.595-.9,8.73,8.73,0,0,0,4.2-2.795,11.7,11.7,0,0,0,2.162-4.816q.65-2.918,1.613-10.933l4.059-33.751h-12.85Z" transform="translate(2.5 3.5)"/><path class="cls-1" d="M485.4,578.66a9.766,9.766,0,0,0-5.977-1.723,10.141,10.141,0,0,0-5.15,1.285,10.653,10.653,0,0,0-3.779,3.856l.246-4.3H456.293v46.652h14.2V592.9a30.493,30.493,0,0,1,.387-6.486,1.757,1.757,0,0,1,1.9-1.213q1.441,0,1.758,1.055a30.052,30.052,0,0,1,.316,5.871v32.309h14.2v-32.7a39.7,39.7,0,0,0-.668-8.736A7.662,7.662,0,0,0,485.4,578.66Z" transform="translate(2.5 3.5)"/><path class="cls-2" d="M246.357,606.434a16.6,16.6,0,0,0-.545,4.852,14.133,14.133,0,0,0,.475,4.676,1.856,1.856,0,0,0,1.881,1.055,1.741,1.741,0,0,0,1.74-.826,13.359,13.359,0,0,0,.4-4.342v-9.6Q246.9,604.746,246.357,606.434Z" transform="translate(2.5 3.5)"/><path class="cls-2" d="M211.658,577.57a11.408,11.408,0,0,0-3.076-.316V589.91q.949-.035,1.477-.035,2.18,0,2.777-1.072t.6-6.135a9.917,9.917,0,0,0-.492-3.744A2.361,2.361,0,0,0,211.658,577.57Z" transform="translate(2.5 3.5)"/><path class="cls-2" d="M285.679,585.2a1.616,1.616,0,0,0-1.687.967,17.68,17.68,0,0,0-.387,4.869v20.109a15.9,15.9,0,0,0,.439,4.816,1.7,1.7,0,0,0,1.74,1.055,1.661,1.661,0,0,0,1.74-1.09,19.95,19.95,0,0,0,.4-5.238V591.035a15.226,15.226,0,0,0-.457-4.729A1.755,1.755,0,0,0,285.679,585.2Z" transform="translate(2.5 3.5)"/><path class="cls-2" d="M509.977,585.2a1.794,1.794,0,0,0-1.74,1,10.058,10.058,0,0,0-.51,3.955v15.68a13.132,13.132,0,0,0,.387,4.061,1.566,1.566,0,0,0,1.617.932,1.743,1.743,0,0,0,1.828-1.125,18.56,18.56,0,0,0,.422-5.1V590.156a13.5,13.5,0,0,0-.369-4.078A1.575,1.575,0,0,0,509.977,585.2Z" transform="translate(2.5 3.5)"/><path class="cls-2" d="M-.5-1.5v700h700V-1.5ZM228.234,611.066q0,5.77-1.318,8.548a7.109,7.109,0,0,1-4.2,3.8q-2.883,1.021-11.812,1.021H193.781V567.516h14.766a38.977,38.977,0,0,1,10.6,1.089,10.512,10.512,0,0,1,5.818,4.409q2.215,3.321,2.215,10.7,0,4.989-1.564,6.956t-6.17,3.021q5.133,1.162,6.961,3.852t1.828,8.249Zm36.281,13.367H250.7v-4.157a8.664,8.664,0,0,1-8.262,5,12,12,0,0,1-6.838-2.092q-3.111-2.092-3.111-9.158V610.2q0-5.238,1.652-7.137t8.191-4.43q7-2.742,7.488-3.691a9.81,9.81,0,0,0,.492-3.867,13.032,13.032,0,0,0-.545-4.764,1.871,1.871,0,0,0-1.811-1.107q-1.442,0-1.793.932a18.927,18.927,0,0,0-.352,4.834v4.887H232.488v-3.129a22.069,22.069,0,0,1,1.248-8.35,11.579,11.579,0,0,1,5.01-5.186,18.854,18.854,0,0,1,9.773-2.25q7.206,0,10.863,2.549a9.933,9.933,0,0,1,4.395,6.258q.738,3.709.738,15.275Zm37.617-13.008a31.384,31.384,0,0,1-.686,7.646,8.015,8.015,0,0,1-3.217,4.359,9.926,9.926,0,0,1-6.012,1.846,10.191,10.191,0,0,1-4.658-1.092,12.373,12.373,0,0,1-3.955-3.276l-.914,3.524H269.4V567.516h14.2v13.474a11.664,11.664,0,0,1,3.92-3.048,11.012,11.012,0,0,1,4.693-1,12.848,12.848,0,0,1,5.063.914,7.282,7.282,0,0,1,3.27,2.566,7.765,7.765,0,0,1,1.354,3.234,60.7,60.7,0,0,1,.229,6.75Zm30.351.106q-.963,8.016-1.613,10.933a11.7,11.7,0,0,1-2.162,4.816,8.73,8.73,0,0,1-4.2,2.795,29.651,29.651,0,0,1-8.595.9H307.3V623.52a16.429,16.429,0,0,0,4.261-.334,1.412,1.412,0,0,0,.951-1.494q0-.562-.88-4.887l-7.777-39.023h12.894l4.667,31.5,2.276-31.5h12.85Zm35.217,7.716a9.816,9.816,0,0,1-4.939,4.465,20.192,20.192,0,0,1-8.35,1.564,23,23,0,0,1-9.264-1.687,10.119,10.119,0,0,1-5.291-4.57q-1.442-2.883-1.441-8.719v-2.25H351V611a15.534,15.534,0,0,0,.475,4.887,1.841,1.841,0,0,0,1.881,1.125,2.548,2.548,0,0,0,2.109-.756,5.648,5.648,0,0,0,.6-3.182q0-3.34-.773-4.184-.809-.844-8.262-4.992-6.259-3.516-7.629-6.381a15.622,15.622,0,0,1-1.371-6.8q0-5.59,1.477-8.244a9.588,9.588,0,0,1,5.01-4.1,21.624,21.624,0,0,1,8.209-1.441,23.286,23.286,0,0,1,7.893,1.178,12.119,12.119,0,0,1,4.993,3.111,8.355,8.355,0,0,1,2.109,3.586,26.022,26.022,0,0,1,.369,5.168v2.707H355.5v-2.531a13.478,13.478,0,0,0-.369-4.1q-.369-.861-1.846-.861a2.1,2.1,0,0,0-1.793.791,3.912,3.912,0,0,0-.6,2.373,11.992,11.992,0,0,0,.3,3.146,4.981,4.981,0,0,0,1.793,2.2,39,39,0,0,0,6.135,3.48q6.188,3.023,8.122,5.7t1.934,7.77Q369.176,616.348,367.7,619.248Zm19.9,5.186H372.973V577.781H387.6Zm0-49.5H372.973v-7.418H387.6Zm24.5,49.5h-5.73a40.964,40.964,0,0,1-6.926-.4,7.384,7.384,0,0,1-3.656-1.863,6.191,6.191,0,0,1-1.969-3.34,59.211,59.211,0,0,1-.387-8.842v-23.7h-3.059v-7.383h3.059v-7.348h14.238v7.348H411.5v7.383h-3.832V611.25q0,4.605.475,5.133t3.955.527Zm21.938,0h-5.73a40.964,40.964,0,0,1-6.926-.4,7.384,7.384,0,0,1-3.656-1.863,6.191,6.191,0,0,1-1.969-3.34,59.211,59.211,0,0,1-.387-8.842v-23.7h-3.059v-7.383h3.059v-7.348H429.61v7.348h3.832v7.383H429.61V611.25q0,4.605.475,5.133t3.955.527Zm17.156,0H436.571V577.781H451.2Zm0-49.5H436.571v-7.418H451.2Zm37.863,49.5h-14.2V592.125a30.052,30.052,0,0,0-.316-5.871q-.316-1.055-1.758-1.055a1.757,1.757,0,0,0-1.9,1.213,30.493,30.493,0,0,0-.387,6.486v31.535h-14.2V577.781h14.449l-.246,4.3a10.653,10.653,0,0,1,3.779-3.856,10.141,10.141,0,0,1,5.15-1.285,9.766,9.766,0,0,1,5.977,1.723A7.662,7.662,0,0,1,488.391,583a39.7,39.7,0,0,1,.668,8.736Zm37.16-10.723a79.405,79.405,0,0,1-.334,9.4,9.373,9.373,0,0,1-2.373,4.5,12.726,12.726,0,0,1-5.678,3.621,28.605,28.605,0,0,1-9.158,1.248q-6.785,0-10.9-2.3t-4.254-9.053h13.781q0,3.094,2.25,3.094a2.232,2.232,0,0,0,2.145-.95,9.6,9.6,0,0,0,.527-3.977v-3.52a13.5,13.5,0,0,1-3.85,2.5,10.874,10.874,0,0,1-4.236.846,11.737,11.737,0,0,1-6.311-1.547,7.913,7.913,0,0,1-3.393-4.061,21.843,21.843,0,0,1-.914-7.154V589.418q0-6.645,2.391-9.562t7.277-2.918a10.794,10.794,0,0,1,4.869,1.092,11.561,11.561,0,0,1,3.92,3.276l1.02-3.524h13.219ZM653.5,133.5,393.528,411.89l2.214,1.868a26.44,26.44,0,0,1,13.381-3.628c14.937,0,27.045,12.39,27.045,27.674s-12.109,27.674-27.045,27.674-27.045-12.39-27.045-27.674a27.931,27.931,0,0,1,6.881-18.436,14.965,14.965,0,0,0-3.107,3.341l-1.369-1.132L286.5,526.5s-25,28-59,0l-157-214s-10-18,5.5-33.5l55.5-40.5s18-10,33,4l99,137,30.573-32.706-10.114-8.366c5.539,1.749,10.192,3.09,14.081,4.122l.232-.248C211.037,316.708,211,235.279,211,235.279l151.579-.629C389,160.433,346.226,95.021,346.226,95.021c25.787,30.819,74.846,18.24,74.846,18.24,3.343,28.974,36.3,47.086,43.776,50.842L564.5,57.5s15-18,36-7l53,50S665.5,115.5,653.5,133.5Z" transform="translate(2.5 3.5)"/><path class="cls-2" d="M208.582,598.77V614.7q3.129-.105,3.99-.984t.861-4.324v-5.309q0-3.656-.773-4.43T208.582,598.77Z" transform="translate(2.5 3.5)"/><circle class="cls-2" cx="412.251" cy="441.304" r="15.095"/><path class="cls-2" d="M388.958,419.368a80.855,80.855,0,0,1,6.956-5.464l-.173-.146A27.285,27.285,0,0,0,388.958,419.368Z" transform="translate(2.5 3.5)"/><path class="cls-3" d="M291.507,452.9a15.1,15.1,0,1,1,15.1-15.1A15.095,15.095,0,0,1,291.507,452.9Z" transform="translate(2.5 3.5)"/><path class="cls-2" d="M600.5,50.5c-21-11-36,7-36,7L464.849,164.1c.963.484,1.509.732,1.509.732-10.063,37.738,22.643,71.7,22.643,71.7-3.06,58.149-36.8,86.508-70.634,100.306a.573.573,0,0,1,.171.98l-56.588,47.267c-2.115-1.723-7.862-6.9-8.749-7.6l37.683-30.26a174.765,174.765,0,0,0,25.153-9.463c-34.912,13.56-69.18,11.978-69.18,11.978a215.53,215.53,0,0,1-32.582-3.585,11.948,11.948,0,0,1,3.942,2.181l75.312,63.545L653.5,133.5c12-18,0-33,0-33Z" transform="translate(2.5 3.5)"/><path class="cls-3" d="M600.5,50.5c-21-11-36,7-36,7L464.849,164.1c.963.484,1.509.732,1.509.732-10.063,37.738,22.643,71.7,22.643,71.7-3.06,58.149-36.8,86.508-70.634,100.306a.573.573,0,0,1,.171.98l-56.588,47.267c-2.115-1.723-7.862-6.9-8.749-7.6l37.683-30.26a174.765,174.765,0,0,0,25.153-9.463c-34.912,13.56-69.18,11.978-69.18,11.978a215.53,215.53,0,0,1-32.582-3.585,11.948,11.948,0,0,1,3.942,2.181l75.312,63.545L653.5,133.5c12-18,0-33,0-33Z" transform="translate(2.5 3.5)"/><path class="cls-2" d="M263.5,379.5l-99-137c-15-14-33-4-33-4L76,279c-15.5,15.5-5.5,33.5-5.5,33.5l157,214c34,28,59,0,59,0l97.982-104.923-90.409-74.783Zm27.378,85.979c-14.937,0-27.045-12.39-27.045-27.674s12.109-27.674,27.045-27.674,27.045,12.39,27.045,27.674S305.815,465.479,290.878,465.479Zm51.149-79.012,9.182,7.6-35.8,29.9a25.708,25.708,0,0,0-7.215-7.819,1.392,1.392,0,0,1-.066-2.221Z" transform="translate(2.5 3.5)"/><path class="cls-3" d="M263.5,379.5l-99-137c-15-14-33-4-33-4L76,279c-15.5,15.5-5.5,33.5-5.5,33.5l157,214c34,28,59,0,59,0l97.982-104.923-90.409-74.783Zm27.378,85.979c-14.937,0-27.045-12.39-27.045-27.674s12.109-27.674,27.045-27.674,27.045,12.39,27.045,27.674S305.815,465.479,290.878,465.479Zm51.149-79.012,9.182,7.6-35.8,29.9a25.708,25.708,0,0,0-7.215-7.819,1.392,1.392,0,0,1-.066-2.221Z" transform="translate(2.5 3.5)"/><path class="cls-2" d="M298.272,342.3l-.232.248c5.155,1.367,8.964,2.189,11.677,2.682C305.739,344.365,301.937,343.377,298.272,342.3Z" transform="translate(2.5 3.5)"/><path class="cls-3" d="M298.272,342.3l-.232.248c5.155,1.367,8.964,2.189,11.677,2.682C305.739,344.365,301.937,343.377,298.272,342.3Z" transform="translate(2.5 3.5)"/><circle class="cls-2" cx="294.007" cy="441.304" r="15.095"/><circle class="cls-3" cx="294.007" cy="441.304" r="15.095"/><path class="cls-2" d="M309.718,345.233q2.244.489,4.555.932a12.268,12.268,0,0,0-2.1-.524C311.484,345.539,310.66,345.4,309.718,345.233Z" transform="translate(2.5 3.5)"/><path class="cls-3" d="M309.718,345.233q2.244.489,4.555.932a12.268,12.268,0,0,0-2.1-.524C311.484,345.539,310.66,345.4,309.718,345.233Z" transform="translate(2.5 3.5)"/><path class="cls-2" d="M417.936,336.873c-.58.279-1.222.582-1.9.9q1.165-.453,2.331-.928A.543.543,0,0,0,417.936,336.873Z" transform="translate(2.5 3.5)"/><path class="cls-3" d="M417.936,336.873c-.58.279-1.222.582-1.9.9q1.165-.453,2.331-.928A.543.543,0,0,0,417.936,336.873Z" transform="translate(2.5 3.5)"/></g><g id="carut"><path class="cls-4" d="M348.173,97.255c8.063,14.037,37.366,71.89,14.406,136.4l-149.66.621a1.856,1.856,0,0,0-1.852,1.952c.781,14.7,10.666,107.893,135.788,112.527,0,0,135.855,6.29,142.145-113.213,0,0-32.088-33.322-22.917-70.628a1.351,1.351,0,0,0-.708-1.544c-6.246-3.073-40.262-21.069-44.2-50.315a.708.708,0,0,0-.858-.609c-6.078,1.379-47.224,9.556-71.564-15.615A.362.362,0,0,0,348.173,97.255Z" transform="translate(2.5 3.5)"/><line class="cls-5" x1="362.981" y1="237.159" x2="488.984" y2="237.159"/><path class="cls-5" d="M466.358,163.836" transform="translate(2.5 3.5)"/><ellipse class="cls-5" cx="293.378" cy="440.304" rx="27.045" ry="27.674"/><circle class="cls-5" cx="294.007" cy="440.304" r="15.095"/><ellipse class="cls-5" cx="411.622" cy="440.304" rx="27.045" ry="27.674"/><circle class="cls-5" cx="412.251" cy="440.304" r="15.095"/><path class="cls-4" d="M283.959,337.429l101.891,84.281s1.258-2.516,10.063-8.805l-77.7-65.558a12.072,12.072,0,0,0-6.043-2.7C308.005,344.029,299.391,342.3,283.959,337.429Z" transform="translate(2.5 3.5)"/><path class="cls-4" d="M353.2,376.494l37.683-30.26a175.66,175.66,0,0,0,27.054-10.362.567.567,0,0,1,.6.951l-56.588,47.267C359.834,382.368,354.086,377.189,353.2,376.494Z" transform="translate(2.5 3.5)"/><path class="cls-4" d="M342.027,385.467l9.182,7.6-35.8,29.9a25.709,25.709,0,0,0-7.215-7.819,1.392,1.392,0,0,1-.066-2.221Z" transform="translate(2.5 3.5)"/><line class="cls-5" x1="423.572" y1="115.761" x2="365.079" y2="237.15"/><line class="cls-5" x1="366.232" y1="237.159" x2="468.858" y2="167.336"/></g><g id="shading"><path class="cls-6" d="M364,231l102-67s-38-16-45-52Z" transform="translate(2.5 3.5)"/><path class="cls-6" d="M489,234H213s-9,110,137,116C350,350,486,352,489,234Z" transform="translate(2.5 3.5)"/><path class="cls-7" d="M289,342l52,43-33,28,7,10,36-30,35,29,9-10-33-28,53-44-28,7-34,29-33-30S288,339,289,342Z" transform="translate(2.5 3.5)"/></g><g id="Border"><rect class="cls-8" x="2.5" y="2.5" width="700" height="700"/></g></svg>