<svg xmlns="http://www.w3.org/2000/svg" viewBox="0 0 705 705"><defs><style>.cls-1,.cls-3{fill:#fff;}.cls-2,.cls-4{fill:none;}.cls-3{stroke:#fff;}.cls-3,.cls-4{stroke-miterlimit:10;}.cls-4{stroke:#7f70df;stroke-width:5px;}.cls-5{font-size:72px;fill:#7f70df;font-family:Impact, Impact;}</style></defs><title>Cooking</title><g id="Layer_10" data-name="Layer 10"><rect class="cls-1" x="1.5" y="1.5" width="673" height="589"/></g><g id="check"><path class="cls-2" d="M428.266,580.178a9.766,9.766,0,0,0-5.977-1.723,10.141,10.141,0,0,0-5.15,1.285,10.653,10.653,0,0,0-3.779,3.856l.246-4.3H399.156v46.652h14.2V594.416a30.493,30.493,0,0,1,.387-6.486,1.757,1.757,0,0,1,1.9-1.213q1.441,0,1.758,1.055a30.052,30.052,0,0,1,.316,5.871v32.309h14.2v-32.7a39.7,39.7,0,0,0-.668-8.736A7.662,7.662,0,0,0,428.266,580.178Z" transform="translate(2.5 3.5)"/><rect class="cls-2" x="381.934" y="572.533" width="14.625" height="7.418"/><path class="cls-2" d="M454.844,582.823a11.561,11.561,0,0,0-3.92-3.276,10.794,10.794,0,0,0-4.869-1.092q-4.887,0-7.277,2.918t-2.391,9.563v16.945a21.843,21.843,0,0,0,.914,7.154,7.913,7.913,0,0,0,3.393,4.061A11.737,11.737,0,0,0,447,620.643a10.874,10.874,0,0,0,4.236-.846,13.5,13.5,0,0,0,3.85-2.5v3.52a9.6,9.6,0,0,1-.527,3.977,2.232,2.232,0,0,1-2.145.95q-2.25,0-2.25-3.094H436.387q.141,6.75,4.254,9.053t10.9,2.3a28.605,28.605,0,0,0,9.158-1.248,12.726,12.726,0,0,0,5.678-3.621,9.373,9.373,0,0,0,2.373-4.5,79.406,79.406,0,0,0,.334-9.4V579.3H455.863Zm0,23.3a18.56,18.56,0,0,1-.422,5.1,1.743,1.743,0,0,1-1.828,1.125,1.566,1.566,0,0,1-1.617-.932,13.132,13.132,0,0,1-.387-4.061v-15.68a10.058,10.058,0,0,1,.51-3.955,1.794,1.794,0,0,1,1.74-1,1.575,1.575,0,0,1,1.635.879,13.5,13.5,0,0,1,.369,4.078Z" transform="translate(2.5 3.5)"/><path class="cls-2" d="M497.247,128.484v.961l3.492-3.736C498.729,125.9,497.247,128.484,497.247,128.484Z" transform="translate(2.5 3.5)"/><path class="cls-2" d="M508.9,403.745s.9,13.449,14.346,13.449S536.7,401.055,536.7,401.055l-6.142-135.9-16.3,17.453Z" transform="translate(2.5 3.5)"/><rect class="cls-2" x="381.934" y="582.799" width="14.625" height="46.652"/><path class="cls-2" d="M259.586,570.366a23.737,23.737,0,0,0-19.318-.894,14.009,14.009,0,0,0-5.8,4.482,12.919,12.919,0,0,0-2.514,5.924,73.94,73.94,0,0,0-.422,9.229v16.629q0,8.367,1.371,12.533a11.453,11.453,0,0,0,5.59,6.521,21.811,21.811,0,0,0,10.723,2.355,18.9,18.9,0,0,0,10.529-2.781,12.807,12.807,0,0,0,5.52-6.479q1.247-3.7,1.248-12.534v-2.218h-14.8v7.154q0,4.688-.51,5.956a2.081,2.081,0,0,1-2.162,1.269,2.106,2.106,0,0,1-2.215-1.266,18.433,18.433,0,0,1-.492-5.414V584.4a19.774,19.774,0,0,1,.492-5.625,2.187,2.187,0,0,1,2.32-1.3,2.04,2.04,0,0,1,2.092,1.07q.475,1.069.475,5.385v9.893h14.8v-5.407q0-7.969-1.336-11.743A12.128,12.128,0,0,0,259.586,570.366Z" transform="translate(2.5 3.5)"/><polygon class="cls-2" points="378.102 582.799 366.166 582.799 361.736 596.427 361.719 572.533 347.516 572.533 347.516 629.451 361.719 629.451 361.736 609.118 366.166 629.451 379.824 629.451 372.336 601.379 378.102 582.799"/><path class="cls-2" d="M300.3,583.588a13.177,13.177,0,0,0-5.291-3.709,21.355,21.355,0,0,0-8.209-1.424,17.819,17.819,0,0,0-9.352,2.215,11.679,11.679,0,0,0-5.062,5.871,29.242,29.242,0,0,0-1.406,10.16v11.953a38.063,38.063,0,0,0,.773,8.912,12.351,12.351,0,0,0,2.584,5.063,10.875,10.875,0,0,0,5.08,3.129,26.647,26.647,0,0,0,7.98,1.037,21.3,21.3,0,0,0,7.471-1.213,12.231,12.231,0,0,0,5.326-3.762,12.954,12.954,0,0,0,2.707-5.484,48.217,48.217,0,0,0,.633-9.229V595.682a29.285,29.285,0,0,0-.686-7.383A13.125,13.125,0,0,0,300.3,583.588Zm-10.969,30.094a11.929,11.929,0,0,1-.4,3.938,1.92,1.92,0,0,1-3.322-.088,13.639,13.639,0,0,1-.422-4.307V592.166a14.263,14.263,0,0,1,.422-4.518,1.665,1.665,0,0,1,1.688-.932,1.6,1.6,0,0,1,1.652.932,15.5,15.5,0,0,1,.387,4.518Z" transform="translate(2.5 3.5)"/><path class="cls-2" d="M337.105,583.588a13.177,13.177,0,0,0-5.291-3.709,21.355,21.355,0,0,0-8.209-1.424,17.819,17.819,0,0,0-9.352,2.215,11.679,11.679,0,0,0-5.062,5.871,29.242,29.242,0,0,0-1.406,10.16v11.953a38.063,38.063,0,0,0,.773,8.912,12.351,12.351,0,0,0,2.584,5.063,10.875,10.875,0,0,0,5.08,3.129,26.647,26.647,0,0,0,7.98,1.037,21.3,21.3,0,0,0,7.471-1.213A12.231,12.231,0,0,0,337,621.82a12.954,12.954,0,0,0,2.707-5.484,48.217,48.217,0,0,0,.633-9.229V595.682a29.285,29.285,0,0,0-.686-7.383A13.125,13.125,0,0,0,337.105,583.588Zm-10.969,30.094a11.929,11.929,0,0,1-.4,3.938,1.92,1.92,0,0,1-3.322-.088,13.639,13.639,0,0,1-.422-4.307V592.166a14.263,14.263,0,0,1,.422-4.518,1.665,1.665,0,0,1,1.688-.932,1.6,1.6,0,0,1,1.652.932,15.5,15.5,0,0,1,.387,4.518Z" transform="translate(2.5 3.5)"/><path class="cls-2" d="M218.233,316.858c3.881-20.248,15.073-40.4,15.073-40.4s4.718-14.153-2.359-25.947-7.076-21.229-7.076-21.229,0-9.435,7.076-25.947c0,0,9.435-25.947,49.534-25.947s66.046,35.382,66.046,35.382,29.107,1.388,49.071,25.41l39.374-42.121A154.538,154.538,0,0,0,156.729,237.3a28.017,28.017,0,0,1,7.771,5.2Z" transform="translate(2.5 3.5)"/><path class="cls-2" d="M346.528,276.462c0-22.146-19.009-40.1-42.458-40.1s-42.458,17.953-42.458,40.1,19.009,40.1,42.458,40.1a43.848,43.848,0,0,0,26.409-8.713l9.9-10.591A38.268,38.268,0,0,0,346.528,276.462ZM319.4,269.385a8.256,8.256,0,1,1,8.256-8.256A8.256,8.256,0,0,1,319.4,269.385Z" transform="translate(2.5 3.5)"/><path class="cls-1" d="M452.84,586.717a1.794,1.794,0,0,0-1.74,1,10.058,10.058,0,0,0-.51,3.955v15.68a13.132,13.132,0,0,0,.387,4.061,1.566,1.566,0,0,0,1.617.932,1.743,1.743,0,0,0,1.828-1.125,18.56,18.56,0,0,0,.422-5.1V591.674a13.5,13.5,0,0,0-.369-4.078A1.575,1.575,0,0,0,452.84,586.717Z" transform="translate(2.5 3.5)"/><path class="cls-1" d="M324.1,586.717a1.665,1.665,0,0,0-1.687.932,14.263,14.263,0,0,0-.422,4.518v21.059a13.639,13.639,0,0,0,.422,4.307,1.92,1.92,0,0,0,3.322.088,11.929,11.929,0,0,0,.4-3.937V592.166a15.5,15.5,0,0,0-.387-4.518A1.6,1.6,0,0,0,324.1,586.717Z" transform="translate(2.5 3.5)"/><path class="cls-1" d="M287.289,586.717a1.665,1.665,0,0,0-1.687.932,14.263,14.263,0,0,0-.422,4.518v21.059a13.639,13.639,0,0,0,.422,4.307,1.92,1.92,0,0,0,3.322.088,11.929,11.929,0,0,0,.4-3.937V592.166a15.5,15.5,0,0,0-.387-4.518A1.6,1.6,0,0,0,287.289,586.717Z" transform="translate(2.5 3.5)"/><path class="cls-1" d="M-.5-1.5v700h700V-1.5ZM266.512,593.818h-14.8v-9.893q0-4.314-.475-5.385a2.04,2.04,0,0,0-2.092-1.07,2.187,2.187,0,0,0-2.32,1.3,19.774,19.774,0,0,0-.492,5.625v26.438a18.433,18.433,0,0,0,.492,5.414,2.106,2.106,0,0,0,2.215,1.266,2.081,2.081,0,0,0,2.162-1.269q.509-1.269.51-5.956v-7.154h14.8v2.218q0,8.837-1.248,12.534a12.807,12.807,0,0,1-5.52,6.479,18.9,18.9,0,0,1-10.529,2.781,21.811,21.811,0,0,1-10.723-2.355,11.453,11.453,0,0,1-5.59-6.521q-1.371-4.166-1.371-12.533V589.107a73.94,73.94,0,0,1,.422-9.229,12.919,12.919,0,0,1,2.514-5.924,14.009,14.009,0,0,1,5.8-4.482,23.737,23.737,0,0,1,19.318.894,12.128,12.128,0,0,1,5.59,6.3q1.336,3.773,1.336,11.743Zm37.02,13.289a48.217,48.217,0,0,1-.633,9.229,12.954,12.954,0,0,1-2.707,5.484,12.231,12.231,0,0,1-5.326,3.762,21.3,21.3,0,0,1-7.471,1.213,26.647,26.647,0,0,1-7.98-1.037,10.875,10.875,0,0,1-5.08-3.129,12.351,12.351,0,0,1-2.584-5.062,38.063,38.063,0,0,1-.773-8.912V596.7a29.242,29.242,0,0,1,1.406-10.16,11.679,11.679,0,0,1,5.063-5.871,17.819,17.819,0,0,1,9.352-2.215,21.355,21.355,0,0,1,8.209,1.424,12.867,12.867,0,0,1,7.84,8.42,29.285,29.285,0,0,1,.686,7.383Zm36.809,0a48.217,48.217,0,0,1-.633,9.229A12.954,12.954,0,0,1,337,621.82a12.231,12.231,0,0,1-5.326,3.762,21.3,21.3,0,0,1-7.471,1.213,26.647,26.647,0,0,1-7.98-1.037,10.875,10.875,0,0,1-5.08-3.129,12.351,12.351,0,0,1-2.584-5.062,38.063,38.063,0,0,1-.773-8.912V596.7a29.242,29.242,0,0,1,1.406-10.16,11.679,11.679,0,0,1,5.063-5.871,17.819,17.819,0,0,1,9.352-2.215,21.355,21.355,0,0,1,8.209,1.424,12.867,12.867,0,0,1,7.84,8.42,29.285,29.285,0,0,1,.686,7.383Zm23.326,18.844-4.43-20.333-.018,20.333h-14.2V569.033h14.2l.018,23.894,4.43-13.628H375.6l-5.766,18.58,7.488,28.072Zm30.393,0H379.434V579.3h14.625Zm0-49.5H379.434v-7.418h14.625Zm37.863,49.5h-14.2V593.643a30.052,30.052,0,0,0-.316-5.871q-.316-1.055-1.758-1.055a1.757,1.757,0,0,0-1.9,1.213,30.493,30.493,0,0,0-.387,6.486v31.535h-14.2V579.3h14.449l-.246,4.3a10.653,10.653,0,0,1,3.779-3.856,10.141,10.141,0,0,1,5.15-1.285,9.766,9.766,0,0,1,5.977,1.723,7.662,7.662,0,0,1,2.988,4.342,39.7,39.7,0,0,1,.668,8.736Zm37.16-10.723a79.406,79.406,0,0,1-.334,9.4,9.373,9.373,0,0,1-2.373,4.5,12.726,12.726,0,0,1-5.678,3.621A28.605,28.605,0,0,1,451.539,634q-6.785,0-10.9-2.3t-4.254-9.053h13.781q0,3.094,2.25,3.094a2.232,2.232,0,0,0,2.145-.95,9.6,9.6,0,0,0,.527-3.977v-3.52a13.5,13.5,0,0,1-3.85,2.5,10.874,10.874,0,0,1-4.236.846,11.737,11.737,0,0,1-6.311-1.547,7.913,7.913,0,0,1-3.393-4.061,21.843,21.843,0,0,1-.914-7.154V590.936q0-6.645,2.391-9.562t7.277-2.918a10.794,10.794,0,0,1,4.869,1.092,11.561,11.561,0,0,1,3.92,3.276l1.02-3.524h13.219ZM653.5,133.5,530.556,265.154l6.142,135.9s0,16.139-13.449,16.139S508.9,403.745,508.9,403.745l5.354-121.138L286.5,526.5s-25,28-59,0l-157-214s-10-18,5.5-33.5l55.5-40.5s12.424-6.889,25.229-1.2a154.538,154.538,0,0,1,278.244-41.239l62.274-66.619v-.961s1.482-2.587,3.492-2.775L564.5,57.5s15-18,36-7l53,50S665.5,115.5,653.5,133.5Z" transform="translate(2.5 3.5)"/><path class="cls-1" d="M346.528,212.775s-25.947-35.382-66.046-35.382-49.534,25.947-49.534,25.947c-7.076,16.511-7.076,25.947-7.076,25.947s0,9.435,7.076,21.229,2.359,25.947,2.359,25.947-11.192,20.148-15.073,40.4L263.5,379.5l66.979-71.652a43.848,43.848,0,0,1-26.409,8.713c-23.449,0-42.458-17.953-42.458-40.1s19.009-40.1,42.458-40.1,42.458,17.953,42.458,40.1a38.268,38.268,0,0,1-6.148,20.8L395.6,238.185C375.634,214.162,346.528,212.775,346.528,212.775Z" transform="translate(2.5 3.5)"/><circle class="cls-3" cx="321.902" cy="264.63" r="8.256"/><path class="cls-1" d="M600.5,50.5c-21-11-36,7-36,7l-63.761,68.209c1.118-.1,2.4.531,3.681,2.775v63.66s0,2.69,3.586,2.69a4.474,4.474,0,0,0,4.483-2.69v-63.66s3.586-6.276,6.276,0v63.66s1.793,3.586,4.483,3.586,4.483-2.69,4.483-2.69V128.484s3.586-6.276,6.276,0V193.04s1.793,3.586,4.483,2.69c0,0,3.586,0,3.586-3.586v-63.66s4.483-6.276,7.173,0v91.455a27.724,27.724,0,0,1-19.726,22.415l1.031,22.8L653.5,133.5c12-18,0-33,0-33Z" transform="translate(2.5 3.5)"/><path class="cls-1" d="M497.247,218.146v-88.7l-62.274,66.619A154.467,154.467,0,1,1,156.729,237.3c-12.806-5.692-25.229,1.2-25.229,1.2L76,279c-15.5,15.5-5.5,33.5-5.5,33.5l157,214c34,28,59,0,59,0L514.257,282.607l1.819-41.15S500.834,239.664,497.247,218.146Z" transform="translate(2.5 3.5)"/><path class="cls-1" d="M330.479,307.848,263.5,379.5l-45.267-62.642c-1.753,9.145-2.015,18.311.921,25.65,9.435,23.588,30.664,37.74,47.176,40.1s44.817,7.076,66.046-7.076,25.947-33.023,33.023-44.817,9.435-9.435,9.435-9.435c21.229-9.435,33.023-21.229,35.382-30.664s0-23.588,0-23.588A75.534,75.534,0,0,0,395.6,238.185l-55.219,59.072A41.128,41.128,0,0,1,330.479,307.848Z" transform="translate(2.5 3.5)"/></g><g id="Border"><rect class="cls-4" x="2.5" y="2.5" width="700" height="700"/></g><g id="Layer_7" data-name="Layer 7"><circle class="cls-4" cx="307.749" cy="283.5" r="154.5"/><path class="cls-2" d="M230.948,203.34s9.435-25.947,49.534-25.947,66.046,35.382,66.046,35.382,49.534,2.359,63.687,54.252c0,0,2.359,14.153,0,23.588s-14.153,21.229-35.382,30.664c0,0-2.359-2.359-9.435,9.435s-11.794,30.664-33.023,44.817-49.534,9.435-66.046,7.076-37.74-16.511-47.176-40.1,14.153-66.046,14.153-66.046,4.718-14.153-2.359-25.947-7.076-21.229-7.076-21.229S223.871,219.851,230.948,203.34Z" transform="translate(2.5 3.5)"/><ellipse class="cls-2" cx="306.57" cy="279.962" rx="42.458" ry="40.099"/><circle class="cls-2" cx="321.902" cy="264.63" r="8.256"/><path class="cls-4" d="M536.7,401.055s0,16.139-13.449,16.139S508.9,403.745,508.9,403.745l7.173-162.288s-15.242-1.793-18.829-23.312V128.484s3.586-6.276,7.173,0v63.66s0,2.69,3.586,2.69a4.474,4.474,0,0,0,4.483-2.69v-63.66s3.586-6.276,6.276,0v63.66s1.793,3.586,4.483,3.586,4.483-2.69,4.483-2.69V128.484s3.586-6.276,6.276,0V193.04s1.793,3.586,4.483,2.69c0,0,3.586,0,3.586-3.586v-63.66s4.483-6.276,7.173,0v91.455a27.724,27.724,0,0,1-19.726,22.415Z" transform="translate(2.5 3.5)"/></g><g id="Layer_8" data-name="Layer 8"><circle class="cls-4" cx="321.75" cy="264.75" r="8.75"/><path class="cls-4" d="M249.5,184.5s-12,8-14,12-8,13-11,31c0,0-1,10,7,23s2,27,2,27-7,13-9,20-5,13-6,27,5,26,5,26,10,16,24,24,32,9,32,9,21,3,33-1,14-3,30-17a79.179,79.179,0,0,0,13-19c6-12,13-23,13-23s4-4,7-4,24-15,24-15,9-7,10-16,1-19-3-30-15-23-15-23-6-9-19-14-18-7-25-7c0,0,0,1-4-4s-19-21-37-27-27-6-38-4A122.009,122.009,0,0,0,249.5,184.5Z" transform="translate(2.5 3.5)"/><ellipse class="cls-4" cx="306.5" cy="280" rx="42.5" ry="40"/></g><g id="Layer_9" data-name="Layer 9"><text class="cls-5" transform="translate(231.193 629.784)">Cooking</text></g></svg>