<svg width="1656" height="220" viewBox="0 0 1656 220" fill="none" xmlns="http://www.w3.org/2000/svg">
<g filter="url(#filter0_d)">
<path d="M0 0H414V55H0V0Z" transform="scale(4)" fill="#7F6AD4"/>
</g>
<path d="M0.5 0.5H413.5V54.5H0.5V0.5Z" transform="scale(4)" stroke="white"/>
<path d="M112.336 22.1953C112.336 23.7422 112.133 25.2344 111.727 26.6719C111.336 28.0938 110.773 29.4297 110.039 30.6797C109.305 31.9141 108.43 33.0469 107.414 34.0781C106.398 35.0938 105.266 35.9688 104.016 36.7031C102.766 37.4375 101.422 38.0078 99.9844 38.4141C98.5625 38.8047 97.0781 39 95.5312 39H85.4062V5.39062H95.5312C97.0781 5.39062 98.5625 5.59375 99.9844 6C101.422 6.39063 102.766 6.95313 104.016 7.6875C105.266 8.42187 106.398 9.30469 107.414 10.3359C108.43 11.3516 109.305 12.4844 110.039 13.7344C110.773 14.9688 111.336 16.3047 111.727 17.7422C112.133 19.1641 112.336 20.6484 112.336 22.1953ZM105.609 22.1953C105.609 20.8047 105.344 19.5 104.812 18.2812C104.297 17.0625 103.578 16 102.656 15.0938C101.75 14.1719 100.68 13.4453 99.4453 12.9141C98.2266 12.3828 96.9219 12.1172 95.5312 12.1172H92.1797V32.2734H95.5312C96.9219 32.2734 98.2266 32.0156 99.4453 31.5C100.68 30.9688 101.75 30.25 102.656 29.3438C103.578 28.4219 104.297 27.3516 104.812 26.1328C105.344 24.8984 105.609 23.5859 105.609 22.1953ZM140.391 26.2266C140.391 28.1016 140.055 29.8516 139.383 31.4766C138.711 33.0859 137.797 34.4844 136.641 35.6719C135.484 36.8438 134.125 37.7734 132.562 38.4609C131.016 39.1328 129.352 39.4688 127.57 39.4688C125.805 39.4688 124.141 39.1328 122.578 38.4609C121.031 37.7734 119.672 36.8438 118.5 35.6719C117.344 34.4844 116.43 33.0859 115.758 31.4766C115.086 29.8516 114.75 28.1016 114.75 26.2266C114.75 24.3203 115.086 22.5547 115.758 20.9297C116.43 19.3047 117.344 17.9062 118.5 16.7344C119.672 15.5469 121.031 14.6172 122.578 13.9453C124.141 13.2734 125.805 12.9375 127.57 12.9375C129.352 12.9375 131.016 13.2578 132.562 13.8984C134.125 14.5234 135.484 15.4219 136.641 16.5938C137.797 17.75 138.711 19.1484 139.383 20.7891C140.055 22.4141 140.391 24.2266 140.391 26.2266ZM133.945 26.2266C133.945 25.1953 133.773 24.2656 133.43 23.4375C133.102 22.5938 132.648 21.875 132.07 21.2812C131.492 20.6719 130.812 20.2109 130.031 19.8984C129.266 19.5703 128.445 19.4062 127.57 19.4062C126.695 19.4062 125.867 19.5703 125.086 19.8984C124.32 20.2109 123.648 20.6719 123.07 21.2812C122.508 21.875 122.062 22.5938 121.734 23.4375C121.406 24.2656 121.242 25.1953 121.242 26.2266C121.242 27.1953 121.406 28.0938 121.734 28.9219C122.062 29.75 122.508 30.4688 123.07 31.0781C123.648 31.6875 124.32 32.1719 125.086 32.5312C125.867 32.875 126.695 33.0469 127.57 33.0469C128.445 33.0469 129.266 32.8828 130.031 32.5547C130.812 32.2266 131.492 31.7656 132.07 31.1719C132.648 30.5781 133.102 29.8594 133.43 29.0156C133.773 28.1719 133.945 27.2422 133.945 26.2266ZM150.328 39H143.93V13.8984H145.477L147.586 16.3359C148.617 15.3984 149.781 14.6797 151.078 14.1797C152.391 13.6641 153.758 13.4062 155.18 13.4062C156.711 13.4062 158.156 13.7031 159.516 14.2969C160.875 14.875 162.062 15.6797 163.078 16.7109C164.094 17.7266 164.891 18.9219 165.469 20.2969C166.062 21.6562 166.359 23.1094 166.359 24.6562V39H159.961V24.6562C159.961 24 159.836 23.3828 159.586 22.8047C159.336 22.2109 158.992 21.6953 158.555 21.2578C158.117 20.8203 157.609 20.4766 157.031 20.2266C156.453 19.9766 155.836 19.8516 155.18 19.8516C154.508 19.8516 153.875 19.9766 153.281 20.2266C152.688 20.4766 152.172 20.8203 151.734 21.2578C151.297 21.6953 150.953 22.2109 150.703 22.8047C150.453 23.3828 150.328 24 150.328 24.6562V39ZM180.914 32.8594C181.164 32.9375 181.414 32.9922 181.664 33.0234C181.914 33.0391 182.164 33.0469 182.414 33.0469C183.039 33.0469 183.641 32.9609 184.219 32.7891C184.797 32.6172 185.336 32.375 185.836 32.0625C186.352 31.7344 186.805 31.3438 187.195 30.8906C187.602 30.4219 187.93 29.9062 188.18 29.3438L192.867 34.0547C192.273 34.8984 191.586 35.6562 190.805 36.3281C190.039 37 189.203 37.5703 188.297 38.0391C187.406 38.5078 186.461 38.8594 185.461 39.0938C184.477 39.3438 183.461 39.4688 182.414 39.4688C180.648 39.4688 178.984 39.1406 177.422 38.4844C175.875 37.8281 174.516 36.9141 173.344 35.7422C172.188 34.5703 171.273 33.1797 170.602 31.5703C169.93 29.9453 169.594 28.1641 169.594 26.2266C169.594 24.2422 169.93 22.4297 170.602 20.7891C171.273 19.1484 172.188 17.75 173.344 16.5938C174.516 15.4375 175.875 14.5391 177.422 13.8984C178.984 13.2578 180.648 12.9375 182.414 12.9375C183.461 12.9375 184.484 13.0625 185.484 13.3125C186.484 13.5625 187.43 13.9219 188.32 14.3906C189.227 14.8594 190.07 15.4375 190.852 16.125C191.633 16.7969 192.32 17.5547 192.914 18.3984L180.914 32.8594ZM184.195 19.6641C183.898 19.5547 183.602 19.4844 183.305 19.4531C183.023 19.4219 182.727 19.4062 182.414 19.4062C181.539 19.4062 180.711 19.5703 179.93 19.8984C179.164 20.2109 178.492 20.6641 177.914 21.2578C177.352 21.8516 176.906 22.5703 176.578 23.4141C176.25 24.2422 176.086 25.1797 176.086 26.2266C176.086 26.4609 176.094 26.7266 176.109 27.0234C176.141 27.3203 176.18 27.625 176.227 27.9375C176.289 28.2344 176.359 28.5234 176.438 28.8047C176.516 29.0859 176.617 29.3359 176.742 29.5547L184.195 19.6641Z" transform="translate(276 25.6719) scale(4)" fill="white"/>
<defs>
<filter id="filter0_d" x="-16" y="0" width="1688" height="252" filterUnits="userSpaceOnUse" color-interpolation-filters="sRGB">
<feFlood flood-opacity="0" result="BackgroundImageFix"/>
<feColorMatrix in="SourceAlpha" type="matrix" values="0 0 0 0 0 0 0 0 0 0 0 0 0 0 0 0 0 0 255 0"/>
<feOffset dy="4"/>
<feGaussianBlur stdDeviation="2"/>
<feColorMatrix type="matrix" values="0 0 0 0 0 0 0 0 0 0 0 0 0 0 0 0 0 0 0.25 0"/>
<feBlend mode="normal" in2="BackgroundImageFix" result="effect1_dropShadow"/>
<feBlend mode="normal" in="SourceGraphic" in2="effect1_dropShadow" result="shape"/>
</filter>
</defs>
</svg>
