<svg xmlns="http://www.w3.org/2000/svg" viewBox="0 0 705 705"><defs><style>.cls-1,.cls-3,.cls-6,.cls-7{fill:none;}.cls-1,.cls-2,.cls-6,.cls-7{stroke:#7f70df;stroke-miterlimit:10;}.cls-1,.cls-2,.cls-7{stroke-width:4px;}.cls-1{opacity:0;}.cls-2,.cls-5{fill:#7f70df;}.cls-2{opacity:0.35;}.cls-4{fill:#fff;}.cls-5{opacity:0.3;}.cls-6{stroke-width:5px;}</style></defs><title>ElectricianCHECKED</title><g id="shading"><polygon class="cls-1" points="142.5 80.5 162.5 367.5 534.5 367.5 530.5 33.5 142.5 80.5"/><polygon class="cls-2" points="238.5 493.5 232.5 371.5 472.5 371.5 459.5 524.5 238.5 493.5"/></g><g id="check"><path class="cls-3" d="M413.918,599.412a31.049,31.049,0,0,0-1.3-10.16,11.558,11.558,0,0,0-5.238-5.941,18.164,18.164,0,0,0-9.492-2.355,17.942,17.942,0,0,0-9.492,2.373,11.619,11.619,0,0,0-5.1,5.4,25.652,25.652,0,0,0-1.2,8.965v13.254q0,6.82,1.459,10.529a11.326,11.326,0,0,0,4.975,5.766q3.516,2.057,9.527,2.057a18.645,18.645,0,0,0,7.91-1.494,12.581,12.581,0,0,0,5.186-4.43,13.441,13.441,0,0,0,2.355-5.73,73.258,73.258,0,0,0,.4-8.385H401.262v5.555a15.66,15.66,0,0,1-.51,4.922,1.919,1.919,0,0,1-1.951,1.3,2,2,0,0,1-1.863-1.248,8.584,8.584,0,0,1-.633-3.744V594.033a11.262,11.262,0,0,1,.422-3.937,1.652,1.652,0,0,1,1.652-.879,1.688,1.688,0,0,1,1.688,1,10.553,10.553,0,0,1,.457,3.814v5.379Z" transform="translate(2.5 3.5)"/><rect class="cls-3" x="365.301" y="575.033" width="14.625" height="7.418"/><path class="cls-3" d="M503.25,582.678a9.766,9.766,0,0,0-5.977-1.723,10.141,10.141,0,0,0-5.15,1.285,10.653,10.653,0,0,0-3.779,3.856l.246-4.3H474.141v46.652h14.2V596.916a30.493,30.493,0,0,1,.387-6.486,1.757,1.757,0,0,1,1.9-1.213q1.441,0,1.758,1.055a30.052,30.052,0,0,1,.316,5.871v32.309h14.2v-32.7a39.7,39.7,0,0,0-.668-8.736A7.662,7.662,0,0,0,503.25,582.678Z" transform="translate(2.5 3.5)"/><rect class="cls-3" x="420.637" y="585.299" width="14.625" height="46.652"/><rect class="cls-3" x="365.301" y="585.299" width="14.625" height="46.652"/><rect class="cls-3" x="420.637" y="575.033" width="14.625" height="7.418"/><path class="cls-3" d="M464.121,583.5q-3.656-2.549-10.863-2.549a18.854,18.854,0,0,0-9.773,2.25,11.584,11.584,0,0,0-5.01,5.186,22.069,22.069,0,0,0-1.248,8.35v3.129h13.324v-4.887a18.927,18.927,0,0,1,.352-4.834q.352-.932,1.793-.932a1.87,1.87,0,0,1,1.811,1.107,13.032,13.032,0,0,1,.545,4.764,9.81,9.81,0,0,1-.492,3.867q-.492.949-7.488,3.691-6.539,2.531-8.191,4.43t-1.652,7.137v3.832q0,7.066,3.111,9.158a12,12,0,0,0,6.838,2.092,8.664,8.664,0,0,0,8.262-5v4.157h13.816V605.037q0-11.566-.738-15.275A9.933,9.933,0,0,0,464.121,583.5Zm-9.07,32.361a13.345,13.345,0,0,1-.4,4.342,1.741,1.741,0,0,1-1.74.826,1.856,1.856,0,0,1-1.881-1.055,14.133,14.133,0,0,1-.475-4.676,16.614,16.614,0,0,1,.545-4.852q.545-1.687,3.955-4.184Z" transform="translate(2.5 3.5)"/><polygon class="cls-3" points="210.754 608.045 220 608.045 220 597.217 210.754 597.217 210.754 586.424 220.633 586.424 220.633 575.033 195.953 575.033 195.953 631.951 221.617 631.951 221.617 620.561 210.754 620.561 210.754 608.045"/><rect class="cls-3" x="225.449" y="575.033" width="14.625" height="56.918"/><path class="cls-3" d="M267.826,583.223a19.341,19.341,0,0,0-9.861-2.268,19.088,19.088,0,0,0-8.648,1.881,11.346,11.346,0,0,0-5.414,5.414,23.16,23.16,0,0,0-1.652,9.65v13.605a32.23,32.23,0,0,0,.738,7.928,12.89,12.89,0,0,0,2.654,4.992A12.716,12.716,0,0,0,251,627.994a22.41,22.41,0,0,0,7.945,1.3,19.666,19.666,0,0,0,7.717-1.318,12.411,12.411,0,0,0,5.08-3.955,13.531,13.531,0,0,0,2.549-4.957,30.856,30.856,0,0,0,.545-6.645v-3.445H261.375v6.152a13.269,13.269,0,0,1-.545,4.693,2.133,2.133,0,0,1-2.162,1.213,1.776,1.776,0,0,1-1.758-.914,11.2,11.2,0,0,1-.457-4.078v-10.09H274.84v-6.187q0-6.785-1.564-10.529A12.475,12.475,0,0,0,267.826,583.223ZM260.6,598.357h-4.148v-3.41a18.669,18.669,0,0,1,.352-4.834q.351-.9,1.828-.9a1.529,1.529,0,0,1,1.582,1.055,17.188,17.188,0,0,1,.387,4.676Z" transform="translate(2.5 3.5)"/><path class="cls-3" d="M310.875,599.412a31.062,31.062,0,0,0-1.3-10.16,11.56,11.56,0,0,0-5.238-5.941,18.164,18.164,0,0,0-9.492-2.355,17.942,17.942,0,0,0-9.492,2.373,11.617,11.617,0,0,0-5.1,5.4,25.652,25.652,0,0,0-1.2,8.965v13.254q0,6.82,1.459,10.529a11.324,11.324,0,0,0,4.975,5.766q3.515,2.057,9.527,2.057a18.645,18.645,0,0,0,7.91-1.494,12.584,12.584,0,0,0,5.186-4.43,13.447,13.447,0,0,0,2.355-5.73,73.258,73.258,0,0,0,.4-8.385H298.219v5.555a15.675,15.675,0,0,1-.51,4.922,1.919,1.919,0,0,1-1.951,1.3,2,2,0,0,1-1.863-1.248,8.584,8.584,0,0,1-.633-3.744V594.033a11.262,11.262,0,0,1,.422-3.937,1.651,1.651,0,0,1,1.652-.879,1.688,1.688,0,0,1,1.688,1,10.564,10.564,0,0,1,.457,3.814v5.379Z" transform="translate(2.5 3.5)"/><path class="cls-3" d="M350.672,587.934l.563-6.135h-14.2v46.652h14.2V610.029a52.631,52.631,0,0,1,.422-8.666,4.425,4.425,0,0,1,2.25-2.936,11.9,11.9,0,0,1,5.73-1.055V580.955Q353.766,581.343,350.672,587.934Z" transform="translate(2.5 3.5)"/><path class="cls-3" d="M330.07,615.268V590.307H333.9v-7.383H330.07v-7.348H315.832v7.348h-3.059v7.383h3.059V614a59.14,59.14,0,0,0,.387,8.842,6.191,6.191,0,0,0,1.969,3.34,7.382,7.382,0,0,0,3.656,1.863,40.964,40.964,0,0,0,6.926.4h5.73v-7.523q-3.48,0-3.955-.527T330.07,615.268Z" transform="translate(2.5 3.5)"/><path class="cls-3" d="M400.371,423.207c4.325,0,8.649-2.595,8.649-10.379,0,0-.013-8.188-7.625-9.363l-18.436,19.742Z" transform="translate(2.5 3.5)"/><path class="cls-3" d="M348,239H306l71-103-25,76h42L323.383,315.439,472.068,156.38a210.651,210.651,0,0,0-12.016-20.334,148.117,148.117,0,0,0-38.057-35.463c-24.218-15.569-52.761-19.029-52.761-19.029S338.96,78.1,318.2,84.15,289.658,94.53,289.658,94.53s-17.3,7.784-29.408,19.894-14.7,12.974-20.759,22.488-8.649,12.974-13.839,24.218a96.3,96.3,0,0,0-6.92,20.759s-2.595,6.055-4.325,24.218S217,244.164,217,244.164s3.46,18.164,17.3,43.247c0,0,13.253,21.048,19.775,26.88a13.909,13.909,0,0,1,1.612,1.723c.973,1.223,3.448,4.018,9.75,10.319a204.7,204.7,0,0,1,19.029,22.488s1.348,2.246,2.983,5.055l35.624-38.109Z" transform="translate(2.5 3.5)"/><path class="cls-3" d="M350.2,479.429c22.488,0,32-16.434,32-16.434H345.8l-12.2,13.062A41.184,41.184,0,0,0,350.2,479.429Z" transform="translate(2.5 3.5)"/><path class="cls-3" d="M400.371,452.615c4.325,0,8.649-2.595,8.649-10.379,0,0,0-9.514-9.514-9.514H374.074L355.5,452.615Z" transform="translate(2.5 3.5)"/><path class="cls-4" d="M258.633,589.217q-1.477,0-1.828.9a18.669,18.669,0,0,0-.352,4.834v3.41H260.6v-3.41a17.188,17.188,0,0,0-.387-4.676A1.529,1.529,0,0,0,258.633,589.217Z" transform="translate(2.5 3.5)"/><path class="cls-4" d="M451.1,610.451a16.614,16.614,0,0,0-.545,4.852,14.133,14.133,0,0,0,.475,4.676,1.856,1.856,0,0,0,1.881,1.055,1.741,1.741,0,0,0,1.74-.826,13.345,13.345,0,0,0,.4-4.342v-9.6Q451.641,608.764,451.1,610.451Z" transform="translate(2.5 3.5)"/><polygon class="cls-4" points="354.5 215.5 379.5 139.5 308.5 242.5 350.5 242.5 325.575 319.268 325.883 318.939 396.5 215.5 354.5 215.5"/><path class="cls-4" d="M-.5-1.5v700h700V-1.5ZM219.117,628.451H193.453V571.533h24.68v11.391h-9.879v10.793H217.5v10.828h-9.246v12.516h10.863Zm18.457,0H222.949V571.533h14.625Zm37.266-22.5H256.453v10.09a11.2,11.2,0,0,0,.457,4.078,1.776,1.776,0,0,0,1.758.914,2.133,2.133,0,0,0,2.162-1.213,13.269,13.269,0,0,0,.545-4.693v-6.152H274.84v3.445a30.856,30.856,0,0,1-.545,6.645,13.531,13.531,0,0,1-2.549,4.957,12.411,12.411,0,0,1-5.08,3.955,19.666,19.666,0,0,1-7.717,1.318,22.41,22.41,0,0,1-7.945-1.3,12.716,12.716,0,0,1-5.361-3.568,12.89,12.89,0,0,1-2.654-4.992,32.23,32.23,0,0,1-.738-7.928V597.9a23.16,23.16,0,0,1,1.652-9.65,11.346,11.346,0,0,1,5.414-5.414,19.088,19.088,0,0,1,8.648-1.881,19.341,19.341,0,0,1,9.861,2.268,12.475,12.475,0,0,1,5.449,6.012q1.564,3.744,1.564,10.529Zm22.184-15.732a1.688,1.688,0,0,0-1.687-1,1.651,1.651,0,0,0-1.652.879,11.262,11.262,0,0,0-.422,3.938v22.008a8.584,8.584,0,0,0,.633,3.744,2,2,0,0,0,1.863,1.248,1.919,1.919,0,0,0,1.951-1.3,15.675,15.675,0,0,0,.51-4.922v-5.555h12.656a73.258,73.258,0,0,1-.4,8.385,13.447,13.447,0,0,1-2.355,5.73,12.584,12.584,0,0,1-5.186,4.43,18.645,18.645,0,0,1-7.91,1.494q-6.012,0-9.527-2.057a11.324,11.324,0,0,1-4.975-5.766q-1.459-3.709-1.459-10.529V597.689a25.652,25.652,0,0,1,1.2-8.965,11.617,11.617,0,0,1,5.1-5.4,17.942,17.942,0,0,1,9.492-2.373,18.164,18.164,0,0,1,9.492,2.355,11.56,11.56,0,0,1,5.238,5.941,31.062,31.062,0,0,1,1.3,10.16H297.48v-5.379A10.564,10.564,0,0,0,297.023,590.219ZM334.5,628.451h-5.73a40.964,40.964,0,0,1-6.926-.4,7.382,7.382,0,0,1-3.656-1.863,6.191,6.191,0,0,1-1.969-3.34,59.14,59.14,0,0,1-.387-8.842v-23.7h-3.059v-7.383h3.059v-7.348H330.07v7.348H333.9v7.383H330.07v24.961q0,4.605.475,5.133t3.955.527Zm25.137-31.078a11.9,11.9,0,0,0-5.73,1.055,4.425,4.425,0,0,0-2.25,2.936,52.631,52.631,0,0,0-.422,8.666v18.422h-14.2V581.8h14.2l-.562,6.135q3.094-6.59,8.965-6.979Zm17.789,31.078H362.8V581.8h14.625Zm0-49.5H362.8v-7.418h14.625Zm22.641,11.268a1.688,1.688,0,0,0-1.687-1,1.652,1.652,0,0,0-1.652.879,11.262,11.262,0,0,0-.422,3.938v22.008a8.584,8.584,0,0,0,.633,3.744,2,2,0,0,0,1.863,1.248,1.919,1.919,0,0,0,1.951-1.3,15.66,15.66,0,0,0,.51-4.922v-5.555h12.656a73.258,73.258,0,0,1-.4,8.385,13.441,13.441,0,0,1-2.355,5.73,12.581,12.581,0,0,1-5.186,4.43,18.645,18.645,0,0,1-7.91,1.494q-6.012,0-9.527-2.057a11.326,11.326,0,0,1-4.975-5.766q-1.459-3.709-1.459-10.529V597.689a25.652,25.652,0,0,1,1.2-8.965,11.619,11.619,0,0,1,5.1-5.4,17.942,17.942,0,0,1,9.492-2.373,18.164,18.164,0,0,1,9.492,2.355,11.558,11.558,0,0,1,5.238,5.941,31.049,31.049,0,0,1,1.3,10.16H400.523v-5.379A10.553,10.553,0,0,0,400.066,590.219Zm32.7,38.232H418.137V581.8h14.625Zm0-49.5H418.137v-7.418h14.625Zm36.492,49.5H455.437v-4.157a8.664,8.664,0,0,1-8.262,5,12,12,0,0,1-6.838-2.092q-3.111-2.092-3.111-9.158v-3.832q0-5.238,1.652-7.137t8.191-4.43q7-2.742,7.488-3.691a9.81,9.81,0,0,0,.492-3.867,13.032,13.032,0,0,0-.545-4.764,1.87,1.87,0,0,0-1.811-1.107q-1.441,0-1.793.932a18.927,18.927,0,0,0-.352,4.834v4.887H437.227V596.74a22.069,22.069,0,0,1,1.248-8.35,11.584,11.584,0,0,1,5.01-5.186,18.854,18.854,0,0,1,9.773-2.25q7.207,0,10.863,2.549a9.933,9.933,0,0,1,4.395,6.258q.738,3.709.738,15.275Zm37.652,0H492.7V596.143a30.052,30.052,0,0,0-.316-5.871q-.316-1.055-1.758-1.055a1.757,1.757,0,0,0-1.9,1.213,30.493,30.493,0,0,0-.387,6.486v31.535h-14.2V581.8H488.59l-.246,4.3a10.653,10.653,0,0,1,3.779-3.856,10.141,10.141,0,0,1,5.15-1.285,9.766,9.766,0,0,1,5.977,1.723,7.662,7.662,0,0,1,2.988,4.342,39.7,39.7,0,0,1,.668,8.736ZM653.5,133.5,401.4,403.465c7.612,1.175,7.625,9.363,7.625,9.363,0,7.784-4.325,10.379-8.649,10.379H382.959l-8.885,9.514h25.432c9.514,0,9.514,9.514,9.514,9.514,0,7.784-4.325,10.379-8.649,10.379H355.5L345.8,462.995h36.4s-9.514,16.434-32,16.434a41.184,41.184,0,0,1-16.6-3.372L286.5,526.5s-25,28-59,0l-157-214s-10-18,5.5-33.5l55.5-40.5s18-10,33,4l99,137,23.952-25.623c-1.635-2.809-2.983-5.055-2.983-5.055a204.7,204.7,0,0,0-19.029-22.488c-6.3-6.3-8.777-9.1-9.75-10.319a13.909,13.909,0,0,0-1.612-1.723c-6.523-5.832-19.775-26.88-19.775-26.88-13.839-25.083-17.3-43.247-17.3-43.247s-4.325-19.894-2.595-38.057,4.325-24.218,4.325-24.218a96.3,96.3,0,0,1,6.92-20.759c5.19-11.244,7.784-14.7,13.839-24.218s8.649-10.379,20.759-22.488S289.658,94.53,289.658,94.53,297.443,90.2,318.2,84.15s51.031-2.595,51.031-2.595,28.543,3.46,52.761,19.029a148.117,148.117,0,0,1,38.057,35.463,210.651,210.651,0,0,1,12.016,20.334L564.5,57.5s15-18,36-7l53,50S665.5,115.5,653.5,133.5Z" transform="translate(2.5 3.5)"/><polygon class="cls-4" points="325.5 319.5 325.883 318.939 325.575 319.268 325.5 319.5"/><polygon class="cls-5" points="325.5 319.5 325.883 318.939 325.575 319.268 325.5 319.5"/><path class="cls-4" d="M600.5,50.5c-21-11-36,7-36,7l-92.432,98.88c4.538,8.787,8.971,19.1,10.472,28.1C486,205.242,486,204.377,486,215.621s-.865,15.569-3.46,30.273S468.7,281.357,468.7,281.357s-9.514,19.029-20.759,31.138-6.919,6.919-19.894,20.759-21.624,31.138-21.624,31.138H293.118c-.505-1.516-3.37-6.57-5.666-10.514L263.5,379.5l-99-137c-15-14-33-4-33-4L76,279c-15.5,15.5-5.5,33.5-5.5,33.5l157,214c34,28,59,0,59,0l47.106-50.444a38.666,38.666,0,0,1-16.27-13.062H345.8l9.693-10.379h-55.82a9.466,9.466,0,0,1-5.234-1.5c-1.955-1.293-3.919-3.674-3.919-8.019a9.975,9.975,0,0,1,5.45-9.133,10.423,10.423,0,0,1,5.037-1.247h73.065l8.885-9.514H299.677a9.467,9.467,0,0,1-5.234-1.5c-1.955-1.293-3.919-3.674-3.919-8.019a9.975,9.975,0,0,1,5.45-9.133,10.422,10.422,0,0,1,5.037-1.247h98.5a12.236,12.236,0,0,1,1.89.151L653.5,133.5c12-18,0-33,0-33ZM400.371,393.8H299.677a9.467,9.467,0,0,1-5.234-1.5c-1.955-1.293-3.919-3.674-3.919-8.019a9.975,9.975,0,0,1,5.45-9.133,10.423,10.423,0,0,1,5.037-1.247h98.5c9.514,0,9.514,9.514,9.514,9.514C409.02,391.2,404.7,393.8,400.371,393.8Z" transform="translate(2.5 3.5)"/><path class="cls-5" d="M600.5,50.5c-21-11-36,7-36,7l-92.432,98.88c4.538,8.787,8.971,19.1,10.472,28.1C486,205.242,486,204.377,486,215.621s-.865,15.569-3.46,30.273S468.7,281.357,468.7,281.357s-9.514,19.029-20.759,31.138-6.919,6.919-19.894,20.759-21.624,31.138-21.624,31.138H293.118c-.505-1.516-3.37-6.57-5.666-10.514L263.5,379.5l-99-137c-15-14-33-4-33-4L76,279c-15.5,15.5-5.5,33.5-5.5,33.5l157,214c34,28,59,0,59,0l47.106-50.444a38.666,38.666,0,0,1-16.27-13.062H345.8l9.693-10.379h-55.82a9.466,9.466,0,0,1-5.234-1.5c-1.955-1.293-3.919-3.674-3.919-8.019a9.975,9.975,0,0,1,5.45-9.133,10.423,10.423,0,0,1,5.037-1.247h73.065l8.885-9.514H299.677a9.467,9.467,0,0,1-5.234-1.5c-1.955-1.293-3.919-3.674-3.919-8.019a9.975,9.975,0,0,1,5.45-9.133,10.422,10.422,0,0,1,5.037-1.247h98.5a12.236,12.236,0,0,1,1.89.151L653.5,133.5c12-18,0-33,0-33ZM400.371,393.8H299.677a9.467,9.467,0,0,1-5.234-1.5c-1.955-1.293-3.919-3.674-3.919-8.019a9.975,9.975,0,0,1,5.45-9.133,10.423,10.423,0,0,1,5.037-1.247h98.5c9.514,0,9.514,9.514,9.514,9.514C409.02,391.2,404.7,393.8,400.371,393.8Z" transform="translate(2.5 3.5)"/></g><g id="Border"><rect class="cls-6" x="2.5" y="2.5" width="700" height="700"/></g><g id="bec"><path class="cls-7" d="M406.425,364.391s8.649-17.3,21.624-31.138,8.649-8.649,19.894-20.759S468.7,281.357,468.7,281.357s11.244-20.759,13.839-35.463S486,226.866,486,215.621s0-10.379-3.46-31.138-22.488-48.437-22.488-48.437a148.117,148.117,0,0,0-38.057-35.463c-24.218-15.569-52.761-19.029-52.761-19.029S338.96,78.1,318.2,84.15,289.658,94.53,289.658,94.53s-17.3,7.784-29.408,19.894-14.7,12.974-20.759,22.488-8.649,12.974-13.839,24.218a96.3,96.3,0,0,0-6.92,20.759s-2.595,6.055-4.325,24.218S217,244.165,217,244.165s3.46,18.164,17.3,43.247c0,0,13.253,21.048,19.775,26.88a13.907,13.907,0,0,1,1.612,1.723c.973,1.223,3.448,4.018,9.75,10.319a204.7,204.7,0,0,1,19.029,22.488s7.784,12.974,8.649,15.569Z" transform="translate(2.5 3.5)"/><path class="cls-7" d="M399.506,373.906h-98.5a10.423,10.423,0,0,0-5.037,1.247,9.975,9.975,0,0,0-5.45,9.133c0,4.345,1.964,6.725,3.919,8.019a9.467,9.467,0,0,0,5.234,1.5H400.371c4.325,0,8.649-2.595,8.649-10.379C409.02,383.42,409.02,373.906,399.506,373.906Z" transform="translate(2.5 3.5)"/><path class="cls-7" d="M399.506,403.314h-98.5a10.423,10.423,0,0,0-5.037,1.247,9.975,9.975,0,0,0-5.45,9.133c0,4.345,1.964,6.725,3.919,8.019a9.467,9.467,0,0,0,5.234,1.5H400.371c4.325,0,8.649-2.595,8.649-10.379C409.02,412.828,409.02,403.314,399.506,403.314Z" transform="translate(2.5 3.5)"/><path class="cls-7" d="M399.506,432.722h-98.5a10.423,10.423,0,0,0-5.037,1.247,9.975,9.975,0,0,0-5.45,9.133c0,4.345,1.964,6.725,3.919,8.019a9.467,9.467,0,0,0,5.234,1.5H400.371c4.325,0,8.649-2.595,8.649-10.379C409.02,442.236,409.02,432.722,399.506,432.722Z" transform="translate(2.5 3.5)"/><path class="cls-7" d="M317.336,462.995h64.871s-9.514,16.434-32,16.434A39.82,39.82,0,0,1,317.336,462.995Z" transform="translate(2.5 3.5)"/></g><g id="Fulger"><polygon class="cls-7" points="379.5 139.5 308.5 242.5 350.5 242.5 325.5 319.5 396.5 215.5 354.5 215.5 379.5 139.5"/></g></svg>