<?xml version="1.0" encoding="utf-8"?>
<!-- Generator: Adobe Illustrator 21.0.0, SVG Export Plug-In . SVG Version: 6.00 Build 0)  -->
<svg version="1.0" xmlns="http://www.w3.org/2000/svg" xmlns:xlink="http://www.w3.org/1999/xlink" x="0px" y="0px"
	 viewBox="0 0 700 700" style="enable-background:new 0 0 700 700;" xml:space="preserve">
<style type="text/css">
	.st0{fill:#FFFFFF;}
	.st1{display:none;}
	.st2{display:inline;opacity:0;fill:none;stroke:#7F70DF;stroke-width:4;stroke-miterlimit:10;}
	.st3{display:inline;opacity:0.35;fill:#7F70DF;stroke:#7F70DF;stroke-width:4;stroke-miterlimit:10;}
	.st4{fill:none;}
	.st5{opacity:0.3;fill:#7F70DF;}
	.st6{fill:none;stroke:#7F70DF;stroke-width:5;stroke-miterlimit:10;}
	.st7{display:inline;fill:none;stroke:#7F70DF;stroke-width:10;stroke-miterlimit:10;}
	.st8{fill:none;stroke:#7F70DF;stroke-width:4;stroke-miterlimit:10;}
	.st9{fill:#7F70DF;}
	.st10{font-family:'Impact';}
	.st11{font-size:72px;}
</style>
<g id="Layer_8">
	<rect x="78" y="47" class="st0" width="549" height="613"/>
</g>
<g id="shading" class="st1">
	<polygon class="st2" points="140,77 160,364 532,364 528,30 	"/>
	<polygon class="st3" points="236,490 230,368 470,368 457,521 	"/>
</g>
<g id="check">
	<g>
		<path class="st4" d="M413.918,599.412c0-4.383-0.434-7.77-1.301-10.16s-2.613-4.371-5.238-5.941s-5.789-2.355-9.492-2.355
			c-3.727,0-6.891,0.791-9.492,2.373s-4.301,3.381-5.098,5.396s-1.195,5.004-1.195,8.965v13.254c0,4.547,0.486,8.057,1.459,10.529
			s2.631,4.395,4.975,5.766s5.52,2.057,9.527,2.057c3.141,0,5.777-0.498,7.91-1.494s3.861-2.473,5.186-4.43s2.109-3.867,2.355-5.73
			s0.381-4.658,0.404-8.385h-12.656v5.555c0,2.414-0.17,4.055-0.51,4.922s-0.99,1.301-1.951,1.301c-0.82,0-1.441-0.416-1.863-1.248
			s-0.633-2.08-0.633-3.744v-22.008c0-2.039,0.141-3.352,0.422-3.938s0.832-0.879,1.652-0.879s1.383,0.334,1.688,1.002
			s0.457,1.939,0.457,3.814v5.379H413.918z"/>
		<rect x="362.801" y="571.533" class="st4" width="14.625" height="7.418"/>
		<path class="st4" d="M503.25,582.678c-1.547-1.148-3.539-1.723-5.977-1.723c-1.945,0-3.662,0.429-5.15,1.285
			c-1.488,0.857-2.748,2.143-3.779,3.856l0.246-4.298h-14.449v46.652h14.203v-31.535c0-3.516,0.129-5.678,0.387-6.486
			s0.891-1.213,1.898-1.213c0.961,0,1.547,0.352,1.758,1.055s0.316,2.66,0.316,5.871v32.309h14.203v-32.695
			c0-4.078-0.223-6.99-0.668-8.736S504.797,583.826,503.25,582.678z"/>
		<rect x="418.137" y="581.799" class="st4" width="14.625" height="46.652"/>
		<rect x="362.801" y="581.799" class="st4" width="14.625" height="46.652"/>
		<rect x="418.137" y="571.533" class="st4" width="14.625" height="7.418"/>
		<path class="st4" d="M464.121,583.504c-2.438-1.699-6.059-2.549-10.863-2.549c-4.008,0-7.266,0.75-9.773,2.25
			s-4.178,3.229-5.01,5.186s-1.248,4.74-1.248,8.35v3.129h13.324v-4.887c0-2.602,0.117-4.213,0.352-4.834s0.832-0.932,1.793-0.932
			c0.844,0,1.447,0.369,1.811,1.107s0.545,2.326,0.545,4.764c0,1.945-0.164,3.234-0.492,3.867s-2.824,1.863-7.488,3.691
			c-4.359,1.688-7.09,3.164-8.191,4.43s-1.652,3.645-1.652,7.137v3.832c0,4.711,1.037,7.764,3.111,9.158s4.354,2.092,6.838,2.092
			c1.898,0,3.533-0.417,4.904-1.25c1.371-0.834,2.49-2.084,3.357-3.751v4.157h13.816v-23.414c0-7.711-0.246-12.803-0.738-15.275
			S466.559,585.203,464.121,583.504z M455.051,615.865c0,2.344-0.135,3.791-0.404,4.342s-0.85,0.826-1.74,0.826
			c-0.938,0-1.564-0.352-1.881-1.055s-0.475-2.262-0.475-4.676c0-2.109,0.182-3.727,0.545-4.852s1.682-2.52,3.955-4.184V615.865z"/>
		<polygon class="st4" points="208.254,604.545 217.5,604.545 217.5,593.717 208.254,593.717 208.254,582.924 218.133,582.924 
			218.133,571.533 193.453,571.533 193.453,628.451 219.117,628.451 219.117,617.061 208.254,617.061 		"/>
		<rect x="222.949" y="571.533" class="st4" width="14.625" height="56.918"/>
		<path class="st4" d="M267.826,583.223c-2.59-1.512-5.877-2.268-9.861-2.268c-3.258,0-6.141,0.627-8.648,1.881
			c-2.508,1.254-4.313,3.059-5.414,5.414c-1.102,2.355-1.652,5.572-1.652,9.65v13.605c0,3.469,0.246,6.111,0.738,7.928
			s1.376,3.48,2.654,4.992c1.277,1.512,3.064,2.701,5.361,3.568c2.297,0.867,4.945,1.301,7.945,1.301
			c3.094,0,5.666-0.439,7.717-1.318c2.051-0.879,3.744-2.197,5.08-3.955s2.185-3.41,2.549-4.957
			c0.363-1.547,0.545-3.762,0.545-6.645v-3.445h-13.465v6.152c0,2.32-0.182,3.885-0.545,4.693c-0.364,0.809-1.084,1.213-2.162,1.213
			c-0.867,0-1.454-0.305-1.758-0.914c-0.305-0.609-0.457-1.969-0.457-4.078v-10.09h18.387v-6.188c0-4.523-0.522-8.033-1.564-10.529
			C272.232,586.738,270.416,584.734,267.826,583.223z M260.602,598.357h-4.148v-3.41c0-2.625,0.117-4.236,0.352-4.834
			c0.234-0.598,0.844-0.896,1.828-0.896c0.796,0,1.324,0.352,1.582,1.055c0.258,0.703,0.387,2.262,0.387,4.676V598.357z"/>
		<path class="st4" d="M310.875,599.412c0-4.383-0.434-7.77-1.301-10.16c-0.867-2.391-2.614-4.371-5.238-5.941
			c-2.625-1.57-5.789-2.355-9.492-2.355c-3.727,0-6.891,0.791-9.492,2.373s-4.301,3.381-5.098,5.396
			c-0.797,2.016-1.195,5.004-1.195,8.965v13.254c0,4.547,0.486,8.057,1.459,10.529c0.972,2.473,2.631,4.395,4.975,5.766
			c2.343,1.371,5.52,2.057,9.527,2.057c3.141,0,5.777-0.498,7.91-1.494c2.132-0.996,3.861-2.473,5.186-4.43
			c1.324-1.957,2.109-3.867,2.355-5.73s0.381-4.658,0.404-8.385h-12.656v5.555c0,2.414-0.17,4.055-0.51,4.922
			c-0.34,0.867-0.99,1.301-1.951,1.301c-0.821,0-1.441-0.416-1.863-1.248s-0.633-2.08-0.633-3.744v-22.008
			c0-2.039,0.141-3.352,0.422-3.938s0.832-0.879,1.652-0.879c0.82,0,1.383,0.334,1.688,1.002c0.304,0.668,0.457,1.939,0.457,3.814
			v5.379H310.875z"/>
		<path class="st4" d="M350.672,587.934l0.563-6.135h-14.203v46.652h14.203v-18.422c0-4.523,0.141-7.412,0.422-8.666
			s1.031-2.232,2.25-2.936s3.129-1.055,5.73-1.055v-16.418C355.723,581.214,352.734,583.54,350.672,587.934z"/>
		<path class="st4" d="M330.07,615.268v-24.961h3.832v-7.383h-3.832v-7.348h-14.238v7.348h-3.059v7.383h3.059v23.695
			c0,4.641,0.128,7.588,0.387,8.842c0.258,1.254,0.914,2.367,1.969,3.34s2.273,1.594,3.656,1.863
			c1.383,0.27,3.691,0.404,6.926,0.404h5.73v-7.523c-2.32,0-3.639-0.176-3.955-0.527S330.07,618.338,330.07,615.268z"/>
		<path class="st4" d="M400.371,423.207c4.325,0,8.649-2.595,8.649-10.379c0,0-0.013-8.188-7.625-9.363l-18.436,19.742H400.371z"/>
		<path class="st4" d="M348,239h-42l71-103l-25,76h42l-70.617,103.439L472.068,156.38c-5.919-11.462-12.016-20.334-12.016-20.334
			s-13.839-19.894-38.057-35.463c-24.218-15.569-52.761-19.029-52.761-19.029s-30.273-3.46-51.031,2.595
			c-20.759,6.055-28.543,10.379-28.543,10.379s-17.299,7.784-29.408,19.894c-12.109,12.109-14.704,12.974-20.759,22.488
			c-6.055,9.514-8.649,12.974-13.839,24.218c-5.19,11.244-6.92,20.759-6.92,20.759s-2.595,6.055-4.325,24.218
			c-1.73,18.164,2.595,38.057,2.595,38.057s3.46,18.164,17.299,43.247c0,0,13.253,21.048,19.775,26.88
			c0.589,0.526,1.121,1.104,1.612,1.723c0.973,1.223,3.448,4.018,9.75,10.319c10.379,10.379,19.029,22.488,19.029,22.488
			s1.348,2.246,2.983,5.055l35.624-38.109L348,239z"/>
		<path class="st4" d="M350.204,479.429c22.488,0,32.003-16.434,32.003-16.434h-36.403l-12.198,13.062
			C338.143,478.031,343.657,479.429,350.204,479.429z"/>
		<path class="st4" d="M400.371,452.615c4.325,0,8.649-2.595,8.649-10.379c0,0,0-9.514-9.514-9.514h-25.432l-18.578,19.894H400.371z
			"/>
		<path class="st0" d="M258.633,589.217c-0.984,0-1.594,0.299-1.828,0.896c-0.234,0.598-0.352,2.209-0.352,4.834v3.41h4.148v-3.41
			c0-2.414-0.129-3.973-0.387-4.676C259.957,589.568,259.429,589.217,258.633,589.217z"/>
		<path class="st0" d="M451.096,610.451c-0.363,1.125-0.545,2.742-0.545,4.852c0,2.414,0.158,3.973,0.475,4.676
			s0.943,1.055,1.881,1.055c0.891,0,1.471-0.275,1.74-0.826s0.404-1.998,0.404-4.342v-9.598
			C452.777,607.932,451.459,609.326,451.096,610.451z"/>
		<polygon class="st0" points="352,212 377,136 306,239 348,239 323.075,315.768 323.383,315.439 394,212 		"/>
		<path class="st0" d="M-0.5-1.5v700h700v-700H-0.5z M219.117,628.451h-25.664v-56.918h24.68v11.391h-9.879v10.793h9.246v10.828
			h-9.246v12.516h10.863V628.451z M237.574,628.451h-14.625v-56.918h14.625V628.451z M274.84,605.951h-18.387v10.09
			c0,2.109,0.152,3.469,0.457,4.078c0.304,0.609,0.891,0.914,1.758,0.914c1.078,0,1.798-0.404,2.162-1.213
			c0.363-0.809,0.545-2.373,0.545-4.693v-6.152h13.465v3.445c0,2.883-0.182,5.098-0.545,6.645c-0.364,1.547-1.213,3.199-2.549,4.957
			s-3.029,3.076-5.08,3.955c-2.051,0.879-4.623,1.318-7.717,1.318c-3,0-5.648-0.434-7.945-1.301
			c-2.297-0.867-4.084-2.057-5.361-3.568c-1.278-1.512-2.162-3.176-2.654-4.992s-0.738-4.459-0.738-7.928V597.9
			c0-4.078,0.55-7.295,1.652-9.65c1.102-2.355,2.906-4.16,5.414-5.414c2.508-1.254,5.391-1.881,8.648-1.881
			c3.984,0,7.271,0.756,9.861,2.268c2.589,1.512,4.406,3.516,5.449,6.012c1.042,2.496,1.564,6.006,1.564,10.529V605.951z
			 M297.023,590.219c-0.305-0.668-0.867-1.002-1.688-1.002c-0.821,0-1.371,0.293-1.652,0.879s-0.422,1.898-0.422,3.938v22.008
			c0,1.664,0.211,2.912,0.633,3.744s1.042,1.248,1.863,1.248c0.961,0,1.611-0.434,1.951-1.301c0.339-0.867,0.51-2.508,0.51-4.922
			v-5.555h12.656c-0.023,3.727-0.158,6.521-0.404,8.385s-1.032,3.773-2.355,5.73c-1.324,1.957-3.053,3.434-5.186,4.43
			c-2.133,0.996-4.77,1.494-7.91,1.494c-4.008,0-7.184-0.686-9.527-2.057c-2.344-1.371-4.002-3.293-4.975-5.766
			c-0.973-2.473-1.459-5.982-1.459-10.529v-13.254c0-3.961,0.398-6.949,1.195-8.965c0.796-2.016,2.496-3.814,5.098-5.396
			s5.766-2.373,9.492-2.373c3.703,0,6.867,0.785,9.492,2.355c2.625,1.57,4.371,3.551,5.238,5.941
			c0.867,2.391,1.301,5.777,1.301,10.16H297.48v-5.379C297.48,592.158,297.328,590.887,297.023,590.219z M334.5,628.451h-5.73
			c-3.234,0-5.543-0.135-6.926-0.404c-1.383-0.27-2.602-0.891-3.656-1.863s-1.711-2.086-1.969-3.34
			c-0.258-1.254-0.387-4.201-0.387-8.842v-23.695h-3.059v-7.383h3.059v-7.348h14.238v7.348h3.832v7.383h-3.832v24.961
			c0,3.07,0.158,4.781,0.475,5.133s1.635,0.527,3.955,0.527V628.451z M359.637,597.373c-2.602,0-4.512,0.352-5.73,1.055
			s-1.969,1.682-2.25,2.936s-0.422,4.143-0.422,8.666v18.422h-14.203v-46.652h14.203l-0.563,6.135
			c2.063-4.394,5.051-6.72,8.965-6.979V597.373z M377.426,628.451h-14.625v-46.652h14.625V628.451z M377.426,578.951h-14.625v-7.418
			h14.625V578.951z M400.066,590.219c-0.305-0.668-0.867-1.002-1.688-1.002s-1.371,0.293-1.652,0.879s-0.422,1.898-0.422,3.938
			v22.008c0,1.664,0.211,2.912,0.633,3.744s1.043,1.248,1.863,1.248c0.961,0,1.611-0.434,1.951-1.301s0.51-2.508,0.51-4.922v-5.555
			h12.656c-0.023,3.727-0.158,6.521-0.404,8.385s-1.031,3.773-2.355,5.73s-3.053,3.434-5.186,4.43s-4.77,1.494-7.91,1.494
			c-4.008,0-7.184-0.686-9.527-2.057s-4.002-3.293-4.975-5.766s-1.459-5.982-1.459-10.529v-13.254c0-3.961,0.398-6.949,1.195-8.965
			s2.496-3.814,5.098-5.396s5.766-2.373,9.492-2.373c3.703,0,6.867,0.785,9.492,2.355s4.371,3.551,5.238,5.941
			s1.301,5.777,1.301,10.16h-13.395v-5.379C400.523,592.158,400.371,590.887,400.066,590.219z M432.762,628.451h-14.625v-46.652
			h14.625V628.451z M432.762,578.951h-14.625v-7.418h14.625V578.951z M469.254,628.451h-13.816v-4.157
			c-0.867,1.667-1.986,2.917-3.357,3.751c-1.371,0.833-3.006,1.25-4.904,1.25c-2.484,0-4.764-0.697-6.838-2.092
			s-3.111-4.447-3.111-9.158v-3.832c0-3.492,0.551-5.871,1.652-7.137s3.832-2.742,8.191-4.43c4.664-1.828,7.16-3.059,7.488-3.691
			s0.492-1.922,0.492-3.867c0-2.438-0.182-4.025-0.545-4.764s-0.967-1.107-1.811-1.107c-0.961,0-1.559,0.311-1.793,0.932
			s-0.352,2.232-0.352,4.834v4.887h-13.324v-3.129c0-3.609,0.416-6.393,1.248-8.35s2.502-3.686,5.01-5.186s5.766-2.25,9.773-2.25
			c4.805,0,8.426,0.85,10.863,2.549s3.902,3.785,4.395,6.258s0.738,7.564,0.738,15.275V628.451z M506.906,628.451h-14.203v-32.309
			c0-3.211-0.105-5.168-0.316-5.871s-0.797-1.055-1.758-1.055c-1.008,0-1.641,0.404-1.898,1.213s-0.387,2.971-0.387,6.486v31.535
			h-14.203v-46.652h14.449l-0.246,4.298c1.031-1.714,2.291-2.999,3.779-3.856c1.488-0.856,3.205-1.285,5.15-1.285
			c2.438,0,4.43,0.574,5.977,1.723s2.543,2.596,2.988,4.342s0.668,4.658,0.668,8.736V628.451z M653.5,133.5L401.395,403.465
			c7.612,1.175,7.625,9.363,7.625,9.363c0,7.784-4.325,10.379-8.649,10.379h-17.412l-8.885,9.514h25.432
			c9.514,0,9.514,9.514,9.514,9.514c0,7.784-4.325,10.379-8.649,10.379h-44.874l-9.693,10.379h36.403
			c0,0-9.514,16.434-32.003,16.434c-6.547,0-12.061-1.397-16.598-3.372L286.5,526.5c0,0-25,28-59,0l-157-214c0,0-10-18,5.5-33.5
			l55.5-40.5c0,0,18-10,33,4l99,137l23.952-25.623c-1.635-2.809-2.983-5.055-2.983-5.055s-8.649-12.109-19.029-22.488
			c-6.302-6.302-8.777-9.096-9.75-10.319c-0.492-0.618-1.024-1.196-1.612-1.723c-6.523-5.832-19.775-26.88-19.775-26.88
			c-13.839-25.083-17.299-43.247-17.299-43.247s-4.325-19.894-2.595-38.057c1.73-18.164,4.325-24.218,4.325-24.218
			s1.73-9.514,6.92-20.759c5.19-11.244,7.784-14.704,13.839-24.218c6.055-9.514,8.649-10.379,20.759-22.488
			c12.109-12.109,29.408-19.894,29.408-19.894s7.784-4.325,28.543-10.379c20.759-6.055,51.031-2.595,51.031-2.595
			s28.543,3.46,52.761,19.029c24.218,15.569,38.057,35.463,38.057,35.463s6.097,8.871,12.016,20.334L564.5,57.5c0,0,15-18,36-7
			l53,50C653.5,100.5,665.5,115.5,653.5,133.5z"/>
		<polygon class="st0" points="323,316 323.383,315.439 323.075,315.768 		"/>
		<polygon class="st5" points="323,316 323.383,315.439 323.075,315.768 		"/>
		<path class="st0" d="M600.5,50.5c-21-11-36,7-36,7l-92.432,98.88c4.538,8.787,8.971,19.095,10.472,28.103
			c3.46,20.759,3.46,19.894,3.46,31.138c0,11.244-0.865,15.569-3.46,30.273c-2.595,14.704-13.839,35.463-13.839,35.463
			s-9.514,19.029-20.759,31.138c-11.244,12.109-6.919,6.919-19.894,20.759c-12.974,13.839-21.624,31.138-21.624,31.138H293.118
			c-0.505-1.516-3.37-6.57-5.666-10.514L263.5,379.5l-99-137c-15-14-33-4-33-4L76,279c-15.5,15.5-5.5,33.5-5.5,33.5l157,214
			c34,28,59,0,59,0l47.106-50.444c-11.047-4.808-16.27-13.062-16.27-13.062h28.468l9.693-10.379h-55.82
			c-1.85,0-3.691-0.475-5.234-1.496c-1.955-1.293-3.919-3.674-3.919-8.019c0-5.082,2.987-7.776,5.45-9.133
			c1.538-0.847,3.281-1.247,5.037-1.247h73.065l8.885-9.514h-83.282c-1.85,0-3.691-0.475-5.234-1.496
			c-1.955-1.293-3.919-3.674-3.919-8.019c0-5.082,2.987-7.776,5.45-9.133c1.538-0.847,3.281-1.247,5.037-1.247h98.496
			c0.682,0,1.302,0.06,1.89,0.151L653.5,133.5c12-18,0-33,0-33L600.5,50.5z M400.371,393.799H299.677
			c-1.85,0-3.691-0.475-5.234-1.496c-1.955-1.293-3.919-3.674-3.919-8.019c0-5.082,2.987-7.776,5.45-9.133
			c1.538-0.847,3.281-1.247,5.037-1.247h98.496c9.514,0,9.514,9.514,9.514,9.514C409.02,391.205,404.695,393.799,400.371,393.799z"
			/>
	</g>
</g>
<g id="BG">
</g>
<g id="Border">
	<rect y="-1" class="st6" width="700" height="700"/>
</g>
<g id="guideLInes" class="st1">
	<rect x="63" y="56.25" class="st7" width="574" height="447.5"/>
	<rect x="23" y="555" class="st7" width="654" height="90"/>
</g>
<g id="bec">
	<path class="st8" d="M406.425,364.391c0,0,8.649-17.299,21.624-31.138c12.974-13.839,8.649-8.649,19.894-20.759
		c11.244-12.109,20.759-31.138,20.759-31.138s11.244-20.759,13.839-35.463c2.595-14.704,3.46-19.029,3.46-30.273
		s0-10.379-3.46-31.138c-3.46-20.759-22.488-48.437-22.488-48.437s-13.839-19.894-38.057-35.463s-52.761-19.029-52.761-19.029
		s-30.273-3.46-51.032,2.595c-20.759,6.055-28.543,10.379-28.543,10.379s-17.299,7.784-29.408,19.894
		c-12.109,12.109-14.704,12.974-20.759,22.488c-6.055,9.514-8.649,12.974-13.839,24.218c-5.19,11.244-6.92,20.759-6.92,20.759
		s-2.595,6.055-4.325,24.218c-1.73,18.164,2.595,38.057,2.595,38.057s3.46,18.164,17.299,43.247c0,0,13.253,21.048,19.775,26.88
		c0.589,0.526,1.121,1.104,1.612,1.723c0.973,1.223,3.448,4.018,9.75,10.319c10.379,10.379,19.029,22.488,19.029,22.488
		s7.784,12.974,8.649,15.569H406.425z"/>
	<path class="st8" d="M399.506,373.906H301.01c-1.756,0-3.499,0.399-5.037,1.247c-2.463,1.357-5.45,4.05-5.45,9.133
		c0,4.345,1.964,6.725,3.919,8.019c1.543,1.021,3.384,1.496,5.234,1.496h100.694c4.325,0,8.649-2.595,8.649-10.379
		C409.02,383.42,409.02,373.906,399.506,373.906z"/>
	<path class="st8" d="M399.506,403.314H301.01c-1.756,0-3.499,0.399-5.037,1.247c-2.463,1.357-5.45,4.05-5.45,9.133
		c0,4.345,1.964,6.725,3.919,8.019c1.543,1.021,3.384,1.496,5.234,1.496h100.694c4.325,0,8.649-2.595,8.649-10.379
		C409.02,412.828,409.02,403.314,399.506,403.314z"/>
	<path class="st8" d="M399.506,432.722H301.01c-1.756,0-3.499,0.399-5.037,1.247c-2.463,1.357-5.45,4.05-5.45,9.133
		c0,4.345,1.964,6.725,3.919,8.019c1.543,1.021,3.384,1.496,5.234,1.496h100.694c4.325,0,8.649-2.595,8.649-10.379
		C409.02,442.236,409.02,432.722,399.506,432.722z"/>
	<path class="st8" d="M317.336,462.995h64.871c0,0-9.514,16.434-32.003,16.434S317.336,462.995,317.336,462.995z"/>
</g>
<g id="Fulger">
	<polygon class="st8" points="377,136 306,239 348,239 323,316 394,212 352,212 	"/>
</g>
<g id="Layer_9">
	<rect x="190" y="572" class="st4" width="353" height="90"/>
	<text transform="matrix(1 0 0 1 190 628.9512)" class="st9 st10 st11">Electrician</text>
</g>
</svg>
