<svg width="1656" height="220" viewBox="0 0 1656 220" fill="none" xmlns="http://www.w3.org/2000/svg">
<g filter="url(#filter0_d)">
<path d="M0 0H414V55H0V0Z" transform="scale(4)" fill="#7F6AD4"/>
</g>
<path d="M0.5 0.5H413.5V54.5H0.5V0.5Z" transform="scale(4)" stroke="white"/>
<path d="M147.914 39H141.188V5.39062H164.719V12.1172H147.914V18.8438H157.992V25.5703H147.914V39ZM175.055 7.07812C175.055 7.67187 174.938 8.22656 174.703 8.74219C174.484 9.25781 174.18 9.71094 173.789 10.1016C173.398 10.4766 172.938 10.7812 172.406 11.0156C171.891 11.2344 171.336 11.3438 170.742 11.3438C170.148 11.3438 169.586 11.2344 169.055 11.0156C168.539 10.7812 168.086 10.4766 167.695 10.1016C167.32 9.71094 167.016 9.25781 166.781 8.74219C166.562 8.22656 166.453 7.67187 166.453 7.07812C166.453 6.5 166.562 5.95312 166.781 5.4375C167.016 4.90625 167.32 4.45312 167.695 4.07812C168.086 3.6875 168.539 3.38281 169.055 3.16406C169.586 2.92969 170.148 2.8125 170.742 2.8125C171.336 2.8125 171.891 2.92969 172.406 3.16406C172.938 3.38281 173.398 3.6875 173.789 4.07812C174.18 4.45312 174.484 4.90625 174.703 5.4375C174.938 5.95312 175.055 6.5 175.055 7.07812ZM173.953 39H167.508V13.8984H173.953V39ZM185.25 39H178.852V13.8984H180.398L182.508 16.3359C183.539 15.3984 184.703 14.6797 186 14.1797C187.312 13.6641 188.68 13.4062 190.102 13.4062C191.633 13.4062 193.078 13.7031 194.438 14.2969C195.797 14.875 196.984 15.6797 198 16.7109C199.016 17.7266 199.812 18.9219 200.391 20.2969C200.984 21.6562 201.281 23.1094 201.281 24.6562V39H194.883V24.6562C194.883 24 194.758 23.3828 194.508 22.8047C194.258 22.2109 193.914 21.6953 193.477 21.2578C193.039 20.8203 192.531 20.4766 191.953 20.2266C191.375 19.9766 190.758 19.8516 190.102 19.8516C189.43 19.8516 188.797 19.9766 188.203 20.2266C187.609 20.4766 187.094 20.8203 186.656 21.2578C186.219 21.6953 185.875 22.2109 185.625 22.8047C185.375 23.3828 185.25 24 185.25 24.6562V39ZM213.398 7.07812C213.398 7.67187 213.281 8.22656 213.047 8.74219C212.828 9.25781 212.523 9.71094 212.133 10.1016C211.742 10.4766 211.281 10.7812 210.75 11.0156C210.234 11.2344 209.68 11.3438 209.086 11.3438C208.492 11.3438 207.93 11.2344 207.398 11.0156C206.883 10.7812 206.43 10.4766 206.039 10.1016C205.664 9.71094 205.359 9.25781 205.125 8.74219C204.906 8.22656 204.797 7.67187 204.797 7.07812C204.797 6.5 204.906 5.95312 205.125 5.4375C205.359 4.90625 205.664 4.45312 206.039 4.07812C206.43 3.6875 206.883 3.38281 207.398 3.16406C207.93 2.92969 208.492 2.8125 209.086 2.8125C209.68 2.8125 210.234 2.92969 210.75 3.16406C211.281 3.38281 211.742 3.6875 212.133 4.07812C212.523 4.45312 212.828 4.90625 213.047 5.4375C213.281 5.95312 213.398 6.5 213.398 7.07812ZM212.297 39H205.852V13.8984H212.297V39ZM230.977 39H216.352V32.625H230.977C231.414 32.625 231.789 32.4688 232.102 32.1562C232.414 31.8438 232.57 31.4688 232.57 31.0312C232.57 30.5781 232.414 30.2812 232.102 30.1406C231.789 30 231.414 29.9297 230.977 29.9297H224.32C223.211 29.9297 222.172 29.7188 221.203 29.2969C220.234 28.875 219.391 28.3047 218.672 27.5859C217.953 26.8516 217.383 26 216.961 25.0312C216.555 24.0625 216.352 23.0234 216.352 21.9141C216.352 20.8047 216.555 19.7656 216.961 18.7969C217.383 17.8281 217.953 16.9844 218.672 16.2656C219.391 15.5469 220.234 14.9844 221.203 14.5781C222.172 14.1562 223.211 13.9453 224.32 13.9453H237.281V20.3203H224.32C223.883 20.3203 223.508 20.4766 223.195 20.7891C222.883 21.1016 222.727 21.4766 222.727 21.9141C222.727 22.3672 222.883 22.7578 223.195 23.0859C223.508 23.3984 223.883 23.5547 224.32 23.5547H230.977C232.07 23.5547 233.102 23.7422 234.07 24.1172C235.039 24.4766 235.883 24.9844 236.602 25.6406C237.32 26.2969 237.891 27.0859 238.312 28.0078C238.734 28.9297 238.945 29.9375 238.945 31.0312C238.945 32.1406 238.734 33.1797 238.312 34.1484C237.891 35.1016 237.32 35.9453 236.602 36.6797C235.883 37.3984 235.039 37.9688 234.07 38.3906C233.102 38.7969 232.07 39 230.977 39ZM248.766 39H242.367V3.91406H248.766V15C249.531 14.4219 250.32 14.0156 251.133 13.7812C251.945 13.5312 252.773 13.4062 253.617 13.4062C255.164 13.4062 256.617 13.7031 257.977 14.2969C259.336 14.875 260.516 15.6797 261.516 16.7109C262.531 17.7266 263.328 18.9219 263.906 20.2969C264.5 21.6562 264.797 23.1094 264.797 24.6562V39H258.352V24.6562H258.398C258.398 24 258.273 23.3828 258.023 22.8047C257.773 22.2109 257.43 21.6953 256.992 21.2578C256.555 20.8203 256.047 20.4766 255.469 20.2266C254.891 19.9766 254.273 19.8516 253.617 19.8516C252.945 19.8516 252.312 19.9766 251.719 20.2266C251.125 20.4766 250.609 20.8203 250.172 21.2578C249.734 21.6953 249.391 22.2109 249.141 22.8047C248.891 23.3828 248.766 24 248.766 24.6562V39Z" transform="translate(16 26.0156) scale(4)" fill="white"/>
<defs>
<filter id="filter0_d" x="-16" y="0" width="1688" height="252" filterUnits="userSpaceOnUse" color-interpolation-filters="sRGB">
<feFlood flood-opacity="0" result="BackgroundImageFix"/>
<feColorMatrix in="SourceAlpha" type="matrix" values="0 0 0 0 0 0 0 0 0 0 0 0 0 0 0 0 0 0 255 0"/>
<feOffset dy="4"/>
<feGaussianBlur stdDeviation="2"/>
<feColorMatrix type="matrix" values="0 0 0 0 0 0 0 0 0 0 0 0 0 0 0 0 0 0 0.25 0"/>
<feBlend mode="normal" in2="BackgroundImageFix" result="effect1_dropShadow"/>
<feBlend mode="normal" in="SourceGraphic" in2="effect1_dropShadow" result="shape"/>
</filter>
</defs>
</svg>
