<svg width="1656" height="324" viewBox="0 0 1656 324" fill="none" xmlns="http://www.w3.org/2000/svg">
<g filter="url(#filter0_d)">
<path d="M0 104H1656V324H0V104Z" fill="white"/>
</g>
<path d="M2 106H1654V322H2V106Z" stroke="white"/>
<path d="M663.781 228.219H609.781V284H581.656V147.5H670.531V170.281H609.781V205.531H663.781V228.219ZM713.656 284H686.469V182.562H713.656V284ZM684.875 156.312C684.875 152.25 686.219 148.906 688.906 146.281C691.656 143.656 695.375 142.344 700.062 142.344C704.688 142.344 708.375 143.656 711.125 146.281C713.875 148.906 715.25 152.25 715.25 156.312C715.25 160.438 713.844 163.812 711.031 166.438C708.281 169.062 704.625 170.375 700.062 170.375C695.5 170.375 691.812 169.062 689 166.438C686.25 163.812 684.875 160.438 684.875 156.312ZM761 182.562L761.844 194.281C769.094 185.219 778.812 180.688 791 180.688C801.75 180.688 809.75 183.844 815 190.156C820.25 196.469 822.938 205.906 823.062 218.469V284H795.969V219.125C795.969 213.375 794.719 209.219 792.219 206.656C789.719 204.031 785.562 202.719 779.75 202.719C772.125 202.719 766.406 205.969 762.594 212.469V284H735.5V182.562H761ZM872.281 284H845.094V182.562H872.281V284ZM843.5 156.312C843.5 152.25 844.844 148.906 847.531 146.281C850.281 143.656 854 142.344 858.688 142.344C863.312 142.344 867 143.656 869.75 146.281C872.5 148.906 873.875 152.25 873.875 156.312C873.875 160.438 872.469 163.812 869.656 166.438C866.906 169.062 863.25 170.375 858.688 170.375C854.125 170.375 850.438 169.062 847.625 166.438C844.875 163.812 843.5 160.438 843.5 156.312ZM949.625 255.969C949.625 252.656 947.969 250.062 944.656 248.188C941.406 246.25 936.156 244.531 928.906 243.031C904.781 237.969 892.719 227.719 892.719 212.281C892.719 203.281 896.438 195.781 903.875 189.781C911.375 183.719 921.156 180.688 933.219 180.688C946.094 180.688 956.375 183.719 964.062 189.781C971.812 195.844 975.688 203.719 975.688 213.406H948.594C948.594 209.531 947.344 206.344 944.844 203.844C942.344 201.281 938.438 200 933.125 200C928.562 200 925.031 201.031 922.531 203.094C920.031 205.156 918.781 207.781 918.781 210.969C918.781 213.969 920.188 216.406 923 218.281C925.875 220.094 930.688 221.688 937.438 223.062C944.188 224.375 949.875 225.875 954.5 227.562C968.812 232.812 975.969 241.906 975.969 254.844C975.969 264.094 972 271.594 964.062 277.344C956.125 283.031 945.875 285.875 933.312 285.875C924.812 285.875 917.25 284.375 910.625 281.375C904.062 278.312 898.906 274.156 895.156 268.906C891.406 263.594 889.531 257.875 889.531 251.75H915.219C915.469 256.562 917.25 260.25 920.562 262.812C923.875 265.375 928.312 266.656 933.875 266.656C939.062 266.656 942.969 265.688 945.594 263.75C948.281 261.75 949.625 259.156 949.625 255.969ZM1019.94 193.625C1027.12 185 1036.16 180.688 1047.03 180.688C1069.03 180.688 1080.19 193.469 1080.5 219.031V284H1053.41V219.781C1053.41 213.969 1052.16 209.688 1049.66 206.938C1047.16 204.125 1043 202.719 1037.19 202.719C1029.25 202.719 1023.5 205.781 1019.94 211.906V284H992.844V140H1019.94V193.625Z" fill="#816EC5"/>
<path d="M663.781 228.219H609.781V284H581.656V147.5H670.531V170.281H609.781V205.531H663.781V228.219ZM713.656 284H686.469V182.562H713.656V284ZM684.875 156.312C684.875 152.25 686.219 148.906 688.906 146.281C691.656 143.656 695.375 142.344 700.062 142.344C704.688 142.344 708.375 143.656 711.125 146.281C713.875 148.906 715.25 152.25 715.25 156.312C715.25 160.438 713.844 163.812 711.031 166.438C708.281 169.062 704.625 170.375 700.062 170.375C695.5 170.375 691.812 169.062 689 166.438C686.25 163.812 684.875 160.438 684.875 156.312ZM761 182.562L761.844 194.281C769.094 185.219 778.812 180.688 791 180.688C801.75 180.688 809.75 183.844 815 190.156C820.25 196.469 822.938 205.906 823.062 218.469V284H795.969V219.125C795.969 213.375 794.719 209.219 792.219 206.656C789.719 204.031 785.562 202.719 779.75 202.719C772.125 202.719 766.406 205.969 762.594 212.469V284H735.5V182.562H761ZM872.281 284H845.094V182.562H872.281V284ZM843.5 156.312C843.5 152.25 844.844 148.906 847.531 146.281C850.281 143.656 854 142.344 858.688 142.344C863.312 142.344 867 143.656 869.75 146.281C872.5 148.906 873.875 152.25 873.875 156.312C873.875 160.438 872.469 163.812 869.656 166.438C866.906 169.062 863.25 170.375 858.688 170.375C854.125 170.375 850.438 169.062 847.625 166.438C844.875 163.812 843.5 160.438 843.5 156.312ZM949.625 255.969C949.625 252.656 947.969 250.062 944.656 248.188C941.406 246.25 936.156 244.531 928.906 243.031C904.781 237.969 892.719 227.719 892.719 212.281C892.719 203.281 896.438 195.781 903.875 189.781C911.375 183.719 921.156 180.688 933.219 180.688C946.094 180.688 956.375 183.719 964.062 189.781C971.812 195.844 975.688 203.719 975.688 213.406H948.594C948.594 209.531 947.344 206.344 944.844 203.844C942.344 201.281 938.438 200 933.125 200C928.562 200 925.031 201.031 922.531 203.094C920.031 205.156 918.781 207.781 918.781 210.969C918.781 213.969 920.188 216.406 923 218.281C925.875 220.094 930.688 221.688 937.438 223.062C944.188 224.375 949.875 225.875 954.5 227.562C968.812 232.812 975.969 241.906 975.969 254.844C975.969 264.094 972 271.594 964.062 277.344C956.125 283.031 945.875 285.875 933.312 285.875C924.812 285.875 917.25 284.375 910.625 281.375C904.062 278.312 898.906 274.156 895.156 268.906C891.406 263.594 889.531 257.875 889.531 251.75H915.219C915.469 256.562 917.25 260.25 920.562 262.812C923.875 265.375 928.312 266.656 933.875 266.656C939.062 266.656 942.969 265.688 945.594 263.75C948.281 261.75 949.625 259.156 949.625 255.969ZM1019.94 193.625C1027.12 185 1036.16 180.688 1047.03 180.688C1069.03 180.688 1080.19 193.469 1080.5 219.031V284H1053.41V219.781C1053.41 213.969 1052.16 209.688 1049.66 206.938C1047.16 204.125 1043 202.719 1037.19 202.719C1029.25 202.719 1023.5 205.781 1019.94 211.906V284H992.844V140H1019.94V193.625Z" fill="url(#paint0_linear)" fill-opacity="0.3"/>
<defs>
<filter id="filter0_d" x="-80" y="0" width="1816" height="380" filterUnits="userSpaceOnUse" color-interpolation-filters="sRGB">
<feFlood flood-opacity="0" result="BackgroundImageFix"/>
<feColorMatrix in="SourceAlpha" type="matrix" values="0 0 0 0 0 0 0 0 0 0 0 0 0 0 0 0 0 0 127 0"/>
<feOffset dy="-6"/>
<feGaussianBlur stdDeviation="10"/>
<feColorMatrix type="matrix" values="0 0 0 0 0 0 0 0 0 0 0 0 0 0 0 0 0 0 0.25 0"/>
<feBlend mode="normal" in2="BackgroundImageFix" result="effect1_dropShadow"/>
<feBlend mode="normal" in="SourceGraphic" in2="effect1_dropShadow" result="shape"/>
</filter>
<linearGradient id="paint0_linear" x1="830" y1="104" x2="830" y2="332" gradientUnits="userSpaceOnUse">
<stop/>
<stop offset="1" stop-color="white" stop-opacity="0.5"/>
</linearGradient>
</defs>
</svg>
