<svg xmlns="http://www.w3.org/2000/svg" viewBox="0 0 705 705"><defs><style>.cls-1,.cls-2,.cls-5{fill:#7f70df;}.cls-1,.cls-2,.cls-6{stroke:#7f70df;stroke-miterlimit:10;}.cls-1,.cls-2{stroke-width:0.25px;}.cls-1{opacity:0.2;}.cls-2,.cls-5{opacity:0.3;}.cls-3,.cls-6{fill:none;}.cls-4{fill:#fff;}.cls-6{stroke-width:5px;}</style></defs><title>GardenerCHECKED</title><g id="Shading"><polyline class="cls-1" points="350.5 223.5 326.5 206.5 325.5 255.5 350.5 238.5 350.5 223.5"/><polygon class="cls-2" points="248.5 427.5 175.5 427.5 173.5 418.5 250.5 418.5 248.5 427.5"/><polygon class="cls-1" points="223.5 390.5 267.5 385.5 254.5 399.5 241.5 401.5 230.5 397.5 223.5 390.5"/><polygon class="cls-1" points="196.5 383.5 137.5 362.5 150.5 382.5 172.5 395.5 196.5 383.5"/></g><g id="check"><path class="cls-3" d="M245.548,241.739c.59.969,3.517-.813,3.517-.813l2.2-1.336s2.927-1.782,2.042-3.235-3.812.329-3.812.329l-2.2,1.336C242.905,240.692,245.548,241.739,245.548,241.739Z" transform="translate(2.5 3.5)"/><path class="cls-3" d="M242.89,287.573c1.054.42,2.322-2.764,2.322-2.764l.951-2.388s1.268-3.183-.312-3.813S243,281.163,243,281.163l-.951,2.388C240.149,288.325,242.89,287.573,242.89,287.573Z" transform="translate(2.5 3.5)"/><path class="cls-3" d="M234.332,253.809s1.714-2.967.241-3.818-3.188,2.116-3.188,2.116l-1.286,2.225c-2.572,4.451.25,4.1.25,4.1.982.568,2.7-2.4,2.7-2.4Z" transform="translate(2.5 3.5)"/><path class="cls-3" d="M234.728,301.235l-.505,2.52c-1.011,5.04,1.55,3.806,1.55,3.806,1.112.223,1.786-3.137,1.786-3.137l.505-2.52s.674-3.36-.994-3.695S234.728,301.235,234.728,301.235Z" transform="translate(2.5 3.5)"/><path class="cls-3" d="M253.959,263.972c-3.7,3.571-.888,4.013-.888,4.013.788.816,3.253-1.565,3.253-1.565l1.849-1.786s2.465-2.381,1.283-3.6-3.647,1.157-3.647,1.157Z" transform="translate(2.5 3.5)"/><path class="cls-3" d="M258.674,330.371l.267-2.556s.356-3.408-1.336-3.585-2.049,3.231-2.049,3.231l-.267,2.556c-.535,5.112,1.9,3.644,1.9,3.644C258.318,333.78,258.674,330.371,258.674,330.371Z" transform="translate(2.5 3.5)"/><path class="cls-3" d="M255.06,344.594c-1.688-.209-1.968,2.042-1.968,2.042l-.209,1.688c-.419,3.377,1.972,2.531,1.972,2.531,1.126.14,1.4-2.112,1.4-2.112l.209-1.689S256.748,344.8,255.06,344.594Z" transform="translate(2.5 3.5)"/><path class="cls-3" d="M194.228,270.954l-.951,2.388c-1.9,4.775.839,4.023.839,4.023,1.054.42,2.322-2.764,2.322-2.764l.951-2.388s1.268-3.183-.312-3.813S194.228,270.954,194.228,270.954Z" transform="translate(2.5 3.5)"/><path class="cls-3" d="M225.3,205.412c.432,1.049,3.6-.256,3.6-.256l2.377-.978s3.169-1.3,2.521-2.878-3.817-.269-3.817-.269l-2.377.978C222.849,203.966,225.3,205.412,225.3,205.412Z" transform="translate(2.5 3.5)"/><path class="cls-3" d="M212.018,293.882l-.469,2.527c-.939,5.054,1.6,3.784,1.6,3.784,1.115.207,1.741-3.162,1.741-3.162l.47-2.527s.626-3.369-1.047-3.68S212.018,293.882,212.018,293.882Z" transform="translate(2.5 3.5)"/><path class="cls-3" d="M207.6,219.131c.766.837,3.293-1.478,3.293-1.478l1.9-1.736s2.527-2.314,1.378-3.569-3.676,1.059-3.676,1.059l-1.9,1.736C204.809,218.615,207.6,219.131,207.6,219.131Z" transform="translate(2.5 3.5)"/><path class="cls-3" d="M213.038,239.33c.706.888,3.389-1.244,3.389-1.244l2.012-1.6s2.683-2.132,1.625-3.464-3.742.8-3.742.8l-2.012,1.6C210.285,238.62,213.038,239.33,213.038,239.33Z" transform="translate(2.5 3.5)"/><path class="cls-3" d="M202.623,257.515c1.054.42,2.322-2.764,2.322-2.764l.951-2.388s1.268-3.183-.312-3.813-2.849,2.554-2.849,2.554l-.951,2.388C199.881,258.266,202.623,257.515,202.623,257.515Z" transform="translate(2.5 3.5)"/><path class="cls-3" d="M218.8,273.909c-1.9,4.775.839,4.023.839,4.023,1.054.42,2.322-2.764,2.322-2.764l.951-2.388s1.268-3.183-.312-3.813-2.849,2.554-2.849,2.554Z" transform="translate(2.5 3.5)"/><path class="cls-3" d="M230.347,222.009c-4.569,2.355-2.007,3.587-2.007,3.587.52,1.008,3.566-.562,3.566-.562l2.284-1.178s3.046-1.57,2.266-3.082-3.826.058-3.826.058Z" transform="translate(2.5 3.5)"/><path class="cls-3" d="M228.9,322.924l-.267,2.556c-.535,5.112,1.9,3.644,1.9,3.644,1.128.118,1.485-3.29,1.485-3.29l.267-2.556s.356-3.408-1.336-3.585S228.9,322.924,228.9,322.924Z" transform="translate(2.5 3.5)"/><path class="cls-3" d="M192.7,235.324c.855.746,3.107-1.837,3.107-1.837l1.689-1.937s2.252-2.583.97-3.7-3.535,1.464-3.535,1.464l-1.689,1.937C189.867,235.124,192.7,235.324,192.7,235.324Z" transform="translate(2.5 3.5)"/><path class="cls-3" d="M250.455,213.134c-4.972,1.3-2.739,3.064-2.739,3.064.288,1.1,3.6.228,3.6.228l2.486-.652s3.315-.869,2.883-2.515-3.746-.777-3.746-.777Z" transform="translate(2.5 3.5)"/><path class="cls-3" d="M292.859,200.362l2.4.907s3.206,1.21,3.807-.382-2.606-2.8-2.606-2.8l-2.4-.907c-4.809-1.814-4.007.913-4.007.913C289.652,199.153,292.859,200.362,292.859,200.362Z" transform="translate(2.5 3.5)"/><path class="cls-3" d="M312.321,240.589h1.7s2.269,0,2.269-1.7-2.269-1.7-2.269-1.7h-1.7c-3.4,0-2.269,2.269-2.269,2.269C310.052,240.589,312.321,240.589,312.321,240.589Z" transform="translate(2.5 3.5)"/><path class="cls-3" d="M312.321,251.932h1.7s2.269,0,2.269-1.7-2.269-1.7-2.269-1.7h-1.7c-3.4,0-2.269,2.269-2.269,2.269C310.052,251.932,312.321,251.932,312.321,251.932Z" transform="translate(2.5 3.5)"/><path class="cls-3" d="M292.07,214.918l2.554.285s3.406.379,3.594-1.312-3.217-2.07-3.217-2.07l-2.554-.285c-5.109-.569-3.657,1.875-3.657,1.875C288.664,214.539,292.07,214.918,292.07,214.918Z" transform="translate(2.5 3.5)"/><path class="cls-3" d="M312.321,229.813h1.7s2.269,0,2.269-1.7-2.269-1.7-2.269-1.7h-1.7c-3.4,0-2.269,2.269-2.269,2.269C310.052,229.813,312.321,229.813,312.321,229.813Z" transform="translate(2.5 3.5)"/><path class="cls-3" d="M312.841,206.684l1.561.677s2.081.9,2.758-.659-1.4-2.463-1.4-2.463l-1.561-.677c-3.122-1.354-2.984,1.179-2.984,1.179C310.76,205.782,312.841,206.684,312.841,206.684Z" transform="translate(2.5 3.5)"/><path class="cls-3" d="M312.023,218.87l1.673.311s2.23.414,2.541-1.258-1.919-2.087-1.919-2.087l-1.673-.311C309.3,214.9,310,217.34,310,217.34,309.793,218.455,312.023,218.87,312.023,218.87Z" transform="translate(2.5 3.5)"/><path class="cls-3" d="M289.645,258.566c.54,1,3.554-.633,3.554-.633l2.26-1.223s3.014-1.631,2.2-3.127-3.824.134-3.824.134l-2.26,1.223C287.059,257.386,289.645,258.566,289.645,258.566Z" transform="translate(2.5 3.5)"/><path class="cls-3" d="M275.565,272.794c.866.732,3.079-1.884,3.079-1.884l1.66-1.962s2.213-2.617.914-3.715-3.512,1.518-3.512,1.518l-1.66,1.962C272.726,272.637,275.565,272.794,275.565,272.794Z" transform="translate(2.5 3.5)"/><path class="cls-3" d="M273.811,210.5l-2.57.038c-5.14.076-3.393,2.319-3.393,2.319.017,1.134,3.443,1.083,3.443,1.083l2.57-.038s3.426-.051,3.4-1.752S273.811,210.5,273.811,210.5Z" transform="translate(2.5 3.5)"/><path class="cls-3" d="M271.352,196.962l2.567-.128s3.423-.17,3.338-1.87-3.507-1.529-3.507-1.529l-2.567.128c-5.134.256-3.31,2.436-3.31,2.436C267.93,197.132,271.352,196.962,271.352,196.962Z" transform="translate(2.5 3.5)"/><path class="cls-3" d="M265.334,232.166c.31,1.091,3.606.153,3.606.153l2.472-.7s3.3-.938,2.83-2.574-3.762-.7-3.762-.7l-2.472.7C263.065,230.453,265.334,232.166,265.334,232.166Z" transform="translate(2.5 3.5)"/><path class="cls-3" d="M265.576,292.111c1.054.42,2.322-2.764,2.322-2.764l.951-2.388s1.268-3.183-.312-3.813-2.849,2.554-2.849,2.554l-.951,2.388C262.835,292.863,265.576,292.111,265.576,292.111Z" transform="translate(2.5 3.5)"/><path class="cls-3" d="M291.209,229.294l2.566-.138s3.422-.184,3.331-1.883-3.513-1.515-3.513-1.515l-2.566.138c-5.133.275-3.3,2.449-3.3,2.449C287.788,229.477,291.209,229.294,291.209,229.294Z" transform="translate(2.5 3.5)"/><path class="cls-3" d="M292.226,243.106l2.46-.745s3.28-.993,2.787-2.622-3.773-.635-3.773-.635l-2.46.745c-4.92,1.49-2.622,3.164-2.622,3.164C288.946,244.1,292.226,243.106,292.226,243.106Z" transform="translate(2.5 3.5)"/><path class="cls-3" d="M259.2,308.349c-.858,5.068,1.665,3.757,1.665,3.757,1.118.189,1.691-3.189,1.691-3.189l.429-2.534s.572-3.379-1.105-3.663-2.25,3.095-2.25,3.095Z" transform="translate(2.5 3.5)"/><path class="cls-3" d="M276.3,246.753c-1.017-1.364-3.764.685-3.764.685l-2.06,1.536c-4.121,3.073-1.391,3.867-1.391,3.867.678.909,3.425-1.139,3.425-1.139l2.06-1.536S277.319,248.117,276.3,246.753Z" transform="translate(2.5 3.5)"/><path class="cls-3" d="M248.882,198.21l2.534-.43s3.378-.574,3.094-2.251-3.663-1.1-3.663-1.1l-2.534.43c-5.068.861-3,2.81-3,2.81C245.5,198.783,248.882,198.21,248.882,198.21Z" transform="translate(2.5 3.5)"/><path class="cls-3" d="M348.619,220.171l-24.934-17.345a.735.735,0,0,0-1.155.6v47.523a.812.812,0,0,0,1.273.669l24.248-16.7,49.091,1.616,21.987-23.52Z" transform="translate(2.5 3.5)"/><path class="cls-3" d="M184.713,484.463A5.486,5.486,0,0,0,189.25,489h10.739l-18.134-24.717C183.3,474.475,184.5,483,184.713,484.463Z" transform="translate(2.5 3.5)"/><path class="cls-3" d="M418.1,580.678a9.766,9.766,0,0,0-5.977-1.723,10.141,10.141,0,0,0-5.15,1.285,10.653,10.653,0,0,0-3.779,3.856l.246-4.3H388.988v46.652h14.2V594.916a30.493,30.493,0,0,1,.387-6.486,1.757,1.757,0,0,1,1.9-1.213q1.441,0,1.758,1.055a30.052,30.052,0,0,1,.316,5.871v32.309h14.2v-32.7a39.7,39.7,0,0,0-.668-8.736A7.662,7.662,0,0,0,418.1,580.678Z" transform="translate(2.5 3.5)"/><path class="cls-3" d="M499.516,112.239s-2.678-19.872,6.459-27.74,19.282.153,19.282.153a72.941,72.941,0,0,1,7.161,7.168l7.756-8.3c-5.617-5.952-13.933-12.217-24.247-12.512-19.85-.567-26.089,20.417-26.089,20.417s-1.7,9.074-1.7,13.612L477.361,93.7s-3.4-5.1-13.044-1.134l-51.043,45.372s-3.4,3.4-1.7,10.209L443.1,187.37l61.078-65.339A31.648,31.648,0,0,1,499.516,112.239Z" transform="translate(2.5 3.5)"/><path class="cls-3" d="M451.795,581.223a19.341,19.341,0,0,0-9.861-2.268,19.088,19.088,0,0,0-8.648,1.881,11.348,11.348,0,0,0-5.414,5.414,23.167,23.167,0,0,0-1.652,9.65v13.605a32.23,32.23,0,0,0,.738,7.928,12.9,12.9,0,0,0,2.654,4.992,12.719,12.719,0,0,0,5.361,3.568,22.412,22.412,0,0,0,7.945,1.3,19.664,19.664,0,0,0,7.717-1.318,12.411,12.411,0,0,0,5.08-3.955,13.524,13.524,0,0,0,2.549-4.957,30.856,30.856,0,0,0,.545-6.645v-3.445H445.344v6.152a13.269,13.269,0,0,1-.545,4.693,2.132,2.132,0,0,1-2.162,1.213,1.776,1.776,0,0,1-1.758-.914,11.2,11.2,0,0,1-.457-4.078v-10.09h18.387v-6.187q0-6.785-1.564-10.529A12.472,12.472,0,0,0,451.795,581.223Zm-7.225,15.135h-4.148v-3.41a18.669,18.669,0,0,1,.352-4.834q.352-.9,1.828-.9a1.528,1.528,0,0,1,1.582,1.055,17.188,17.188,0,0,1,.387,4.676Z" transform="translate(2.5 3.5)"/><path class="cls-3" d="M181.638,254.112c1.054.42,2.322-2.764,2.322-2.764l.951-2.388s1.268-3.183-.312-3.813-2.849,2.554-2.849,2.554l-.951,2.388C178.9,254.864,181.638,254.112,181.638,254.112Z" transform="translate(2.5 3.5)"/><path class="cls-3" d="M263.821,379.156c-.375-.257-.755-.521-1.122-.764l.8,1.108Z" transform="translate(2.5 3.5)"/><path class="cls-3" d="M477.09,585.934l.563-6.135h-14.2v46.652h14.2V608.029a52.631,52.631,0,0,1,.422-8.666,4.425,4.425,0,0,1,2.25-2.936,11.9,11.9,0,0,1,5.73-1.055V578.955Q480.184,579.343,477.09,585.934Z" transform="translate(2.5 3.5)"/><path class="cls-3" d="M278.984,581.5q-3.657-2.549-10.863-2.549a18.854,18.854,0,0,0-9.773,2.25,11.579,11.579,0,0,0-5.01,5.186,22.069,22.069,0,0,0-1.248,8.35v3.129h13.324v-4.887a18.927,18.927,0,0,1,.352-4.834q.351-.932,1.793-.932a1.871,1.871,0,0,1,1.811,1.107,13.032,13.032,0,0,1,.545,4.764,9.81,9.81,0,0,1-.492,3.867q-.493.949-7.488,3.691-6.539,2.531-8.191,4.43t-1.652,7.137v3.832q0,7.066,3.111,9.158a12,12,0,0,0,6.838,2.092,8.664,8.664,0,0,0,8.262-5v4.157h13.816V603.037q0-11.566-.738-15.275A9.933,9.933,0,0,0,278.984,581.5Zm-9.07,32.361a13.359,13.359,0,0,1-.4,4.342,1.741,1.741,0,0,1-1.74.826,1.856,1.856,0,0,1-1.881-1.055,14.133,14.133,0,0,1-.475-4.676,16.6,16.6,0,0,1,.545-4.852q.545-1.687,3.955-4.184Z" transform="translate(2.5 3.5)"/><path class="cls-3" d="M377.334,581.223a19.341,19.341,0,0,0-9.861-2.268,19.088,19.088,0,0,0-8.648,1.881,11.348,11.348,0,0,0-5.414,5.414,23.167,23.167,0,0,0-1.652,9.65v13.605a32.23,32.23,0,0,0,.738,7.928,12.9,12.9,0,0,0,2.654,4.992,12.719,12.719,0,0,0,5.361,3.568,22.412,22.412,0,0,0,7.945,1.3,19.664,19.664,0,0,0,7.717-1.318,12.411,12.411,0,0,0,5.08-3.955,13.524,13.524,0,0,0,2.549-4.957,30.856,30.856,0,0,0,.545-6.645v-3.445H370.883v6.152a13.269,13.269,0,0,1-.545,4.693,2.132,2.132,0,0,1-2.162,1.213,1.776,1.776,0,0,1-1.758-.914,11.2,11.2,0,0,1-.457-4.078v-10.09h18.387v-6.187q0-6.785-1.564-10.529A12.472,12.472,0,0,0,377.334,581.223Zm-7.225,15.135h-4.148v-3.41a18.67,18.67,0,0,1,.352-4.834q.352-.9,1.828-.9a1.528,1.528,0,0,1,1.582,1.055,17.188,17.188,0,0,1,.387,4.676Z" transform="translate(2.5 3.5)"/><path class="cls-3" d="M302.645,585.934l.563-6.135H289v46.652h14.2V608.029a52.631,52.631,0,0,1,.422-8.666,4.425,4.425,0,0,1,2.25-2.936,11.9,11.9,0,0,1,5.73-1.055V578.955Q305.738,579.343,302.645,585.934Z" transform="translate(2.5 3.5)"/><path class="cls-3" d="M332.879,582.761a11.61,11.61,0,0,0-8.824-3.806,10.05,10.05,0,0,0-5.871,1.705,7.573,7.573,0,0,0-3.146,3.955,29.386,29.386,0,0,0-.686,7.629v21.832a28.672,28.672,0,0,0,.686,7.453,7.754,7.754,0,0,0,3.111,4.025,9.571,9.571,0,0,0,5.73,1.74,10.96,10.96,0,0,0,4.711-1.057,14.679,14.679,0,0,0,4.289-3.171v3.384h14.2V569.533h-14.2Zm0,30.366a15.475,15.475,0,0,1-.457,4.9,1.806,1.806,0,0,1-1.828,1,1.615,1.615,0,0,1-1.617-.9,10.52,10.52,0,0,1-.422-3.744V591.541a8.8,8.8,0,0,1,.439-3.533,1.774,1.774,0,0,1,1.705-.791,1.756,1.756,0,0,1,1.74.879,8.874,8.874,0,0,1,.439,3.445Z" transform="translate(2.5 3.5)"/><path class="cls-3" d="M240.523,571.01a20.08,20.08,0,0,0-10.793-2.672q-6.61,0-10.775,3.076t-5.045,6.768a56.644,56.644,0,0,0-.879,11.848v16.91a67.365,67.365,0,0,0,.422,8.807,14.193,14.193,0,0,0,2.111,5.607,13.369,13.369,0,0,0,4.943,4.482,14.138,14.138,0,0,0,6.984,1.811,10.76,10.76,0,0,0,5.436-1.318,10.348,10.348,0,0,0,3.817-3.955l1.369,4.078h9.3V595.9H230.082v8.648h2.988v6.75a16.039,16.039,0,0,1-.58,5.344,2.172,2.172,0,0,1-2.2,1.371,1.917,1.917,0,0,1-1.969-1.213,16.253,16.253,0,0,1-.492-5.045V584.439q0-4.359.492-5.414a2.212,2.212,0,0,1,3.867.176,25.623,25.623,0,0,1,.422,6.117v5.168h14.8v-2.461q0-7-1.3-10.67A12.613,12.613,0,0,0,240.523,571.01Z" transform="translate(2.5 3.5)"/><path class="cls-4" d="M330.7,587.217a1.774,1.774,0,0,0-1.705.791,8.8,8.8,0,0,0-.439,3.533v22.852a10.52,10.52,0,0,0,.422,3.744,1.615,1.615,0,0,0,1.617.9,1.806,1.806,0,0,0,1.828-1,15.475,15.475,0,0,0,.457-4.9V591.541a8.874,8.874,0,0,0-.439-3.445A1.756,1.756,0,0,0,330.7,587.217Z" transform="translate(2.5 3.5)"/><path class="cls-4" d="M442.6,587.217q-1.477,0-1.828.9a18.669,18.669,0,0,0-.352,4.834v3.41h4.148v-3.41a17.188,17.188,0,0,0-.387-4.676A1.528,1.528,0,0,0,442.6,587.217Z" transform="translate(2.5 3.5)"/><path class="cls-4" d="M-.5-1.5v700h700V-1.5ZM314.195,203.562l1.561.677s2.081.9,1.4,2.463-2.758.659-2.758.659l-1.561-.677s-2.081-.9-1.63-1.943C311.211,204.741,311.073,202.209,314.195,203.562Zm-1.55,11.962,1.673.311s2.23.415,1.919,2.087-2.541,1.258-2.541,1.258l-1.673-.311s-2.23-.415-2.023-1.53C310,217.34,309.3,214.9,312.645,215.524Zm-.324,10.886h1.7s2.269,0,2.269,1.7-2.269,1.7-2.269,1.7h-1.7s-2.269,0-2.269-1.134C310.052,228.679,308.918,226.41,312.321,226.41Zm0,10.776h1.7s2.269,0,2.269,1.7-2.269,1.7-2.269,1.7h-1.7s-2.269,0-2.269-1.134C310.052,239.454,308.918,237.186,312.321,237.186Zm0,11.343h1.7s2.269,0,2.269,1.7-2.269,1.7-2.269,1.7h-1.7s-2.269,0-2.269-1.134C310.052,250.8,308.918,248.529,312.321,248.529Zm-18.261-51.35,2.4.907s3.206,1.21,2.606,2.8-3.807.382-3.807.382l-2.4-.907s-3.206-1.21-2.806-2.271C290.053,198.091,289.25,195.364,294.06,197.178Zm-1.613,14.358,2.554.285s3.406.379,3.217,2.07-3.594,1.312-3.594,1.312l-2.554-.285s-3.406-.379-3.28-1.507C288.789,213.411,287.338,210.967,292.446,211.536Zm-.867,43.4,2.26-1.223s3.014-1.631,3.824-.134-2.2,3.127-2.2,3.127l-2.26,1.223s-3.014,1.631-3.554.633C289.645,258.566,287.059,257.386,291.58,254.94Zm-2.962-11.927s-2.3-1.675,2.622-3.164l2.46-.745s3.28-.993,3.773.635-2.787,2.622-2.787,2.622l-2.46.745S288.946,244.1,288.618,243.013Zm2.409-17.118,2.566-.138s3.422-.184,3.513,1.515-3.331,1.883-3.331,1.883l-2.566.138s-3.422.184-3.483-.949C287.727,228.344,285.894,226.171,291.027,225.9Zm-9.81,39.337c1.3,1.1-.914,3.715-.914,3.715l-1.66,1.962s-2.213,2.617-3.079,1.884c0,0-2.839-.157.481-4.081l1.66-1.962S279.918,264.134,281.217,265.233Zm-8.706-13.53s-2.747,2.049-3.425,1.139c0,0-2.73-.794,1.391-3.867l2.06-1.536s2.747-2.049,3.764-.685-1.73,3.413-1.73,3.413Zm1.35-37.8-2.57.038s-3.426.051-3.443-1.083c0,0-1.747-2.243,3.393-2.319l2.57-.038s3.426-.051,3.452,1.651S273.862,213.9,273.862,213.9Zm-2.678-20.337,2.567-.128s3.423-.17,3.507,1.529-3.338,1.87-3.338,1.87l-2.567.128s-3.423.17-3.479-.963C267.873,196,266.049,193.819,271.183,193.563Zm-3.174,35.483,2.472-.7s3.3-.938,3.762.7-2.83,2.574-2.83,2.574l-2.472.7s-3.3.938-3.606-.153C265.334,232.166,263.065,230.453,268.009,229.046Zm-3.272,59.041.951-2.388s1.268-3.183,2.849-2.554.312,3.813.312,3.813l-.951,2.388s-1.268,3.183-2.322,2.764C265.576,292.111,262.835,292.863,264.737,288.087Zm-2.856,14.633c1.678.284,1.105,3.663,1.105,3.663l-.429,2.534s-.572,3.379-1.691,3.189c0,0-2.523,1.311-1.665-3.757l.429-2.534S260.2,302.436,261.881,302.72Zm-2.426-41.691c1.182,1.224-1.283,3.6-1.283,3.6l-1.849,1.786s-2.465,2.381-3.253,1.565c0,0-2.809-.441.888-4.013l1.849-1.786S258.272,259.805,259.455,261.029Zm-4.165,68.989.267-2.556s.357-3.408,2.049-3.231,1.336,3.585,1.336,3.585l-.267,2.556s-.356,3.408-1.485,3.29C257.19,333.662,254.755,335.13,255.29,330.017Zm1.179,17.038-.209,1.689s-.279,2.251-1.4,2.112c0,0-2.391.846-1.972-2.531l.209-1.688s.279-2.251,1.968-2.042S256.469,347.055,256.469,347.055Zm.218-133.8c.432,1.646-2.883,2.515-2.883,2.515l-2.486.652s-3.315.869-3.6-.228c0,0-2.233-1.76,2.739-3.064l2.486-.652S256.256,211.613,256.687,213.259Zm-8.376-18.4,2.534-.43s3.378-.574,3.663,1.1-3.094,2.251-3.094,2.251l-2.534.43s-3.378.574-3.568-.544C245.313,197.665,243.244,195.715,248.312,194.855ZM247.3,238.02l2.2-1.336s2.927-1.782,3.812-.329-2.042,3.235-2.042,3.235l-2.2,1.336s-2.927,1.782-3.517.813C245.548,241.739,242.905,240.692,247.3,238.02Zm-5.245,45.531.951-2.388s1.268-3.183,2.849-2.554.312,3.813.312,3.813l-.951,2.388s-1.268,3.183-2.322,2.764C242.89,287.573,240.149,288.325,242.051,283.55Zm-4.981,14.659c1.668.335.994,3.695.994,3.695l-.505,2.52s-.674,3.36-1.786,3.137c0,0-2.561,1.234-1.55-3.806l.505-2.52S235.4,297.875,237.071,298.21Zm-6.722-39.776s-2.822.348-.25-4.1l1.286-2.225s1.714-2.967,3.188-2.116-.241,3.818-.241,3.818l-1.286,2.225S231.331,259,230.349,258.434Zm1.937,64.844-.267,2.556s-.357,3.408-1.485,3.29c0,0-2.435,1.468-1.9-3.644l.267-2.556s.357-3.408,2.049-3.231S232.286,323.278,232.286,323.278Zm4.171-102.5c.78,1.512-2.266,3.082-2.266,3.082l-2.284,1.178s-3.046,1.57-3.566.562c0,0-2.562-1.231,2.007-3.587l2.284-1.178S235.677,219.262,236.457,220.774ZM227.6,202.009l2.377-.978s3.169-1.3,3.817.269-2.521,2.878-2.521,2.878l-2.377.978s-3.169,1.3-3.6.256C225.3,205.412,222.849,203.966,227.6,202.009Zm-5,66.958c1.581.63.312,3.813.312,3.813l-.951,2.388s-1.268,3.183-2.322,2.764c0,0-2.742.752-.839-4.023l.951-2.388S221.018,268.338,222.6,268.968Zm-2.535-35.944c1.058,1.332-1.625,3.464-1.625,3.464l-2.012,1.6s-2.683,2.132-3.389,1.244c0,0-2.753-.71,1.272-3.908l2.012-1.6S219,231.692,220.063,233.024Zm-4.7,61.48-.47,2.527s-.626,3.369-1.741,3.162c0,0-2.543,1.27-1.6-3.784l.469-2.527s.626-3.369,2.3-3.058S215.364,294.5,215.364,294.5Zm-6.764-79.36,1.9-1.736s2.527-2.314,3.676-1.059-1.378,3.569-1.378,3.569l-1.9,1.736s-2.527,2.314-3.293,1.478C207.6,219.131,204.809,218.615,208.6,215.143Zm-6.816,38.348.951-2.388s1.268-3.183,2.849-2.554.312,3.813.312,3.813l-.951,2.388s-1.268,3.183-2.322,2.764C202.623,257.515,199.881,258.266,201.784,253.491Zm-8.539-22.241,1.689-1.937s2.252-2.583,3.535-1.464-.97,3.7-.97,3.7l-1.689,1.937s-2.252,2.583-3.107,1.837C192.7,235.324,189.867,235.124,193.245,231.25Zm4.144,40.964-.951,2.388s-1.268,3.183-2.322,2.764c0,0-2.742.752-.839-4.023l.951-2.388s1.268-3.183,2.849-2.554S197.389,272.214,197.389,272.214ZM180.8,250.089l.951-2.388s1.268-3.183,2.849-2.554.312,3.813.312,3.813l-.951,2.388s-1.268,3.183-2.322,2.764C181.638,254.112,178.9,254.864,180.8,250.089Zm66.615,340.4h-14.8v-5.168a25.623,25.623,0,0,0-.422-6.117,2.212,2.212,0,0,0-3.867-.176q-.493,1.055-.492,5.414v27.316a16.253,16.253,0,0,0,.492,5.045,1.917,1.917,0,0,0,1.969,1.213,2.172,2.172,0,0,0,2.2-1.371,16.039,16.039,0,0,0,.58-5.344v-6.75h-2.988V595.9h17.332v30.551h-9.3l-1.369-4.078a10.348,10.348,0,0,1-3.817,3.955,10.76,10.76,0,0,1-5.436,1.318,14.138,14.138,0,0,1-6.984-1.811,13.369,13.369,0,0,1-4.943-4.482,14.193,14.193,0,0,1-2.111-5.607,67.365,67.365,0,0,1-.422-8.807v-16.91a56.644,56.644,0,0,1,.879-11.848q.878-3.691,5.045-6.768t10.775-3.076a20.08,20.08,0,0,1,10.793,2.672,12.613,12.613,0,0,1,5.59,6.346q1.3,3.674,1.3,10.67Zm36.7,35.965H270.3v-4.157a8.664,8.664,0,0,1-8.262,5A12,12,0,0,1,255.2,625.2q-3.111-2.092-3.111-9.158v-3.832q0-5.238,1.652-7.137t8.191-4.43q7-2.742,7.488-3.691a9.81,9.81,0,0,0,.492-3.867,13.032,13.032,0,0,0-.545-4.764,1.871,1.871,0,0,0-1.811-1.107q-1.442,0-1.793.932a18.927,18.927,0,0,0-.352,4.834v4.887H252.09V594.74a22.069,22.069,0,0,1,1.248-8.35,11.579,11.579,0,0,1,5.01-5.186,18.854,18.854,0,0,1,9.773-2.25q7.206,0,10.863,2.549a9.933,9.933,0,0,1,4.395,6.258q.738,3.709.738,15.275Zm27.492-31.078a11.9,11.9,0,0,0-5.73,1.055,4.425,4.425,0,0,0-2.25,2.936,52.631,52.631,0,0,0-.422,8.666v18.422H289V579.8h14.2l-.562,6.135q3.093-6.59,8.965-6.979Zm35.473,31.078h-14.2v-3.384a14.679,14.679,0,0,1-4.289,3.171,10.96,10.96,0,0,1-4.711,1.057,9.571,9.571,0,0,1-5.73-1.74,7.754,7.754,0,0,1-3.111-4.025,28.672,28.672,0,0,1-.686-7.453V592.244a29.386,29.386,0,0,1,.686-7.629,7.573,7.573,0,0,1,3.146-3.955,10.05,10.05,0,0,1,5.871-1.705,11.61,11.61,0,0,1,8.824,3.806V569.533h14.2Zm37.266-22.5H365.961v10.09a11.2,11.2,0,0,0,.457,4.078,1.776,1.776,0,0,0,1.758.914,2.132,2.132,0,0,0,2.162-1.213,13.269,13.269,0,0,0,.545-4.693v-6.152h13.465v3.445a30.856,30.856,0,0,1-.545,6.645,13.524,13.524,0,0,1-2.549,4.957,12.411,12.411,0,0,1-5.08,3.955,19.664,19.664,0,0,1-7.717,1.318,22.412,22.412,0,0,1-7.945-1.3,12.719,12.719,0,0,1-5.361-3.568,12.9,12.9,0,0,1-2.654-4.992,32.23,32.23,0,0,1-.738-7.928V595.9a23.167,23.167,0,0,1,1.652-9.65,11.348,11.348,0,0,1,5.414-5.414,19.088,19.088,0,0,1,8.648-1.881,19.341,19.341,0,0,1,9.861,2.268,12.472,12.472,0,0,1,5.449,6.012q1.564,3.744,1.564,10.529Zm37.406,22.5h-14.2V594.143a30.052,30.052,0,0,0-.316-5.871q-.316-1.055-1.758-1.055a1.757,1.757,0,0,0-1.9,1.213,30.493,30.493,0,0,0-.387,6.486v31.535h-14.2V579.8h14.449l-.246,4.3a10.653,10.653,0,0,1,3.779-3.856,10.141,10.141,0,0,1,5.15-1.285,9.766,9.766,0,0,1,5.977,1.723,7.662,7.662,0,0,1,2.988,4.342,39.7,39.7,0,0,1,.668,8.736Zm37.055-22.5H440.422v10.09a11.2,11.2,0,0,0,.457,4.078,1.776,1.776,0,0,0,1.758.914,2.132,2.132,0,0,0,2.162-1.213,13.269,13.269,0,0,0,.545-4.693v-6.152h13.465v3.445a30.856,30.856,0,0,1-.545,6.645,13.524,13.524,0,0,1-2.549,4.957,12.411,12.411,0,0,1-5.08,3.955,19.664,19.664,0,0,1-7.717,1.318,22.412,22.412,0,0,1-7.945-1.3,12.719,12.719,0,0,1-5.361-3.568,12.9,12.9,0,0,1-2.654-4.992,32.23,32.23,0,0,1-.738-7.928V595.9a23.167,23.167,0,0,1,1.652-9.65,11.348,11.348,0,0,1,5.414-5.414,19.088,19.088,0,0,1,8.648-1.881,19.341,19.341,0,0,1,9.861,2.268,12.472,12.472,0,0,1,5.449,6.012q1.564,3.744,1.564,10.529Zm27.246-8.578a11.9,11.9,0,0,0-5.73,1.055,4.425,4.425,0,0,0-2.25,2.936,52.631,52.631,0,0,0-.422,8.666v18.422h-14.2V579.8h14.2l-.562,6.135q3.094-6.59,8.965-6.979ZM653.5,133.5l-367,393s-25,28-59,0L199.988,489H189.25a5.486,5.486,0,0,1-4.537-4.537c-.209-1.461-1.416-9.988-2.858-20.18L70.5,312.5s-10-18,5.5-33.5l55.5-40.5s18-10,33,4l98.2,135.892c.367.243.747.507,1.122.764L397.143,236.533l-49.091-1.616-24.248,16.7a.812.812,0,0,1-1.273-.669V203.43a.735.735,0,0,1,1.155-.6l24.934,17.345,70.511-7.158L443.1,187.37l-31.528-39.226c-1.7-6.806,1.7-10.209,1.7-10.209l51.043-45.372c9.642-3.97,13.044,1.134,13.044,1.134l10.776,11.343c0-4.537,1.7-13.612,1.7-13.612s6.239-20.984,26.089-20.417c10.313.295,18.63,6.559,24.247,12.512L564.5,57.5s15-18,36-7l53,50S665.5,115.5,653.5,133.5Z" transform="translate(2.5 3.5)"/><path class="cls-4" d="M368.141,587.217q-1.477,0-1.828.9a18.67,18.67,0,0,0-.352,4.834v3.41h4.148v-3.41a17.188,17.188,0,0,0-.387-4.676A1.528,1.528,0,0,0,368.141,587.217Z" transform="translate(2.5 3.5)"/><path class="cls-4" d="M265.959,608.451a16.6,16.6,0,0,0-.545,4.852,14.133,14.133,0,0,0,.475,4.676,1.856,1.856,0,0,0,1.881,1.055,1.741,1.741,0,0,0,1.74-.826,13.359,13.359,0,0,0,.4-4.342v-9.6Q266.5,606.764,265.959,608.451Z" transform="translate(2.5 3.5)"/><path class="cls-4" d="M525.257,84.652s-10.145-8.021-19.282-.153-6.459,27.74-6.459,27.74a31.648,31.648,0,0,0,4.662,9.792l28.24-30.211A72.941,72.941,0,0,0,525.257,84.652Z" transform="translate(2.5 3.5)"/><polygon class="cls-4" points="445.6 190.87 421.629 216.513 462.847 212.328 445.6 190.87"/><polygon class="cls-5" points="445.6 190.87 421.629 216.513 462.847 212.328 445.6 190.87"/><path class="cls-4" d="M175.071,424.345a4.852,4.852,0,0,1-3.97-5.1c0-4.537,3.97-4.537,3.97-4.537h31.406l-.213-15.313a27.811,27.811,0,0,0-14.746-19.283s-11.343,10.209-19.283,11.343c0,0-1.134.567-4.537,0s-17.582-4.537-31.193-31.76c0,0,12.477-6.239,24.387-7.94s18.716,1.7,18.716,1.7,11.343,5.672,12.477,24.387a32.834,32.834,0,0,1,16.447,20.417s6.806-12.477,14.746-12.477c0,0,5.1-12.477,10.209-14.746A18.081,18.081,0,0,1,243.7,369.9s7.506.892,19,8.494L164.5,242.5c-15-14-33-4-33-4L76,279c-15.5,15.5-5.5,33.5-5.5,33.5L181.855,464.283c-2.477-17.509-5.649-39.938-5.649-39.938Zm51.156-78.856.209-1.688s.279-2.251,1.968-2.042,1.409,2.461,1.409,2.461l-.209,1.688s-.279,2.251-1.4,2.112C228.2,348.02,225.808,348.866,226.227,345.489Zm-20.279-27.382.267-2.556s.356-3.408,2.049-3.231,1.336,3.585,1.336,3.585l-.267,2.556s-.356,3.408-1.485,3.29C207.848,321.752,205.413,323.22,205.948,318.107Zm-2.974,21.143.209-1.689s.279-2.251,1.968-2.042,1.409,2.461,1.409,2.461l-.209,1.688s-.279,2.251-1.4,2.112C204.946,341.781,202.555,342.627,202.974,339.25Zm-15.872-46.4.671-2.481s.894-3.308,2.537-2.864.748,3.752.748,3.752l-.671,2.481s-.894,3.308-1.989,3.012C188.4,296.752,185.76,297.814,187.1,292.852Zm-4.974,20.718.267-2.556s.356-3.408,2.049-3.231,1.336,3.585,1.336,3.585l-.267,2.556s-.356,3.408-1.485,3.29C184.027,317.214,181.593,318.682,182.128,313.57Zm-3.541,19.442.209-1.689s.279-2.251,1.968-2.042,1.409,2.461,1.409,2.461l-.209,1.688s-.279,2.251-1.4,2.112C180.558,335.542,178.167,336.389,178.586,333.012Zm-6.861-63.64.951-2.388s1.268-3.183,2.849-2.554.312,3.813.312,3.813l-.951,2.388s-1.268,3.183-2.322,2.763C172.564,273.395,169.822,274.147,171.725,269.372Zm-8.5,22.171.889-2.412s1.185-3.215,2.781-2.627.411,3.8.411,3.8l-.889,2.412s-1.185,3.215-2.249,2.823C164.174,295.542,161.452,296.366,163.23,291.543ZM158.307,313l.267-2.556s.356-3.408,2.049-3.231,1.336,3.585,1.336,3.585l-.267,2.556s-.356,3.408-1.485,3.29C160.207,316.647,157.773,318.115,158.307,313ZM154.2,333.012l.209-1.689s.279-2.251,1.968-2.042,1.409,2.461,1.409,2.461l-.209,1.688s-.279,2.251-1.4,2.112C156.171,335.542,153.78,336.389,154.2,333.012Z" transform="translate(2.5 3.5)"/><path class="cls-5" d="M175.071,424.345a4.852,4.852,0,0,1-3.97-5.1c0-4.537,3.97-4.537,3.97-4.537h31.406l-.213-15.313a27.811,27.811,0,0,0-14.746-19.283s-11.343,10.209-19.283,11.343c0,0-1.134.567-4.537,0s-17.582-4.537-31.193-31.76c0,0,12.477-6.239,24.387-7.94s18.716,1.7,18.716,1.7,11.343,5.672,12.477,24.387a32.834,32.834,0,0,1,16.447,20.417s6.806-12.477,14.746-12.477c0,0,5.1-12.477,10.209-14.746A18.081,18.081,0,0,1,243.7,369.9s7.506.892,19,8.494L164.5,242.5c-15-14-33-4-33-4L76,279c-15.5,15.5-5.5,33.5-5.5,33.5L181.855,464.283c-2.477-17.509-5.649-39.938-5.649-39.938Zm51.156-78.856.209-1.688s.279-2.251,1.968-2.042,1.409,2.461,1.409,2.461l-.209,1.688s-.279,2.251-1.4,2.112C228.2,348.02,225.808,348.866,226.227,345.489Zm-20.279-27.382.267-2.556s.356-3.408,2.049-3.231,1.336,3.585,1.336,3.585l-.267,2.556s-.356,3.408-1.485,3.29C207.848,321.752,205.413,323.22,205.948,318.107Zm-2.974,21.143.209-1.689s.279-2.251,1.968-2.042,1.409,2.461,1.409,2.461l-.209,1.688s-.279,2.251-1.4,2.112C204.946,341.781,202.555,342.627,202.974,339.25Zm-15.872-46.4.671-2.481s.894-3.308,2.537-2.864.748,3.752.748,3.752l-.671,2.481s-.894,3.308-1.989,3.012C188.4,296.752,185.76,297.814,187.1,292.852Zm-4.974,20.718.267-2.556s.356-3.408,2.049-3.231,1.336,3.585,1.336,3.585l-.267,2.556s-.356,3.408-1.485,3.29C184.027,317.214,181.593,318.682,182.128,313.57Zm-3.541,19.442.209-1.689s.279-2.251,1.968-2.042,1.409,2.461,1.409,2.461l-.209,1.688s-.279,2.251-1.4,2.112C180.558,335.542,178.167,336.389,178.586,333.012Zm-6.861-63.64.951-2.388s1.268-3.183,2.849-2.554.312,3.813.312,3.813l-.951,2.388s-1.268,3.183-2.322,2.763C172.564,273.395,169.822,274.147,171.725,269.372Zm-8.5,22.171.889-2.412s1.185-3.215,2.781-2.627.411,3.8.411,3.8l-.889,2.412s-1.185,3.215-2.249,2.823C164.174,295.542,161.452,296.366,163.23,291.543ZM158.307,313l.267-2.556s.356-3.408,2.049-3.231,1.336,3.585,1.336,3.585l-.267,2.556s-.356,3.408-1.485,3.29C160.207,316.647,157.773,318.115,158.307,313ZM154.2,333.012l.209-1.689s.279-2.251,1.968-2.042,1.409,2.461,1.409,2.461l-.209,1.688s-.279,2.251-1.4,2.112C156.171,335.542,153.78,336.389,154.2,333.012Z" transform="translate(2.5 3.5)"/><path class="cls-4" d="M600.5,50.5c-21-11-36,7-36,7L540.174,83.523a59.186,59.186,0,0,1,8.081,10.741,146.314,146.314,0,0,1,5.671,15.313c2.836,9.074-.567,22.686-.567,22.686s-6.806,15.313-8.507,21.552a27.75,27.75,0,0,0-1.134,10.209l18.149,19.283a12.1,12.1,0,0,1-.567,13.044l-56.148,48.775a9.121,9.121,0,0,1-9.642,2.836c-6.239-1.7-9.642-8.507-9.642-8.507l-88.726-2.921L263.821,379.156c1.2.819,2.421,1.684,3.7,2.653,0,0-9.642,10.209-17.582,14.746s-13.612,2.269-13.612,2.269-7.373-1.7-12.477-10.776c0,0-6.806-.567-13.612,11.91V414.7H245.4s3.4,0,3.4,4.537-2.836,5.1-2.836,5.1H243.7l-8.507,60.118s-1.134,4.537-5.1,4.537h-30.1L227.5,526.5c34,28,59,0,59,0l367-393c12-18,0-33,0-33Z" transform="translate(2.5 3.5)"/><path class="cls-5" d="M600.5,50.5c-21-11-36,7-36,7L540.174,83.523a59.186,59.186,0,0,1,8.081,10.741,146.314,146.314,0,0,1,5.671,15.313c2.836,9.074-.567,22.686-.567,22.686s-6.806,15.313-8.507,21.552a27.75,27.75,0,0,0-1.134,10.209l18.149,19.283a12.1,12.1,0,0,1-.567,13.044l-56.148,48.775a9.121,9.121,0,0,1-9.642,2.836c-6.239-1.7-9.642-8.507-9.642-8.507l-88.726-2.921L263.821,379.156c1.2.819,2.421,1.684,3.7,2.653,0,0-9.642,10.209-17.582,14.746s-13.612,2.269-13.612,2.269-7.373-1.7-12.477-10.776c0,0-6.806-.567-13.612,11.91V414.7H245.4s3.4,0,3.4,4.537-2.836,5.1-2.836,5.1H243.7l-8.507,60.118s-1.134,4.537-5.1,4.537h-30.1L227.5,526.5c34,28,59,0,59,0l367-393c12-18,0-33,0-33Z" transform="translate(2.5 3.5)"/><path class="cls-4" d="M504.539,122.487l27.7,29.8a.848.848,0,0,0,1.427-.307c.9-2.721,3.011-8.9,4.77-12.776,2.309-5.086,5.217-14.138,5.217-14.138s1.188-6.8-2.124-18.166c-1.616-5.547-5.527-10.973-9.11-15.08l-28.24,30.211C504.3,122.184,504.414,122.34,504.539,122.487Z" transform="translate(2.5 3.5)"/><path class="cls-5" d="M504.539,122.487l27.7,29.8a.848.848,0,0,0,1.427-.307c.9-2.721,3.011-8.9,4.77-12.776,2.309-5.086,5.217-14.138,5.217-14.138s1.188-6.8-2.124-18.166c-1.616-5.547-5.527-10.973-9.11-15.08l-28.24,30.211C504.3,122.184,504.414,122.34,504.539,122.487Z" transform="translate(2.5 3.5)"/></g><g id="Border"><rect class="cls-6" x="2.5" y="2.5" width="700" height="700"/></g><g id="Layer_7" data-name="Layer 7"><path class="cls-6" d="M176.205,424.345H243.7l-8.507,60.118s-1.134,4.537-5.1,4.537H189.25a5.486,5.486,0,0,1-4.537-4.537C184.145,480.493,176.205,424.345,176.205,424.345Z" transform="translate(2.5 3.5)"/><path class="cls-6" d="M175.071,414.7s-3.97,0-3.97,4.537a4.852,4.852,0,0,0,3.97,5.1h70.894s2.836-.567,2.836-5.1-3.4-4.537-3.4-4.537H175.071Z" transform="translate(2.5 3.5)"/><path class="cls-6" d="M210.234,399.958V414.7h-3.757l-.213-15.313a27.811,27.811,0,0,0-14.746-19.283s-11.343,10.209-19.283,11.343c0,0-1.134.567-4.537,0s-17.582-4.537-31.193-31.76c0,0,12.477-6.239,24.387-7.94s18.716,1.7,18.716,1.7,11.343,5.671,12.477,24.387a32.834,32.834,0,0,1,16.447,20.417s6.806-12.477,14.746-12.477c0,0,5.1-12.477,10.209-14.746A18.082,18.082,0,0,1,243.7,369.9s9.642,1.134,23.82,11.91c0,0-9.642,10.209-17.582,14.746s-13.612,2.269-13.612,2.269-7.373-1.7-12.477-10.776C223.846,388.048,217.04,387.48,210.234,399.958Z" transform="translate(2.5 3.5)"/><path class="cls-6" d="M323.8,251.622l24.248-16.7,137.817,4.537s3.4,6.806,9.642,8.507a9.121,9.121,0,0,0,9.642-2.836L561.3,196.351a12.1,12.1,0,0,0,.567-13.044l-18.149-19.283a27.75,27.75,0,0,1,1.134-10.209c1.7-6.239,8.507-21.552,8.507-21.552s3.4-13.612.567-22.686a146.309,146.309,0,0,0-5.671-15.313s-12.477-22.686-32.327-23.253-26.089,20.417-26.089,20.417-1.7,9.074-1.7,13.612L477.361,93.7s-3.4-5.1-13.044-1.134l-51.043,45.372s-3.4,3.4-1.7,10.209l48.775,60.685L348.619,220.171l-24.934-17.345a.735.735,0,0,0-1.155.6v47.523A.812.812,0,0,0,323.8,251.622Z" transform="translate(2.5 3.5)"/><path class="cls-6" d="M348.388,220.137,324.45,203.561c-2.319-1.569-1-.286-1.833.672v46.391c.917.783-.757,1.99,1.511.511l24.26-16.187Z" transform="translate(2.5 3.5)"/><path class="cls-6" d="M532.521,152.2a.848.848,0,0,0,1.424-.319c.882-2.728,2.94-8.923,4.669-12.813,2.269-5.1,5.1-14.179,5.1-14.179s1.134-6.806-2.269-18.149S525,84.623,525,84.623s-10.209-7.94-19.283,0-6.239,27.79-6.239,27.79,1.7,6.239,5.1,10.209Z" transform="translate(2.5 3.5)"/></g></svg>