<?xml version="1.0" encoding="utf-8"?>
<!-- Generator: Adobe Illustrator 21.0.0, SVG Export Plug-In . SVG Version: 6.00 Build 0)  -->
<svg version="1.0" xmlns="http://www.w3.org/2000/svg" xmlns:xlink="http://www.w3.org/1999/xlink" x="0px" y="0px"
	 viewBox="0 0 700 700" style="enable-background:new 0 0 700 700;" xml:space="preserve">
<style type="text/css">
	.st0{fill:#FFFFFF;}
	.st1{fill:#7F70DF;}
	.st2{display:none;}
	.st3{display:inline;opacity:0.2;fill:#7F70DF;stroke:#7F70DF;stroke-width:0.25;stroke-miterlimit:10;}
	.st4{display:inline;opacity:0.3;fill:#7F70DF;stroke:#7F70DF;stroke-width:0.25;stroke-miterlimit:10;}
	.st5{fill:none;}
	.st6{fill:none;stroke:#7F70DF;stroke-width:5;stroke-miterlimit:10;}
	.st7{display:inline;fill:none;stroke:#7F70DF;stroke-width:10;stroke-miterlimit:10;}
	.st8{font-family:'Impact';}
	.st9{font-size:72px;}
</style>
<g id="alb">
	<rect x="120" y="346" class="st0" width="218" height="163"/>
	<rect x="299" y="32" class="st0" width="309" height="245"/>
</g>
<g id="mov">
	<rect x="129" y="170" class="st1" width="191" height="171"/>
	<rect x="200" y="332" class="st1" width="69" height="23"/>
</g>
<g id="Shading" class="st2">
	<polyline class="st3" points="348,220 324,203 323,252 348,235 348,220 	"/>
	<polygon class="st4" points="246,424 173,424 171,415 248,415 	"/>
	<polygon class="st3" points="221,387 265,382 252,396 239,398 228,394 	"/>
	<polygon class="st3" points="194,380 135,359 148,379 170,392 	"/>
</g>
<g id="check">
	<g>
		<path class="st5" d="M245.548,241.739c0.59,0.969,3.517-0.813,3.517-0.813l2.195-1.336c0,0,2.927-1.782,2.042-3.235
			c-0.885-1.453-3.812,0.329-3.812,0.329l-2.195,1.336C242.905,240.692,245.548,241.739,245.548,241.739z"/>
		<path class="st5" d="M242.89,287.573c1.054,0.42,2.322-2.764,2.322-2.764l0.951-2.388c0,0,1.268-3.183-0.312-3.813
			c-1.581-0.63-2.849,2.554-2.849,2.554l-0.951,2.388C240.149,288.325,242.89,287.573,242.89,287.573z"/>
		<path class="st5" d="M234.332,253.809c0,0,1.714-2.967,0.241-3.818c-1.473-0.851-3.188,2.116-3.188,2.116l-1.286,2.225
			c-2.572,4.451,0.25,4.102,0.25,4.102c0.982,0.568,2.697-2.4,2.697-2.4L234.332,253.809z"/>
		<path class="st5" d="M234.728,301.235l-0.505,2.52c-1.011,5.04,1.55,3.806,1.55,3.806c1.112,0.223,1.786-3.137,1.786-3.137
			l0.505-2.52c0,0,0.674-3.36-0.994-3.695C235.402,297.875,234.728,301.235,234.728,301.235z"/>
		<path class="st5" d="M253.959,263.972c-3.697,3.571-0.888,4.013-0.888,4.013c0.788,0.816,3.253-1.565,3.253-1.565l1.849-1.786
			c0,0,2.465-2.381,1.283-3.605c-1.182-1.224-3.647,1.157-3.647,1.157L253.959,263.972z"/>
		<path class="st5" d="M258.674,330.371l0.267-2.556c0,0,0.356-3.408-1.336-3.585s-2.049,3.231-2.049,3.231l-0.267,2.556
			c-0.535,5.112,1.9,3.644,1.9,3.644C258.318,333.78,258.674,330.371,258.674,330.371z"/>
		<path class="st5" d="M255.06,344.594c-1.688-0.209-1.968,2.042-1.968,2.042l-0.209,1.688c-0.419,3.377,1.972,2.531,1.972,2.531
			c1.126,0.14,1.405-2.112,1.405-2.112l0.209-1.689C256.469,347.055,256.748,344.804,255.06,344.594z"/>
		<path class="st5" d="M194.228,270.954l-0.951,2.388c-1.903,4.775,0.839,4.023,0.839,4.023c1.054,0.42,2.322-2.764,2.322-2.764
			l0.951-2.388c0,0,1.268-3.183-0.312-3.813C195.496,267.771,194.228,270.954,194.228,270.954z"/>
		<path class="st5" d="M225.297,205.412c0.432,1.049,3.601-0.256,3.601-0.256l2.377-0.978c0,0,3.169-1.305,2.521-2.878
			s-3.817-0.269-3.817-0.269l-2.377,0.978C222.849,203.966,225.297,205.412,225.297,205.412z"/>
		<path class="st5" d="M212.018,293.882l-0.469,2.527c-0.939,5.054,1.604,3.784,1.604,3.784c1.115,0.207,1.741-3.162,1.741-3.162
			l0.47-2.527c0,0,0.626-3.369-1.047-3.68C212.644,290.513,212.018,293.882,212.018,293.882z"/>
		<path class="st5" d="M207.604,219.131c0.766,0.837,3.293-1.478,3.293-1.478l1.895-1.736c0,0,2.527-2.314,1.378-3.569
			s-3.676,1.059-3.676,1.059l-1.895,1.736C204.809,218.615,207.604,219.131,207.604,219.131z"/>
		<path class="st5" d="M213.038,239.33c0.706,0.888,3.389-1.244,3.389-1.244l2.012-1.599c0,0,2.683-2.132,1.625-3.464
			c-1.058-1.332-3.742,0.799-3.742,0.799l-2.012,1.599C210.285,238.62,213.038,239.33,213.038,239.33z"/>
		<path class="st5" d="M202.623,257.515c1.054,0.42,2.322-2.764,2.322-2.764l0.951-2.388c0,0,1.268-3.183-0.312-3.813
			c-1.581-0.63-2.849,2.554-2.849,2.554l-0.951,2.388C199.881,258.266,202.623,257.515,202.623,257.515z"/>
		<path class="st5" d="M218.798,273.909c-1.903,4.775,0.839,4.023,0.839,4.023c1.054,0.42,2.322-2.764,2.322-2.764l0.951-2.388
			c0,0,1.268-3.183-0.312-3.813c-1.581-0.63-2.849,2.554-2.849,2.554L218.798,273.909z"/>
		<path class="st5" d="M230.347,222.009c-4.569,2.355-2.007,3.587-2.007,3.587c0.52,1.008,3.566-0.562,3.566-0.562l2.284-1.178
			c0,0,3.046-1.57,2.266-3.082c-0.78-1.512-3.826,0.058-3.826,0.058L230.347,222.009z"/>
		<path class="st5" d="M228.901,322.924l-0.267,2.556c-0.535,5.112,1.9,3.644,1.9,3.644c1.128,0.118,1.485-3.29,1.485-3.29
			l0.267-2.556c0,0,0.356-3.408-1.336-3.585S228.901,322.924,228.901,322.924z"/>
		<path class="st5" d="M192.703,235.324c0.855,0.746,3.107-1.837,3.107-1.837l1.689-1.937c0,0,2.252-2.583,0.97-3.701
			c-1.282-1.118-3.535,1.464-3.535,1.464l-1.689,1.937C189.867,235.124,192.703,235.324,192.703,235.324z"/>
		<path class="st5" d="M250.455,213.134c-4.972,1.304-2.739,3.064-2.739,3.064c0.288,1.097,3.602,0.228,3.602,0.228l2.486-0.652
			c0,0,3.315-0.869,2.883-2.515c-0.432-1.646-3.746-0.777-3.746-0.777L250.455,213.134z"/>
		<path class="st5" d="M292.859,200.362l2.405,0.907c0,0,3.206,1.21,3.807-0.382s-2.606-2.802-2.606-2.802l-2.405-0.907
			c-4.809-1.814-4.007,0.913-4.007,0.913C289.652,199.153,292.859,200.362,292.859,200.362z"/>
		<path class="st5" d="M312.321,240.589h1.701c0,0,2.269,0,2.269-1.701c0-1.701-2.269-1.701-2.269-1.701h-1.701
			c-3.403,0-2.269,2.269-2.269,2.269C310.052,240.589,312.321,240.589,312.321,240.589z"/>
		<path class="st5" d="M312.321,251.932h1.701c0,0,2.269,0,2.269-1.701c0-1.701-2.269-1.701-2.269-1.701h-1.701
			c-3.403,0-2.269,2.269-2.269,2.269C310.052,251.932,312.321,251.932,312.321,251.932z"/>
		<path class="st5" d="M292.07,214.918l2.554,0.285c0,0,3.406,0.379,3.594-1.312c0.188-1.691-3.217-2.07-3.217-2.07l-2.554-0.285
			c-5.109-0.569-3.657,1.875-3.657,1.875C288.664,214.539,292.07,214.918,292.07,214.918z"/>
		<path class="st5" d="M312.321,229.813h1.701c0,0,2.269,0,2.269-1.701c0-1.701-2.269-1.701-2.269-1.701h-1.701
			c-3.403,0-2.269,2.269-2.269,2.269C310.052,229.813,312.321,229.813,312.321,229.813z"/>
		<path class="st5" d="M312.841,206.684l1.561,0.677c0,0,2.081,0.902,2.758-0.659s-1.405-2.463-1.405-2.463l-1.561-0.677
			c-3.122-1.354-2.984,1.179-2.984,1.179C310.76,205.782,312.841,206.684,312.841,206.684z"/>
		<path class="st5" d="M312.023,218.87l1.673,0.311c0,0,2.23,0.414,2.541-1.258s-1.919-2.087-1.919-2.087l-1.673-0.311
			c-3.346-0.622-2.645,1.816-2.645,1.816C309.793,218.455,312.023,218.87,312.023,218.87z"/>
		<path class="st5" d="M289.645,258.566c0.54,0.998,3.554-0.633,3.554-0.633l2.26-1.223c0,0,3.014-1.631,2.204-3.127
			s-3.824,0.134-3.824,0.134l-2.26,1.223C287.059,257.386,289.645,258.566,289.645,258.566z"/>
		<path class="st5" d="M275.565,272.794c0.866,0.732,3.079-1.884,3.079-1.884l1.66-1.962c0,0,2.213-2.617,0.914-3.715
			c-1.299-1.099-3.512,1.518-3.512,1.518l-1.66,1.962C272.726,272.637,275.565,272.794,275.565,272.794z"/>
		<path class="st5" d="M273.811,210.498l-2.57,0.038c-5.14,0.076-3.393,2.319-3.393,2.319c0.017,1.134,3.443,1.083,3.443,1.083
			l2.57-0.038c0,0,3.426-0.051,3.401-1.752C277.238,210.447,273.811,210.498,273.811,210.498z"/>
		<path class="st5" d="M271.352,196.962l2.567-0.128c0,0,3.423-0.17,3.338-1.87s-3.507-1.529-3.507-1.529l-2.567,0.128
			c-5.134,0.256-3.31,2.436-3.31,2.436C267.93,197.132,271.352,196.962,271.352,196.962z"/>
		<path class="st5" d="M265.334,232.166c0.31,1.091,3.606,0.153,3.606,0.153l2.472-0.703c0,0,3.296-0.938,2.83-2.574
			c-0.466-1.637-3.762-0.699-3.762-0.699l-2.472,0.703C263.065,230.453,265.334,232.166,265.334,232.166z"/>
		<path class="st5" d="M265.576,292.111c1.054,0.42,2.322-2.764,2.322-2.764l0.951-2.388c0,0,1.268-3.183-0.312-3.813
			c-1.581-0.63-2.849,2.554-2.849,2.554l-0.951,2.388C262.835,292.863,265.576,292.111,265.576,292.111z"/>
		<path class="st5" d="M291.209,229.294l2.566-0.138c0,0,3.422-0.184,3.331-1.883c-0.091-1.699-3.513-1.515-3.513-1.515
			l-2.566,0.138c-5.133,0.275-3.3,2.449-3.3,2.449C287.788,229.477,291.209,229.294,291.209,229.294z"/>
		<path class="st5" d="M292.226,243.106l2.46-0.745c0,0,3.28-0.993,2.787-2.622c-0.493-1.628-3.773-0.635-3.773-0.635l-2.46,0.745
			c-4.92,1.49-2.622,3.164-2.622,3.164C288.946,244.099,292.226,243.106,292.226,243.106z"/>
		<path class="st5" d="M259.202,308.349c-0.858,5.068,1.665,3.757,1.665,3.757c1.118,0.189,1.691-3.189,1.691-3.189l0.429-2.534
			c0,0,0.572-3.379-1.105-3.663c-1.678-0.284-2.25,3.095-2.25,3.095L259.202,308.349z"/>
		<path class="st5" d="M276.301,246.753c-1.017-1.364-3.764,0.685-3.764,0.685l-2.06,1.536c-4.121,3.073-1.391,3.867-1.391,3.867
			c0.678,0.909,3.425-1.139,3.425-1.139l2.06-1.536C274.572,250.166,277.319,248.117,276.301,246.753z"/>
		<path class="st5" d="M248.882,198.21l2.534-0.43c0,0,3.378-0.574,3.094-2.251c-0.285-1.677-3.663-1.104-3.663-1.104l-2.534,0.43
			c-5.068,0.861-2.999,2.81-2.999,2.81C245.503,198.783,248.882,198.21,248.882,198.21z"/>
		<path class="st5" d="M348.619,220.171l-24.934-17.345c-0.488-0.339-1.155,0.01-1.155,0.604v47.523c0,0.654,0.734,1.04,1.273,0.669
			l24.248-16.704l49.091,1.616l21.987-23.52L348.619,220.171z"/>
		<path class="st5" d="M184.713,484.463c0.567,3.97,4.537,4.537,4.537,4.537s4.61,0,10.739,0l-18.134-24.717
			C183.297,474.475,184.504,483.002,184.713,484.463z"/>
		<path class="st5" d="M418.098,580.678c-1.547-1.148-3.539-1.723-5.977-1.723c-1.945,0-3.662,0.429-5.15,1.285
			c-1.488,0.857-2.748,2.143-3.779,3.856l0.246-4.298h-14.449v46.652h14.203v-31.535c0-3.516,0.129-5.678,0.387-6.486
			s0.891-1.213,1.898-1.213c0.961,0,1.547,0.352,1.758,1.055s0.316,2.66,0.316,5.871v32.309h14.203v-32.695
			c0-4.078-0.223-6.99-0.668-8.736S419.645,581.826,418.098,580.678z"/>
		<path class="st5" d="M499.516,112.239c0,0-2.678-19.872,6.459-27.74c9.137-7.868,19.282,0.153,19.282,0.153s3.4,2.857,7.161,7.168
			l7.756-8.297c-5.617-5.952-13.933-12.217-24.247-12.512c-19.85-0.567-26.089,20.417-26.089,20.417s-1.701,9.074-1.701,13.612
			l-10.776-11.343c0,0-3.403-5.104-13.044-1.134l-51.043,45.372c0,0-3.403,3.403-1.701,10.209L443.1,187.37l61.078-65.339
			C501.053,118.032,499.516,112.239,499.516,112.239z"/>
		<path class="st5" d="M451.795,581.223c-2.59-1.512-5.877-2.268-9.861-2.268c-3.258,0-6.141,0.627-8.648,1.881
			s-4.313,3.059-5.414,5.414s-1.652,5.572-1.652,9.65v13.605c0,3.469,0.246,6.111,0.738,7.928s1.377,3.48,2.654,4.992
			s3.064,2.701,5.361,3.568s4.945,1.301,7.945,1.301c3.094,0,5.666-0.439,7.717-1.318s3.744-2.197,5.08-3.955
			s2.186-3.41,2.549-4.957s0.545-3.762,0.545-6.645v-3.445h-13.465v6.152c0,2.32-0.182,3.885-0.545,4.693s-1.084,1.213-2.162,1.213
			c-0.867,0-1.453-0.305-1.758-0.914s-0.457-1.969-0.457-4.078v-10.09h18.387v-6.188c0-4.523-0.521-8.033-1.564-10.529
			S454.385,582.734,451.795,581.223z M444.57,596.357h-4.148v-3.41c0-2.625,0.117-4.236,0.352-4.834s0.844-0.896,1.828-0.896
			c0.797,0,1.324,0.352,1.582,1.055s0.387,2.262,0.387,4.676V596.357z"/>
		<path class="st5" d="M181.638,254.112c1.054,0.42,2.322-2.764,2.322-2.764l0.951-2.388c0,0,1.268-3.183-0.312-3.813
			c-1.581-0.63-2.849,2.554-2.849,2.554l-0.951,2.388C178.897,254.864,181.638,254.112,181.638,254.112z"/>
		<path class="st5" d="M263.821,379.156c-0.375-0.257-0.755-0.521-1.122-0.764l0.8,1.108L263.821,379.156z"/>
		<path class="st5" d="M477.09,585.934l0.563-6.135h-14.203v46.652h14.203v-18.422c0-4.523,0.141-7.412,0.422-8.666
			s1.031-2.232,2.25-2.936s3.129-1.055,5.73-1.055v-16.418C482.141,579.214,479.152,581.54,477.09,585.934z"/>
		<path class="st5" d="M278.984,581.504c-2.438-1.699-6.059-2.549-10.863-2.549c-4.008,0-7.266,0.75-9.773,2.25
			c-2.508,1.5-4.178,3.229-5.01,5.186c-0.832,1.957-1.248,4.74-1.248,8.35v3.129h13.324v-4.887c0-2.602,0.117-4.213,0.352-4.834
			c0.234-0.621,0.832-0.932,1.793-0.932c0.844,0,1.447,0.369,1.811,1.107c0.363,0.738,0.545,2.326,0.545,4.764
			c0,1.945-0.164,3.234-0.492,3.867c-0.329,0.633-2.825,1.863-7.488,3.691c-4.359,1.688-7.09,3.164-8.191,4.43
			c-1.102,1.266-1.652,3.645-1.652,7.137v3.832c0,4.711,1.037,7.764,3.111,9.158s4.354,2.092,6.838,2.092
			c1.898,0,3.533-0.417,4.904-1.25c1.371-0.834,2.49-2.084,3.357-3.751v4.157h13.816v-23.414c0-7.711-0.246-12.803-0.738-15.275
			S281.422,583.203,278.984,581.504z M269.914,613.865c0,2.344-0.135,3.791-0.404,4.342c-0.27,0.551-0.85,0.826-1.74,0.826
			c-0.938,0-1.564-0.352-1.881-1.055s-0.475-2.262-0.475-4.676c0-2.109,0.181-3.727,0.545-4.852c0.363-1.125,1.682-2.52,3.955-4.184
			V613.865z"/>
		<path class="st5" d="M377.334,581.223c-2.59-1.512-5.877-2.268-9.861-2.268c-3.258,0-6.141,0.627-8.648,1.881
			s-4.313,3.059-5.414,5.414s-1.652,5.572-1.652,9.65v13.605c0,3.469,0.246,6.111,0.738,7.928s1.377,3.48,2.654,4.992
			s3.064,2.701,5.361,3.568s4.945,1.301,7.945,1.301c3.094,0,5.666-0.439,7.717-1.318s3.744-2.197,5.08-3.955
			s2.186-3.41,2.549-4.957s0.545-3.762,0.545-6.645v-3.445h-13.465v6.152c0,2.32-0.182,3.885-0.545,4.693s-1.084,1.213-2.162,1.213
			c-0.867,0-1.453-0.305-1.758-0.914s-0.457-1.969-0.457-4.078v-10.09h18.387v-6.188c0-4.523-0.521-8.033-1.564-10.529
			S379.924,582.734,377.334,581.223z M370.109,596.357h-4.148v-3.41c0-2.625,0.117-4.236,0.352-4.834s0.844-0.896,1.828-0.896
			c0.797,0,1.324,0.352,1.582,1.055s0.387,2.262,0.387,4.676V596.357z"/>
		<path class="st5" d="M302.645,585.934l0.563-6.135h-14.203v46.652h14.203v-18.422c0-4.523,0.141-7.412,0.422-8.666
			s1.031-2.232,2.25-2.936c1.218-0.703,3.129-1.055,5.73-1.055v-16.418C307.695,579.214,304.707,581.54,302.645,585.934z"/>
		<path class="st5" d="M332.879,582.761c-1.195-1.269-2.526-2.22-3.99-2.854c-1.465-0.634-3.076-0.951-4.834-0.951
			c-2.273,0-4.231,0.568-5.871,1.705c-1.641,1.137-2.689,2.455-3.146,3.955s-0.686,4.043-0.686,7.629v21.832
			c0,3.445,0.229,5.93,0.686,7.453s1.494,2.865,3.111,4.025s3.527,1.74,5.73,1.74c1.64,0,3.211-0.353,4.711-1.057
			c1.5-0.704,2.93-1.762,4.289-3.171v3.384h14.203v-56.918h-14.203V582.761z M332.879,613.127c0,2.602-0.153,4.236-0.457,4.904
			c-0.305,0.668-0.914,1.002-1.828,1.002c-0.797,0-1.336-0.299-1.617-0.896s-0.422-1.846-0.422-3.744v-22.852
			c0-1.828,0.146-3.006,0.439-3.533c0.293-0.527,0.861-0.791,1.705-0.791c0.867,0,1.447,0.293,1.74,0.879
			c0.293,0.586,0.439,1.734,0.439,3.445V613.127z"/>
		<path class="st5" d="M240.523,571.01c-2.86-1.781-6.457-2.672-10.793-2.672c-4.407,0-7.998,1.025-10.775,3.076
			s-4.459,4.307-5.045,6.768c-0.586,2.461-0.879,6.41-0.879,11.848v16.91c0,3.914,0.141,6.85,0.422,8.807s0.985,3.826,2.111,5.607
			c1.126,1.781,2.774,3.275,4.943,4.482s4.498,1.811,6.984,1.811c2.088,0,3.899-0.439,5.436-1.318s2.809-2.197,3.817-3.955
			l1.369,4.078h9.301V595.9h-17.332v8.648h2.988v6.75c0,2.648-0.193,4.43-0.58,5.344s-1.12,1.371-2.197,1.371
			c-0.984,0-1.641-0.404-1.969-1.213c-0.329-0.809-0.492-2.49-0.492-5.045v-27.316c0-2.906,0.164-4.711,0.492-5.414
			c0.328-0.703,0.949-1.055,1.863-1.055c1.055,0,1.723,0.41,2.004,1.23s0.422,2.859,0.422,6.117v5.168h14.801v-2.461
			c0-4.664-0.434-8.221-1.301-10.67C245.246,574.906,243.383,572.791,240.523,571.01z"/>
		<path class="st0" d="M330.699,587.217c-0.844,0-1.412,0.264-1.705,0.791c-0.293,0.527-0.439,1.705-0.439,3.533v22.852
			c0,1.898,0.141,3.146,0.422,3.744s0.82,0.896,1.617,0.896c0.914,0,1.523-0.334,1.828-1.002c0.304-0.668,0.457-2.303,0.457-4.904
			v-21.586c0-1.711-0.146-2.859-0.439-3.445C332.146,587.51,331.566,587.217,330.699,587.217z"/>
		<path class="st0" d="M442.602,587.217c-0.984,0-1.594,0.299-1.828,0.896s-0.352,2.209-0.352,4.834v3.41h4.148v-3.41
			c0-2.414-0.129-3.973-0.387-4.676S443.398,587.217,442.602,587.217z"/>
		<path class="st0" d="M-0.5-1.5v700h700v-700H-0.5z M314.195,203.562l1.561,0.677c0,0,2.081,0.902,1.405,2.463
			s-2.758,0.659-2.758,0.659l-1.561-0.677c0,0-2.081-0.902-1.63-1.943C311.211,204.741,311.073,202.209,314.195,203.562z
			 M312.645,215.524l1.673,0.311c0,0,2.23,0.415,1.919,2.087s-2.541,1.258-2.541,1.258l-1.673-0.311c0,0-2.23-0.415-2.023-1.53
			C310,217.34,309.299,214.902,312.645,215.524z M312.321,226.41h1.701c0,0,2.269,0,2.269,1.701c0,1.701-2.269,1.701-2.269,1.701
			h-1.701c0,0-2.269,0-2.269-1.134C310.052,228.679,308.918,226.41,312.321,226.41z M312.321,237.186h1.701c0,0,2.269,0,2.269,1.701
			c0,1.701-2.269,1.701-2.269,1.701h-1.701c0,0-2.269,0-2.269-1.134C310.052,239.454,308.918,237.186,312.321,237.186z
			 M312.321,248.529h1.701c0,0,2.269,0,2.269,1.701c0,1.701-2.269,1.701-2.269,1.701h-1.701c0,0-2.269,0-2.269-1.134
			C310.052,250.797,308.918,248.529,312.321,248.529z M294.06,197.178l2.405,0.907c0,0,3.206,1.21,2.606,2.802
			s-3.807,0.382-3.807,0.382l-2.405-0.907c0,0-3.206-1.21-2.806-2.271C290.053,198.091,289.25,195.364,294.06,197.178z
			 M292.446,211.536l2.554,0.285c0,0,3.406,0.379,3.217,2.07c-0.188,1.691-3.594,1.312-3.594,1.312l-2.554-0.285
			c0,0-3.406-0.379-3.28-1.507C288.789,213.411,287.338,210.967,292.446,211.536z M291.58,254.94l2.26-1.223
			c0,0,3.014-1.631,3.824-0.134s-2.204,3.127-2.204,3.127l-2.26,1.223c0,0-3.014,1.631-3.554,0.633
			C289.645,258.566,287.059,257.386,291.58,254.94z M288.618,243.013c0,0-2.297-1.675,2.622-3.164l2.46-0.745
			c0,0,3.28-0.993,3.773,0.635c0.493,1.628-2.787,2.622-2.787,2.622l-2.46,0.745C292.226,243.106,288.946,244.099,288.618,243.013z
			 M291.027,225.896l2.566-0.138c0,0,3.422-0.184,3.513,1.515c0.091,1.699-3.331,1.883-3.331,1.883l-2.566,0.138
			c0,0-3.422,0.184-3.483-0.949C287.727,228.344,285.894,226.171,291.027,225.896z M281.217,265.233
			c1.299,1.099-0.914,3.715-0.914,3.715l-1.66,1.962c0,0-2.213,2.617-3.079,1.884c0,0-2.839-0.157,0.481-4.081l1.66-1.962
			C277.705,266.75,279.918,264.134,281.217,265.233z M272.511,251.702c0,0-2.747,2.049-3.425,1.139c0,0-2.73-0.794,1.391-3.867
			l2.06-1.536c0,0,2.747-2.049,3.764-0.685c1.017,1.364-1.73,3.413-1.73,3.413L272.511,251.702z M273.862,213.9l-2.57,0.038
			c0,0-3.426,0.051-3.443-1.083c0,0-1.747-2.243,3.393-2.319l2.57-0.038c0,0,3.426-0.051,3.452,1.651
			C277.288,213.849,273.862,213.9,273.862,213.9z M271.183,193.563l2.567-0.128c0,0,3.423-0.17,3.507,1.529s-3.338,1.87-3.338,1.87
			l-2.567,0.128c0,0-3.423,0.17-3.479-0.963C267.873,195.999,266.049,193.819,271.183,193.563z M268.009,229.046l2.472-0.703
			c0,0,3.296-0.938,3.762,0.699c0.466,1.636-2.83,2.574-2.83,2.574l-2.472,0.703c0,0-3.296,0.938-3.606-0.153
			C265.334,232.166,263.065,230.453,268.009,229.046z M264.737,288.087l0.951-2.388c0,0,1.268-3.183,2.849-2.554
			c1.581,0.63,0.312,3.813,0.312,3.813l-0.951,2.388c0,0-1.268,3.183-2.322,2.764C265.576,292.111,262.835,292.863,264.737,288.087z
			 M261.881,302.72c1.678,0.284,1.105,3.663,1.105,3.663l-0.429,2.534c0,0-0.572,3.379-1.691,3.189c0,0-2.523,1.311-1.665-3.757
			l0.429-2.534C259.631,305.815,260.203,302.436,261.881,302.72z M259.455,261.029c1.182,1.224-1.283,3.605-1.283,3.605
			l-1.849,1.786c0,0-2.465,2.381-3.253,1.565c0,0-2.809-0.441,0.888-4.013l1.849-1.786
			C255.808,262.186,258.272,259.805,259.455,261.029z M255.29,330.017l0.267-2.556c0,0,0.357-3.408,2.049-3.231
			s1.336,3.585,1.336,3.585l-0.267,2.556c0,0-0.356,3.408-1.485,3.29C257.19,333.662,254.755,335.13,255.29,330.017z
			 M256.469,347.055l-0.209,1.689c0,0-0.279,2.251-1.405,2.112c0,0-2.391,0.846-1.972-2.531l0.209-1.688
			c0,0,0.279-2.251,1.968-2.042C256.748,344.804,256.469,347.055,256.469,347.055z M256.687,213.259
			c0.432,1.646-2.883,2.515-2.883,2.515l-2.486,0.652c0,0-3.315,0.869-3.602-0.228c0,0-2.233-1.76,2.739-3.064l2.486-0.652
			C252.941,212.482,256.256,211.613,256.687,213.259z M248.312,194.855l2.534-0.43c0,0,3.378-0.574,3.663,1.104
			c0.285,1.677-3.094,2.251-3.094,2.251l-2.534,0.43c0,0-3.378,0.574-3.568-0.544C245.313,197.665,243.244,195.715,248.312,194.855z
			 M247.296,238.02l2.195-1.336c0,0,2.927-1.782,3.812-0.329c0.885,1.453-2.042,3.235-2.042,3.235l-2.195,1.336
			c0,0-2.927,1.782-3.517,0.813C245.548,241.739,242.905,240.692,247.296,238.02z M242.051,283.55l0.951-2.388
			c0,0,1.268-3.183,2.849-2.554c1.581,0.63,0.312,3.813,0.312,3.813l-0.951,2.388c0,0-1.268,3.183-2.322,2.764
			C242.89,287.573,240.149,288.325,242.051,283.55z M237.071,298.21c1.668,0.335,0.994,3.695,0.994,3.695l-0.505,2.52
			c0,0-0.674,3.36-1.786,3.137c0,0-2.561,1.234-1.55-3.806l0.505-2.52C234.728,301.235,235.402,297.875,237.071,298.21z
			 M230.349,258.434c0,0-2.822,0.348-0.25-4.102l1.286-2.225c0,0,1.714-2.967,3.188-2.116c1.473,0.851-0.241,3.818-0.241,3.818
			l-1.286,2.225C233.046,256.034,231.331,259.001,230.349,258.434z M232.286,323.278l-0.267,2.556c0,0-0.357,3.408-1.485,3.29
			c0,0-2.435,1.468-1.9-3.644l0.267-2.556c0,0,0.357-3.408,2.049-3.231S232.286,323.278,232.286,323.278z M236.457,220.774
			c0.78,1.512-2.266,3.082-2.266,3.082l-2.284,1.178c0,0-3.046,1.57-3.566,0.562c0,0-2.562-1.231,2.007-3.587l2.284-1.178
			C232.631,220.832,235.677,219.262,236.457,220.774z M227.602,202.009l2.377-0.978c0,0,3.169-1.305,3.817,0.269
			s-2.521,2.878-2.521,2.878l-2.377,0.978c0,0-3.169,1.305-3.601,0.256C225.297,205.412,222.849,203.966,227.602,202.009z
			 M222.599,268.968c1.581,0.63,0.312,3.813,0.312,3.813l-0.951,2.388c0,0-1.268,3.183-2.322,2.764c0,0-2.742,0.752-0.839-4.023
			l0.951-2.388C219.75,271.521,221.018,268.338,222.599,268.968z M220.063,233.024c1.058,1.332-1.625,3.464-1.625,3.464
			l-2.012,1.599c0,0-2.683,2.132-3.389,1.244c0,0-2.753-0.71,1.272-3.908l2.012-1.599
			C216.322,233.823,219.005,231.692,220.063,233.024z M215.364,294.504l-0.47,2.527c0,0-0.626,3.369-1.741,3.162
			c0,0-2.543,1.27-1.604-3.784l0.469-2.527c0,0,0.626-3.369,2.299-3.058C215.99,291.134,215.364,294.504,215.364,294.504z
			 M208.599,215.143l1.895-1.736c0,0,2.527-2.314,3.676-1.059s-1.378,3.569-1.378,3.569l-1.895,1.736c0,0-2.527,2.314-3.293,1.478
			C207.604,219.131,204.809,218.615,208.599,215.143z M201.784,253.491l0.951-2.388c0,0,1.268-3.183,2.849-2.554
			c1.581,0.63,0.312,3.813,0.312,3.813l-0.951,2.388c0,0-1.268,3.183-2.322,2.764C202.623,257.515,199.881,258.266,201.784,253.491z
			 M193.245,231.25l1.689-1.937c0,0,2.252-2.583,3.535-1.464c1.282,1.118-0.97,3.701-0.97,3.701l-1.689,1.937
			c0,0-2.252,2.583-3.107,1.837C192.703,235.324,189.867,235.124,193.245,231.25z M197.389,272.214l-0.951,2.388
			c0,0-1.268,3.183-2.322,2.764c0,0-2.742,0.752-0.839-4.023l0.951-2.388c0,0,1.268-3.183,2.849-2.554
			C198.658,269.03,197.389,272.214,197.389,272.214z M180.799,250.089l0.951-2.388c0,0,1.268-3.183,2.849-2.554
			c1.581,0.63,0.312,3.813,0.312,3.813l-0.951,2.388c0,0-1.268,3.183-2.322,2.764C181.638,254.112,178.897,254.864,180.799,250.089z
			 M247.414,590.486h-14.801v-5.168c0-3.258-0.141-5.297-0.422-6.117s-0.949-1.23-2.004-1.23c-0.914,0-1.535,0.352-1.863,1.055
			c-0.329,0.703-0.492,2.508-0.492,5.414v27.316c0,2.555,0.164,4.236,0.492,5.045c0.328,0.809,0.984,1.213,1.969,1.213
			c1.078,0,1.811-0.457,2.197-1.371s0.58-2.695,0.58-5.344v-6.75h-2.988V595.9h17.332v30.551h-9.301l-1.369-4.078
			c-1.009,1.758-2.281,3.076-3.817,3.955s-3.348,1.318-5.436,1.318c-2.486,0-4.814-0.604-6.984-1.811s-3.817-2.701-4.943-4.482
			c-1.126-1.781-1.83-3.65-2.111-5.607s-0.422-4.893-0.422-8.807v-16.91c0-5.438,0.293-9.387,0.879-11.848
			c0.585-2.461,2.268-4.717,5.045-6.768s6.369-3.076,10.775-3.076c4.336,0,7.933,0.891,10.793,2.672
			c2.859,1.781,4.723,3.896,5.59,6.346c0.867,2.449,1.301,6.006,1.301,10.67V590.486z M284.117,626.451h-13.816v-4.157
			c-0.867,1.667-1.986,2.917-3.357,3.751c-1.371,0.833-3.006,1.25-4.904,1.25c-2.484,0-4.764-0.697-6.838-2.092
			s-3.111-4.447-3.111-9.158v-3.832c0-3.492,0.55-5.871,1.652-7.137c1.102-1.266,3.832-2.742,8.191-4.43
			c4.664-1.828,7.16-3.059,7.488-3.691c0.328-0.633,0.492-1.922,0.492-3.867c0-2.438-0.182-4.025-0.545-4.764
			c-0.364-0.738-0.967-1.107-1.811-1.107c-0.961,0-1.559,0.311-1.793,0.932c-0.234,0.621-0.352,2.232-0.352,4.834v4.887H252.09
			v-3.129c0-3.609,0.416-6.393,1.248-8.35c0.832-1.957,2.501-3.686,5.01-5.186c2.508-1.5,5.766-2.25,9.773-2.25
			c4.804,0,8.425,0.85,10.863,2.549c2.438,1.699,3.902,3.785,4.395,6.258s0.738,7.564,0.738,15.275V626.451z M311.609,595.373
			c-2.602,0-4.512,0.352-5.73,1.055c-1.219,0.703-1.969,1.682-2.25,2.936s-0.422,4.143-0.422,8.666v18.422h-14.203v-46.652h14.203
			l-0.563,6.135c2.062-4.394,5.05-6.72,8.965-6.979V595.373z M347.082,626.451h-14.203v-3.384c-1.359,1.409-2.79,2.467-4.289,3.171
			c-1.5,0.704-3.071,1.057-4.711,1.057c-2.203,0-4.113-0.58-5.73-1.74s-2.654-2.502-3.111-4.025s-0.686-4.008-0.686-7.453v-21.832
			c0-3.586,0.229-6.129,0.686-7.629s1.506-2.818,3.146-3.955c1.64-1.137,3.598-1.705,5.871-1.705c1.758,0,3.369,0.317,4.834,0.951
			c1.464,0.635,2.795,1.586,3.99,2.854v-13.228h14.203V626.451z M384.348,603.951h-18.387v10.09c0,2.109,0.152,3.469,0.457,4.078
			s0.891,0.914,1.758,0.914c1.078,0,1.799-0.404,2.162-1.213s0.545-2.373,0.545-4.693v-6.152h13.465v3.445
			c0,2.883-0.182,5.098-0.545,6.645s-1.213,3.199-2.549,4.957s-3.029,3.076-5.08,3.955s-4.623,1.318-7.717,1.318
			c-3,0-5.648-0.434-7.945-1.301s-4.084-2.057-5.361-3.568s-2.162-3.176-2.654-4.992s-0.738-4.459-0.738-7.928V595.9
			c0-4.078,0.551-7.295,1.652-9.65s2.906-4.16,5.414-5.414s5.391-1.881,8.648-1.881c3.984,0,7.271,0.756,9.861,2.268
			s4.406,3.516,5.449,6.012s1.564,6.006,1.564,10.529V603.951z M421.754,626.451h-14.203v-32.309c0-3.211-0.105-5.168-0.316-5.871
			s-0.797-1.055-1.758-1.055c-1.008,0-1.641,0.404-1.898,1.213s-0.387,2.971-0.387,6.486v31.535h-14.203v-46.652h14.449
			l-0.246,4.298c1.031-1.714,2.291-2.999,3.779-3.856c1.488-0.856,3.205-1.285,5.15-1.285c2.438,0,4.43,0.574,5.977,1.723
			s2.543,2.596,2.988,4.342s0.668,4.658,0.668,8.736V626.451z M458.809,603.951h-18.387v10.09c0,2.109,0.152,3.469,0.457,4.078
			s0.891,0.914,1.758,0.914c1.078,0,1.799-0.404,2.162-1.213s0.545-2.373,0.545-4.693v-6.152h13.465v3.445
			c0,2.883-0.182,5.098-0.545,6.645s-1.213,3.199-2.549,4.957s-3.029,3.076-5.08,3.955s-4.623,1.318-7.717,1.318
			c-3,0-5.648-0.434-7.945-1.301s-4.084-2.057-5.361-3.568s-2.162-3.176-2.654-4.992s-0.738-4.459-0.738-7.928V595.9
			c0-4.078,0.551-7.295,1.652-9.65s2.906-4.16,5.414-5.414s5.391-1.881,8.648-1.881c3.984,0,7.271,0.756,9.861,2.268
			s4.406,3.516,5.449,6.012s1.564,6.006,1.564,10.529V603.951z M486.055,595.373c-2.602,0-4.512,0.352-5.73,1.055
			s-1.969,1.682-2.25,2.936s-0.422,4.143-0.422,8.666v18.422h-14.203v-46.652h14.203l-0.563,6.135
			c2.063-4.394,5.051-6.72,8.965-6.979V595.373z M653.5,133.5l-367,393c0,0-25,28-59,0L199.988,489c-6.128,0-10.739,0-10.739,0
			s-3.97-0.567-4.537-4.537c-0.209-1.461-1.416-9.988-2.858-20.18L70.5,312.5c0,0-10-18,5.5-33.5l55.5-40.5c0,0,18-10,33,4
			l98.2,135.892c0.367,0.243,0.747,0.507,1.122,0.764l133.321-142.623l-49.091-1.616l-24.248,16.704
			c-0.539,0.371-1.273-0.015-1.273-0.669V203.43c0-0.594,0.668-0.943,1.155-0.604l24.934,17.345l70.511-7.158L443.1,187.37
			l-31.528-39.226c-1.701-6.806,1.701-10.209,1.701-10.209l51.043-45.372c9.642-3.97,13.044,1.134,13.044,1.134l10.776,11.343
			c0-4.537,1.701-13.612,1.701-13.612s6.239-20.984,26.089-20.417c10.313,0.295,18.63,6.559,24.247,12.512L564.5,57.5
			c0,0,15-18,36-7l53,50C653.5,100.5,665.5,115.5,653.5,133.5z"/>
		<path class="st0" d="M368.141,587.217c-0.984,0-1.594,0.299-1.828,0.896s-0.352,2.209-0.352,4.834v3.41h4.148v-3.41
			c0-2.414-0.129-3.973-0.387-4.676S368.938,587.217,368.141,587.217z"/>
		<path class="st0" d="M265.959,608.451c-0.364,1.125-0.545,2.742-0.545,4.852c0,2.414,0.158,3.973,0.475,4.676
			s0.943,1.055,1.881,1.055c0.891,0,1.471-0.275,1.74-0.826c0.269-0.551,0.404-1.998,0.404-4.342v-9.598
			C267.641,605.932,266.322,607.326,265.959,608.451z"/>
		<path class="st0" d="M525.257,84.652c0,0-10.145-8.021-19.282-0.153c-9.137,7.868-6.459,27.74-6.459,27.74
			s1.537,5.794,4.662,9.792l28.24-30.211C528.657,87.509,525.257,84.652,525.257,84.652z"/>
		<polygon class="st0" points="443.1,187.37 419.129,213.013 460.347,208.828 		"/>
		<path class="st0" d="M175.071,424.345c0,0-3.97-0.567-3.97-5.104c0-4.537,3.97-4.537,3.97-4.537h31.406l-0.213-15.313
			c0,0-1.701-12.477-14.746-19.283c0,0-11.343,10.209-19.283,11.343c0,0-1.134,0.567-4.537,0s-17.582-4.537-31.193-31.76
			c0,0,12.477-6.239,24.387-7.94c11.91-1.701,18.716,1.701,18.716,1.701s11.343,5.672,12.477,24.387c0,0,12.477,5.672,16.447,20.417
			c0,0,6.806-12.477,14.746-12.477c0,0,5.104-12.477,10.209-14.746c5.104-2.269,10.209-1.134,10.209-1.134s7.506,0.892,19.004,8.494
			L164.5,242.5c-15-14-33-4-33-4L76,279c-15.5,15.5-5.5,33.5-5.5,33.5l111.355,151.783c-2.477-17.509-5.649-39.938-5.649-39.938
			H175.071z M226.227,345.489l0.209-1.688c0,0,0.279-2.251,1.968-2.042c1.689,0.209,1.409,2.461,1.409,2.461l-0.209,1.688
			c0,0-0.279,2.251-1.405,2.112C228.199,348.02,225.808,348.866,226.227,345.489z M205.948,318.107l0.267-2.556
			c0,0,0.356-3.408,2.049-3.231c1.692,0.177,1.336,3.585,1.336,3.585l-0.267,2.556c0,0-0.356,3.408-1.485,3.29
			C207.848,321.752,205.413,323.22,205.948,318.107z M202.974,339.25l0.209-1.689c0,0,0.279-2.251,1.968-2.042
			c1.689,0.209,1.409,2.461,1.409,2.461l-0.209,1.688c0,0-0.279,2.251-1.405,2.112C204.946,341.781,202.555,342.627,202.974,339.25z
			 M187.101,292.852l0.671-2.481c0,0,0.894-3.308,2.537-2.864c1.642,0.444,0.748,3.752,0.748,3.752l-0.671,2.481
			c0,0-0.894,3.308-1.989,3.012C188.397,296.752,185.76,297.814,187.101,292.852z M182.128,313.57l0.267-2.556
			c0,0,0.356-3.408,2.049-3.231c1.692,0.177,1.336,3.585,1.336,3.585l-0.267,2.556c0,0-0.356,3.408-1.485,3.29
			C184.027,317.214,181.593,318.682,182.128,313.57z M178.586,333.012l0.209-1.689c0,0,0.279-2.251,1.968-2.042
			c1.689,0.209,1.409,2.461,1.409,2.461l-0.209,1.688c0,0-0.279,2.251-1.405,2.112C180.558,335.542,178.167,336.389,178.586,333.012
			z M171.725,269.372l0.951-2.388c0,0,1.268-3.183,2.849-2.554c1.581,0.63,0.312,3.813,0.312,3.813l-0.951,2.388
			c0,0-1.268,3.183-2.322,2.763C172.564,273.395,169.822,274.147,171.725,269.372z M163.23,291.543l0.889-2.412
			c0,0,1.185-3.215,2.781-2.627c1.596,0.588,0.411,3.804,0.411,3.804l-0.889,2.412c0,0-1.185,3.215-2.249,2.823
			C164.174,295.542,161.452,296.366,163.23,291.543z M158.307,313.003l0.267-2.556c0,0,0.356-3.408,2.049-3.231
			c1.692,0.177,1.336,3.585,1.336,3.585l-0.267,2.556c0,0-0.356,3.408-1.485,3.29C160.207,316.647,157.773,318.115,158.307,313.003z
			 M154.199,333.012l0.209-1.689c0,0,0.279-2.251,1.968-2.042c1.689,0.209,1.409,2.461,1.409,2.461l-0.209,1.688
			c0,0-0.279,2.251-1.405,2.112C156.171,335.542,153.78,336.389,154.199,333.012z"/>
		<path class="st0" d="M600.5,50.5c-21-11-36,7-36,7l-24.326,26.023c5.194,5.504,8.081,10.741,8.081,10.741
			s2.836,6.239,5.671,15.313s-0.567,22.686-0.567,22.686s-6.806,15.313-8.507,21.552c-1.701,6.239-1.134,10.209-1.134,10.209
			l18.149,19.283c3.97,7.373-0.567,13.044-0.567,13.044l-56.148,48.775c0,0-3.403,4.537-9.642,2.836
			c-6.239-1.701-9.642-8.507-9.642-8.507l-88.726-2.921L263.821,379.156c1.197,0.819,2.421,1.684,3.695,2.653
			c0,0-9.642,10.209-17.582,14.746c-7.94,4.537-13.612,2.269-13.612,2.269s-7.373-1.701-12.477-10.776c0,0-6.806-0.567-13.612,11.91
			v14.746h35.163c0,0,3.403,0,3.403,4.537c0,4.537-2.836,5.104-2.836,5.104h-2.269l-8.507,60.118c0,0-1.134,4.537-5.104,4.537
			c-2.567,0-18.882,0-30.096,0l27.512,37.5c34,28,59,0,59,0l367-393c12-18,0-33,0-33L600.5,50.5z"/>
		<path class="st0" d="M504.539,122.487l27.7,29.8c0.439,0.473,1.224,0.305,1.427-0.307c0.903-2.721,3.011-8.9,4.77-12.776
			c2.309-5.086,5.217-14.138,5.217-14.138s1.188-6.797-2.124-18.166c-1.616-5.547-5.527-10.973-9.11-15.08l-28.24,30.211
			C504.297,122.184,504.414,122.34,504.539,122.487z"/>
	</g>
</g>
<g id="Border">
	<rect y="-1" class="st6" width="700" height="700"/>
</g>
<g id="guideLInes" class="st2">
	<rect x="63" y="56.25" class="st7" width="574" height="447.5"/>
	<rect x="23" y="555" class="st7" width="654" height="90"/>
</g>
<g id="Layer_7">
	<path class="st6" d="M176.205,424.345h67.491l-8.507,60.118c0,0-1.134,4.537-5.104,4.537c-3.97,0-40.835,0-40.835,0
		s-3.97-0.567-4.537-4.537C184.145,480.493,176.205,424.345,176.205,424.345z"/>
	<path class="st6" d="M175.071,414.703c0,0-3.97,0-3.97,4.537s3.97,5.104,3.97,5.104h70.894c0,0,2.836-0.567,2.836-5.104
		s-3.403-4.537-3.403-4.537h-35.163H175.071z"/>
	<path class="st6" d="M210.234,399.958v14.746h-3.757l-0.213-15.313c0,0-1.701-12.477-14.746-19.283
		c0,0-11.343,10.209-19.283,11.343c0,0-1.134,0.567-4.537,0c-3.403-0.567-17.582-4.537-31.193-31.76c0,0,12.477-6.239,24.387-7.94
		s18.716,1.701,18.716,1.701s11.343,5.672,12.477,24.387c0,0,12.477,5.671,16.447,20.417c0,0,6.806-12.477,14.746-12.477
		c0,0,5.104-12.477,10.209-14.746c5.104-2.269,10.209-1.134,10.209-1.134s9.642,1.134,23.82,11.91c0,0-9.642,10.209-17.582,14.746
		c-7.94,4.537-13.612,2.269-13.612,2.269s-7.373-1.701-12.477-10.776C223.846,388.048,217.04,387.48,210.234,399.958z"/>
	<path class="st6" d="M323.803,251.622l24.248-16.704l137.817,4.537c0,0,3.403,6.806,9.642,8.507s9.642-2.836,9.642-2.836
		l56.148-48.775c0,0,4.537-5.671,0.567-13.044l-18.149-19.283c0,0-0.567-3.97,1.134-10.209c1.701-6.239,8.507-21.552,8.507-21.552
		s3.403-13.612,0.567-22.686s-5.671-15.313-5.671-15.313s-12.477-22.686-32.328-23.253s-26.089,20.417-26.089,20.417
		s-1.701,9.074-1.701,13.612l-10.776-11.343c0,0-3.403-5.104-13.044-1.134l-51.043,45.372c0,0-3.403,3.403-1.701,10.209
		l48.775,60.685l-111.728,11.343l-24.934-17.345c-0.488-0.339-1.155,0.01-1.155,0.604v47.523
		C322.53,251.607,323.264,251.993,323.803,251.622z"/>
	<path class="st6" d="M348.388,220.137l-23.938-16.577c-2.319-1.569-0.997-0.286-1.833,0.672v46.391
		c0.917,0.783-0.757,1.99,1.511,0.511l24.26-16.187V220.137z"/>
	<path class="st6" d="M532.521,152.201c0.443,0.469,1.226,0.296,1.424-0.319c0.882-2.728,2.94-8.923,4.669-12.813
		c2.269-5.104,5.104-14.179,5.104-14.179s1.134-6.806-2.269-18.149s-16.447-22.119-16.447-22.119s-10.209-7.94-19.283,0
		c-9.074,7.94-6.239,27.79-6.239,27.79s1.701,6.239,5.104,10.209L532.521,152.201z"/>
</g>
<g id="dsa">
	<rect x="210.333" y="570" class="st5" width="308.667" height="72.667"/>
	<text transform="matrix(1 0 0 1 210.3335 626.9512)" class="st1 st8 st9">Gardener</text>
</g>
</svg>
