<svg width="844" height="256" viewBox="0 0 844 256" fill="none" xmlns="http://www.w3.org/2000/svg">
<g filter="url(#filter0_d)">
<path d="M16 32H804C826.091 32 844 49.9086 844 72V256H16V32Z" fill="#816EC5"/>
<path d="M16 32H804C826.091 32 844 49.9086 844 72V256H16V32Z" fill="url(#paint0_linear)" fill-opacity="0.3"/>
</g>
<path d="M401.922 172H387.859V142.75H360.438V172H346.375V103.75H360.438V131.406H387.859V103.75H401.922V172ZM427.656 172H414.062V121.281H427.656V172ZM413.266 108.156C413.266 106.125 413.938 104.453 415.281 103.141C416.656 101.828 418.516 101.172 420.859 101.172C423.172 101.172 425.016 101.828 426.391 103.141C427.766 104.453 428.453 106.125 428.453 108.156C428.453 110.219 427.75 111.906 426.344 113.219C424.969 114.531 423.141 115.188 420.859 115.188C418.578 115.188 416.734 114.531 415.328 113.219C413.953 111.906 413.266 110.219 413.266 108.156ZM467.359 133.984C465.516 133.734 463.891 133.609 462.484 133.609C457.359 133.609 454 135.344 452.406 138.812V172H438.859V121.281H451.656L452.031 127.328C454.75 122.672 458.516 120.344 463.328 120.344C464.828 120.344 466.234 120.547 467.547 120.953L467.359 133.984ZM496.328 172.938C488.891 172.938 482.828 170.656 478.141 166.094C473.484 161.531 471.156 155.453 471.156 147.859V146.547C471.156 141.453 472.141 136.906 474.109 132.906C476.078 128.875 478.859 125.781 482.453 123.625C486.078 121.438 490.203 120.344 494.828 120.344C501.766 120.344 507.219 122.531 511.188 126.906C515.188 131.281 517.188 137.484 517.188 145.516V151.047H484.891C485.328 154.359 486.641 157.016 488.828 159.016C491.047 161.016 493.844 162.016 497.219 162.016C502.438 162.016 506.516 160.125 509.453 156.344L516.109 163.797C514.078 166.672 511.328 168.922 507.859 170.547C504.391 172.141 500.547 172.938 496.328 172.938ZM494.781 131.312C492.094 131.312 489.906 132.219 488.219 134.031C486.562 135.844 485.5 138.438 485.031 141.812H503.875V140.734C503.812 137.734 503 135.422 501.438 133.797C499.875 132.141 497.656 131.312 494.781 131.312Z" fill="white"/>
<defs>
<filter id="filter0_d" x="0" y="0" width="860" height="256" filterUnits="userSpaceOnUse" color-interpolation-filters="sRGB">
<feFlood flood-opacity="0" result="BackgroundImageFix"/>
<feColorMatrix in="SourceAlpha" type="matrix" values="0 0 0 0 0 0 0 0 0 0 0 0 0 0 0 0 0 0 127 0"/>
<feOffset dy="-4"/>
<feGaussianBlur stdDeviation="2"/>
<feColorMatrix type="matrix" values="0 0 0 0 0 0 0 0 0 0 0 0 0 0 0 0 0 0 0.25 0"/>
<feBlend mode="normal" in2="BackgroundImageFix" result="effect1_dropShadow"/>
<feBlend mode="normal" in="SourceGraphic" in2="effect1_dropShadow" result="shape"/>
</filter>
<linearGradient id="paint0_linear" x1="430" y1="32" x2="430" y2="256" gradientUnits="userSpaceOnUse">
<stop/>
<stop offset="1" stop-color="white" stop-opacity="0.5"/>
</linearGradient>
</defs>
</svg>
