<svg xmlns="http://www.w3.org/2000/svg" viewBox="0 0 705 705"><defs><style>.cls-1{fill:#fff;}.cls-2,.cls-4,.cls-5{fill:none;}.cls-3,.cls-6{fill:#7f70df;}.cls-3{opacity:0.3;}.cls-4,.cls-5{stroke:#7f70df;stroke-miterlimit:10;}.cls-4{stroke-width:5px;}.cls-5{stroke-width:4px;}.cls-6{font-size:72px;font-family:Impact, Impact;}</style></defs><title>HousePainter</title><g id="Layer_9" data-name="Layer 9"><rect class="cls-1" x="69.5" y="30.5" width="601" height="621"/></g><g id="check"><path class="cls-2" d="M373.334,575.225a10.392,10.392,0,0,0-4.887-2.742,35,35,0,0,0-9.3-.949H344.242v56.918h14.8V605.529h3.973a19.541,19.541,0,0,0,7.857-1.336A7.7,7.7,0,0,0,375,600.361q1.125-2.5,1.125-7.945v-4.957a38.875,38.875,0,0,0-.58-7.893A9.415,9.415,0,0,0,373.334,575.225Zm-9.58,15.4q0,3.164-.791,4.166a3.423,3.423,0,0,1-2.83,1q-.457,0-1.09-.035V581.271q2.883,0,3.8.879t.914,3.8Z" transform="translate(2.5 3.5)"/><rect class="cls-2" x="418.742" y="575.033" width="14.625" height="7.418"/><path class="cls-2" d="M406.223,583.5q-3.656-2.549-10.863-2.549a18.854,18.854,0,0,0-9.773,2.25,11.584,11.584,0,0,0-5.01,5.186,22.069,22.069,0,0,0-1.248,8.35v3.129h13.324v-4.887a18.927,18.927,0,0,1,.352-4.834q.352-.932,1.793-.932a1.87,1.87,0,0,1,1.811,1.107,13.032,13.032,0,0,1,.545,4.764,9.81,9.81,0,0,1-.492,3.867q-.492.949-7.488,3.691-6.539,2.531-8.191,4.43t-1.652,7.137v3.832q0,7.066,3.111,9.158a12,12,0,0,0,6.838,2.092,8.664,8.664,0,0,0,8.262-5v4.157h13.816V605.037q0-11.566-.738-15.275A9.933,9.933,0,0,0,406.223,583.5Zm-9.07,32.361a13.345,13.345,0,0,1-.4,4.342,1.741,1.741,0,0,1-1.74.826,1.856,1.856,0,0,1-1.881-1.055,14.133,14.133,0,0,1-.475-4.676,16.614,16.614,0,0,1,.545-4.852q.545-1.687,3.955-4.184Z" transform="translate(2.5 3.5)"/><rect class="cls-2" x="418.742" y="585.299" width="14.625" height="46.652"/><path class="cls-2" d="M520.709,583.223a19.341,19.341,0,0,0-9.861-2.268,19.088,19.088,0,0,0-8.648,1.881,11.348,11.348,0,0,0-5.414,5.414,23.167,23.167,0,0,0-1.652,9.65v13.605a32.23,32.23,0,0,0,.738,7.928,12.9,12.9,0,0,0,2.654,4.992,12.719,12.719,0,0,0,5.361,3.568,22.412,22.412,0,0,0,7.945,1.3,19.664,19.664,0,0,0,7.717-1.318,12.411,12.411,0,0,0,5.08-3.955,13.524,13.524,0,0,0,2.549-4.957,30.856,30.856,0,0,0,.545-6.645v-3.445H514.258v6.152a13.269,13.269,0,0,1-.545,4.693,2.132,2.132,0,0,1-2.162,1.213,1.776,1.776,0,0,1-1.758-.914,11.2,11.2,0,0,1-.457-4.078v-10.09h18.387v-6.187q0-6.785-1.564-10.529A12.472,12.472,0,0,0,520.709,583.223Zm-7.225,15.135h-4.148v-3.41a18.67,18.67,0,0,1,.352-4.834q.352-.9,1.828-.9a1.528,1.528,0,0,1,1.582,1.055,17.188,17.188,0,0,1,.387,4.676Z" transform="translate(2.5 3.5)"/><path class="cls-2" d="M465.074,582.678a9.766,9.766,0,0,0-5.977-1.723,10.141,10.141,0,0,0-5.15,1.285,10.653,10.653,0,0,0-3.779,3.856l.246-4.3H435.965v46.652h14.2V596.916a30.493,30.493,0,0,1,.387-6.486,1.757,1.757,0,0,1,1.9-1.213q1.441,0,1.758,1.055a30.052,30.052,0,0,1,.316,5.871v32.309h14.2v-32.7a39.7,39.7,0,0,0-.668-8.736A7.662,7.662,0,0,0,465.074,582.678Z" transform="translate(2.5 3.5)"/><path class="cls-2" d="M488.594,615.268V590.307h3.832v-7.383h-3.832v-7.348H474.355v7.348H471.3v7.383h3.059V614a59.211,59.211,0,0,0,.387,8.842,6.191,6.191,0,0,0,1.969,3.34,7.384,7.384,0,0,0,3.656,1.863,40.964,40.964,0,0,0,6.926.4h5.73v-7.523q-3.48,0-3.955-.527T488.594,615.268Z" transform="translate(2.5 3.5)"/><polygon class="cls-2" points="168.184 595.389 163.754 595.389 163.754 575.033 148.953 575.033 148.953 631.951 163.754 631.951 163.754 608.045 168.184 608.045 168.184 631.951 182.984 631.951 182.984 575.033 168.184 575.033 168.184 595.389"/><path class="cls-2" d="M214.9,586.088a13.177,13.177,0,0,0-5.291-3.709,21.355,21.355,0,0,0-8.209-1.424,17.819,17.819,0,0,0-9.352,2.215,11.679,11.679,0,0,0-5.062,5.871,29.242,29.242,0,0,0-1.406,10.16v11.953a38.063,38.063,0,0,0,.773,8.912,12.351,12.351,0,0,0,2.584,5.063,10.875,10.875,0,0,0,5.08,3.129,26.647,26.647,0,0,0,7.98,1.037,21.3,21.3,0,0,0,7.471-1.213,12.231,12.231,0,0,0,5.326-3.762,12.954,12.954,0,0,0,2.707-5.484,48.217,48.217,0,0,0,.633-9.229V598.182a29.285,29.285,0,0,0-.686-7.383A13.125,13.125,0,0,0,214.9,586.088Zm-10.969,30.094a11.929,11.929,0,0,1-.4,3.938,1.92,1.92,0,0,1-3.322-.088,13.639,13.639,0,0,1-.422-4.307V594.666a14.263,14.263,0,0,1,.422-4.518,1.665,1.665,0,0,1,1.688-.932,1.6,1.6,0,0,1,1.652.932,15.5,15.5,0,0,1,.387,4.518Z" transform="translate(2.5 3.5)"/><path class="cls-2" d="M278.183,246.819a24.475,24.475,0,0,0-16.643.724s-13.025,9.407-12.3,21.708,9.045,17.728,9.045,17.728,28.257,15.714,60.375,33.514l32.136-34.378C316.233,266.8,282.442,248.182,278.183,246.819Z" transform="translate(2.5 3.5)"/><path class="cls-2" d="M319.475,583.223a19.341,19.341,0,0,0-9.861-2.268,19.088,19.088,0,0,0-8.648,1.881,11.346,11.346,0,0,0-5.414,5.414,23.16,23.16,0,0,0-1.652,9.65v13.605a32.23,32.23,0,0,0,.738,7.928,12.89,12.89,0,0,0,2.654,4.992,12.716,12.716,0,0,0,5.361,3.568,22.41,22.41,0,0,0,7.945,1.3,19.666,19.666,0,0,0,7.717-1.318,12.411,12.411,0,0,0,5.08-3.955,13.531,13.531,0,0,0,2.549-4.957,30.856,30.856,0,0,0,.545-6.645v-3.445H313.023v6.152a13.269,13.269,0,0,1-.545,4.693,2.133,2.133,0,0,1-2.162,1.213,1.776,1.776,0,0,1-1.758-.914,11.2,11.2,0,0,1-.457-4.078v-10.09h18.387v-6.187q0-6.785-1.564-10.529A12.475,12.475,0,0,0,319.475,583.223Zm-7.225,15.135H308.1v-3.41a18.669,18.669,0,0,1,.352-4.834q.351-.9,1.828-.9a1.529,1.529,0,0,1,1.582,1.055,17.188,17.188,0,0,1,.387,4.676Z" transform="translate(2.5 3.5)"/><path class="cls-2" d="M241.129,613.193a40.5,40.5,0,0,1-.3,6.785q-.3,1.055-1.881,1.055-1.477,0-1.811-1.02a33.058,33.058,0,0,1-.334-6.469V581.8H222.6v31.465q0,6.012.246,8.033a10.924,10.924,0,0,0,1.248,3.885,7.315,7.315,0,0,0,3.111,2.988,11.2,11.2,0,0,0,5.309,1.125,10.223,10.223,0,0,0,4.975-1.18,9.894,9.894,0,0,0,3.639-3.54l-.246,3.876h14.449V581.8h-14.2Z" transform="translate(2.5 3.5)"/><path class="cls-2" d="M280.469,601.205a39,39,0,0,1-6.135-3.48,4.974,4.974,0,0,1-1.793-2.2,11.992,11.992,0,0,1-.3-3.146,3.909,3.909,0,0,1,.6-2.373,2.1,2.1,0,0,1,1.793-.791q1.477,0,1.846.861a13.478,13.478,0,0,1,.369,4.1v2.531h12.586V594a26.022,26.022,0,0,0-.369-5.168,8.355,8.355,0,0,0-2.109-3.586,12.124,12.124,0,0,0-4.992-3.111,23.286,23.286,0,0,0-7.893-1.178,21.62,21.62,0,0,0-8.209,1.441,9.588,9.588,0,0,0-5.01,4.1q-1.477,2.654-1.477,8.244a15.622,15.622,0,0,0,1.371,6.8q1.371,2.865,7.629,6.381,7.453,4.148,8.262,4.992.773.844.773,4.184a5.648,5.648,0,0,1-.6,3.182,2.55,2.55,0,0,1-2.109.756,1.841,1.841,0,0,1-1.881-1.125,15.534,15.534,0,0,1-.475-4.887v-2.953H259.762v2.25q0,5.836,1.441,8.719a10.119,10.119,0,0,0,5.291,4.57,22.991,22.991,0,0,0,9.264,1.688,20.189,20.189,0,0,0,8.35-1.564,9.818,9.818,0,0,0,4.939-4.465q1.477-2.9,1.477-8.6,0-5.1-1.934-7.77T280.469,601.205Z" transform="translate(2.5 3.5)"/><path class="cls-2" d="M546,587.934l.563-6.135h-14.2v46.652h14.2V610.029a52.631,52.631,0,0,1,.422-8.666,4.425,4.425,0,0,1,2.25-2.936,11.9,11.9,0,0,1,5.73-1.055V580.955Q549.1,581.343,546,587.934Z" transform="translate(2.5 3.5)"/><polygon class="cls-2" points="439.875 371.161 412.378 409.873 402.545 408.411 396.454 414.933 414.549 417.833 448.92 368.266 443.485 364.571 438.379 370.039 439.875 371.161"/><polygon class="cls-2" points="352.681 53.5 292.26 113.921 292.26 78.826 266.211 78.826 266.211 139.608 221.709 184.472 240.161 203.285 352.681 89.68 449.146 187.076 466.923 168.059 352.681 53.5"/><path class="cls-2" d="M349.819,101.014l-99.133,99.5v39.074c15.2-14.472,35.456-3.618,35.456-3.618l73.32,40.878,80.45-86.063Z" transform="translate(2.5 3.5)"/><path class="cls-1" d="M310.281,589.217q-1.477,0-1.828.9a18.669,18.669,0,0,0-.352,4.834v3.41h4.148v-3.41a17.188,17.188,0,0,0-.387-4.676A1.529,1.529,0,0,0,310.281,589.217Z" transform="translate(2.5 3.5)"/><path class="cls-1" d="M359.043,581.271v14.484q.633.035,1.09.035a3.423,3.423,0,0,0,2.83-1q.791-1,.791-4.166v-4.676q0-2.918-.914-3.8T359.043,581.271Z" transform="translate(2.5 3.5)"/><path class="cls-1" d="M201.895,589.217a1.665,1.665,0,0,0-1.687.932,14.263,14.263,0,0,0-.422,4.518v21.059a13.639,13.639,0,0,0,.422,4.307,1.92,1.92,0,0,0,3.322.088,11.929,11.929,0,0,0,.4-3.937V594.666a15.5,15.5,0,0,0-.387-4.518A1.6,1.6,0,0,0,201.895,589.217Z" transform="translate(2.5 3.5)"/><path class="cls-1" d="M393.2,610.451a16.614,16.614,0,0,0-.545,4.852,14.133,14.133,0,0,0,.475,4.676,1.856,1.856,0,0,0,1.881,1.055,1.741,1.741,0,0,0,1.74-.826,13.345,13.345,0,0,0,.4-4.342v-9.6Q393.742,608.764,393.2,610.451Z" transform="translate(2.5 3.5)"/><path class="cls-1" d="M511.516,589.217q-1.477,0-1.828.9a18.67,18.67,0,0,0-.352,4.834v3.41h4.148v-3.41a17.188,17.188,0,0,0-.387-4.676A1.528,1.528,0,0,0,511.516,589.217Z" transform="translate(2.5 3.5)"/><path class="cls-1" d="M-.5-1.5v700h700V-1.5ZM180.484,628.451h-14.8V604.545h-4.43v23.906h-14.8V571.533h14.8v20.355h4.43V571.533h14.8Zm37.652-18.844a48.217,48.217,0,0,1-.633,9.229,12.954,12.954,0,0,1-2.707,5.484,12.231,12.231,0,0,1-5.326,3.762A21.3,21.3,0,0,1,202,629.295a26.647,26.647,0,0,1-7.98-1.037,10.875,10.875,0,0,1-5.08-3.129,12.351,12.351,0,0,1-2.584-5.062,38.063,38.063,0,0,1-.773-8.912V599.2a29.242,29.242,0,0,1,1.406-10.16,11.679,11.679,0,0,1,5.063-5.871,17.819,17.819,0,0,1,9.352-2.215,21.355,21.355,0,0,1,8.209,1.424,12.867,12.867,0,0,1,7.84,8.42,29.285,29.285,0,0,1,.686,7.383Zm37.2,18.844H240.883l.246-3.876a9.894,9.894,0,0,1-3.639,3.54,10.223,10.223,0,0,1-4.975,1.18,11.2,11.2,0,0,1-5.309-1.125,7.315,7.315,0,0,1-3.111-2.988,10.924,10.924,0,0,1-1.248-3.885q-.246-2.021-.246-8.033V581.8h14.2v31.746a33.058,33.058,0,0,0,.334,6.469q.334,1.02,1.811,1.02,1.582,0,1.881-1.055a40.5,40.5,0,0,0,.3-6.785V581.8h14.2Zm33.715-5.186a9.818,9.818,0,0,1-4.939,4.465,20.189,20.189,0,0,1-8.35,1.564,22.991,22.991,0,0,1-9.264-1.687,10.119,10.119,0,0,1-5.291-4.57q-1.442-2.883-1.441-8.719v-2.25h12.586v2.953a15.534,15.534,0,0,0,.475,4.887,1.841,1.841,0,0,0,1.881,1.125,2.55,2.55,0,0,0,2.109-.756,5.648,5.648,0,0,0,.6-3.182q0-3.34-.773-4.184-.809-.844-8.262-4.992-6.258-3.516-7.629-6.381a15.622,15.622,0,0,1-1.371-6.8q0-5.59,1.477-8.244a9.588,9.588,0,0,1,5.01-4.1,21.62,21.62,0,0,1,8.209-1.441,23.286,23.286,0,0,1,7.893,1.178,12.124,12.124,0,0,1,4.992,3.111,8.355,8.355,0,0,1,2.109,3.586,26.022,26.022,0,0,1,.369,5.168v2.707H276.848v-2.531a13.478,13.478,0,0,0-.369-4.1q-.369-.861-1.846-.861a2.1,2.1,0,0,0-1.793.791,3.909,3.909,0,0,0-.6,2.373,11.992,11.992,0,0,0,.3,3.146,4.974,4.974,0,0,0,1.793,2.2,39,39,0,0,0,6.135,3.48q6.188,3.023,8.121,5.7t1.934,7.77Q290.523,620.365,289.047,623.266Zm37.441-17.314H308.1v10.09a11.2,11.2,0,0,0,.457,4.078,1.776,1.776,0,0,0,1.758.914,2.133,2.133,0,0,0,2.162-1.213,13.269,13.269,0,0,0,.545-4.693v-6.152h13.465v3.445a30.856,30.856,0,0,1-.545,6.645,13.531,13.531,0,0,1-2.549,4.957,12.411,12.411,0,0,1-5.08,3.955,19.666,19.666,0,0,1-7.717,1.318,22.41,22.41,0,0,1-7.945-1.3,12.716,12.716,0,0,1-5.361-3.568,12.89,12.89,0,0,1-2.654-4.992,32.23,32.23,0,0,1-.738-7.928V597.9a23.16,23.16,0,0,1,1.652-9.65,11.346,11.346,0,0,1,5.414-5.414,19.088,19.088,0,0,1,8.648-1.881,19.341,19.341,0,0,1,9.861,2.268,12.475,12.475,0,0,1,5.449,6.012q1.564,3.744,1.564,10.529Zm49.641-13.535q0,5.449-1.125,7.945a7.7,7.7,0,0,1-4.131,3.832,19.541,19.541,0,0,1-7.857,1.336h-3.973v22.922h-14.8V571.533h14.906a35,35,0,0,1,9.3.949,10.392,10.392,0,0,1,4.887,2.742,9.415,9.415,0,0,1,2.215,4.342,38.875,38.875,0,0,1,.58,7.893Zm35.227,36.035H397.539v-4.157a8.664,8.664,0,0,1-8.262,5,12,12,0,0,1-6.838-2.092q-3.111-2.092-3.111-9.158v-3.832q0-5.238,1.652-7.137t8.191-4.43q7-2.742,7.488-3.691a9.81,9.81,0,0,0,.492-3.867,13.032,13.032,0,0,0-.545-4.764,1.87,1.87,0,0,0-1.811-1.107q-1.441,0-1.793.932a18.927,18.927,0,0,0-.352,4.834v4.887H379.328V596.74a22.069,22.069,0,0,1,1.248-8.35,11.584,11.584,0,0,1,5.01-5.186,18.854,18.854,0,0,1,9.773-2.25q7.207,0,10.863,2.549a9.933,9.933,0,0,1,4.395,6.258q.738,3.709.738,15.275Zm19.512,0H416.242V581.8h14.625Zm0-49.5H416.242v-7.418h14.625Zm37.863,49.5h-14.2V596.143a30.052,30.052,0,0,0-.316-5.871q-.316-1.055-1.758-1.055a1.757,1.757,0,0,0-1.9,1.213,30.493,30.493,0,0,0-.387,6.486v31.535h-14.2V581.8h14.449l-.246,4.3a10.653,10.653,0,0,1,3.779-3.856,10.141,10.141,0,0,1,5.15-1.285,9.766,9.766,0,0,1,5.977,1.723,7.662,7.662,0,0,1,2.988,4.342,39.7,39.7,0,0,1,.668,8.736Zm24.293,0h-5.73a40.964,40.964,0,0,1-6.926-.4,7.384,7.384,0,0,1-3.656-1.863,6.191,6.191,0,0,1-1.969-3.34,59.211,59.211,0,0,1-.387-8.842v-23.7H471.3v-7.383h3.059v-7.348h14.238v7.348h3.832v7.383h-3.832v24.961q0,4.605.475,5.133t3.955.527Zm34.7-22.5H509.336v10.09a11.2,11.2,0,0,0,.457,4.078,1.776,1.776,0,0,0,1.758.914,2.132,2.132,0,0,0,2.162-1.213,13.269,13.269,0,0,0,.545-4.693v-6.152h13.465v3.445a30.856,30.856,0,0,1-.545,6.645,13.524,13.524,0,0,1-2.549,4.957,12.411,12.411,0,0,1-5.08,3.955,19.664,19.664,0,0,1-7.717,1.318,22.412,22.412,0,0,1-7.945-1.3,12.719,12.719,0,0,1-5.361-3.568,12.9,12.9,0,0,1-2.654-4.992,32.23,32.23,0,0,1-.738-7.928V597.9a23.167,23.167,0,0,1,1.652-9.65,11.348,11.348,0,0,1,5.414-5.414,19.088,19.088,0,0,1,8.648-1.881,19.341,19.341,0,0,1,9.861,2.268,12.472,12.472,0,0,1,5.449,6.012q1.564,3.744,1.564,10.529Zm27.246-8.578a11.9,11.9,0,0,0-5.73,1.055,4.425,4.425,0,0,0-2.25,2.936,52.631,52.631,0,0,0-.422,8.666v18.422h-14.2V581.8h14.2L546,587.934q3.094-6.59,8.965-6.979ZM653.5,133.5,440.985,361.071l5.435,3.7-34.371,49.567-18.094-2.9L286.5,526.5s-25,28-59,0l-157-214s-10-18,5.5-33.5l55.5-40.5s18-10,33,4l99,137,55.159-59.007c-32.118-17.8-60.375-33.514-60.375-33.514s-8.321-5.427-9.045-17.728,12.3-21.708,12.3-21.708a24.475,24.475,0,0,1,16.643-.724c4.26,1.363,38.051,19.98,72.612,39.3l8.668-9.272-73.32-40.878s-20.261-10.854-35.456,3.618V200.509l99.133-99.5,90.093,89.766,6.734-7.2-96.465-97.4L237.661,199.785l-18.452-18.814,44.5-44.863V75.326h26.05v35.095L350.181,50,464.423,164.559,564.5,57.5s15-18,36-7l53,50S665.5,115.5,653.5,133.5Z" transform="translate(2.5 3.5)"/><polygon class="cls-1" points="412.378 409.873 439.875 371.161 438.379 370.039 402.545 408.411 412.378 409.873"/><path class="cls-1" d="M600.5,50.5c-21-11-36,7-36,7L464.423,164.559l16.367,16.413L462.7,199.785l-16.054-16.209-6.734,7.2,9.764,9.729v126.63l-90.214-50.3-8.668,9.272c38.824,21.7,78.62,44.28,78.62,44.28s9.407,6.151,9.045,16.281c-.245,6.868-.495,10.243-2.093,13.283l1.008-1.344,3.61,2.455L653.5,133.5c12-18,0-33,0-33Z" transform="translate(2.5 3.5)"/><path class="cls-1" d="M291.734,408.887l18.468,10.33L289.941,435.5l-37.989,68.018s-6.151,10.13-14.472,5.065-10.492-6.512-10.492-6.512-3.618-3.256,0-10.854,39.074-71.275,39.074-71.275l1.447-24.6,18.478,10.335,9.561-16.3,104.5,15.542,35.833-38.372-2.846-2.134s-4.7,5.427-11.216,6.512-8.683.724-11.939-.362c-1.835-.612-49.747-27.077-91.219-50.062L263.5,379.5l-99-137c-15-14-33-4-33-4L76,279c-15.5,15.5-5.5,33.5-5.5,33.5l157,214c34,28,59,0,59,0L393.954,411.433l-94.787-15.19Z" transform="translate(2.5 3.5)"/><path class="cls-1" d="M436.367,359.959l-3.334,4.445A20.863,20.863,0,0,0,436.367,359.959Z" transform="translate(2.5 3.5)"/><path class="cls-3" d="M436.367,359.959l-3.334,4.445A20.863,20.863,0,0,0,436.367,359.959Z" transform="translate(2.5 3.5)"/></g><g id="Border"><rect class="cls-4" x="2.5" y="2.5" width="700" height="700"/></g><g id="Layer_7" data-name="Layer 7"><path class="cls-5" d="M251.952,503.517s-6.151,10.13-14.472,5.065-10.492-6.512-10.492-6.512-3.618-3.256,0-10.854,39.074-71.275,39.074-71.275l1.447-24.6L310.2,419.217,289.941,435.5Z" transform="translate(2.5 3.5)"/><polygon class="cls-5" points="294.234 412.387 301.667 399.743 414.549 417.833 448.92 368.266 439.875 362.116 435.533 367.904 439.875 371.161 412.378 409.873 298.049 392.869 288.488 409.174 294.234 412.387"/><path class="cls-5" d="M433.033,364.4s-4.7,5.427-11.216,6.512-8.683.724-11.939-.362-151.594-83.576-151.594-83.576-8.321-5.427-9.045-17.728,12.3-21.708,12.3-21.708a24.475,24.475,0,0,1,16.643-.724c9.045,2.894,151.232,83.576,151.232,83.576s9.407,6.151,9.045,16.281S437.737,359.339,433.033,364.4Z" transform="translate(2.5 3.5)"/><path class="cls-5" d="M250.686,239.583V200.509l99.133-99.5,99.857,99.5v126.63L286.142,235.965S265.881,225.111,250.686,239.583Z" transform="translate(2.5 3.5)"/><polygon class="cls-5" points="240.161 203.285 352.681 89.68 465.201 203.285 483.291 184.472 352.681 53.5 292.26 113.921 292.26 78.826 266.211 78.826 266.211 139.608 221.709 184.472 240.161 203.285"/></g><g id="Layer_8" data-name="Layer 8"><text class="cls-6" transform="translate(145.5 632.451)">House Painter</text></g></svg>