<?xml version="1.0" encoding="utf-8"?>
<!-- Generator: Adobe Illustrator 21.0.0, SVG Export Plug-In . SVG Version: 6.00 Build 0)  -->
<svg version="1.0" xmlns="http://www.w3.org/2000/svg" xmlns:xlink="http://www.w3.org/1999/xlink" x="0px" y="0px"
	 viewBox="0 0 700 700" style="enable-background:new 0 0 700 700;" xml:space="preserve">
<style type="text/css">
	.st0{opacity:0.1;fill:#7F70DF;stroke:#7F70DF;stroke-width:0.25;stroke-miterlimit:10;}
	.st1{opacity:0.3;fill:#7F70DF;stroke:#7F70DF;stroke-width:0.25;stroke-miterlimit:10;}
	.st2{fill:none;}
	.st3{fill:#FFFFFF;}
	.st4{opacity:0.3;fill:#7F70DF;}
	.st5{fill:none;stroke:#7F70DF;stroke-width:5;stroke-miterlimit:10;}
	.st6{display:none;}
	.st7{display:inline;fill:none;stroke:#7F70DF;stroke-width:10;stroke-miterlimit:10;}
	.st8{fill:none;stroke:#7F70DF;stroke-width:4;stroke-miterlimit:10;}
	.st9{opacity:0.5;fill:#7F70DF;stroke:#7F70DF;stroke-width:4;stroke-miterlimit:10;}
</style>
<g id="shading">
	<polygon class="st0" points="239,246 277,241 450,336 465,333 455,197 352,95 243,203 	"/>
	<polygon class="st1" points="230,212 352,95 465,208 502,177 352,34 233,61 198,193 	"/>
	<polygon class="st1" points="244,386 278,401 316,422 254,530 184,492 	"/>
</g>
<g id="check">
	<g>
		<path class="st2" d="M373.334,575.225c-1.09-1.195-2.719-2.109-4.887-2.742s-5.268-0.949-9.299-0.949h-14.906v56.918h14.801
			v-22.922h3.973c3.234,0,5.854-0.445,7.857-1.336s3.381-2.168,4.131-3.832s1.125-4.313,1.125-7.945v-4.957
			c0-3.563-0.193-6.193-0.58-7.893S374.424,576.42,373.334,575.225z M363.754,590.623c0,2.109-0.264,3.498-0.791,4.166
			s-1.471,1.002-2.83,1.002c-0.305,0-0.668-0.012-1.09-0.035v-14.484c1.922,0,3.188,0.293,3.797,0.879s0.914,1.852,0.914,3.797
			V590.623z"/>
		<rect x="416.242" y="571.533" class="st2" width="14.625" height="7.418"/>
		<path class="st2" d="M406.223,583.504c-2.438-1.699-6.059-2.549-10.863-2.549c-4.008,0-7.266,0.75-9.773,2.25
			s-4.178,3.229-5.01,5.186s-1.248,4.74-1.248,8.35v3.129h13.324v-4.887c0-2.602,0.117-4.213,0.352-4.834s0.832-0.932,1.793-0.932
			c0.844,0,1.447,0.369,1.811,1.107s0.545,2.326,0.545,4.764c0,1.945-0.164,3.234-0.492,3.867s-2.824,1.863-7.488,3.691
			c-4.359,1.688-7.09,3.164-8.191,4.43s-1.652,3.645-1.652,7.137v3.832c0,4.711,1.037,7.764,3.111,9.158s4.354,2.092,6.838,2.092
			c1.898,0,3.533-0.417,4.904-1.25c1.371-0.834,2.49-2.084,3.357-3.751v4.157h13.816v-23.414c0-7.711-0.246-12.803-0.738-15.275
			S408.66,585.203,406.223,583.504z M397.152,615.865c0,2.344-0.135,3.791-0.404,4.342s-0.85,0.826-1.74,0.826
			c-0.938,0-1.564-0.352-1.881-1.055s-0.475-2.262-0.475-4.676c0-2.109,0.182-3.727,0.545-4.852s1.682-2.52,3.955-4.184V615.865z"/>
		<rect x="416.242" y="581.799" class="st2" width="14.625" height="46.652"/>
		<path class="st2" d="M520.709,583.223c-2.59-1.512-5.877-2.268-9.861-2.268c-3.258,0-6.141,0.627-8.648,1.881
			s-4.313,3.059-5.414,5.414s-1.652,5.572-1.652,9.65v13.605c0,3.469,0.246,6.111,0.738,7.928s1.377,3.48,2.654,4.992
			s3.064,2.701,5.361,3.568s4.945,1.301,7.945,1.301c3.094,0,5.666-0.439,7.717-1.318s3.744-2.197,5.08-3.955
			s2.186-3.41,2.549-4.957s0.545-3.762,0.545-6.645v-3.445h-13.465v6.152c0,2.32-0.182,3.885-0.545,4.693s-1.084,1.213-2.162,1.213
			c-0.867,0-1.453-0.305-1.758-0.914s-0.457-1.969-0.457-4.078v-10.09h18.387v-6.188c0-4.523-0.521-8.033-1.564-10.529
			S523.299,584.734,520.709,583.223z M513.484,598.357h-4.148v-3.41c0-2.625,0.117-4.236,0.352-4.834s0.844-0.896,1.828-0.896
			c0.797,0,1.324,0.352,1.582,1.055s0.387,2.262,0.387,4.676V598.357z"/>
		<path class="st2" d="M465.074,582.678c-1.547-1.148-3.539-1.723-5.977-1.723c-1.945,0-3.662,0.429-5.15,1.285
			c-1.488,0.857-2.748,2.143-3.779,3.856l0.246-4.298h-14.449v46.652h14.203v-31.535c0-3.516,0.129-5.678,0.387-6.486
			s0.891-1.213,1.898-1.213c0.961,0,1.547,0.352,1.758,1.055s0.316,2.66,0.316,5.871v32.309h14.203v-32.695
			c0-4.078-0.223-6.99-0.668-8.736S466.621,583.826,465.074,582.678z"/>
		<path class="st2" d="M488.594,615.268v-24.961h3.832v-7.383h-3.832v-7.348h-14.238v7.348h-3.059v7.383h3.059v23.695
			c0,4.641,0.129,7.588,0.387,8.842s0.914,2.367,1.969,3.34s2.273,1.594,3.656,1.863s3.691,0.404,6.926,0.404h5.73v-7.523
			c-2.32,0-3.639-0.176-3.955-0.527S488.594,618.338,488.594,615.268z"/>
		<polygon class="st2" points="165.684,591.889 161.254,591.889 161.254,571.533 146.453,571.533 146.453,628.451 161.254,628.451 
			161.254,604.545 165.684,604.545 165.684,628.451 180.484,628.451 180.484,571.533 165.684,571.533 		"/>
		<path class="st2" d="M214.902,586.088c-1.243-1.523-3.006-2.76-5.291-3.709s-5.022-1.424-8.209-1.424
			c-3.797,0-6.914,0.738-9.352,2.215c-2.438,1.477-4.125,3.434-5.063,5.871c-0.938,2.438-1.406,5.824-1.406,10.16v11.953
			c0,3.961,0.258,6.932,0.773,8.912c0.515,1.98,1.376,3.668,2.584,5.063c1.207,1.395,2.9,2.438,5.08,3.129s4.839,1.037,7.98,1.037
			c2.813,0,5.303-0.404,7.471-1.213c2.167-0.809,3.943-2.063,5.326-3.762c1.383-1.699,2.285-3.527,2.707-5.484
			s0.633-5.033,0.633-9.229v-11.426c0-3.305-0.229-5.766-0.686-7.383S216.145,587.611,214.902,586.088z M203.934,616.182
			c0,2.016-0.135,3.328-0.404,3.938c-0.27,0.609-0.826,0.914-1.67,0.914c-0.821,0-1.371-0.334-1.652-1.002s-0.422-2.104-0.422-4.307
			v-21.059c0-2.391,0.141-3.896,0.422-4.518s0.844-0.932,1.688-0.932s1.394,0.311,1.652,0.932c0.258,0.621,0.387,2.127,0.387,4.518
			V616.182z"/>
		<path class="st2" d="M278.183,246.819c-9.045-2.894-16.643,0.724-16.643,0.724s-13.025,9.407-12.301,21.708
			s9.045,17.728,9.045,17.728s28.257,15.714,60.375,33.514l32.136-34.378C316.233,266.799,282.442,248.182,278.183,246.819z"/>
		<path class="st2" d="M319.475,583.223c-2.59-1.512-5.877-2.268-9.861-2.268c-3.258,0-6.141,0.627-8.648,1.881
			c-2.508,1.254-4.313,3.059-5.414,5.414c-1.102,2.355-1.652,5.572-1.652,9.65v13.605c0,3.469,0.246,6.111,0.738,7.928
			s1.376,3.48,2.654,4.992c1.277,1.512,3.064,2.701,5.361,3.568c2.297,0.867,4.945,1.301,7.945,1.301
			c3.094,0,5.666-0.439,7.717-1.318c2.051-0.879,3.744-2.197,5.08-3.955s2.185-3.41,2.549-4.957
			c0.363-1.547,0.545-3.762,0.545-6.645v-3.445h-13.465v6.152c0,2.32-0.182,3.885-0.545,4.693c-0.364,0.809-1.084,1.213-2.162,1.213
			c-0.867,0-1.454-0.305-1.758-0.914c-0.305-0.609-0.457-1.969-0.457-4.078v-10.09h18.387v-6.188c0-4.523-0.522-8.033-1.564-10.529
			C323.881,586.738,322.064,584.734,319.475,583.223z M312.25,598.357h-4.148v-3.41c0-2.625,0.117-4.236,0.352-4.834
			c0.234-0.598,0.844-0.896,1.828-0.896c0.796,0,1.324,0.352,1.582,1.055c0.258,0.703,0.387,2.262,0.387,4.676V598.357z"/>
		<path class="st2" d="M241.129,613.193c0,3.82-0.1,6.082-0.299,6.785c-0.199,0.703-0.826,1.055-1.881,1.055
			c-0.984,0-1.588-0.34-1.811-1.02c-0.223-0.68-0.334-2.836-0.334-6.469v-31.746h-14.203v31.465c0,4.008,0.082,6.686,0.246,8.033
			c0.164,1.348,0.58,2.643,1.248,3.885s1.705,2.238,3.111,2.988s3.176,1.125,5.309,1.125c1.875,0,3.533-0.394,4.975-1.18
			c1.441-0.787,2.654-1.967,3.639-3.54l-0.246,3.876h14.449v-46.652h-14.203V613.193z"/>
		<path class="st2" d="M280.469,601.205c-3.094-1.523-5.139-2.684-6.135-3.48c-0.997-0.797-1.594-1.529-1.793-2.197
			c-0.199-0.668-0.299-1.717-0.299-3.146c0-1.055,0.199-1.846,0.598-2.373c0.398-0.527,0.996-0.791,1.793-0.791
			c0.984,0,1.6,0.287,1.846,0.861s0.369,1.939,0.369,4.096v2.531h12.586v-2.707c0-2.344-0.123-4.066-0.369-5.168
			s-0.949-2.297-2.109-3.586s-2.825-2.326-4.992-3.111c-2.168-0.785-4.799-1.178-7.893-1.178c-3.117,0-5.854,0.48-8.209,1.441
			s-4.025,2.326-5.01,4.096s-1.477,4.518-1.477,8.244c0,2.625,0.457,4.893,1.371,6.803s3.457,4.037,7.629,6.381
			c4.969,2.766,7.722,4.43,8.262,4.992c0.515,0.563,0.773,1.957,0.773,4.184c0,1.617-0.199,2.678-0.598,3.182
			c-0.399,0.504-1.102,0.756-2.109,0.756c-0.938,0-1.564-0.375-1.881-1.125s-0.475-2.379-0.475-4.887v-2.953h-12.586v2.25
			c0,3.891,0.48,6.797,1.441,8.719c0.961,1.922,2.725,3.445,5.291,4.57s5.654,1.688,9.264,1.688c3.257,0,6.041-0.521,8.35-1.564
			c2.308-1.043,3.955-2.531,4.939-4.465s1.477-4.799,1.477-8.596c0-3.398-0.645-5.988-1.934-7.77
			C287.301,605.119,284.594,603.221,280.469,601.205z"/>
		<path class="st2" d="M546.004,587.934l0.563-6.135h-14.203v46.652h14.203v-18.422c0-4.523,0.141-7.412,0.422-8.666
			s1.031-2.232,2.25-2.936s3.129-1.055,5.73-1.055v-16.418C551.055,581.214,548.066,583.54,546.004,587.934z"/>
		<polygon class="st2" points="437.375,367.661 409.878,406.373 400.045,404.911 393.954,411.433 412.049,414.333 446.42,364.766 
			440.985,361.071 435.879,366.539 		"/>
		<polygon class="st2" points="350.181,50 289.76,110.421 289.76,75.326 263.711,75.326 263.711,136.108 219.209,180.972 
			237.661,199.785 350.181,86.18 446.646,183.576 464.423,164.559 		"/>
		<path class="st2" d="M349.819,101.014l-99.133,99.495v39.074c15.196-14.472,35.456-3.618,35.456-3.618l73.32,40.878l80.45-86.063
			L349.819,101.014z"/>
		<path class="st3" d="M310.281,589.217c-0.984,0-1.594,0.299-1.828,0.896c-0.234,0.598-0.352,2.209-0.352,4.834v3.41h4.148v-3.41
			c0-2.414-0.129-3.973-0.387-4.676C311.605,589.568,311.078,589.217,310.281,589.217z"/>
		<path class="st3" d="M359.043,581.271v14.484c0.422,0.023,0.785,0.035,1.09,0.035c1.359,0,2.303-0.334,2.83-1.002
			s0.791-2.057,0.791-4.166v-4.676c0-1.945-0.305-3.211-0.914-3.797S360.965,581.271,359.043,581.271z"/>
		<path class="st3" d="M201.895,589.217c-0.844,0-1.406,0.311-1.688,0.932s-0.422,2.127-0.422,4.518v21.059
			c0,2.203,0.141,3.639,0.422,4.307s0.832,1.002,1.652,1.002c0.844,0,1.4-0.305,1.67-0.914c0.269-0.609,0.404-1.922,0.404-3.938
			v-21.516c0-2.391-0.129-3.896-0.387-4.518C203.289,589.527,202.738,589.217,201.895,589.217z"/>
		<path class="st3" d="M393.197,610.451c-0.363,1.125-0.545,2.742-0.545,4.852c0,2.414,0.158,3.973,0.475,4.676
			s0.943,1.055,1.881,1.055c0.891,0,1.471-0.275,1.74-0.826s0.404-1.998,0.404-4.342v-9.598
			C394.879,607.932,393.561,609.326,393.197,610.451z"/>
		<path class="st3" d="M511.516,589.217c-0.984,0-1.594,0.299-1.828,0.896s-0.352,2.209-0.352,4.834v3.41h4.148v-3.41
			c0-2.414-0.129-3.973-0.387-4.676S512.313,589.217,511.516,589.217z"/>
		<path class="st3" d="M-0.5-1.5v700h700v-700H-0.5z M180.484,628.451h-14.801v-23.906h-4.43v23.906h-14.801v-56.918h14.801v20.355
			h4.43v-20.355h14.801V628.451z M218.137,609.607c0,4.195-0.211,7.271-0.633,9.229s-1.324,3.785-2.707,5.484
			c-1.383,1.699-3.159,2.953-5.326,3.762c-2.168,0.809-4.658,1.213-7.471,1.213c-3.141,0-5.801-0.346-7.98-1.037
			s-3.873-1.734-5.08-3.129c-1.208-1.395-2.069-3.082-2.584-5.063c-0.516-1.98-0.773-4.951-0.773-8.912v-11.953
			c0-4.336,0.469-7.723,1.406-10.16c0.937-2.438,2.625-4.395,5.063-5.871c2.438-1.477,5.555-2.215,9.352-2.215
			c3.187,0,5.924,0.475,8.209,1.424s4.048,2.186,5.291,3.709c1.242,1.523,2.092,3.094,2.549,4.711s0.686,4.078,0.686,7.383V609.607z
			 M255.332,628.451h-14.449l0.246-3.876c-0.984,1.573-2.197,2.753-3.639,3.54c-1.441,0.786-3.1,1.18-4.975,1.18
			c-2.133,0-3.902-0.375-5.309-1.125s-2.443-1.746-3.111-2.988s-1.084-2.537-1.248-3.885c-0.164-1.348-0.246-4.025-0.246-8.033
			v-31.465h14.203v31.746c0,3.633,0.111,5.789,0.334,6.469c0.223,0.68,0.826,1.02,1.811,1.02c1.055,0,1.682-0.352,1.881-1.055
			c0.199-0.703,0.299-2.965,0.299-6.785v-31.395h14.203V628.451z M289.047,623.266c-0.984,1.934-2.631,3.422-4.939,4.465
			c-2.309,1.043-5.092,1.564-8.35,1.564c-3.609,0-6.697-0.563-9.264-1.688s-4.33-2.648-5.291-4.57
			c-0.961-1.922-1.441-4.828-1.441-8.719v-2.25h12.586v2.953c0,2.508,0.158,4.137,0.475,4.887s0.943,1.125,1.881,1.125
			c1.007,0,1.71-0.252,2.109-0.756c0.398-0.504,0.598-1.564,0.598-3.182c0-2.227-0.258-3.621-0.773-4.184
			c-0.54-0.563-3.293-2.227-8.262-4.992c-4.172-2.344-6.715-4.471-7.629-6.381s-1.371-4.178-1.371-6.803
			c0-3.727,0.492-6.475,1.477-8.244s2.654-3.135,5.01-4.096s5.092-1.441,8.209-1.441c3.094,0,5.725,0.393,7.893,1.178
			c2.167,0.785,3.832,1.822,4.992,3.111s1.863,2.484,2.109,3.586s0.369,2.824,0.369,5.168v2.707h-12.586v-2.531
			c0-2.156-0.123-3.521-0.369-4.096s-0.861-0.861-1.846-0.861c-0.797,0-1.395,0.264-1.793,0.791
			c-0.399,0.527-0.598,1.318-0.598,2.373c0,1.43,0.1,2.479,0.299,3.146c0.199,0.668,0.796,1.4,1.793,2.197
			c0.996,0.797,3.041,1.957,6.135,3.48c4.125,2.016,6.832,3.914,8.121,5.695c1.289,1.781,1.934,4.371,1.934,7.77
			C290.523,618.467,290.031,621.332,289.047,623.266z M326.488,605.951h-18.387v10.09c0,2.109,0.152,3.469,0.457,4.078
			c0.304,0.609,0.891,0.914,1.758,0.914c1.078,0,1.798-0.404,2.162-1.213c0.363-0.809,0.545-2.373,0.545-4.693v-6.152h13.465v3.445
			c0,2.883-0.182,5.098-0.545,6.645c-0.364,1.547-1.213,3.199-2.549,4.957s-3.029,3.076-5.08,3.955
			c-2.051,0.879-4.623,1.318-7.717,1.318c-3,0-5.648-0.434-7.945-1.301c-2.297-0.867-4.084-2.057-5.361-3.568
			c-1.278-1.512-2.162-3.176-2.654-4.992s-0.738-4.459-0.738-7.928V597.9c0-4.078,0.55-7.295,1.652-9.65
			c1.102-2.355,2.906-4.16,5.414-5.414c2.508-1.254,5.391-1.881,8.648-1.881c3.984,0,7.271,0.756,9.861,2.268
			c2.589,1.512,4.406,3.516,5.449,6.012c1.042,2.496,1.564,6.006,1.564,10.529V605.951z M376.129,592.416
			c0,3.633-0.375,6.281-1.125,7.945s-2.127,2.941-4.131,3.832s-4.623,1.336-7.857,1.336h-3.973v22.922h-14.801v-56.918h14.906
			c4.031,0,7.131,0.316,9.299,0.949s3.797,1.547,4.887,2.742s1.828,2.643,2.215,4.342s0.58,4.33,0.58,7.893V592.416z
			 M411.355,628.451h-13.816v-4.157c-0.867,1.667-1.986,2.917-3.357,3.751c-1.371,0.833-3.006,1.25-4.904,1.25
			c-2.484,0-4.764-0.697-6.838-2.092s-3.111-4.447-3.111-9.158v-3.832c0-3.492,0.551-5.871,1.652-7.137s3.832-2.742,8.191-4.43
			c4.664-1.828,7.16-3.059,7.488-3.691s0.492-1.922,0.492-3.867c0-2.438-0.182-4.025-0.545-4.764s-0.967-1.107-1.811-1.107
			c-0.961,0-1.559,0.311-1.793,0.932s-0.352,2.232-0.352,4.834v4.887h-13.324v-3.129c0-3.609,0.416-6.393,1.248-8.35
			s2.502-3.686,5.01-5.186s5.766-2.25,9.773-2.25c4.805,0,8.426,0.85,10.863,2.549s3.902,3.785,4.395,6.258
			s0.738,7.564,0.738,15.275V628.451z M430.867,628.451h-14.625v-46.652h14.625V628.451z M430.867,578.951h-14.625v-7.418h14.625
			V578.951z M468.73,628.451h-14.203v-32.309c0-3.211-0.105-5.168-0.316-5.871s-0.797-1.055-1.758-1.055
			c-1.008,0-1.641,0.404-1.898,1.213s-0.387,2.971-0.387,6.486v31.535h-14.203v-46.652h14.449l-0.246,4.298
			c1.031-1.714,2.291-2.999,3.779-3.856c1.488-0.856,3.205-1.285,5.15-1.285c2.438,0,4.43,0.574,5.977,1.723
			s2.543,2.596,2.988,4.342s0.668,4.658,0.668,8.736V628.451z M493.023,628.451h-5.73c-3.234,0-5.543-0.135-6.926-0.404
			s-2.602-0.891-3.656-1.863s-1.711-2.086-1.969-3.34s-0.387-4.201-0.387-8.842v-23.695h-3.059v-7.383h3.059v-7.348h14.238v7.348
			h3.832v7.383h-3.832v24.961c0,3.07,0.158,4.781,0.475,5.133s1.635,0.527,3.955,0.527V628.451z M527.723,605.951h-18.387v10.09
			c0,2.109,0.152,3.469,0.457,4.078s0.891,0.914,1.758,0.914c1.078,0,1.799-0.404,2.162-1.213s0.545-2.373,0.545-4.693v-6.152
			h13.465v3.445c0,2.883-0.182,5.098-0.545,6.645s-1.213,3.199-2.549,4.957s-3.029,3.076-5.08,3.955s-4.623,1.318-7.717,1.318
			c-3,0-5.648-0.434-7.945-1.301s-4.084-2.057-5.361-3.568s-2.162-3.176-2.654-4.992s-0.738-4.459-0.738-7.928V597.9
			c0-4.078,0.551-7.295,1.652-9.65s2.906-4.16,5.414-5.414s5.391-1.881,8.648-1.881c3.984,0,7.271,0.756,9.861,2.268
			s4.406,3.516,5.449,6.012s1.564,6.006,1.564,10.529V605.951z M554.969,597.373c-2.602,0-4.512,0.352-5.73,1.055
			s-1.969,1.682-2.25,2.936s-0.422,4.143-0.422,8.666v18.422h-14.203v-46.652h14.203l-0.563,6.135
			c2.063-4.394,5.051-6.72,8.965-6.979V597.373z M653.5,133.5L440.985,361.071l5.435,3.696l-34.371,49.567l-18.094-2.9L286.5,526.5
			c0,0-25,28-59,0l-157-214c0,0-10-18,5.5-33.5l55.5-40.5c0,0,18-10,33,4l99,137l55.159-59.007
			c-32.118-17.801-60.375-33.514-60.375-33.514s-8.321-5.427-9.045-17.728s12.301-21.708,12.301-21.708s7.598-3.618,16.643-0.724
			c4.26,1.363,38.051,19.98,72.612,39.296l8.668-9.272l-73.32-40.878c0,0-20.261-10.854-35.456,3.618v-39.074l99.133-99.495
			l90.093,89.766l6.734-7.204L350.181,86.18l-112.52,113.605l-18.452-18.814l44.501-44.863V75.326h26.05v35.095L350.181,50
			l114.242,114.559L564.5,57.5c0,0,15-18,36-7l53,50C653.5,100.5,665.5,115.5,653.5,133.5z"/>
		<polygon class="st3" points="409.878,406.373 437.375,367.661 435.879,366.539 400.045,404.911 		"/>
		<path class="st3" d="M600.5,50.5c-21-11-36,7-36,7L464.423,164.559l16.367,16.413l-18.09,18.814l-16.054-16.209l-6.734,7.204
			l9.764,9.729v126.63l-90.214-50.296l-8.668,9.272c38.824,21.699,78.62,44.28,78.62,44.28s9.407,6.151,9.045,16.281
			c-0.245,6.868-0.495,10.243-2.093,13.283l1.008-1.344l3.61,2.455L653.5,133.5c12-18,0-33,0-33L600.5,50.5z"/>
		<path class="st4" d="M600.5,50.5c-21-11-36,7-36,7L464.423,164.559l16.367,16.413l-18.09,18.814l-16.054-16.209l-6.734,7.204
			l9.764,9.729v126.63l-90.214-50.296l-8.668,9.272c38.824,21.699,78.62,44.28,78.62,44.28s9.407,6.151,9.045,16.281
			c-0.245,6.868-0.495,10.243-2.093,13.283l1.008-1.344l3.61,2.455L653.5,133.5c12-18,0-33,0-33L600.5,50.5z"/>
		<path class="st3" d="M291.734,408.887l18.468,10.33l-20.261,16.281l-37.989,68.018c0,0-6.151,10.13-14.472,5.065
			s-10.492-6.512-10.492-6.512s-3.618-3.256,0-10.854c3.618-7.598,39.074-71.275,39.074-71.275l1.447-24.602l18.478,10.335
			l9.561-16.305l104.496,15.542l35.833-38.372l-2.846-2.134c0,0-4.703,5.427-11.216,6.512s-8.683,0.724-11.939-0.362
			c-1.835-0.612-49.747-27.077-91.219-50.062L263.5,379.5l-99-137c-15-14-33-4-33-4L76,279c-15.5,15.5-5.5,33.5-5.5,33.5l157,214
			c34,28,59,0,59,0l107.454-115.067l-94.787-15.19L291.734,408.887z"/>
		<path class="st4" d="M291.734,408.887l18.468,10.33l-20.261,16.281l-37.989,68.018c0,0-6.151,10.13-14.472,5.065
			s-10.492-6.512-10.492-6.512s-3.618-3.256,0-10.854c3.618-7.598,39.074-71.275,39.074-71.275l1.447-24.602l18.478,10.335
			l9.561-16.305l104.496,15.542l35.833-38.372l-2.846-2.134c0,0-4.703,5.427-11.216,6.512s-8.683,0.724-11.939-0.362
			c-1.835-0.612-49.747-27.077-91.219-50.062L263.5,379.5l-99-137c-15-14-33-4-33-4L76,279c-15.5,15.5-5.5,33.5-5.5,33.5l157,214
			c34,28,59,0,59,0l107.454-115.067l-94.787-15.19L291.734,408.887z"/>
		<path class="st3" d="M436.367,359.959l-3.334,4.445C434.548,362.773,435.608,361.403,436.367,359.959z"/>
		<path class="st4" d="M436.367,359.959l-3.334,4.445C434.548,362.773,435.608,361.403,436.367,359.959z"/>
	</g>
</g>
<g id="Layer_8">
</g>
<g id="Border">
	<rect y="-1" class="st5" width="700" height="700"/>
</g>
<g id="guideLInes" class="st6">
	<rect x="63" y="56.25" class="st7" width="574" height="447.5"/>
	<rect x="23" y="555" class="st7" width="654" height="90"/>
</g>
<g id="Layer_7">
	<path class="st8" d="M251.952,503.517c0,0-6.151,10.13-14.472,5.065c-8.321-5.065-10.492-6.512-10.492-6.512s-3.618-3.256,0-10.854
		c3.618-7.598,39.074-71.275,39.074-71.275l1.447-24.602l42.692,23.879l-20.261,16.281L251.952,503.517z"/>
	<polygon class="st8" points="291.734,408.887 299.167,396.243 412.049,414.333 446.42,364.766 437.375,358.616 433.033,364.404 
		437.375,367.661 409.878,406.373 295.549,389.369 285.988,405.674 	"/>
	<path class="st8" d="M433.033,364.404c0,0-4.703,5.427-11.216,6.512c-6.512,1.085-8.683,0.724-11.939-0.362
		c-3.256-1.085-151.594-83.576-151.594-83.576s-8.321-5.427-9.045-17.728s12.301-21.708,12.301-21.708s7.598-3.618,16.643-0.724
		c9.045,2.894,151.232,83.576,151.232,83.576s9.407,6.151,9.045,16.281C438.098,356.807,437.737,359.339,433.033,364.404z"/>
	<path class="st8" d="M250.686,239.583v-39.074l99.133-99.495l99.857,99.495v126.63l-163.534-91.174
		C286.142,235.965,265.881,225.111,250.686,239.583z"/>
	<polygon class="st8" points="237.661,199.785 350.181,86.18 462.701,199.785 480.791,180.972 350.181,50 289.76,110.421 
		289.76,75.326 263.711,75.326 263.711,136.108 219.209,180.972 	"/>
</g>
<g id="paint">
	<path class="st9" d="M437.687,359.314c0,0-46.347-21.682-54.306-35.069c-7.96-13.387-59.697-22.793-65.486-32.562
		c-5.789-9.769-35.095-19.175-39.436-28.22c-4.342-9.045-24.455-6.777-24.455-6.777s5.641-8.056,8.536-9.142
		s11.011-3.175,16.178-0.864c5.168,2.311,151.697,83.716,151.697,83.716s8.073,5.262,8.921,13.666
		C440.184,352.465,437.687,359.314,437.687,359.314z"/>
</g>
</svg>
