<svg xmlns="http://www.w3.org/2000/svg" viewBox="0 0 705 705"><defs><style>.cls-1{fill:#fff;}.cls-2,.cls-4,.cls-5{fill:none;}.cls-3,.cls-6{fill:#7f70df;}.cls-3{opacity:0.3;}.cls-4,.cls-5{stroke:#7f70df;stroke-miterlimit:10;}.cls-4{stroke-width:6px;}.cls-5{stroke-width:5px;}.cls-6{font-size:72px;font-family:Impact, Impact;}</style></defs><title>Mechanic</title><g id="Layer_9" data-name="Layer 9"><rect class="cls-1" x="26.5" y="24.5" width="635" height="662"/></g><g id="check"><path class="cls-2" d="M434.349,374.485a21.489,21.489,0,0,1-2.9-3.207l-9.945,10.65C430.151,378.439,434.349,374.485,434.349,374.485Z" transform="translate(2.5 3.5)"/><path class="cls-2" d="M453.251,354.119s2.1-5.159,3.818-10.272l-7.453,7.981A39.271,39.271,0,0,1,453.251,354.119Z" transform="translate(2.5 3.5)"/><path class="cls-2" d="M94.77,385.269l12.885,21.518s14.093-12.9,25.035-4.821c0,0,10.957,6.078-1.186,25.992l21.921,11.157a34.578,34.578,0,0,1,4.217-7.835l-48.086-65.545C110.244,369.525,109.35,377.272,94.77,385.269Z" transform="translate(2.5 3.5)"/><path class="cls-2" d="M361.449,273.346c-.253.21.316.414.316.414.1.111.178.219.271.329l3.15-3.37A33.972,33.972,0,0,0,361.449,273.346Z" transform="translate(2.5 3.5)"/><path class="cls-2" d="M493.191,599a31.049,31.049,0,0,0-1.3-10.16,11.558,11.558,0,0,0-5.238-5.941,18.164,18.164,0,0,0-9.492-2.355,17.942,17.942,0,0,0-9.492,2.373,11.619,11.619,0,0,0-5.1,5.4,25.652,25.652,0,0,0-1.2,8.965v13.254q0,6.82,1.459,10.529a11.326,11.326,0,0,0,4.975,5.766q3.516,2.057,9.527,2.057a18.645,18.645,0,0,0,7.91-1.494,12.581,12.581,0,0,0,5.186-4.43,13.441,13.441,0,0,0,2.355-5.73,73.258,73.258,0,0,0,.4-8.385H480.535V614.4a15.66,15.66,0,0,1-.51,4.922,1.919,1.919,0,0,1-1.951,1.3,2,2,0,0,1-1.863-1.248,8.584,8.584,0,0,1-.633-3.744V593.619a11.262,11.262,0,0,1,.422-3.937,1.652,1.652,0,0,1,1.652-.879,1.688,1.688,0,0,1,1.688,1,10.553,10.553,0,0,1,.457,3.814V599Z" transform="translate(2.5 3.5)"/><path class="cls-2" d="M342.489,294.459a15.991,15.991,0,0,0-1.084,1.7l1.373-1.469C342.588,294.543,342.489,294.459,342.489,294.459Z" transform="translate(2.5 3.5)"/><path class="cls-2" d="M82.346,330.241,83.769,354.8l.87.234s10.994-2.447,18.571,2.056L83.517,330.243C83.128,330.243,82.749,330.248,82.346,330.241Z" transform="translate(2.5 3.5)"/><path class="cls-2" d="M326.2,599a31.062,31.062,0,0,0-1.3-10.16,11.56,11.56,0,0,0-5.238-5.941,18.164,18.164,0,0,0-9.492-2.355,17.942,17.942,0,0,0-9.492,2.373,11.617,11.617,0,0,0-5.1,5.4,25.652,25.652,0,0,0-1.2,8.965v13.254q0,6.82,1.459,10.529a11.324,11.324,0,0,0,4.975,5.766q3.515,2.057,9.527,2.057a18.645,18.645,0,0,0,7.91-1.494,12.584,12.584,0,0,0,5.186-4.43,13.447,13.447,0,0,0,2.355-5.73,73.258,73.258,0,0,0,.4-8.385H313.543V614.4a15.675,15.675,0,0,1-.51,4.922,1.919,1.919,0,0,1-1.951,1.3,2,2,0,0,1-1.863-1.248,8.584,8.584,0,0,1-.633-3.744V593.619a11.262,11.262,0,0,1,.422-3.937,1.651,1.651,0,0,1,1.652-.879,1.688,1.688,0,0,1,1.688,1,10.564,10.564,0,0,1,.457,3.814V599Z" transform="translate(2.5 3.5)"/><rect class="cls-2" x="444.574" y="574.619" width="14.625" height="7.418"/><path class="cls-2" d="M283.15,582.809a19.341,19.341,0,0,0-9.861-2.268,19.088,19.088,0,0,0-8.648,1.881,11.346,11.346,0,0,0-5.414,5.414,23.16,23.16,0,0,0-1.652,9.65v13.605a32.23,32.23,0,0,0,.738,7.928,12.89,12.89,0,0,0,2.654,4.992,12.716,12.716,0,0,0,5.361,3.568,22.41,22.41,0,0,0,7.945,1.3,19.666,19.666,0,0,0,7.717-1.318,12.411,12.411,0,0,0,5.08-3.955,13.531,13.531,0,0,0,2.549-4.957,30.856,30.856,0,0,0,.545-6.645v-3.445H276.7v6.152a13.269,13.269,0,0,1-.545,4.693,2.133,2.133,0,0,1-2.162,1.213,1.776,1.776,0,0,1-1.758-.914,11.2,11.2,0,0,1-.457-4.078v-10.09h18.387V599.35q0-6.785-1.564-10.529A12.475,12.475,0,0,0,283.15,582.809Zm-7.225,15.135h-4.148v-3.41a18.669,18.669,0,0,1,.352-4.834q.351-.9,1.828-.9a1.529,1.529,0,0,1,1.582,1.055,17.188,17.188,0,0,1,.387,4.676Z" transform="translate(2.5 3.5)"/><path class="cls-2" d="M378.464,225.7c7.594-9.5,21.566-1.706,21.566-1.706,4.589-12.326,3.533-18.642,3.533-18.642s-14.377,1.138-18.337-10.234c0,0-1.239-12.143,16.732-13.566l.36-.224c.43-7.2-4.755-18.066-4.755-18.066-15.546,9.074-22.458-.786-22.458-.786-4.322-11.372,9.5-19.437,9.5-19.437-8.28-10.219-14.255-12.521-14.255-12.521s-6.331,12.958-18.137,10.586c0,0-11.086-5.108-3.172-21.306l-.359-.883c-6-4-18-5-18-5,0,18-12,19-12,19-12-2-12-18-12-18-13,2-18,6-18,6s8,12,0,21c0,0-10,7-20-8l-1.291,0c-6.423,3.279-13.162,13.258-13.162,13.258,15.7,8.8,10.708,19.757,10.708,19.757-7.611,9.49-21.569,1.668-21.569,1.668-4.611,12.318-3.566,18.636-3.566,18.636s14.379-1.112,18.319,10.266c0,0,1.218,12.146-16.756,13.536l-.579.757c-.406,7.2,4.816,18.05,4.816,18.05,15.515-9.126,22.461.711,22.461.711,4.36,11.357-9.432,19.469-9.432,19.469,8.315,10.192,14.3,12.473,14.3,12.473s6.288-12.979,18.1-10.646c0,0,11.1,5.071,3.244,21.3l1.157,2c6.076,3.884,18.093,4.652,18.093,4.652-.347-18,11.631-19.228,11.631-19.228,12.036,1.768,12.345,17.765,12.345,17.765,12.959-2.25,17.881-6.346,17.881-6.346s-8.23-11.844-.4-21c0,0,9.863-7.192,20.151,7.613l.946.117c.23-.118.461-.247.692-.381l12.2-13.047C373.553,236.544,378.464,225.7,378.464,225.7Zm-56.537,1.8a30.591,30.591,0,1,1,30.75-30.591A30.671,30.671,0,0,1,321.927,227.5Z" transform="translate(2.5 3.5)"/><path class="cls-2" d="M359.475,582.439a10.521,10.521,0,0,0-6.346-1.9,12.215,12.215,0,0,0-4.553.846,12.756,12.756,0,0,0-3.955,2.538V571.119h-14.2v56.918h14.2V594.744a15.823,15.823,0,0,1,.457-4.746,1.94,1.94,0,0,1,3.568-.035,20.431,20.431,0,0,1,.4,5.238v32.836h14.2V595.869a46.612,46.612,0,0,0-.58-9.053A7.607,7.607,0,0,0,359.475,582.439Z" transform="translate(2.5 3.5)"/><path class="cls-2" d="M394.4,583.09q-3.656-2.549-10.863-2.549a18.854,18.854,0,0,0-9.773,2.25,11.584,11.584,0,0,0-5.01,5.186,22.069,22.069,0,0,0-1.248,8.35v3.129h13.324v-4.887a18.927,18.927,0,0,1,.352-4.834q.352-.932,1.793-.932a1.87,1.87,0,0,1,1.811,1.107,13.032,13.032,0,0,1,.545,4.764,9.81,9.81,0,0,1-.492,3.867q-.492.949-7.488,3.691-6.539,2.531-8.191,4.43t-1.652,7.137v3.832q0,7.066,3.111,9.158a12,12,0,0,0,6.838,2.092,8.664,8.664,0,0,0,8.262-5v4.157h13.816V604.623q0-11.566-.738-15.275A9.933,9.933,0,0,0,394.4,583.09Zm-9.07,32.361a13.345,13.345,0,0,1-.4,4.342,1.741,1.741,0,0,1-1.74.826,1.856,1.856,0,0,1-1.881-1.055,14.133,14.133,0,0,1-.475-4.676,16.614,16.614,0,0,1,.545-4.852q.545-1.687,3.955-4.184Z" transform="translate(2.5 3.5)"/><rect class="cls-2" x="444.574" y="584.885" width="14.625" height="46.652"/><path class="cls-2" d="M433.531,582.264a9.766,9.766,0,0,0-5.977-1.723,10.141,10.141,0,0,0-5.15,1.285,10.653,10.653,0,0,0-3.779,3.856l.246-4.3H404.422v46.652h14.2V596.5a30.493,30.493,0,0,1,.387-6.486,1.757,1.757,0,0,1,1.9-1.213q1.441,0,1.758,1.055a30.052,30.052,0,0,1,.316,5.871v32.309h14.2v-32.7a39.7,39.7,0,0,0-.668-8.736A7.662,7.662,0,0,0,433.531,582.264Z" transform="translate(2.5 3.5)"/><path class="cls-2" d="M229.818,597.7l-2.1-14.478q-.905-6.968-1.757-12.1H206.809v56.918h12.938l.018-37.547,5.432,37.547h9.176l5.15-38.426.018,38.426h12.938V571.119H233.22Z" transform="translate(2.5 3.5)"/><path class="cls-2" d="M240.177,337.91a48,48,0,0,1-.734,8.3L263.5,379.5l15.19-16.249a13.279,13.279,0,0,1-1.248-7.378s-.182-11.118,19.3-11.936l3.6-3.85-1.1-20.746s-18.891,4.32-24.258-8.178c0,0-6.389-10.779,14.147-21.837l-12.719-21.617s-14.192,12.79-25.072,4.628c0,0-10.91-6.163,1.387-25.982L230.9,235.028l-.646.628S224.3,253.811,210.8,252.141c0,0-12.53.079-11.72-23.23L174,228.989s2.825,13.638-4.157,20.908l29.3,40.55A48.089,48.089,0,0,1,240.177,337.91Z" transform="translate(2.5 3.5)"/><path class="cls-2" d="M564.194,258.369a30.775,30.775,0,0,1-53.626,28.188L482.5,316.612c7.287-3.178,12.425.521,12.425.521,7.814,9.324-2.592,21.477-2.592,21.477,11.175,6.936,17.575,7.15,17.575,7.15s1.728-14.318,13.659-15.951c0,0,12.149,1.187,9.989,19.085l1.744,1.517c7.008,1.7,18.623-1.481,18.623-1.481-6.177-16.907,4.751-21.964,4.751-21.964,11.958-2.239,17.448,12.789,17.448,12.789,11.524-6.34,14.848-11.813,14.848-11.813s-11.632-8.526-7.206-19.725c0,0,6.991-10.007,21.531.651l.932-.2c5-5.2,8.109-16.83,8.109-16.83-17.715-3.188-16.575-15.175-16.575-15.175,4.094-11.456,19.841-8.623,19.841-8.623.334-13.149-2.717-18.778-2.717-18.778s-13.227,5.748-20.668-3.719c0,0-5.118-11.082,11.415-18.267l.268-.329c-1.933-6.947-10.369-15.54-10.369-15.54-10.426,12.094-19.264,7.892-21.127,6.789l-22.482,24.074A30.355,30.355,0,0,1,564.194,258.369Z" transform="translate(2.5 3.5)"/><path class="cls-1" d="M199.148,290.447l40.3,55.763a47.907,47.907,0,0,0-40.3-55.763Z" transform="translate(2.5 3.5)"/><ellipse class="cls-1" cx="324.427" cy="200.41" rx="30.75" ry="30.591"/><path class="cls-1" d="M544.335,296.93a30.671,30.671,0,0,0,19.859-38.561,30.355,30.355,0,0,0-12.271-16.1l-41.355,44.285A30.75,30.75,0,0,0,544.335,296.93Z" transform="translate(2.5 3.5)"/><path class="cls-1" d="M381.377,610.037a16.614,16.614,0,0,0-.545,4.852,14.133,14.133,0,0,0,.475,4.676,1.856,1.856,0,0,0,1.881,1.055,1.741,1.741,0,0,0,1.74-.826,13.345,13.345,0,0,0,.4-4.342v-9.6Q381.922,608.35,381.377,610.037Z" transform="translate(2.5 3.5)"/><path class="cls-1" d="M273.957,588.8q-1.477,0-1.828.9a18.669,18.669,0,0,0-.352,4.834v3.41h4.148v-3.41a17.188,17.188,0,0,0-.387-4.676A1.529,1.529,0,0,0,273.957,588.8Z" transform="translate(2.5 3.5)"/><path class="cls-1" d="M-.5-1.5v700h700V-1.5ZM252.477,628.037H239.539l-.018-38.426-5.15,38.426H225.2l-5.432-37.547-.018,37.547H206.809V571.119H225.96q.852,5.133,1.757,12.1l2.1,14.478,3.4-26.578h19.257Zm37.688-22.5H271.777v10.09a11.2,11.2,0,0,0,.457,4.078,1.776,1.776,0,0,0,1.758.914,2.133,2.133,0,0,0,2.162-1.213,13.269,13.269,0,0,0,.545-4.693v-6.152h13.465v3.445a30.856,30.856,0,0,1-.545,6.645,13.531,13.531,0,0,1-2.549,4.957,12.411,12.411,0,0,1-5.08,3.955,19.666,19.666,0,0,1-7.717,1.318,22.41,22.41,0,0,1-7.945-1.3,12.716,12.716,0,0,1-5.361-3.568,12.89,12.89,0,0,1-2.654-4.992,32.23,32.23,0,0,1-.738-7.928V597.486a23.16,23.16,0,0,1,1.652-9.65,11.346,11.346,0,0,1,5.414-5.414,19.088,19.088,0,0,1,8.648-1.881,19.341,19.341,0,0,1,9.861,2.268,12.475,12.475,0,0,1,5.449,6.012q1.564,3.744,1.564,10.529ZM312.348,589.8a1.688,1.688,0,0,0-1.687-1,1.651,1.651,0,0,0-1.652.879,11.262,11.262,0,0,0-.422,3.938v22.008a8.584,8.584,0,0,0,.633,3.744,2,2,0,0,0,1.863,1.248,1.919,1.919,0,0,0,1.951-1.3,15.675,15.675,0,0,0,.51-4.922v-5.555H326.2a73.258,73.258,0,0,1-.4,8.385,13.447,13.447,0,0,1-2.355,5.73,12.584,12.584,0,0,1-5.186,4.43,18.645,18.645,0,0,1-7.91,1.494q-6.012,0-9.527-2.057a11.324,11.324,0,0,1-4.975-5.766q-1.459-3.709-1.459-10.529V597.275a25.652,25.652,0,0,1,1.2-8.965,11.617,11.617,0,0,1,5.1-5.4,17.942,17.942,0,0,1,9.492-2.373,18.164,18.164,0,0,1,9.492,2.355,11.56,11.56,0,0,1,5.238,5.941A31.062,31.062,0,0,1,326.2,599H312.8v-5.379A10.564,10.564,0,0,0,312.348,589.8Zm50.906,38.232h-14.2V595.2a20.431,20.431,0,0,0-.4-5.238,1.94,1.94,0,0,0-3.568.035,15.823,15.823,0,0,0-.457,4.746v33.293h-14.2V571.119h14.2v12.806a12.756,12.756,0,0,1,3.955-2.538,12.215,12.215,0,0,1,4.553-.846,10.521,10.521,0,0,1,6.346,1.9,7.607,7.607,0,0,1,3.2,4.377,46.612,46.612,0,0,1,.58,9.053Zm36.281,0H385.719V623.88a8.664,8.664,0,0,1-8.262,5,12,12,0,0,1-6.838-2.092q-3.111-2.092-3.111-9.158V613.8q0-5.238,1.652-7.137t8.191-4.43q7-2.742,7.488-3.691a9.81,9.81,0,0,0,.492-3.867,13.032,13.032,0,0,0-.545-4.764,1.87,1.87,0,0,0-1.811-1.107q-1.441,0-1.793.932a18.927,18.927,0,0,0-.352,4.834v4.887H367.508v-3.129a22.069,22.069,0,0,1,1.248-8.35,11.584,11.584,0,0,1,5.01-5.186,18.854,18.854,0,0,1,9.773-2.25q7.207,0,10.863,2.549a9.933,9.933,0,0,1,4.395,6.258q.738,3.709.738,15.275Zm37.652,0h-14.2V595.729a30.052,30.052,0,0,0-.316-5.871q-.316-1.055-1.758-1.055a1.757,1.757,0,0,0-1.9,1.213,30.493,30.493,0,0,0-.387,6.486v31.535h-14.2V581.385h14.449l-.246,4.3a10.653,10.653,0,0,1,3.779-3.856,10.141,10.141,0,0,1,5.15-1.285,9.766,9.766,0,0,1,5.977,1.723,7.662,7.662,0,0,1,2.988,4.342,39.7,39.7,0,0,1,.668,8.736Zm19.512,0H442.074V581.385H456.7Zm0-49.5H442.074v-7.418H456.7ZM479.34,589.8a1.688,1.688,0,0,0-1.687-1,1.652,1.652,0,0,0-1.652.879,11.262,11.262,0,0,0-.422,3.938v22.008a8.584,8.584,0,0,0,.633,3.744,2,2,0,0,0,1.863,1.248,1.919,1.919,0,0,0,1.951-1.3,15.66,15.66,0,0,0,.51-4.922v-5.555h12.656a73.258,73.258,0,0,1-.4,8.385,13.441,13.441,0,0,1-2.355,5.73,12.581,12.581,0,0,1-5.186,4.43,18.645,18.645,0,0,1-7.91,1.494q-6.012,0-9.527-2.057a11.326,11.326,0,0,1-4.975-5.766q-1.459-3.709-1.459-10.529V597.275a25.652,25.652,0,0,1,1.2-8.965,11.619,11.619,0,0,1,5.1-5.4,17.942,17.942,0,0,1,9.492-2.373,18.164,18.164,0,0,1,9.492,2.355,11.558,11.558,0,0,1,5.238,5.941,31.049,31.049,0,0,1,1.3,10.16H479.8v-5.379A10.553,10.553,0,0,0,479.34,589.8ZM653.5,133.5l-79.095,84.7c1.864,1.1,10.7,5.306,21.127-6.789,0,0,8.436,8.593,10.369,15.54l-.268.329c-16.534,7.185-11.415,18.267-11.415,18.267,7.441,9.467,20.668,3.719,20.668,3.719s3.051,5.629,2.717,18.778c0,0-15.747-2.834-19.841,8.623,0,0-1.141,11.987,16.575,15.175,0,0-3.109,11.633-8.109,16.83l-.932.2c-14.54-10.657-21.531-.651-21.531-.651-4.426,11.2,7.206,19.725,7.206,19.725s-3.324,5.473-14.848,11.813c0,0-5.491-15.028-17.448-12.789,0,0-10.928,5.057-4.751,21.964,0,0-11.615,3.179-18.623,1.481l-1.744-1.517c2.16-17.9-9.989-19.085-9.989-19.085-11.93,1.633-13.659,15.951-13.659,15.951s-6.4-.214-17.575-7.15c0,0,10.406-12.153,2.592-21.477,0,0-5.138-3.7-12.425-.521L457.07,343.847c-1.722,5.113-3.818,10.272-3.818,10.272a39.271,39.271,0,0,0-3.635-2.291l-18.164,19.45a21.489,21.489,0,0,0,2.9,3.207s-4.2,3.954-12.841,7.443L286.5,526.5s-25,28-59,0l-69.857-95.22a34.578,34.578,0,0,0-4.217,7.835L131.5,427.958c12.143-19.914,1.186-25.992,1.186-25.992-10.943-8.078-25.035,4.821-25.035,4.821L94.77,385.269c14.58-8,15.474-15.743,14.786-19.533l-6.346-8.65c-7.578-4.5-18.571-2.056-18.571-2.056l-.87-.234-1.423-24.556c.4.008.782,0,1.171,0L70.5,312.5s-10-18,5.5-33.5l55.5-40.5s18-10,33,4l5.345,7.4c6.982-7.27,4.157-20.908,4.157-20.908l25.081-.078c-.81,23.31,11.72,23.23,11.72,23.23,13.5,1.67,19.449-16.484,19.449-16.484l.646-.628,21.834,11.326c-12.3,19.819-1.387,25.982-1.387,25.982,10.88,8.163,25.072-4.628,25.072-4.628l12.719,21.617c-20.536,11.058-14.147,21.837-14.147,21.837,5.367,12.5,24.258,8.178,24.258,8.178l1.1,20.746L341.4,296.16a15.991,15.991,0,0,1,1.084-1.7s.1.084.29.232l19.258-20.6c-.093-.11-.175-.218-.271-.329,0,0-.569-.2-.316-.414a33.972,33.972,0,0,1,3.737-2.626l11.574-12.382c-.231.135-.461.263-.692.381l-.946-.117c-10.287-14.8-20.151-7.613-20.151-7.613-7.825,9.153.4,21,.4,21s-4.922,4.1-17.881,6.346c0,0-.308-16-12.345-17.765,0,0-11.978,1.231-11.631,19.228,0,0-12.017-.768-18.093-4.652l-1.157-2c7.86-16.224-3.244-21.3-3.244-21.3-11.813-2.333-18.1,10.646-18.1,10.646s-5.983-2.282-14.3-12.473c0,0,13.791-8.112,9.432-19.469,0,0-6.946-9.837-22.461-.711,0,0-5.222-10.851-4.816-18.05l.579-.757c17.974-1.39,16.756-13.536,16.756-13.536-3.94-11.379-18.319-10.266-18.319-10.266s-1.045-6.317,3.566-18.636c0,0,13.958,7.822,21.569-1.668,0,0,4.994-10.957-10.708-19.757,0,0,6.739-9.979,13.162-13.258l1.291,0c10,15,20,8,20,8,8-9,0-21,0-21s5-4,18-6c0,0,0,16,12,18,0,0,12-1,12-19,0,0,12,1,18,5l.359.883c-7.914,16.2,3.172,21.306,3.172,21.306,11.806,2.372,18.137-10.586,18.137-10.586s5.975,2.3,14.255,12.521c0,0-13.818,8.065-9.5,19.437,0,0,6.913,9.86,22.458.786,0,0,5.185,10.868,4.755,18.066l-.36.224c-17.972,1.422-16.732,13.566-16.732,13.566,3.96,11.372,18.337,10.234,18.337,10.234s1.056,6.315-3.533,18.642c0,0-13.971-7.8-21.566,1.706,0,0-4.911,10.844,10.492,19.591L564.5,57.5s15-18,36-7l53,50S665.5,115.5,653.5,133.5Z" transform="translate(2.5 3.5)"/><path class="cls-1" d="M277.442,355.873a13.279,13.279,0,0,0,1.248,7.378l18.054-19.313C277.26,344.755,277.442,355.873,277.442,355.873Z" transform="translate(2.5 3.5)"/><path class="cls-3" d="M389.207,245.438c-.087-.049-.165-.1-.251-.147l-12.2,13.047C382.959,254.723,389.207,245.438,389.207,245.438Z" transform="translate(2.5 3.5)"/><path class="cls-3" d="M300.544,343.9l-.2-3.817-3.6,3.85C297.938,343.887,299.2,343.871,300.544,343.9Z" transform="translate(2.5 3.5)"/><path class="cls-1" d="M191.927,289.91a48,48,0,1,0,47.516,56.3l-40.3-55.763A48.866,48.866,0,0,0,191.927,289.91Z" transform="translate(2.5 3.5)"/><ellipse class="cls-1" cx="399.427" cy="327.41" rx="25.75" ry="25.617"/><path class="cls-1" d="M525.531,238.71a30.58,30.58,0,0,0-14.962,47.847l41.355-44.285A30.745,30.745,0,0,0,525.531,238.71Z" transform="translate(2.5 3.5)"/><path class="cls-1" d="M600.5,50.5c-21-11-36,7-36,7L388.956,245.291c.086.049.164.1.251.147,0,0-6.248,9.285-12.447,12.9L365.186,270.72a57.453,57.453,0,0,1,13.457-5.947s2.856,16.877,14.891,17.27c0,0,12.035.393,14.021-19.733,0,0,14.184,3.288,19.38,7.03,0,0-9.432,11.491-2.884,22.174,0,0,7.143,6.238,23.868-3.21,1.947-1.1,8.9,17.573,8.9,17.573-16.827,3.855-17.27,14.891-17.27,14.891,1.655,12.933,19.733,14.021,19.733,14.021.085,1.678-.966,5.355-2.213,9.057L482.5,316.612a25.677,25.677,0,0,0-9.048,7.148s-8.465-8.564-10.421-15.505l.3-.9c16.547-7.156,11.448-18.247,11.448-18.247-7.424-9.48-20.661-3.755-20.661-3.755s-3.041-5.635-2.684-18.783c0,0,15.742,2.861,19.856-8.588,0,0,1.162-11.985-16.548-15.2,0,0,3.13-11.628,8.138-16.816l1.222-.416c14.332,10.936,21.514,1.066,21.514,1.066,4.641-11.111-6.825-19.86-6.825-19.86s3.429-5.408,15.073-11.524c0,0,5.2,15.131,17.2,13.123,0,0,11.024-4.846,5.174-21.869,0,0,11.674-2.954,18.648-1.121l.627.718c-2.22,17.891,9.924,19.118,9.924,19.118,11.936-1.593,13.712-15.906,13.712-15.906s6.4.235,17.551,7.209c0,0-10.447,12.118-2.664,21.469,0,0,.13.093.367.233L653.5,133.5c12-18,0-33,0-33Z" transform="translate(2.5 3.5)"/><path class="cls-1" d="M364.617,297.674s9.515-9.211-2.581-23.584l-19.258,20.6C344.612,296.119,354.848,303.462,364.617,297.674Z" transform="translate(2.5 3.5)"/><path class="cls-1" d="M103.21,357.086l6.346,8.65a7.788,7.788,0,0,0-.808-2.413A13.343,13.343,0,0,0,103.21,357.086Z" transform="translate(2.5 3.5)"/><path class="cls-3" d="M103.21,357.086l6.346,8.65a7.788,7.788,0,0,0-.808-2.413A13.343,13.343,0,0,0,103.21,357.086Z" transform="translate(2.5 3.5)"/><path class="cls-1" d="M105.387,318.154c1.456-13.523-16.791-19.185-16.791-19.185l12.081-21.98c20,12,26,1,26,1,8-11-5-25-5-25l21.938-14.32c10.911,20.614,21.735,14.3,21.735,14.3a13.317,13.317,0,0,0,4.494-3.075l-5.345-7.4c-15-14-33-4-33-4L76,279c-15.5,15.5-5.5,33.5-5.5,33.5l13.017,17.743C105.639,330.242,105.387,318.154,105.387,318.154Z" transform="translate(2.5 3.5)"/><path class="cls-1" d="M431.077,351.235c-6.28,8.361-2.687,15.941.376,20.043l18.164-19.45C437.446,345.079,431.077,351.235,431.077,351.235Z" transform="translate(2.5 3.5)"/><path class="cls-1" d="M401.786,366.507s-12.039-.247-13.782,19.9c0,0-14.223-3.116-19.463-6.8,0,0,9.292-11.6,2.615-22.207,0,0-9.608-9.417-23.828,3.5l-1.494-.523s-5.21-5.818-8.635-17.7c0,0,16.918-2.6,17.491-14.631,0,0,.573-12.028-19.521-14.315,0,0,2.863-11.559,6.236-17.571l-41.062,43.927.2,3.817c-1.347-.032-2.607-.016-3.8.034L278.69,363.251c3.969,8.26,15.445,11.893,15.445,11.893l-12.193,21.918c-19.939-12.1-25.995-1.132-25.995-1.132-8.056,10.959,4.873,25.025,4.873,25.025l.232.871L240.5,435.335c-11.279-20.415-21.988-13.911-21.988-13.911-12.44,5.5-8.219,24.134-8.219,24.134l-25.076.528c.392-23.32-12.134-23.017-12.134-23.017-7.152-.755-12.235,3.775-15.438,8.211L227.5,526.5c34,28,59,0,59,0L421.507,381.928c-1.424.575-2.955,1.138-4.623,1.668C416.885,383.6,413.825,366.754,401.786,366.507Z" transform="translate(2.5 3.5)"/></g><g id="Layer_6" data-name="Layer 6"><path class="cls-4" d="M274.988,311.163s-6.389-10.779,14.147-21.837l-12.719-21.617s-14.192,12.79-25.072,4.628c0,0-10.91-6.163,1.387-25.982L230.9,235.028l-.646.628S224.3,253.811,210.8,252.141c0,0-12.53.079-11.72-23.23L174,228.989s3.886,18.706-8.65,23.983c0,0-10.824,6.311-21.735-14.3l-21.938,14.32s13,14,5,25c0,0-6,11-26-1L88.6,298.969s18.247,5.662,16.791,19.185c0,0,.278,12.527-23.042,12.087L83.769,354.8l.87.234s18.646-4.163,24.109,8.293c0,0,6.472,10.729-13.978,21.946l12.885,21.518s14.093-12.9,25.035-4.821c0,0,10.957,6.078-1.186,25.992l21.921,11.157s6.129-17.474,19.656-16.046c0,0,12.526-.3,12.134,23.017l25.076-.528s-4.22-18.633,8.219-24.134c0,0,10.709-6.5,21.988,13.911l20.554-13.51-.232-.871s-12.929-14.066-4.873-25.025c0,0,6.056-10.969,25.995,1.132l12.193-21.918s-18.218-5.755-16.693-19.27c0,0-.214-12.528,23.1-11.969l-1.3-24.562S280.355,323.661,274.988,311.163ZM191.927,385.91a48,48,0,1,1,48.25-48A48.125,48.125,0,0,1,191.927,385.91Z" transform="translate(2.5 3.5)"/><path class="cls-4" d="M355.377,271.986s-8.23-11.844-.4-21c0,0,9.863-7.192,20.151,7.613l.946.117c6.417-3.29,13.138-13.281,13.138-13.281-15.718-8.772-10.743-19.738-10.743-19.738,7.594-9.5,21.566-1.706,21.566-1.706,4.589-12.326,3.533-18.642,3.533-18.642s-14.377,1.138-18.337-10.234c0,0-1.239-12.143,16.732-13.566l.36-.224c.43-7.2-4.755-18.066-4.755-18.066-15.546,9.074-22.458-.786-22.458-.786-4.322-11.372,9.5-19.437,9.5-19.437-8.28-10.219-14.255-12.521-14.255-12.521s-6.331,12.958-18.137,10.586c0,0-11.086-5.108-3.172-21.306l-.359-.883c-6-4-18-5-18-5,0,18-12,19-12,19-12-2-12-18-12-18-13,2-18,6-18,6s8,12,0,21c0,0-10,7-20-8l-1.291,0c-6.423,3.279-13.162,13.258-13.162,13.258,15.7,8.8,10.708,19.757,10.708,19.757-7.611,9.49-21.569,1.668-21.569,1.668-4.611,12.318-3.566,18.636-3.566,18.636s14.379-1.112,18.319,10.266c0,0,1.218,12.146-16.756,13.536l-.579.757c-.406,7.2,4.816,18.05,4.816,18.05,15.515-9.126,22.461.711,22.461.711,4.36,11.357-9.432,19.469-9.432,19.469,8.315,10.192,14.3,12.473,14.3,12.473s6.288-12.979,18.1-10.646c0,0,11.1,5.071,3.244,21.3l1.157,2c6.076,3.884,18.093,4.652,18.093,4.652-.347-18,11.631-19.228,11.631-19.228,12.036,1.768,12.345,17.765,12.345,17.765C350.455,276.081,355.377,271.986,355.377,271.986ZM321.927,227.5a30.591,30.591,0,1,1,30.75-30.591A30.671,30.671,0,0,1,321.927,227.5Z" transform="translate(2.5 3.5)"/><path class="cls-4" d="M439.549,320.768s.443-11.036,17.27-14.891c0,0-6.952-18.673-8.9-17.573-16.726,9.448-23.868,3.21-23.868,3.21-6.548-10.683,2.884-22.174,2.884-22.174-5.2-3.742-19.38-7.03-19.38-7.03-1.986,20.126-14.021,19.733-14.021,19.733-12.035-.393-14.891-17.27-14.891-17.27-10.08,3.069-15.739,7.367-17.194,8.573-.253.21.316.414.316.414,12.526,14.564,2.852,23.914,2.852,23.914-10.78,6.387-22.128-3.215-22.128-3.215-3.82,5.139-7.32,19.272-7.32,19.272,20.094,2.287,19.521,14.315,19.521,14.315-.573,12.028-17.491,14.631-17.491,14.631,3.425,11.886,8.635,17.7,8.635,17.7l1.494.523c14.22-12.915,23.828-3.5,23.828-3.5,6.677,10.6-2.615,22.207-2.615,22.207,5.241,3.679,19.463,6.8,19.463,6.8,1.743-20.149,13.782-19.9,13.782-19.9,12.039.247,15.1,17.089,15.1,17.089,11.789-3.745,17.464-9.111,17.464-9.111s-12.653-10.761-3.272-23.25c0,0,7.636-7.4,22.174,2.884,0,0,6.233-15.334,6.031-19.329C459.282,334.789,441.2,333.7,439.549,320.768Zm-42.622,28.759a25.617,25.617,0,1,1,25.75-25.617A25.684,25.684,0,0,1,396.927,349.527Z" transform="translate(2.5 3.5)"/><path class="cls-4" d="M617.6,268.043c.334-13.149-2.717-18.778-2.717-18.778s-13.227,5.748-20.668-3.719c0,0-5.118-11.082,11.415-18.267l.268-.329c-1.933-6.947-10.369-15.54-10.369-15.54-11.753,13.633-21.495,6.555-21.495,6.555-7.783-9.35,2.664-21.469,2.664-21.469-11.152-6.974-17.551-7.209-17.551-7.209s-1.776,14.312-13.712,15.906c0,0-12.145-1.228-9.924-19.118l-.627-.718c-6.974-1.833-18.648,1.121-18.648,1.121,5.85,17.023-5.174,21.869-5.174,21.869-12,2.008-17.2-13.123-17.2-13.123-11.644,6.116-15.073,11.524-15.073,11.524s11.466,8.749,6.825,19.86c0,0-7.182,9.87-21.514-1.066l-1.222.416c-5.008,5.188-8.138,16.816-8.138,16.816,17.71,3.219,16.548,15.2,16.548,15.2-4.114,11.449-19.856,8.588-19.856,8.588-.357,13.148,2.684,18.783,2.684,18.783s13.237-5.725,20.661,3.755c0,0,5.1,11.091-11.448,18.247l-.3.9c1.956,6.941,10.421,15.505,10.421,15.505,11.707-13.673,21.473-6.627,21.473-6.627,7.814,9.324-2.592,21.477-2.592,21.477,11.175,6.936,17.575,7.15,17.575,7.15s1.728-14.318,13.659-15.951c0,0,12.149,1.187,9.989,19.085l1.744,1.517c7.008,1.7,18.623-1.481,18.623-1.481-6.177-16.907,4.751-21.964,4.751-21.964,11.958-2.239,17.448,12.789,17.448,12.789,11.524-6.34,14.848-11.813,14.848-11.813s-11.632-8.526-7.206-19.725c0,0,6.991-10.007,21.531.651l.932-.2c5-5.2,8.109-16.83,8.109-16.83-17.715-3.188-16.575-15.175-16.575-15.175C601.856,265.209,617.6,268.043,617.6,268.043ZM544.335,296.93a30.591,30.591,0,1,1,19.859-38.561A30.671,30.671,0,0,1,544.335,296.93Z" transform="translate(2.5 3.5)"/></g><g id="Border"><rect class="cls-5" x="2.5" y="2.5" width="700" height="700"/></g><g id="Layer_8" data-name="Layer 8"><text class="cls-6" transform="translate(206.167 631.118)">Mechanic</text></g></svg>