<?xml version="1.0" encoding="utf-8"?>
<!-- Generator: Adobe Illustrator 21.0.0, SVG Export Plug-In . SVG Version: 6.00 Build 0)  -->
<svg version="1.0" xmlns="http://www.w3.org/2000/svg" xmlns:xlink="http://www.w3.org/1999/xlink" x="0px" y="0px"
	 viewBox="0 0 700 700" style="enable-background:new 0 0 700 700;" xml:space="preserve">
<style type="text/css">
	.st0{fill:#FFFFFF;}
	.st1{fill:none;stroke:#7F70DF;stroke-width:3;stroke-miterlimit:10;}
	.st2{fill:none;stroke:#7F70DF;stroke-width:5;stroke-miterlimit:10;}
	.st3{display:none;}
	.st4{display:inline;opacity:0.6;fill:#7F70DF;stroke:#FFFFFF;stroke-miterlimit:10;}
	.st5{display:inline;fill:none;stroke:#7F70DF;stroke-width:10;stroke-miterlimit:10;}
</style>
<g id="Layer_5">
	<g>
		<path class="st0" d="M369.758,586.717c-0.984,0-1.594,0.299-1.828,0.896s-0.352,2.209-0.352,4.834v3.41h4.148v-3.41
			c0-2.414-0.129-3.973-0.387-4.676S370.555,586.717,369.758,586.717z"/>
		<path class="st0" d="M271.988,577.471c-0.773,0-1.366,0.299-1.775,0.896c-0.41,0.598-0.615,2.361-0.615,5.291v26.578
			c0,3.305,0.135,5.344,0.404,6.117c0.269,0.773,0.896,1.16,1.881,1.16c1.007,0,1.652-0.445,1.934-1.336s0.422-3.012,0.422-6.363
			v-26.156c0-2.648-0.146-4.342-0.439-5.08C273.505,577.84,272.902,577.471,271.988,577.471z"/>
		<path class="st0" d="M-0.5-1.5v700h700v-700H-0.5z M200,344c-30.928,0-56-25.072-56-56c0-30.928,25.072-56,56-56s56,25.072,56,56
			C256,318.928,230.928,344,200,344z M289.039,602.361c0,5.719-0.135,9.768-0.404,12.146c-0.27,2.379-1.113,4.553-2.531,6.521
			c-1.418,1.969-3.334,3.48-5.748,4.535c-2.414,1.055-5.227,1.582-8.438,1.582c-3.047,0-5.783-0.498-8.209-1.494
			s-4.377-2.49-5.854-4.482s-2.355-4.16-2.637-6.504s-0.422-6.445-0.422-12.305v-9.738c0-5.719,0.135-9.768,0.404-12.146
			c0.269-2.379,1.113-4.553,2.531-6.521c1.418-1.969,3.334-3.48,5.748-4.535c2.414-1.055,5.226-1.582,8.438-1.582
			c3.046,0,5.783,0.498,8.209,1.494s4.377,2.49,5.854,4.482s2.355,4.16,2.637,6.504s0.422,6.445,0.422,12.305V602.361z
			 M313.543,625.951h-5.73c-3.234,0-5.543-0.135-6.926-0.404c-1.383-0.27-2.602-0.891-3.656-1.863s-1.711-2.086-1.969-3.34
			c-0.258-1.254-0.387-4.201-0.387-8.842v-23.695h-3.059v-7.383h3.059v-7.348h14.238v7.348h3.832v7.383h-3.832v24.961
			c0,3.07,0.158,4.781,0.475,5.133s1.635,0.527,3.955,0.527V625.951z M348.91,625.951h-14.203v-32.836
			c0-2.719-0.135-4.465-0.404-5.238c-0.27-0.773-0.874-1.16-1.811-1.16c-0.867,0-1.454,0.398-1.758,1.195
			c-0.305,0.797-0.457,2.379-0.457,4.746v33.293h-14.203v-56.918h14.203v12.806c1.218-1.128,2.537-1.974,3.955-2.538
			c1.418-0.563,2.936-0.846,4.553-0.846c2.484,0,4.6,0.633,6.346,1.898c1.746,1.266,2.813,2.725,3.199,4.377s0.58,4.67,0.58,9.053
			V625.951z M385.965,603.451h-18.387v10.09c0,2.109,0.152,3.469,0.457,4.078s0.891,0.914,1.758,0.914
			c1.078,0,1.799-0.404,2.162-1.213s0.545-2.373,0.545-4.693v-6.152h13.465v3.445c0,2.883-0.182,5.098-0.545,6.645
			s-1.213,3.199-2.549,4.957s-3.029,3.076-5.08,3.955s-4.623,1.318-7.717,1.318c-3,0-5.648-0.434-7.945-1.301
			s-4.084-2.057-5.361-3.568s-2.162-3.176-2.654-4.992s-0.738-4.459-0.738-7.928V595.4c0-4.078,0.551-7.295,1.652-9.65
			s2.906-4.16,5.414-5.414s5.391-1.881,8.648-1.881c3.984,0,7.271,0.756,9.861,2.268s4.406,3.516,5.449,6.012
			s1.564,6.006,1.564,10.529V603.451z M350,344c-30.928,0-56-25.072-56-56c0-30.928,25.072-56,56-56s56,25.072,56,56
			C406,318.928,380.928,344,350,344z M413.211,594.873c-2.602,0-4.512,0.352-5.73,1.055s-1.969,1.682-2.25,2.936
			s-0.422,4.143-0.422,8.666v18.422h-14.203v-46.652h14.203l-0.563,6.135c2.063-4.394,5.051-6.72,8.965-6.979V594.873z
			 M444.992,620.766c-0.984,1.934-2.631,3.422-4.939,4.465s-5.092,1.564-8.35,1.564c-3.609,0-6.697-0.563-9.264-1.688
			s-4.33-2.648-5.291-4.57s-1.441-4.828-1.441-8.719v-2.25h12.586v2.953c0,2.508,0.158,4.137,0.475,4.887s0.943,1.125,1.881,1.125
			c1.008,0,1.711-0.252,2.109-0.756s0.598-1.564,0.598-3.182c0-2.227-0.258-3.621-0.773-4.184c-0.539-0.563-3.293-2.227-8.262-4.992
			c-4.172-2.344-6.715-4.471-7.629-6.381s-1.371-4.178-1.371-6.803c0-3.727,0.492-6.475,1.477-8.244s2.654-3.135,5.01-4.096
			s5.092-1.441,8.209-1.441c3.094,0,5.725,0.393,7.893,1.178s3.832,1.822,4.992,3.111s1.863,2.484,2.109,3.586
			s0.369,2.824,0.369,5.168v2.707h-12.586v-2.531c0-2.156-0.123-3.521-0.369-4.096s-0.861-0.861-1.846-0.861
			c-0.797,0-1.395,0.264-1.793,0.791s-0.598,1.318-0.598,2.373c0,1.43,0.1,2.479,0.299,3.146s0.797,1.4,1.793,2.197
			s3.041,1.957,6.135,3.48c4.125,2.016,6.832,3.914,8.121,5.695s1.934,4.371,1.934,7.77
			C446.469,615.967,445.977,618.832,444.992,620.766z M500,344c-30.928,0-56-25.072-56-56c0-30.928,25.072-56,56-56s56,25.072,56,56
			C556,318.928,530.928,344,500,344z"/>
	</g>
</g>
<g id="Layer_6">
</g>
<g id="Layer_7">
	<circle class="st1" cx="350" cy="288" r="56"/>
	<circle class="st1" cx="500" cy="288" r="56"/>
	<circle class="st1" cx="200" cy="288" r="56"/>
</g>
<g id="Border">
	<rect y="-1" class="st2" width="700" height="700"/>
</g>
<g id="BG">
</g>
<g id="check" class="st3">
	<path class="st4" d="M76,279l55.5-40.5c0,0,18-10,33,4l99,137l301-322c0,0,15-18,36-7l53,50c0,0,12,15,0,33l-367,393
		c0,0-25,28-59,0l-157-214C70.5,312.5,60.5,294.5,76,279z"/>
</g>
<g id="guideLInes" class="st3">
	<rect x="63" y="56.25" class="st5" width="574" height="447.5"/>
	<rect x="23" y="555" class="st5" width="654" height="90"/>
</g>
</svg>
