<svg xmlns="http://www.w3.org/2000/svg" viewBox="0 0 705 705"><defs><style>.cls-1{fill:#fff;}.cls-2,.cls-3{fill:none;stroke:#7f70df;stroke-miterlimit:10;}.cls-2{stroke-width:3px;}.cls-3{stroke-width:5px;}</style></defs><title>Others</title><g id="Layer_5" data-name="Layer 5"><path class="cls-1" d="M369.758,586.717q-1.477,0-1.828.9a18.669,18.669,0,0,0-.352,4.834v3.41h4.148v-3.41a17.188,17.188,0,0,0-.387-4.676A1.528,1.528,0,0,0,369.758,586.717Z" transform="translate(2.5 3.5)"/><path class="cls-1" d="M271.988,577.471a2.021,2.021,0,0,0-1.775.9q-.615.9-.615,5.291v26.578a26.135,26.135,0,0,0,.4,6.117,1.763,1.763,0,0,0,1.881,1.16,1.821,1.821,0,0,0,1.934-1.336,28.158,28.158,0,0,0,.422-6.363V583.658a17.637,17.637,0,0,0-.439-5.08A1.75,1.75,0,0,0,271.988,577.471Z" transform="translate(2.5 3.5)"/><path class="cls-1" d="M-.5-1.5v700h700V-1.5ZM200,344a56,56,0,1,1,56-56A56,56,0,0,1,200,344Zm89.039,258.361q0,8.578-.4,12.146a13.6,13.6,0,0,1-8.279,11.057,20.925,20.925,0,0,1-8.437,1.582,21.44,21.44,0,0,1-8.209-1.494,13.683,13.683,0,0,1-8.49-10.986,120.18,120.18,0,0,1-.422-12.3v-9.738q0-8.578.4-12.146a13.6,13.6,0,0,1,8.279-11.057,20.921,20.921,0,0,1,8.438-1.582,21.442,21.442,0,0,1,8.209,1.494,13.683,13.683,0,0,1,8.49,10.986,120.182,120.182,0,0,1,.422,12.3Zm24.5,23.59h-5.73a40.964,40.964,0,0,1-6.926-.4,7.382,7.382,0,0,1-3.656-1.863,6.191,6.191,0,0,1-1.969-3.34,59.14,59.14,0,0,1-.387-8.842v-23.7h-3.059v-7.383h3.059v-7.348h14.238v7.348h3.832v7.383h-3.832v24.961q0,4.605.475,5.133t3.955.527Zm35.367,0h-14.2V593.115a20.454,20.454,0,0,0-.4-5.238,1.94,1.94,0,0,0-3.568.035,15.823,15.823,0,0,0-.457,4.746v33.293h-14.2V569.033h14.2v12.806a12.744,12.744,0,0,1,3.955-2.538,12.215,12.215,0,0,1,4.553-.846,10.522,10.522,0,0,1,6.346,1.9,7.61,7.61,0,0,1,3.2,4.377,46.612,46.612,0,0,1,.58,9.053Zm37.055-22.5H367.578v10.09a11.2,11.2,0,0,0,.457,4.078,1.776,1.776,0,0,0,1.758.914,2.132,2.132,0,0,0,2.162-1.213,13.269,13.269,0,0,0,.545-4.693v-6.152h13.465v3.445a30.856,30.856,0,0,1-.545,6.645,13.524,13.524,0,0,1-2.549,4.957,12.411,12.411,0,0,1-5.08,3.955,19.664,19.664,0,0,1-7.717,1.318,22.412,22.412,0,0,1-7.945-1.3,12.719,12.719,0,0,1-5.361-3.568,12.9,12.9,0,0,1-2.654-4.992,32.23,32.23,0,0,1-.738-7.928V595.4a23.167,23.167,0,0,1,1.652-9.65,11.348,11.348,0,0,1,5.414-5.414,19.088,19.088,0,0,1,8.648-1.881,19.341,19.341,0,0,1,9.861,2.268,12.472,12.472,0,0,1,5.449,6.012q1.564,3.744,1.564,10.529ZM350,344a56,56,0,1,1,56-56A56,56,0,0,1,350,344Zm63.211,250.873a11.9,11.9,0,0,0-5.73,1.055,4.425,4.425,0,0,0-2.25,2.936,52.631,52.631,0,0,0-.422,8.666v18.422h-14.2V579.3h14.2l-.562,6.135q3.094-6.59,8.965-6.979Zm31.781,25.893a9.816,9.816,0,0,1-4.939,4.465,20.188,20.188,0,0,1-8.35,1.564,22.991,22.991,0,0,1-9.264-1.687,10.119,10.119,0,0,1-5.291-4.57q-1.441-2.883-1.441-8.719v-2.25h12.586v2.953a15.534,15.534,0,0,0,.475,4.887,1.841,1.841,0,0,0,1.881,1.125,2.548,2.548,0,0,0,2.109-.756,5.648,5.648,0,0,0,.6-3.182q0-3.34-.773-4.184-.809-.844-8.262-4.992-6.258-3.516-7.629-6.381a15.622,15.622,0,0,1-1.371-6.8q0-5.59,1.477-8.244a9.588,9.588,0,0,1,5.01-4.1,21.62,21.62,0,0,1,8.209-1.441,23.286,23.286,0,0,1,7.893,1.178,12.12,12.12,0,0,1,4.992,3.111,8.355,8.355,0,0,1,2.109,3.586,26.022,26.022,0,0,1,.369,5.168v2.707H432.793v-2.531a13.478,13.478,0,0,0-.369-4.1q-.369-.861-1.846-.861a2.1,2.1,0,0,0-1.793.791,3.912,3.912,0,0,0-.6,2.373,11.992,11.992,0,0,0,.3,3.146,4.981,4.981,0,0,0,1.793,2.2,39,39,0,0,0,6.135,3.48q6.188,3.023,8.121,5.7t1.934,7.77Q446.469,617.865,444.992,620.766ZM500,344a56,56,0,1,1,56-56A56,56,0,0,1,500,344Z" transform="translate(2.5 3.5)"/></g><g id="Layer_7" data-name="Layer 7"><circle class="cls-2" cx="352.5" cy="291.5" r="56"/><circle class="cls-2" cx="502.5" cy="291.5" r="56"/><circle class="cls-2" cx="202.5" cy="291.5" r="56"/></g><g id="Border"><rect class="cls-3" x="2.5" y="2.5" width="700" height="700"/></g></svg>