<svg xmlns="http://www.w3.org/2000/svg" viewBox="0 0 705 705"><defs><style>.cls-1,.cls-4,.cls-8{fill:none;}.cls-2{fill:#fff;}.cls-3,.cls-5,.cls-6,.cls-7{fill:#7f70df;}.cls-3{opacity:0.3;}.cls-4,.cls-5,.cls-6,.cls-7,.cls-8{stroke:#7f70df;}.cls-4,.cls-5,.cls-6,.cls-7{stroke-linecap:round;stroke-linejoin:round;}.cls-4{stroke-width:7px;}.cls-5,.cls-6{opacity:0.4;}.cls-6{fill-opacity:0.1;}.cls-7{opacity:0.15;}.cls-8{stroke-miterlimit:10;stroke-width:5px;}</style></defs><title>PlumberCHECKED</title><g id="check"><path class="cls-1" d="M438.436,582.809a19.341,19.341,0,0,0-9.861-2.268,19.088,19.088,0,0,0-8.648,1.881,11.348,11.348,0,0,0-5.414,5.414,23.167,23.167,0,0,0-1.652,9.65v13.605a32.23,32.23,0,0,0,.738,7.928,12.9,12.9,0,0,0,2.654,4.992,12.719,12.719,0,0,0,5.361,3.568,22.412,22.412,0,0,0,7.945,1.3,19.664,19.664,0,0,0,7.717-1.318,12.411,12.411,0,0,0,5.08-3.955,13.524,13.524,0,0,0,2.549-4.957,30.856,30.856,0,0,0,.545-6.645v-3.445H431.984v6.152a13.269,13.269,0,0,1-.545,4.693,2.132,2.132,0,0,1-2.162,1.213,1.776,1.776,0,0,1-1.758-.914,11.2,11.2,0,0,1-.457-4.078v-10.09h18.387V599.35q0-6.785-1.564-10.529A12.472,12.472,0,0,0,438.436,582.809Zm-7.225,15.135h-4.148v-3.41a18.669,18.669,0,0,1,.352-4.834q.352-.9,1.828-.9a1.528,1.528,0,0,1,1.582,1.055,17.188,17.188,0,0,1,.387,4.676Z" transform="translate(2.5 3.5)"/><path class="cls-1" d="M146.5,431.5c1.455.291,4.1-2.137,7.112-5.714l-7.5-10.22A65.75,65.75,0,0,0,146.5,431.5Z" transform="translate(2.5 3.5)"/><path class="cls-1" d="M526.5,448.5c19,17,42-13,32-22-24.887-22.4-61.783-55.589-97.068-87.326l-26.421,28.293Z" transform="translate(2.5 3.5)"/><path class="cls-1" d="M407.023,584.021a7.277,7.277,0,0,0-3.27-2.566,12.848,12.848,0,0,0-5.062-.914,11.012,11.012,0,0,0-4.693,1,11.664,11.664,0,0,0-3.92,3.048V571.119h-14.2v56.918h13.289l.914-3.524a12.374,12.374,0,0,0,3.955,3.276,10.193,10.193,0,0,0,4.658,1.092,9.926,9.926,0,0,0,6.012-1.846,8.015,8.015,0,0,0,3.217-4.359,31.384,31.384,0,0,0,.686-7.646V594.006a60.7,60.7,0,0,0-.229-6.75A7.759,7.759,0,0,0,407.023,584.021ZM394.4,614.291a19.927,19.927,0,0,1-.4,5.238,1.661,1.661,0,0,1-1.74,1.09,1.7,1.7,0,0,1-1.74-1.055,15.918,15.918,0,0,1-.439-4.816V594.639a17.7,17.7,0,0,1,.387-4.869,1.616,1.616,0,0,1,1.688-.967,1.755,1.755,0,0,1,1.793,1.107,15.211,15.211,0,0,1,.457,4.729Z" transform="translate(2.5 3.5)"/><path class="cls-1" d="M301.062,612.779a40.5,40.5,0,0,1-.3,6.785q-.3,1.055-1.881,1.055-1.477,0-1.811-1.02a33.058,33.058,0,0,1-.334-6.469V581.385h-14.2V612.85q0,6.012.246,8.033a10.924,10.924,0,0,0,1.248,3.885,7.315,7.315,0,0,0,3.111,2.988,11.2,11.2,0,0,0,5.309,1.125,10.223,10.223,0,0,0,4.975-1.18,9.893,9.893,0,0,0,3.639-3.54l-.246,3.876h14.449V581.385h-14.2Z" transform="translate(2.5 3.5)"/><rect class="cls-1" x="265.523" y="574.619" width="14.625" height="56.918"/><path class="cls-1" d="M256.4,574.811a10.4,10.4,0,0,0-4.887-2.742,35,35,0,0,0-9.3-.949H227.3v56.918h14.8V605.115h3.973a19.541,19.541,0,0,0,7.857-1.336,7.7,7.7,0,0,0,4.131-3.832q1.125-2.5,1.125-7.945v-4.957a38.875,38.875,0,0,0-.58-7.893A9.415,9.415,0,0,0,256.4,574.811Zm-9.58,15.4q0,3.164-.791,4.166a3.423,3.423,0,0,1-2.83,1q-.457,0-1.09-.035V580.857q2.882,0,3.8.879t.914,3.8Z" transform="translate(2.5 3.5)"/><path class="cls-1" d="M374.381,260.883,489.235,138.016c-5.283-3.8-10.49-9.894-14.735-19.516,0,0,0-6,9-19,0,0,8-10,10-16,0,0-27,3-39,24a47.9,47.9,0,0,0-4,13l-10,26s-1,4-8,12l-78.868,76.872L359.5,247.5Z" transform="translate(2.5 3.5)"/><path class="cls-1" d="M367.279,582.3a9.8,9.8,0,0,0-5.994-1.758,9.685,9.685,0,0,0-4.992,1.32,12.813,12.813,0,0,0-4.043,3.962q-3.27-5.282-8.965-5.282a10.213,10.213,0,0,0-5.2,1.32,11.462,11.462,0,0,0-3.937,3.962l.246-4.438H320.363v46.652h13.781V595.693q0-3.375.07-4.412a2.782,2.782,0,0,1,.738-1.758,2.125,2.125,0,0,1,1.617-.721,1.691,1.691,0,0,1,1.846,1.371,54.311,54.311,0,0,1,.334,8.227v29.637h13.781v-30.41q0-6.012.439-7.418a1.857,1.857,0,0,1,1.951-1.406,1.784,1.784,0,0,1,1.881,1.424,38.3,38.3,0,0,1,.4,7.4v30.41h13.781V594.885a36.234,36.234,0,0,0-.668-8.279A7.74,7.74,0,0,0,367.279,582.3Z" transform="translate(2.5 3.5)"/><path class="cls-1" d="M463.73,587.52l.563-6.135h-14.2v46.652h14.2V609.615a52.631,52.631,0,0,1,.422-8.666,4.425,4.425,0,0,1,2.25-2.936,11.9,11.9,0,0,1,5.73-1.055V580.541Q466.824,580.929,463.73,587.52Z" transform="translate(2.5 3.5)"/><path class="cls-1" d="M374.34,260.927,359.5,247.5l-6-12,.132-.128L344.5,216.5l-72-64L216,204l-.5.5-32-30-.2-.248L240.5,122.5l-24-21-76.706,54.653a18.22,18.22,0,0,0-6.675,8.809c-1.577,4.53-2.073,10.629,3.381,15.537l20,18,7.882-7.131.118.131,32.822,29.838L189.5,228.5l31,27,9.539-8.455.461.455,28,23,5.46-4.964.125.077L258.5,270.5l-11,10c18,18,31,10,31,10l2-1,9,7c-10.026,10.026-37.489,33.9-52.272,46.644L263.5,379.5Zm-56.1,8.8L303.5,282.5l-.5.5-3.455-3.5Zm-44.033-13.5-26.665-24.69-1.281,1.136-3.358,3.161-.108-.088,3.466-3.072L247.5,231.5l.038.035L264.5,216.5l27,24Z" transform="translate(2.5 3.5)"/><polygon class="cls-2" points="267 220 250.038 235.035 276.703 259.725 294 244 267 220"/><path class="cls-2" d="M242.105,580.857v14.484q.633.035,1.09.035a3.423,3.423,0,0,0,2.83-1q.791-1,.791-4.166v-4.676q0-2.918-.914-3.8T242.105,580.857Z" transform="translate(2.5 3.5)"/><path class="cls-2" d="M392.152,588.8a1.616,1.616,0,0,0-1.687.967,17.7,17.7,0,0,0-.387,4.869v20.109a15.918,15.918,0,0,0,.439,4.816,1.7,1.7,0,0,0,1.74,1.055,1.661,1.661,0,0,0,1.74-1.09,19.927,19.927,0,0,0,.4-5.238V594.639a15.211,15.211,0,0,0-.457-4.729A1.755,1.755,0,0,0,392.152,588.8Z" transform="translate(2.5 3.5)"/><path class="cls-2" d="M429.242,588.8q-1.477,0-1.828.9a18.669,18.669,0,0,0-.352,4.834v3.41h4.148v-3.41a17.188,17.188,0,0,0-.387-4.676A1.528,1.528,0,0,0,429.242,588.8Z" transform="translate(2.5 3.5)"/><path class="cls-2" d="M242.9,235.831l3.358-3.161-3.466,3.072Z" transform="translate(2.5 3.5)"/><path class="cls-2" d="M0,0V700H700V0ZM259.191,592q0,5.449-1.125,7.945a7.7,7.7,0,0,1-4.131,3.832,19.541,19.541,0,0,1-7.857,1.336h-3.973v22.922H227.3V571.119h14.906a35,35,0,0,1,9.3.949,10.4,10.4,0,0,1,4.887,2.742,9.415,9.415,0,0,1,2.215,4.342,38.875,38.875,0,0,1,.58,7.893Zm18.457,36.035H263.023V571.119h14.625Zm37.617,0H300.816l.246-3.876a9.893,9.893,0,0,1-3.639,3.54,10.223,10.223,0,0,1-4.975,1.18,11.2,11.2,0,0,1-5.309-1.125,7.315,7.315,0,0,1-3.111-2.988,10.924,10.924,0,0,1-1.248-3.885q-.246-2.021-.246-8.033V581.385h14.2v31.746a33.058,33.058,0,0,0,.334,6.469q.334,1.02,1.811,1.02,1.582,0,1.881-1.055a40.5,40.5,0,0,0,.3-6.785V581.385h14.2Zm55.723,0H357.207v-30.41a38.3,38.3,0,0,0-.4-7.4,1.784,1.784,0,0,0-1.881-1.424,1.857,1.857,0,0,0-1.951,1.406q-.439,1.406-.439,7.418v30.41H338.75V598.4a54.311,54.311,0,0,0-.334-8.227,1.691,1.691,0,0,0-1.846-1.371,2.125,2.125,0,0,0-1.617.721,2.782,2.782,0,0,0-.738,1.758q-.07,1.037-.07,4.412v32.344H320.363V581.385h14.027l-.246,4.438a11.462,11.462,0,0,1,3.938-3.962,10.213,10.213,0,0,1,5.2-1.32q5.7,0,8.965,5.282a12.813,12.813,0,0,1,4.043-3.962,9.685,9.685,0,0,1,4.992-1.32,9.8,9.8,0,0,1,5.994,1.758,7.74,7.74,0,0,1,3.041,4.307,36.234,36.234,0,0,1,.668,8.279Zm37.617-13.008a31.384,31.384,0,0,1-.686,7.646,8.015,8.015,0,0,1-3.217,4.359,9.926,9.926,0,0,1-6.012,1.846,10.193,10.193,0,0,1-4.658-1.092,12.374,12.374,0,0,1-3.955-3.276l-.914,3.524H375.875V571.119h14.2v13.474a11.664,11.664,0,0,1,3.92-3.048,11.012,11.012,0,0,1,4.693-1,12.848,12.848,0,0,1,5.063.914,7.277,7.277,0,0,1,3.27,2.566,7.759,7.759,0,0,1,1.354,3.234,60.7,60.7,0,0,1,.229,6.75Zm36.844-9.492H427.062v10.09a11.2,11.2,0,0,0,.457,4.078,1.776,1.776,0,0,0,1.758.914,2.132,2.132,0,0,0,2.162-1.213,13.269,13.269,0,0,0,.545-4.693v-6.152h13.465v3.445a30.856,30.856,0,0,1-.545,6.645,13.524,13.524,0,0,1-2.549,4.957,12.411,12.411,0,0,1-5.08,3.955,19.664,19.664,0,0,1-7.717,1.318,22.412,22.412,0,0,1-7.945-1.3,12.719,12.719,0,0,1-5.361-3.568,12.9,12.9,0,0,1-2.654-4.992,32.23,32.23,0,0,1-.738-7.928V597.486a23.167,23.167,0,0,1,1.652-9.65,11.348,11.348,0,0,1,5.414-5.414,19.088,19.088,0,0,1,8.648-1.881,19.341,19.341,0,0,1,9.861,2.268,12.472,12.472,0,0,1,5.449,6.012q1.564,3.744,1.564,10.529Zm27.246-8.578a11.9,11.9,0,0,0-5.73,1.055,4.425,4.425,0,0,0-2.25,2.936,52.631,52.631,0,0,0-.422,8.666v18.422h-14.2V581.385h14.2l-.562,6.135q3.094-6.59,8.965-6.979ZM653.5,133.5,461.432,339.174c35.284,31.737,72.18,64.927,97.068,87.326,10,9-13,39-32,22l-91.489-81.033L286.5,526.5s-25,28-59,0L153.612,425.786c-3.013,3.577-5.657,6-7.112,5.714a65.75,65.75,0,0,1-.386-15.934L70.5,312.5s-10-18,5.5-33.5l55.5-40.5s18-10,33,4l72.728,100.644C252.011,330.4,279.474,306.526,289.5,296.5l-9-7-2,1s-13,8-31-10l11-10-28-23-.461-.455L220.5,255.5l-31-27,7.822-7.162L164.5,191.5l-.118-.131L156.5,198.5l-20-18c-5.454-4.909-4.959-11.007-3.381-15.537a18.22,18.22,0,0,1,6.675-8.809L216.5,101.5l24,21-57.2,51.752.2.248,32,30,.5-.5,56.5-51.5,72,64,9.132,18.872L432.5,158.5c7-8,8-12,8-12l10-26a47.9,47.9,0,0,1,4-13c12-21,39-24,39-24-2,6-10,16-10,16-9,13-9,19-9,19,4.245,9.622,9.451,15.718,14.735,19.516L564.5,57.5s15-18,36-7l53,50S665.5,115.5,653.5,133.5Z" transform="translate(2.5 3.5)"/><polygon class="cls-2" points="306 286 320.736 273.229 302.045 282.999 305.5 286.5 306 286"/><polygon class="cls-2" points="362 251 356.132 238.872 356 239 362 251"/><path class="cls-2" d="M374.34,260.927l.041-.044L359.5,247.5Z" transform="translate(2.5 3.5)"/><path class="cls-2" d="M263.96,265.536,258.5,270.5l5.585-4.887Z" transform="translate(2.5 3.5)"/><polygon class="cls-2" points="248.756 236.171 250.038 235.035 250 235 248.756 236.171"/><path class="cls-2" d="M262.5,383.5s-10,15-14,31-6,20-6,20-21,32-46,30l18-28s6-12-3-22c0,0-7-10-27-17,0,0-9-2-14,4,0,0-9.547,15.573-16.888,24.286L227.5,526.5c34,28,59,0,59,0L435.011,367.467,351.5,293.5Z" transform="translate(2.5 3.5)"/><path class="cls-3" d="M262.5,383.5s-10,15-14,31-6,20-6,20-21,32-46,30l18-28s6-12-3-22c0,0-7-10-27-17,0,0-9-2-14,4,0,0-9.547,15.573-16.888,24.286L227.5,526.5c34,28,59,0,59,0L435.011,367.467,351.5,293.5Z" transform="translate(2.5 3.5)"/><path class="cls-2" d="M600.5,50.5c-21-11-36,7-36,7l-75.265,80.516A31.04,31.04,0,0,0,516.5,142.5c12-19,21-29,21-29,10,15-6,45-13,51s-19,10-19,10l-21,4c-15,4-23,12-23,12-25.522,21.6-78.981,74.019-80.939,75.94,19.241,17.3,49.416,44.441,80.871,72.734L653.5,133.5c12-18,0-33,0-33Z" transform="translate(2.5 3.5)"/><path class="cls-3" d="M600.5,50.5c-21-11-36,7-36,7l-75.265,80.516A31.04,31.04,0,0,0,516.5,142.5c12-19,21-29,21-29,10,15-6,45-13,51s-19,10-19,10l-21,4c-15,4-23,12-23,12-25.522,21.6-78.981,74.019-80.939,75.94,19.241,17.3,49.416,44.441,80.871,72.734L653.5,133.5c12-18,0-33,0-33Z" transform="translate(2.5 3.5)"/><path class="cls-2" d="M170.5,370.5s8-8,32-8c0,0,20-7,25-11,0,0,3.869-3.305,9.728-8.356L164.5,242.5c-15-14-33-4-33-4L76,279c-15.5,15.5-5.5,33.5-5.5,33.5l75.614,103.066C147.263,402.459,152.4,383.928,170.5,370.5Z" transform="translate(2.5 3.5)"/><path class="cls-3" d="M170.5,370.5s8-8,32-8c0,0,20-7,25-11,0,0,3.869-3.305,9.728-8.356L164.5,242.5c-15-14-33-4-33-4L76,279c-15.5,15.5-5.5,33.5-5.5,33.5l75.614,103.066C147.263,402.459,152.4,383.928,170.5,370.5Z" transform="translate(2.5 3.5)"/><path class="cls-2" d="M375.237,261.738,380.5,266.5l.061-.06-5.277-4.746Z" transform="translate(2.5 3.5)"/><path class="cls-3" d="M375.237,261.738,380.5,266.5l.061-.06-5.277-4.746Z" transform="translate(2.5 3.5)"/><path class="cls-2" d="M375.237,261.738l-.233-.3-.623-.56-.041.044Z" transform="translate(2.5 3.5)"/><path class="cls-3" d="M375.237,261.738l-.233-.3-.623-.56-.041.044Z" transform="translate(2.5 3.5)"/></g><g id="Layer_10" data-name="Layer 10"><path class="cls-4" d="M145.5,432.5s-7-38,24-61c0,0,8-8,32-8,0,0,20-7,25-11,0,0,48-41,62-55l9,7,13-14-8-7,15-13s4-4,7,1l26,23-89,90s-10,15-14,31-6,20-6,20-21,32-46,30l18-28s6-12-3-22c0,0-7-10-27-17,0,0-9-2-14,4C169.5,402.5,150.5,433.5,145.5,432.5Z" transform="translate(2.5 3.5)"/><path class="cls-4" d="M243.5,424.5s-1-55-64-57" transform="translate(2.5 3.5)"/><path class="cls-4" d="M379.5,267.5s55-54,81-76c0,0,8-8,23-12l21-4s12-4,19-10,23-36,13-51c0,0-9,10-21,29,0,0-27,10-42-24,0,0,0-6,9-19,0,0,8-10,10-16,0,0-27,3-39,24a47.9,47.9,0,0,0-4,13l-10,26s-1,4-8,12l-79,77,6,12Z" transform="translate(2.5 3.5)"/><path class="cls-4" d="M449.5,124.5s9,52,53,51" transform="translate(2.5 3.5)"/><path class="cls-4" d="M357.5,241.5s55-55,78-69c0,0,26-13,14,12,0,0-12.526,20.476-75.263,78.238" transform="translate(2.5 3.5)"/><line class="cls-4" x1="327.87" y1="275.77" x2="310.44" y2="291.76"/><path class="cls-4" d="M345.545,290.116S282.5,352.5,268.5,363.5a102.228,102.228,0,0,1-18,11s-17,4-11-12c0,0,1-6,14-20,0,0,32-34,40-40" transform="translate(2.5 3.5)"/></g><g id="Layer_11" data-name="Layer 11"><path class="cls-4" d="M216.5,101.5l-76.706,54.653a18.22,18.22,0,0,0-6.675,8.809c-1.577,4.53-2.073,10.629,3.381,15.537l20,18,84-76Z" transform="translate(2.5 3.5)"/><path class="cls-4" d="M189.5,228.5l83-76,72,64,15,31s136.9,123.11,199,179c10,9-13,39-32,22l-204-181-44,23s-13,8-31-10l44-40-27-24-44,39Z" transform="translate(2.5 3.5)"/><polygon class="cls-4" points="186 178 218 208 200 225 167 195 186 178"/><polygon class="cls-4" points="250 235 277 260 261 274 233 251 250 235"/><polygon class="cls-4" points="283 293 301 307 314 293 303 284 283 293"/></g><g id="shading"><polygon class="cls-5" points="283 293 301 307 314 293 303 284 283 293"/><polygon class="cls-5" points="250 235 277 260 261 274 233 251 250 235"/><path class="cls-5" d="M183.5,174.5" transform="translate(2.5 3.5)"/><path class="cls-5" d="M197.5,221.5" transform="translate(2.5 3.5)"/><path class="cls-5" d="M197.5,221.5" transform="translate(2.5 3.5)"/><path class="cls-6" d="M183.5,174.5" transform="translate(2.5 3.5)"/><path class="cls-5" d="M359.219,239.783c6.531-6.493,55.827-55.225,77.281-68.283,0,0,26-13,14,12,0,0-12.526,20.476-75.263,78.238l-13.431-12.151a13.44,13.44,0,0,1-3.462-4.975L357.5,242.5l.545-1.091A6.18,6.18,0,0,1,359.219,239.783Z" transform="translate(2.5 3.5)"/><path class="cls-5" d="M346.545,289.116S283.5,351.5,269.5,362.5a102.228,102.228,0,0,1-18,11s-17,4-11-12c0,0,1-6,14-20,0,0,27.109-28.752,38.143-38.6a3.933,3.933,0,0,1,5.4.151l.453.453,13-14-2.56-2.24L326.5,271.5Z" transform="translate(2.5 3.5)"/><polygon class="cls-5" points="168 195 200 225 218 207 186 178 168 195"/><path class="cls-5" d="M184.5,397.5s-8-2-14,4" transform="translate(2.5 3.5)"/><path class="cls-5" d="M176.5,366.5" transform="translate(2.5 3.5)"/></g><g id="shading2"><path class="cls-7" d="M176.5,366.5s63-5,69,59a35.194,35.194,0,0,1-4,10s-17,29-45,29l18-28a20.318,20.318,0,0,0-3-22s-9-12-27-17a13,13,0,0,0-14,4s-14,24-24,30c0,0-7-46,30-65" transform="translate(2.5 3.5)"/><path class="cls-7" d="M491.5,83.5s-35,3-41,38c0,0,6,51,53,53,0,0,15-3,20-9,0,0,24-26,14-52,0,0-18,23-20,28,0,0-8,6-24-1,0,0-14-7-19-23,0,0,5-14,10-19C484.5,98.5,491.5,90.5,491.5,83.5Z" transform="translate(2.5 3.5)"/></g><g id="Border"><rect class="cls-8" x="2.5" y="2.5" width="700" height="700"/></g></svg>