<svg width="844" height="256" viewBox="0 0 844 256" fill="none" xmlns="http://www.w3.org/2000/svg">
<g filter="url(#filter0_d)">
<path d="M0 72C0 49.9086 17.9086 32 40 32H828V256H0V72Z" fill="white"/>
<path d="M309.047 147.016H297.844V172H283.781V103.75H309.141C317.203 103.75 323.422 105.547 327.797 109.141C332.172 112.734 334.359 117.812 334.359 124.375C334.359 129.031 333.344 132.922 331.312 136.047C329.312 139.141 326.266 141.609 322.172 143.453L336.938 171.344V172H321.844L309.047 147.016ZM297.844 135.625H309.188C312.719 135.625 315.453 134.734 317.391 132.953C319.328 131.141 320.297 128.656 320.297 125.5C320.297 122.281 319.375 119.75 317.531 117.906C315.719 116.062 312.922 115.141 309.141 115.141H297.844V135.625ZM367.547 172.938C360.109 172.938 354.047 170.656 349.359 166.094C344.703 161.531 342.375 155.453 342.375 147.859V146.547C342.375 141.453 343.359 136.906 345.328 132.906C347.297 128.875 350.078 125.781 353.672 123.625C357.297 121.438 361.422 120.344 366.047 120.344C372.984 120.344 378.438 122.531 382.406 126.906C386.406 131.281 388.406 137.484 388.406 145.516V151.047H356.109C356.547 154.359 357.859 157.016 360.047 159.016C362.266 161.016 365.062 162.016 368.438 162.016C373.656 162.016 377.734 160.125 380.672 156.344L387.328 163.797C385.297 166.672 382.547 168.922 379.078 170.547C375.609 172.141 371.766 172.938 367.547 172.938ZM366 131.312C363.312 131.312 361.125 132.219 359.438 134.031C357.781 135.844 356.719 138.438 356.25 141.812H375.094V140.734C375.031 137.734 374.219 135.422 372.656 133.797C371.094 132.141 368.875 131.312 366 131.312ZM410.484 121.281V174.766C410.484 180.359 409 184.703 406.031 187.797C403.062 190.922 398.781 192.484 393.188 192.484C390.844 192.484 388.609 192.219 386.484 191.688V180.953C388.109 181.234 389.531 181.375 390.75 181.375C394.844 181.375 396.891 179.203 396.891 174.859V121.281H410.484ZM395.812 108.156C395.812 106.125 396.484 104.453 397.828 103.141C399.203 101.828 401.062 101.172 403.406 101.172C405.75 101.172 407.594 101.828 408.938 103.141C410.312 104.453 411 106.125 411 108.156C411 110.219 410.297 111.906 408.891 113.219C407.516 114.531 405.688 115.188 403.406 115.188C401.125 115.188 399.281 114.531 397.875 113.219C396.5 111.906 395.812 110.219 395.812 108.156ZM444.422 172.938C436.984 172.938 430.922 170.656 426.234 166.094C421.578 161.531 419.25 155.453 419.25 147.859V146.547C419.25 141.453 420.234 136.906 422.203 132.906C424.172 128.875 426.953 125.781 430.547 123.625C434.172 121.438 438.297 120.344 442.922 120.344C449.859 120.344 455.312 122.531 459.281 126.906C463.281 131.281 465.281 137.484 465.281 145.516V151.047H432.984C433.422 154.359 434.734 157.016 436.922 159.016C439.141 161.016 441.938 162.016 445.312 162.016C450.531 162.016 454.609 160.125 457.547 156.344L464.203 163.797C462.172 166.672 459.422 168.922 455.953 170.547C452.484 172.141 448.641 172.938 444.422 172.938ZM442.875 131.312C440.188 131.312 438 132.219 436.312 134.031C434.656 135.844 433.594 138.438 433.125 141.812H451.969V140.734C451.906 137.734 451.094 135.422 449.531 133.797C447.969 132.141 445.75 131.312 442.875 131.312ZM494.109 162.016C496.609 162.016 498.641 161.328 500.203 159.953C501.766 158.578 502.578 156.75 502.641 154.469H515.344C515.312 157.906 514.375 161.062 512.531 163.938C510.688 166.781 508.156 169 504.938 170.594C501.75 172.156 498.219 172.938 494.344 172.938C487.094 172.938 481.375 170.641 477.188 166.047C473 161.422 470.906 155.047 470.906 146.922V146.031C470.906 138.219 472.984 131.984 477.141 127.328C481.297 122.672 487 120.344 494.25 120.344C500.594 120.344 505.672 122.156 509.484 125.781C513.328 129.375 515.281 134.172 515.344 140.172H502.641C502.578 137.547 501.766 135.422 500.203 133.797C498.641 132.141 496.578 131.312 494.016 131.312C490.859 131.312 488.469 132.469 486.844 134.781C485.25 137.062 484.453 140.781 484.453 145.938V147.344C484.453 152.562 485.25 156.312 486.844 158.594C488.438 160.875 490.859 162.016 494.109 162.016ZM539.297 108.812V121.281H547.969V131.219H539.297V156.531C539.297 158.406 539.656 159.75 540.375 160.562C541.094 161.375 542.469 161.781 544.5 161.781C546 161.781 547.328 161.672 548.484 161.453V171.719C545.828 172.531 543.094 172.938 540.281 172.938C530.781 172.938 525.938 168.141 525.75 158.547V131.219H518.344V121.281H525.75V108.812H539.297Z" fill="#816EC5"/>
<path d="M309.047 147.016H297.844V172H283.781V103.75H309.141C317.203 103.75 323.422 105.547 327.797 109.141C332.172 112.734 334.359 117.812 334.359 124.375C334.359 129.031 333.344 132.922 331.312 136.047C329.312 139.141 326.266 141.609 322.172 143.453L336.938 171.344V172H321.844L309.047 147.016ZM297.844 135.625H309.188C312.719 135.625 315.453 134.734 317.391 132.953C319.328 131.141 320.297 128.656 320.297 125.5C320.297 122.281 319.375 119.75 317.531 117.906C315.719 116.062 312.922 115.141 309.141 115.141H297.844V135.625ZM367.547 172.938C360.109 172.938 354.047 170.656 349.359 166.094C344.703 161.531 342.375 155.453 342.375 147.859V146.547C342.375 141.453 343.359 136.906 345.328 132.906C347.297 128.875 350.078 125.781 353.672 123.625C357.297 121.438 361.422 120.344 366.047 120.344C372.984 120.344 378.438 122.531 382.406 126.906C386.406 131.281 388.406 137.484 388.406 145.516V151.047H356.109C356.547 154.359 357.859 157.016 360.047 159.016C362.266 161.016 365.062 162.016 368.438 162.016C373.656 162.016 377.734 160.125 380.672 156.344L387.328 163.797C385.297 166.672 382.547 168.922 379.078 170.547C375.609 172.141 371.766 172.938 367.547 172.938ZM366 131.312C363.312 131.312 361.125 132.219 359.438 134.031C357.781 135.844 356.719 138.438 356.25 141.812H375.094V140.734C375.031 137.734 374.219 135.422 372.656 133.797C371.094 132.141 368.875 131.312 366 131.312ZM410.484 121.281V174.766C410.484 180.359 409 184.703 406.031 187.797C403.062 190.922 398.781 192.484 393.188 192.484C390.844 192.484 388.609 192.219 386.484 191.688V180.953C388.109 181.234 389.531 181.375 390.75 181.375C394.844 181.375 396.891 179.203 396.891 174.859V121.281H410.484ZM395.812 108.156C395.812 106.125 396.484 104.453 397.828 103.141C399.203 101.828 401.062 101.172 403.406 101.172C405.75 101.172 407.594 101.828 408.938 103.141C410.312 104.453 411 106.125 411 108.156C411 110.219 410.297 111.906 408.891 113.219C407.516 114.531 405.688 115.188 403.406 115.188C401.125 115.188 399.281 114.531 397.875 113.219C396.5 111.906 395.812 110.219 395.812 108.156ZM444.422 172.938C436.984 172.938 430.922 170.656 426.234 166.094C421.578 161.531 419.25 155.453 419.25 147.859V146.547C419.25 141.453 420.234 136.906 422.203 132.906C424.172 128.875 426.953 125.781 430.547 123.625C434.172 121.438 438.297 120.344 442.922 120.344C449.859 120.344 455.312 122.531 459.281 126.906C463.281 131.281 465.281 137.484 465.281 145.516V151.047H432.984C433.422 154.359 434.734 157.016 436.922 159.016C439.141 161.016 441.938 162.016 445.312 162.016C450.531 162.016 454.609 160.125 457.547 156.344L464.203 163.797C462.172 166.672 459.422 168.922 455.953 170.547C452.484 172.141 448.641 172.938 444.422 172.938ZM442.875 131.312C440.188 131.312 438 132.219 436.312 134.031C434.656 135.844 433.594 138.438 433.125 141.812H451.969V140.734C451.906 137.734 451.094 135.422 449.531 133.797C447.969 132.141 445.75 131.312 442.875 131.312ZM494.109 162.016C496.609 162.016 498.641 161.328 500.203 159.953C501.766 158.578 502.578 156.75 502.641 154.469H515.344C515.312 157.906 514.375 161.062 512.531 163.938C510.688 166.781 508.156 169 504.938 170.594C501.75 172.156 498.219 172.938 494.344 172.938C487.094 172.938 481.375 170.641 477.188 166.047C473 161.422 470.906 155.047 470.906 146.922V146.031C470.906 138.219 472.984 131.984 477.141 127.328C481.297 122.672 487 120.344 494.25 120.344C500.594 120.344 505.672 122.156 509.484 125.781C513.328 129.375 515.281 134.172 515.344 140.172H502.641C502.578 137.547 501.766 135.422 500.203 133.797C498.641 132.141 496.578 131.312 494.016 131.312C490.859 131.312 488.469 132.469 486.844 134.781C485.25 137.062 484.453 140.781 484.453 145.938V147.344C484.453 152.562 485.25 156.312 486.844 158.594C488.438 160.875 490.859 162.016 494.109 162.016ZM539.297 108.812V121.281H547.969V131.219H539.297V156.531C539.297 158.406 539.656 159.75 540.375 160.562C541.094 161.375 542.469 161.781 544.5 161.781C546 161.781 547.328 161.672 548.484 161.453V171.719C545.828 172.531 543.094 172.938 540.281 172.938C530.781 172.938 525.938 168.141 525.75 158.547V131.219H518.344V121.281H525.75V108.812H539.297Z" fill="url(#paint0_linear)" fill-opacity="0.3"/>
</g>
<defs>
<filter id="filter0_d" x="-16" y="0" width="860" height="256" filterUnits="userSpaceOnUse" color-interpolation-filters="sRGB">
<feFlood flood-opacity="0" result="BackgroundImageFix"/>
<feColorMatrix in="SourceAlpha" type="matrix" values="0 0 0 0 0 0 0 0 0 0 0 0 0 0 0 0 0 0 127 0"/>
<feOffset dy="-4"/>
<feGaussianBlur stdDeviation="2"/>
<feColorMatrix type="matrix" values="0 0 0 0 0 0 0 0 0 0 0 0 0 0 0 0 0 0 0.25 0"/>
<feBlend mode="normal" in2="BackgroundImageFix" result="effect1_dropShadow"/>
<feBlend mode="normal" in="SourceGraphic" in2="effect1_dropShadow" result="shape"/>
</filter>
<linearGradient id="paint0_linear" x1="414" y1="84" x2="414" y2="200" gradientUnits="userSpaceOnUse">
<stop/>
<stop offset="1" stop-color="white" stop-opacity="0.5"/>
</linearGradient>
</defs>
</svg>
