<svg width="436" height="184" viewBox="0 0 436 184" fill="none" xmlns="http://www.w3.org/2000/svg">
<rect x="1" y="1" width="107" height="44" rx="22" transform="scale(4)" fill="white" fill-opacity="0.3" stroke="white" stroke-width="2"/>
<path d="M18.7071 0.707107C19.0976 0.316583 19.0976 -0.316583 18.7071 -0.707107L12.3431 -7.07107C11.9526 -7.46159 11.3195 -7.46159 10.9289 -7.07107C10.5384 -6.68054 10.5384 -6.04738 10.9289 -5.65685L16.5858 0L10.9289 5.65685C10.5384 6.04738 10.5384 6.68054 10.9289 7.07107C11.3195 7.46159 11.9526 7.46159 12.3431 7.07107L18.7071 0.707107ZM0 1H18V-1H0V1Z" transform="translate(288 92) scale(4)" fill="white"/>
<path d="M0.670898 8.17578C0.670898 7.6543 0.770508 7.16504 0.969727 6.70801C1.16895 6.25098 1.43848 5.85254 1.77832 5.5127C2.12402 5.16699 2.52539 4.89453 2.98242 4.69531C3.43945 4.49609 3.92871 4.39648 4.4502 4.39648H10.2334V6.91895H4.4502C4.27441 6.91895 4.11035 6.95117 3.95801 7.01562C3.80566 7.08008 3.6709 7.1709 3.55371 7.28809C3.44238 7.39941 3.35449 7.53125 3.29004 7.68359C3.22559 7.83594 3.19336 8 3.19336 8.17578C3.19336 8.35156 3.22559 8.51855 3.29004 8.67676C3.35449 8.8291 3.44238 8.96387 3.55371 9.08105C3.6709 9.19238 3.80566 9.28027 3.95801 9.34473C4.11035 9.40918 4.27441 9.44141 4.4502 9.44141H6.97266C7.49414 9.44141 7.9834 9.54102 8.44043 9.74023C8.90332 9.93359 9.30469 10.2031 9.64453 10.5488C9.99023 10.8887 10.2598 11.29 10.4531 11.7529C10.6523 12.21 10.752 12.6992 10.752 13.2207C10.752 13.7422 10.6523 14.2314 10.4531 14.6885C10.2598 15.1455 9.99023 15.5469 9.64453 15.8926C9.30469 16.2324 8.90332 16.502 8.44043 16.7012C7.9834 16.9004 7.49414 17 6.97266 17H1.37402V14.4775H6.97266C7.14844 14.4775 7.3125 14.4453 7.46484 14.3809C7.61719 14.3164 7.74902 14.2285 7.86035 14.1172C7.97754 14 8.06836 13.8652 8.13281 13.7129C8.19727 13.5605 8.22949 13.3965 8.22949 13.2207C8.22949 13.0449 8.19727 12.8809 8.13281 12.7285C8.06836 12.5762 7.97754 12.4443 7.86035 12.333C7.74902 12.2158 7.61719 12.125 7.46484 12.0605C7.3125 11.9961 7.14844 11.9639 6.97266 11.9639H4.4502C3.92871 11.9639 3.43945 11.8643 2.98242 11.665C2.52539 11.4658 2.12402 11.1963 1.77832 10.8564C1.43848 10.5107 1.16895 10.1094 0.969727 9.65234C0.770508 9.18945 0.670898 8.69727 0.670898 8.17578ZM15.9023 14.6973C15.9961 14.7266 16.0898 14.7471 16.1836 14.7588C16.2773 14.7646 16.3711 14.7676 16.4648 14.7676C16.6992 14.7676 16.9248 14.7354 17.1416 14.6709C17.3584 14.6064 17.5605 14.5156 17.748 14.3984C17.9414 14.2754 18.1113 14.1289 18.2578 13.959C18.4102 13.7832 18.5332 13.5898 18.627 13.3789L20.3848 15.1455C20.1621 15.4619 19.9043 15.7461 19.6113 15.998C19.3242 16.25 19.0107 16.4639 18.6709 16.6396C18.3369 16.8154 17.9824 16.9473 17.6074 17.0352C17.2383 17.1289 16.8574 17.1758 16.4648 17.1758C15.8027 17.1758 15.1787 17.0527 14.5928 16.8066C14.0127 16.5605 13.5029 16.2178 13.0635 15.7783C12.6299 15.3389 12.2871 14.8174 12.0352 14.2139C11.7832 13.6045 11.6572 12.9365 11.6572 12.21C11.6572 11.4658 11.7832 10.7861 12.0352 10.1709C12.2871 9.55566 12.6299 9.03125 13.0635 8.59766C13.5029 8.16406 14.0127 7.82715 14.5928 7.58691C15.1787 7.34668 15.8027 7.22656 16.4648 7.22656C16.8574 7.22656 17.2412 7.27344 17.6162 7.36719C17.9912 7.46094 18.3457 7.5957 18.6797 7.77148C19.0195 7.94727 19.3359 8.16406 19.6289 8.42188C19.9219 8.67383 20.1797 8.95801 20.4023 9.27441L15.9023 14.6973ZM17.1328 9.74902C17.0215 9.70801 16.9102 9.68164 16.7988 9.66992C16.6934 9.6582 16.582 9.65234 16.4648 9.65234C16.1367 9.65234 15.8262 9.71387 15.5332 9.83691C15.2461 9.9541 14.9941 10.124 14.7773 10.3467C14.5664 10.5693 14.3994 10.8389 14.2764 11.1553C14.1533 11.4658 14.0918 11.8174 14.0918 12.21C14.0918 12.2979 14.0947 12.3975 14.1006 12.5088C14.1123 12.6201 14.127 12.7344 14.1445 12.8516C14.168 12.9629 14.1943 13.0713 14.2236 13.1768C14.2529 13.2822 14.291 13.376 14.3379 13.458L17.1328 9.74902ZM24.0146 17H21.6152V7.58691H22.1953L22.9863 8.50098C23.373 8.14941 23.8096 7.87988 24.2959 7.69238C24.7881 7.49902 25.3008 7.40234 25.834 7.40234C26.4082 7.40234 26.9502 7.51367 27.46 7.73633C27.9697 7.95313 28.415 8.25488 28.7959 8.6416C29.1768 9.02246 29.4756 9.4707 29.6924 9.98633C29.915 10.4961 30.0264 11.041 30.0264 11.6211V17H27.627V11.6211C27.627 11.375 27.5801 11.1436 27.4863 10.9268C27.3926 10.7041 27.2637 10.5107 27.0996 10.3467C26.9355 10.1826 26.7451 10.0537 26.5283 9.95996C26.3115 9.86621 26.0801 9.81934 25.834 9.81934C25.582 9.81934 25.3447 9.86621 25.1221 9.95996C24.8994 10.0537 24.7061 10.1826 24.542 10.3467C24.3779 10.5107 24.249 10.7041 24.1553 10.9268C24.0615 11.1436 24.0146 11.375 24.0146 11.6211V17ZM40.8369 17H40.2568L39.3252 15.708C39.0967 15.9131 38.8535 16.1064 38.5957 16.2881C38.3438 16.4639 38.0771 16.6191 37.7959 16.7539C37.5146 16.8828 37.2246 16.9854 36.9258 17.0615C36.6328 17.1377 36.334 17.1758 36.0293 17.1758C35.3672 17.1758 34.7432 17.0527 34.1572 16.8066C33.5771 16.5547 33.0674 16.209 32.6279 15.7695C32.1943 15.3242 31.8516 14.7998 31.5996 14.1963C31.3477 13.5869 31.2217 12.9248 31.2217 12.21C31.2217 11.501 31.3477 10.8418 31.5996 10.2324C31.8516 9.62305 32.1943 9.0957 32.6279 8.65039C33.0674 8.20508 33.5771 7.85645 34.1572 7.60449C34.7432 7.35254 35.3672 7.22656 36.0293 7.22656C36.2402 7.22656 36.457 7.24414 36.6797 7.2793C36.9082 7.31445 37.1279 7.37305 37.3389 7.45508C37.5557 7.53125 37.7578 7.63379 37.9453 7.7627C38.1328 7.8916 38.291 8.0498 38.4199 8.2373V3.84277H40.8369V17ZM38.4199 12.21C38.4199 11.8818 38.3555 11.5654 38.2266 11.2607C38.1035 10.9502 37.9336 10.6777 37.7168 10.4434C37.5 10.2031 37.2451 10.0127 36.9521 9.87207C36.665 9.72559 36.3574 9.65234 36.0293 9.65234C35.7012 9.65234 35.3906 9.71094 35.0977 9.82812C34.8105 9.94531 34.5586 10.1152 34.3418 10.3379C34.1309 10.5547 33.9639 10.8213 33.8408 11.1377C33.7178 11.4541 33.6562 11.8115 33.6562 12.21C33.6562 12.5557 33.7178 12.8838 33.8408 13.1943C33.9639 13.5049 34.1309 13.7773 34.3418 14.0117C34.5586 14.2461 34.8105 14.4307 35.0977 14.5654C35.3906 14.7002 35.7012 14.7676 36.0293 14.7676C36.3574 14.7676 36.665 14.6973 36.9521 14.5566C37.2451 14.4102 37.5 14.2197 37.7168 13.9854C37.9336 13.7451 38.1035 13.4727 38.2266 13.168C38.3555 12.8574 38.4199 12.5381 38.4199 12.21Z" transform="translate(68 52) scale(4)" fill="white"/>
</svg>
