<svg xmlns="http://www.w3.org/2000/svg" viewBox="0 0 705 708.5"><defs><style>.cls-1{fill:#fff;}.cls-2,.cls-3,.cls-4,.cls-5,.cls-7{fill:none;}.cls-3,.cls-4,.cls-5,.cls-6,.cls-7{stroke:#7f70df;}.cls-3,.cls-4{stroke-linecap:round;}.cls-3,.cls-5,.cls-6,.cls-7{stroke-miterlimit:10;}.cls-3,.cls-4,.cls-5{stroke-width:10px;}.cls-4{stroke-linejoin:round;}.cls-6,.cls-8{fill:#7f70df;}.cls-7{stroke-width:5px;}.cls-8{font-size:72px;font-family:Impact, Impact;}</style></defs><title>Shopping</title><g id="Layer_8" data-name="Layer 8"><rect class="cls-1" x="27.5" y="24.5" width="642" height="652"/></g><g id="check"><path class="cls-2" d="M353.182,579.311a9.362,9.362,0,0,0-5.713-1.775,10.353,10.353,0,0,0-4.992,1.232,13.188,13.188,0,0,0-4.184,3.733l.246-4.122H324.09v53.3h14.2v-10.7a13.3,13.3,0,0,0,4.113,3.663,10.012,10.012,0,0,0,4.887,1.232,9.75,9.75,0,0,0,5.643-1.6,7.521,7.521,0,0,0,3.094-4.289,37.581,37.581,0,0,0,.756-9.053V591.281a35.705,35.705,0,0,0-.6-7.875A7.438,7.438,0,0,0,353.182,579.311Zm-10.6,32.643a19.243,19.243,0,0,1-.334,4.693q-.334.967-1.705.967a1.753,1.753,0,0,1-1.828-1.055,19.089,19.089,0,0,1-.422-5.273V591.949a18.848,18.848,0,0,1,.4-5.1,1.72,1.72,0,0,1,1.811-1.055q1.441,0,1.758.914a23.741,23.741,0,0,1,.316,5.238Z" transform="translate(2.5 3.5)"/><path class="cls-2" d="M390.553,579.311a9.362,9.362,0,0,0-5.713-1.775,10.353,10.353,0,0,0-4.992,1.232,13.188,13.188,0,0,0-4.184,3.733l.246-4.122H361.461v53.3h14.2v-10.7a13.3,13.3,0,0,0,4.113,3.663,10.012,10.012,0,0,0,4.887,1.232,9.75,9.75,0,0,0,5.643-1.6,7.521,7.521,0,0,0,3.094-4.289,37.581,37.581,0,0,0,.756-9.053V591.281a35.706,35.706,0,0,0-.6-7.875A7.438,7.438,0,0,0,390.553,579.311Zm-10.6,32.643a19.243,19.243,0,0,1-.334,4.693q-.334.967-1.705.967a1.753,1.753,0,0,1-1.828-1.055,19.089,19.089,0,0,1-.422-5.273V591.949a18.848,18.848,0,0,1,.4-5.1,1.72,1.72,0,0,1,1.811-1.055q1.441,0,1.758.914a23.741,23.741,0,0,1,.316,5.238Z" transform="translate(2.5 3.5)"/><rect class="cls-2" x="401.332" y="581.879" width="14.625" height="46.652"/><rect class="cls-2" x="401.332" y="571.613" width="14.625" height="7.418"/><path class="cls-2" d="M230.324,588.721q-3.447-2.038-4.183-3.48a9.371,9.371,0,0,1-.771-4.292,6.326,6.326,0,0,1,.686-3.307,2.236,2.236,0,0,1,2.021-1.091,1.939,1.939,0,0,1,1.758.809,8.276,8.276,0,0,1,.527,3.762v4.219h13.746v-2.25q0-6.785-1.318-9.615t-5.379-4.693a23.448,23.448,0,0,0-9.826-1.863,21.524,21.524,0,0,0-9,1.705,11.236,11.236,0,0,0-5.4,4.729q-1.67,3.023-1.67,9.563a20.1,20.1,0,0,0,1.178,7.453,12.42,12.42,0,0,0,2.971,4.57,68.133,68.133,0,0,0,7.313,5.309,43.729,43.729,0,0,1,6.926,5.168q1.371,1.547,1.371,6.574a6.625,6.625,0,0,1-.721,3.445,2.41,2.41,0,0,1-2.2,1.16,2.243,2.243,0,0,1-2.057-.914q-.58-.914-.58-4.113v-6.926H211.977v3.727a29.378,29.378,0,0,0,1.3,9.879,11.033,11.033,0,0,0,5.5,5.73,21.222,21.222,0,0,0,10.143,2.25,21.765,21.765,0,0,0,9.492-1.951,11.153,11.153,0,0,0,5.5-4.834q1.424-2.883,1.424-8.965,0-8.367-2.566-12.129T230.324,588.721Z" transform="translate(2.5 3.5)"/><path class="cls-2" d="M316.18,582.668a13.177,13.177,0,0,0-5.291-3.709,21.355,21.355,0,0,0-8.209-1.424,17.819,17.819,0,0,0-9.352,2.215,11.679,11.679,0,0,0-5.062,5.871,29.242,29.242,0,0,0-1.406,10.16v11.953a38.063,38.063,0,0,0,.773,8.912,12.351,12.351,0,0,0,2.584,5.063,10.875,10.875,0,0,0,5.08,3.129,26.647,26.647,0,0,0,7.98,1.037,21.3,21.3,0,0,0,7.471-1.213,12.231,12.231,0,0,0,5.326-3.762,12.954,12.954,0,0,0,2.707-5.484,48.217,48.217,0,0,0,.633-9.229V594.762a29.285,29.285,0,0,0-.686-7.383A13.125,13.125,0,0,0,316.18,582.668Zm-10.969,30.094a11.929,11.929,0,0,1-.4,3.938,1.92,1.92,0,0,1-3.322-.088,13.639,13.639,0,0,1-.422-4.307V591.246a14.263,14.263,0,0,1,.422-4.518,1.665,1.665,0,0,1,1.688-.932,1.6,1.6,0,0,1,1.652.932,15.5,15.5,0,0,1,.387,4.518Z" transform="translate(2.5 3.5)"/><path class="cls-2" d="M447.664,579.258a9.766,9.766,0,0,0-5.977-1.723,10.141,10.141,0,0,0-5.15,1.285,10.653,10.653,0,0,0-3.779,3.856l.246-4.3H418.555v46.652h14.2V593.5a30.493,30.493,0,0,1,.387-6.486,1.757,1.757,0,0,1,1.9-1.213q1.441,0,1.758,1.055a30.052,30.052,0,0,1,.316,5.871v32.309h14.2v-32.7a39.7,39.7,0,0,0-.668-8.736A7.662,7.662,0,0,0,447.664,579.258Z" transform="translate(2.5 3.5)"/><path class="cls-2" d="M278.615,579.434a10.522,10.522,0,0,0-6.346-1.9,12.215,12.215,0,0,0-4.553.846,12.744,12.744,0,0,0-3.955,2.538V568.113h-14.2v56.918h14.2V591.738a15.823,15.823,0,0,1,.457-4.746,1.94,1.94,0,0,1,3.568-.035,20.454,20.454,0,0,1,.4,5.238v32.836h14.2V592.863a46.612,46.612,0,0,0-.58-9.053A7.61,7.61,0,0,0,278.615,579.434Z" transform="translate(2.5 3.5)"/><path class="cls-2" d="M490,482l43-216h23s14.5-.5,13.5-16.5c-.719-11.5.618-20.4-.053-25.992L328.319,481.718Z" transform="translate(2.5 3.5)"/><path class="cls-2" d="M474.242,581.9a11.561,11.561,0,0,0-3.92-3.276,10.794,10.794,0,0,0-4.869-1.092q-4.887,0-7.277,2.918t-2.391,9.563v16.945a21.843,21.843,0,0,0,.914,7.154,7.913,7.913,0,0,0,3.393,4.061,11.737,11.737,0,0,0,6.311,1.547,10.874,10.874,0,0,0,4.236-.846,13.5,13.5,0,0,0,3.85-2.5v3.52a9.6,9.6,0,0,1-.527,3.977,2.232,2.232,0,0,1-2.145.95q-2.25,0-2.25-3.094H455.785q.141,6.75,4.254,9.053t10.9,2.3a28.605,28.605,0,0,0,9.158-1.248,12.726,12.726,0,0,0,5.678-3.621,9.373,9.373,0,0,0,2.373-4.5,79.406,79.406,0,0,0,.334-9.4v-35.93H475.262Zm0,23.3a18.56,18.56,0,0,1-.422,5.1,1.743,1.743,0,0,1-1.828,1.125,1.566,1.566,0,0,1-1.617-.932,13.132,13.132,0,0,1-.387-4.061v-15.68a10.058,10.058,0,0,1,.51-3.955,1.794,1.794,0,0,1,1.74-1,1.575,1.575,0,0,1,1.635.879,13.5,13.5,0,0,1,.369,4.078Z" transform="translate(2.5 3.5)"/><path class="cls-2" d="M164.5,242.5l99,137L528.556,95.951C514.05,87.278,501.354,79.927,500.5,79.5c-2-1-18,18-16,24s11,6-13,28c0,0-33,15-38,34,0,0-47-25-53-21,0,0-19,1-14-10s8-21,7-24-8,20-8,20-4-12-6-15-20-23-39-19,22,46,23,45,9,6,1,9c-7.232,2.712-43.065,16.868-46.922,50.59-2.665-7.374-10-18.971-28.078-36.59,0,0-53-63-77-55,0,0-55,10-60,30,0,0-13,40,5,51l23,22s-11,7-13,6-16-4-17,3c-.457,3.2-1.537,11.191-1.911,19.125L131.5,238.5S149.5,228.5,164.5,242.5Z" transform="translate(2.5 3.5)"/><path class="cls-1" d="M377.879,585.8a1.72,1.72,0,0,0-1.811,1.055,18.848,18.848,0,0,0-.4,5.1v19.336a19.089,19.089,0,0,0,.422,5.273,1.753,1.753,0,0,0,1.828,1.055q1.371,0,1.705-.967a19.243,19.243,0,0,0,.334-4.693v-20a23.741,23.741,0,0,0-.316-5.238Q379.32,585.8,377.879,585.8Z" transform="translate(2.5 3.5)"/><path class="cls-1" d="M340.508,585.8a1.72,1.72,0,0,0-1.811,1.055,18.848,18.848,0,0,0-.4,5.1v19.336a19.089,19.089,0,0,0,.422,5.273,1.753,1.753,0,0,0,1.828,1.055q1.371,0,1.705-.967a19.243,19.243,0,0,0,.334-4.693v-20a23.741,23.741,0,0,0-.316-5.238Q341.949,585.8,340.508,585.8Z" transform="translate(2.5 3.5)"/><path class="cls-1" d="M303.172,585.8a1.665,1.665,0,0,0-1.687.932,14.263,14.263,0,0,0-.422,4.518V612.3a13.639,13.639,0,0,0,.422,4.307,1.92,1.92,0,0,0,3.322.088,11.929,11.929,0,0,0,.4-3.937V591.246a15.5,15.5,0,0,0-.387-4.518A1.6,1.6,0,0,0,303.172,585.8Z" transform="translate(2.5 3.5)"/><path class="cls-1" d="M.5-.5v700h700V-.5ZM243.916,619.441a11.153,11.153,0,0,1-5.5,4.834,21.765,21.765,0,0,1-9.492,1.951,21.222,21.222,0,0,1-10.143-2.25,11.033,11.033,0,0,1-5.5-5.73,29.378,29.378,0,0,1-1.3-9.879v-3.727h13.746v6.926q0,3.2.58,4.113a2.243,2.243,0,0,0,2.057.914,2.41,2.41,0,0,0,2.2-1.16,6.625,6.625,0,0,0,.721-3.445q0-5.027-1.371-6.574a43.729,43.729,0,0,0-6.926-5.168,68.133,68.133,0,0,1-7.312-5.309,12.42,12.42,0,0,1-2.971-4.57,20.1,20.1,0,0,1-1.178-7.453q0-6.539,1.67-9.562a11.236,11.236,0,0,1,5.4-4.729,21.524,21.524,0,0,1,9-1.705,23.448,23.448,0,0,1,9.826,1.863q4.061,1.863,5.379,4.693t1.318,9.615v2.25H230.363v-4.219a8.276,8.276,0,0,0-.527-3.762,1.939,1.939,0,0,0-1.758-.809,2.236,2.236,0,0,0-2.021,1.091,6.326,6.326,0,0,0-.686,3.307,9.371,9.371,0,0,0,.771,4.292q.736,1.443,4.183,3.48,9.883,5.865,12.449,9.627t2.566,12.129Q245.34,616.559,243.916,619.441Zm38.479,5.59h-14.2V592.2a20.454,20.454,0,0,0-.4-5.238,1.94,1.94,0,0,0-3.568.035,15.823,15.823,0,0,0-.457,4.746v33.293h-14.2V568.113h14.2v12.806a12.744,12.744,0,0,1,3.955-2.538,12.215,12.215,0,0,1,4.553-.846,10.522,10.522,0,0,1,6.346,1.9,7.61,7.61,0,0,1,3.2,4.377,46.612,46.612,0,0,1,.58,9.053Zm37.02-18.844a48.217,48.217,0,0,1-.633,9.229,12.954,12.954,0,0,1-2.707,5.484,12.231,12.231,0,0,1-5.326,3.762,21.3,21.3,0,0,1-7.471,1.213,26.647,26.647,0,0,1-7.98-1.037,10.875,10.875,0,0,1-5.08-3.129,12.351,12.351,0,0,1-2.584-5.062,38.063,38.063,0,0,1-.773-8.912V595.781a29.242,29.242,0,0,1,1.406-10.16,11.679,11.679,0,0,1,5.063-5.871,17.819,17.819,0,0,1,9.352-2.215,21.355,21.355,0,0,1,8.209,1.424,12.867,12.867,0,0,1,7.84,8.42,29.285,29.285,0,0,1,.686,7.383Zm37.371,4.746a37.581,37.581,0,0,1-.756,9.053,7.521,7.521,0,0,1-3.094,4.289,9.75,9.75,0,0,1-5.643,1.6,10.012,10.012,0,0,1-4.887-1.232,13.3,13.3,0,0,1-4.113-3.663v10.7h-14.2v-53.3h14.449l-.246,4.122a13.188,13.188,0,0,1,4.184-3.733,10.353,10.353,0,0,1,4.992-1.232,9.362,9.362,0,0,1,5.713,1.775,7.438,7.438,0,0,1,3.006,4.1,35.705,35.705,0,0,1,.6,7.875Zm37.371,0a37.581,37.581,0,0,1-.756,9.053,7.521,7.521,0,0,1-3.094,4.289,9.75,9.75,0,0,1-5.643,1.6,10.012,10.012,0,0,1-4.887-1.232,13.3,13.3,0,0,1-4.113-3.663v10.7h-14.2v-53.3H375.91l-.246,4.122a13.188,13.188,0,0,1,4.184-3.733,10.353,10.353,0,0,1,4.992-1.232,9.362,9.362,0,0,1,5.713,1.775,7.438,7.438,0,0,1,3.006,4.1,35.706,35.706,0,0,1,.6,7.875Zm19.3,14.1H398.832V578.379h14.625Zm0-49.5H398.832v-7.418h14.625Zm37.863,49.5h-14.2V592.723a30.052,30.052,0,0,0-.316-5.871q-.316-1.055-1.758-1.055a1.757,1.757,0,0,0-1.9,1.213,30.493,30.493,0,0,0-.387,6.486v31.535h-14.2V578.379H433l-.246,4.3a10.653,10.653,0,0,1,3.779-3.856,10.141,10.141,0,0,1,5.15-1.285,9.766,9.766,0,0,1,5.977,1.723,7.662,7.662,0,0,1,2.988,4.342,39.7,39.7,0,0,1,.668,8.736Zm37.16-10.723a79.406,79.406,0,0,1-.334,9.4,9.373,9.373,0,0,1-2.373,4.5,12.726,12.726,0,0,1-5.678,3.621,28.605,28.605,0,0,1-9.158,1.248q-6.785,0-10.9-2.3t-4.254-9.053h13.781q0,3.094,2.25,3.094a2.232,2.232,0,0,0,2.145-.95,9.6,9.6,0,0,0,.527-3.977v-3.52a13.5,13.5,0,0,1-3.85,2.5,10.874,10.874,0,0,1-4.236.846,11.737,11.737,0,0,1-6.311-1.547,7.913,7.913,0,0,1-3.393-4.061,21.843,21.843,0,0,1-.914-7.154V590.016q0-6.645,2.391-9.562t7.277-2.918a10.794,10.794,0,0,1,4.869,1.092,11.561,11.561,0,0,1,3.92,3.276l1.02-3.524H488.48ZM653.5,133.5l-84.053,90.008c.671,5.591-.666,14.49.053,25.992,1,16-13.5,16.5-13.5,16.5H533L490,482l-161.681-.282L286.5,526.5s-25,28-59,0l-157-214s-10-18,5.5-33.5l52.589-38.375c.375-7.933,1.455-15.928,1.911-19.125,1-7,15-4,17-3s13-6,13-6l-23-22c-18-11-5-51-5-51,5-20,60-30,60-30,24-8,77,55,77,55,18.083,17.619,25.413,29.216,28.078,36.59,3.857-33.722,39.69-47.878,46.922-50.59,8-3,0-10-1-9s-42-41-23-45,37,16,39,19,6,15,6,15,7-23,8-20-2,13-7,24,14,10,14,10c6-4,53,21,53,21,5-19,38-34,38-34,24-22,15-22,13-28s14-25,16-24c.854.427,13.55,7.778,28.056,16.451L564.5,57.5s15-18,36-7l53,50S665.5,115.5,653.5,133.5Z" transform="translate(2.5 3.5)"/><path class="cls-1" d="M472.238,585.8a1.794,1.794,0,0,0-1.74,1,10.058,10.058,0,0,0-.51,3.955v15.68a13.132,13.132,0,0,0,.387,4.061,1.566,1.566,0,0,0,1.617.932,1.743,1.743,0,0,0,1.828-1.125,18.56,18.56,0,0,0,.422-5.1V590.754a13.5,13.5,0,0,0-.369-4.078A1.575,1.575,0,0,0,472.238,585.8Z" transform="translate(2.5 3.5)"/><path class="cls-1" d="M600.5,50.5c-21-11-36,7-36,7L528.556,95.951C548.036,107.6,570.78,121.634,572.5,124.5c3,5-11,21-11,21a58.088,58.088,0,0,0-10,1c-5,1-5,34-5,41s-3,14-6,17,1,13,1,13,22-3,26,1a8.252,8.252,0,0,1,1.947,5.008L653.5,133.5c12-18,0-33,0-33Z" transform="translate(2.5 3.5)"/><path class="cls-1" d="M160.5,265.5c-3,3-21-3-28-5-3.8-1.087-4.357-10.438-3.911-19.875L76,279c-15.5,15.5-5.5,33.5-5.5,33.5l157,214c34,28,59,0,59,0l41.819-44.782L203.5,481.5Z" transform="translate(2.5 3.5)"/></g><g id="Basket"><path class="cls-3" d="M165.458,214.82l-33.49-33.49s-11.163-16.125,0-42.173,62.018-34.73,78.143-26.048,21.086,11.163,32.25,23.567l54.576,58.3" transform="translate(2.5 3.5)"/><path class="cls-3" d="M257.866,214.2s13.644-16.125,33.49-21.086" transform="translate(2.5 3.5)"/><path class="cls-3" d="M202.049,179.47s19.846-27.288,47.134-35.971" transform="translate(2.5 3.5)"/><path class="cls-3" d="M297.558,211.72c-6.2-66.98,125.277-111.633,150.085-3.721" transform="translate(2.5 3.5)"/><path class="cls-3" d="M350.893,145.98s-40.932-24.807-33.49-49.615c0,0,32.25-11.163,49.615,39.692,0,0,4.961-7.442,4.961-26.048" transform="translate(2.5 3.5)"/><path class="cls-4" d="M431.517,164.586s18.606-26.048,35.971-32.25c0,0,21.086-19.846,22.327-24.807l-7.442-6.2L498.5,79l75.663,44.653L560.516,145.98l-8.683-3.721s-8.683,24.807-7.442,38.451a58.343,58.343,0,0,1-6.2,28.529" transform="translate(2.5 3.5)"/><line class="cls-4" x1="488.594" y1="108.548" x2="554.333" y2="145.759"/><path class="cls-5" d="M545.113,263.195h9.739a13.726,13.726,0,0,0,13.726-13.726V224.743a8.683,8.683,0,0,0-8.683-8.683H138.377a10.13,10.13,0,0,0-10.13,10.13v23.278a13.726,13.726,0,0,0,13.726,13.726h403.14Z" transform="translate(2.5 3.5)"/><path class="cls-5" d="M526.832,263.195H166.312a5.758,5.758,0,0,0-5.642,6.912l42.3,206.788a5.758,5.758,0,0,0,5.642,4.6h277.1a5.758,5.758,0,0,0,5.648-4.635l41.123-206.788A5.758,5.758,0,0,0,526.832,263.195Z" transform="translate(2.5 3.5)"/></g><g id="things"><path class="cls-6" d="M434.176,315.81V422.482c0,11.163,16.125,11.163,16.125,0V315.81C450.3,305.887,434.176,305.887,434.176,315.81Z" transform="translate(2.5 3.5)"/><path class="cls-6" d="M372.158,315.81V422.482c0,11.163,16.125,11.163,16.125,0V315.81C388.282,305.887,372.158,305.887,372.158,315.81Z" transform="translate(2.5 3.5)"/><path class="cls-6" d="M308.9,315.81V422.482c0,11.163,16.125,11.163,16.125,0V315.81C325.024,305.887,308.9,305.887,308.9,315.81Z" transform="translate(2.5 3.5)"/><path class="cls-6" d="M245.64,315.81V422.482c0,11.163,16.125,11.163,16.125,0V315.81C261.765,305.887,245.64,305.887,245.64,315.81Z" transform="translate(2.5 3.5)"/></g><g id="Layer_5" data-name="Layer 5"><rect class="cls-7" x="2.5" y="2.5" width="700" height="700"/></g><g id="text"><text class="cls-8" transform="translate(212.5 628.451)">Shopping</text></g></svg>