<svg width="1656" height="220" viewBox="0 0 1656 220" fill="none" xmlns="http://www.w3.org/2000/svg">
<g filter="url(#filter0_d)">
<path d="M0 0H414V55H0V0Z" transform="scale(4)" fill="#7F6AD4"/>
</g>
<path d="M0.5 0.5H413.5V54.5H0.5V0.5Z" transform="scale(4)" stroke="white"/>
<path d="M62.25 15.4688C62.25 14.0781 62.5156 12.7734 63.0469 11.5547C63.5781 10.3359 64.2969 9.27344 65.2031 8.36719C66.125 7.44531 67.1953 6.71875 68.4141 6.1875C69.6328 5.65625 70.9375 5.39062 72.3281 5.39062H87.75V12.1172H72.3281C71.8594 12.1172 71.4219 12.2031 71.0156 12.375C70.6094 12.5469 70.25 12.7891 69.9375 13.1016C69.6406 13.3984 69.4062 13.75 69.2344 14.1562C69.0625 14.5625 68.9766 15 68.9766 15.4688C68.9766 15.9375 69.0625 16.3828 69.2344 16.8047C69.4062 17.2109 69.6406 17.5703 69.9375 17.8828C70.25 18.1797 70.6094 18.4141 71.0156 18.5859C71.4219 18.7578 71.8594 18.8438 72.3281 18.8438H79.0547C80.4453 18.8438 81.75 19.1094 82.9688 19.6406C84.2031 20.1562 85.2734 20.875 86.1797 21.7969C87.1016 22.7031 87.8203 23.7734 88.3359 25.0078C88.8672 26.2266 89.1328 27.5312 89.1328 28.9219C89.1328 30.3125 88.8672 31.6172 88.3359 32.8359C87.8203 34.0547 87.1016 35.125 86.1797 36.0469C85.2734 36.9531 84.2031 37.6719 82.9688 38.2031C81.75 38.7344 80.4453 39 79.0547 39H64.125V32.2734H79.0547C79.5234 32.2734 79.9609 32.1875 80.3672 32.0156C80.7734 31.8438 81.125 31.6094 81.4219 31.3125C81.7344 31 81.9766 30.6406 82.1484 30.2344C82.3203 29.8281 82.4062 29.3906 82.4062 28.9219C82.4062 28.4531 82.3203 28.0156 82.1484 27.6094C81.9766 27.2031 81.7344 26.8516 81.4219 26.5547C81.125 26.2422 80.7734 26 80.3672 25.8281C79.9609 25.6562 79.5234 25.5703 79.0547 25.5703H72.3281C70.9375 25.5703 69.6328 25.3047 68.4141 24.7734C67.1953 24.2422 66.125 23.5234 65.2031 22.6172C64.2969 21.6953 63.5781 20.625 63.0469 19.4062C62.5156 18.1719 62.25 16.8594 62.25 15.4688ZM111.188 36.0703C110.672 36.5391 110.117 36.9844 109.523 37.4062C108.945 37.8125 108.336 38.1719 107.695 38.4844C107.055 38.7812 106.391 39.0156 105.703 39.1875C105.031 39.375 104.344 39.4688 103.641 39.4688C102.094 39.4688 100.641 39.1953 99.2812 38.6484C97.9219 38.1016 96.7266 37.3281 95.6953 36.3281C94.6797 35.3125 93.875 34.0859 93.2812 32.6484C92.7031 31.1953 92.4141 29.5703 92.4141 27.7734V13.8984H98.7891V27.7734C98.7891 28.6172 98.9141 29.375 99.1641 30.0469C99.4297 30.7031 99.7812 31.2578 100.219 31.7109C100.656 32.1641 101.164 32.5078 101.742 32.7422C102.336 32.9766 102.969 33.0938 103.641 33.0938C104.297 33.0938 104.914 32.9453 105.492 32.6484C106.086 32.3359 106.602 31.9297 107.039 31.4297C107.477 30.9297 107.82 30.3672 108.07 29.7422C108.32 29.1016 108.445 28.4453 108.445 27.7734V13.8984H114.844V39H113.297L111.188 36.0703ZM144.773 26.2266C144.773 28.1953 144.438 29.9922 143.766 31.6172C143.094 33.2422 142.18 34.6406 141.023 35.8125C139.867 36.9688 138.508 37.8672 136.945 38.5078C135.398 39.1484 133.734 39.4688 131.953 39.4688C130.188 39.4688 128.523 39.1406 126.961 38.4844C125.414 37.8281 124.055 36.9141 122.883 35.7422C121.727 34.5703 120.812 33.1797 120.141 31.5703C119.469 29.9453 119.133 28.1641 119.133 26.2266V3.91406H125.555V15.6328C125.898 15.1953 126.312 14.8047 126.797 14.4609C127.297 14.1172 127.828 13.8359 128.391 13.6172C128.969 13.3984 129.562 13.2344 130.172 13.125C130.781 13 131.375 12.9375 131.953 12.9375C133.734 12.9375 135.398 13.2734 136.945 13.9453C138.508 14.6016 139.867 15.5234 141.023 16.7109C142.18 17.8984 143.094 19.3047 143.766 20.9297C144.438 22.5391 144.773 24.3047 144.773 26.2266ZM138.328 26.2266C138.328 25.2578 138.156 24.3594 137.812 23.5312C137.484 22.6875 137.031 21.9609 136.453 21.3516C135.875 20.7422 135.195 20.2656 134.414 19.9219C133.648 19.5781 132.828 19.4062 131.953 19.4062C131.078 19.4062 130.25 19.6016 129.469 19.9922C128.703 20.3672 128.031 20.875 127.453 21.5156C126.875 22.1406 126.422 22.8672 126.094 23.6953C125.766 24.5078 125.602 25.3516 125.602 26.2266C125.602 27.1953 125.766 28.0938 126.094 28.9219C126.422 29.75 126.875 30.4688 127.453 31.0781C128.031 31.6875 128.703 32.1719 129.469 32.5312C130.25 32.875 131.078 33.0469 131.953 33.0469C132.828 33.0469 133.648 32.875 134.414 32.5312C135.195 32.1719 135.875 31.6875 136.453 31.0781C137.031 30.4688 137.484 29.75 137.812 28.9219C138.156 28.0938 138.328 27.1953 138.328 26.2266ZM180.258 39H173.883V23.0625C173.883 22.625 173.797 22.2109 173.625 21.8203C173.469 21.4297 173.242 21.0859 172.945 20.7891C172.648 20.4922 172.305 20.2656 171.914 20.1094C171.523 19.9375 171.109 19.8516 170.672 19.8516C170.234 19.8516 169.82 19.9375 169.43 20.1094C169.055 20.2656 168.719 20.4922 168.422 20.7891C168.141 21.0859 167.914 21.4297 167.742 21.8203C167.586 22.2109 167.508 22.625 167.508 23.0625V39H161.109V23.0625C161.109 22.625 161.023 22.2109 160.852 21.8203C160.695 21.4297 160.469 21.0859 160.172 20.7891C159.875 20.4922 159.531 20.2656 159.141 20.1094C158.75 19.9375 158.336 19.8516 157.898 19.8516C157.461 19.8516 157.047 19.9375 156.656 20.1094C156.281 20.2656 155.945 20.4922 155.648 20.7891C155.367 21.0859 155.141 21.4297 154.969 21.8203C154.812 22.2109 154.734 22.625 154.734 23.0625V39H148.336V13.8984H149.883L151.617 15.8203C152.508 15.0703 153.484 14.4922 154.547 14.0859C155.625 13.6641 156.742 13.4531 157.898 13.4531C159.07 13.4531 160.211 13.6719 161.32 14.1094C162.445 14.5469 163.43 15.3047 164.273 16.3828C164.664 15.8516 165.109 15.3984 165.609 15.0234C166.109 14.6484 166.633 14.3438 167.18 14.1094C167.742 13.875 168.32 13.7109 168.914 13.6172C169.508 13.5078 170.094 13.4531 170.672 13.4531C172 13.4531 173.242 13.7031 174.398 14.2031C175.57 14.7031 176.586 15.3906 177.445 16.2656C178.32 17.125 179.008 18.1406 179.508 19.3125C180.008 20.4844 180.258 21.7344 180.258 23.0625V39ZM192.492 7.07812C192.492 7.67187 192.375 8.22656 192.141 8.74219C191.922 9.25781 191.617 9.71094 191.227 10.1016C190.836 10.4766 190.375 10.7812 189.844 11.0156C189.328 11.2344 188.773 11.3438 188.18 11.3438C187.586 11.3438 187.023 11.2344 186.492 11.0156C185.977 10.7812 185.523 10.4766 185.133 10.1016C184.758 9.71094 184.453 9.25781 184.219 8.74219C184 8.22656 183.891 7.67187 183.891 7.07812C183.891 6.5 184 5.95312 184.219 5.4375C184.453 4.90625 184.758 4.45312 185.133 4.07812C185.523 3.6875 185.977 3.38281 186.492 3.16406C187.023 2.92969 187.586 2.8125 188.18 2.8125C188.773 2.8125 189.328 2.92969 189.844 3.16406C190.375 3.38281 190.836 3.6875 191.227 4.07812C191.617 4.45312 191.922 4.90625 192.141 5.4375C192.375 5.95312 192.492 6.5 192.492 7.07812ZM191.391 39H184.945V13.8984H191.391V39ZM208.875 39C207.328 39 205.875 38.7109 204.516 38.1328C203.156 37.5391 201.961 36.7344 200.93 35.7188C199.914 34.6875 199.109 33.4922 198.516 32.1328C197.938 30.7734 197.648 29.3203 197.648 27.7734V20.3203H194.531V13.9453H197.648V3.91406H204.023V13.9453H213.727V20.3203H204.023V27.7734C204.023 28.4453 204.148 29.0781 204.398 29.6719C204.648 30.25 204.992 30.7578 205.43 31.1953C205.867 31.6328 206.383 31.9844 206.977 32.25C207.57 32.5 208.203 32.625 208.875 32.625H213.727V39H208.875Z" transform="translate(276 25.6719) scale(4)" fill="white"/>
<defs>
<filter id="filter0_d" x="-16" y="0" width="1688" height="252" filterUnits="userSpaceOnUse" color-interpolation-filters="sRGB">
<feFlood flood-opacity="0" result="BackgroundImageFix"/>
<feColorMatrix in="SourceAlpha" type="matrix" values="0 0 0 0 0 0 0 0 0 0 0 0 0 0 0 0 0 0 255 0"/>
<feOffset dy="4"/>
<feGaussianBlur stdDeviation="2"/>
<feColorMatrix type="matrix" values="0 0 0 0 0 0 0 0 0 0 0 0 0 0 0 0 0 0 0.25 0"/>
<feBlend mode="normal" in2="BackgroundImageFix" result="effect1_dropShadow"/>
<feBlend mode="normal" in="SourceGraphic" in2="effect1_dropShadow" result="shape"/>
</filter>
</defs>
</svg>
