<svg width="1656" height="220" viewBox="0 0 1656 220" fill="none" xmlns="http://www.w3.org/2000/svg">
<g filter="url(#filter0_d)">
<path d="M0 0H414V55H0V0Z" transform="scale(4)" fill="#7F6AD4"/>
</g>
<path d="M0.5 0.5H413.5V54.5H0.5V0.5Z" transform="scale(4)" stroke="white"/>
<path d="M62.8828 39H56.1797V12.1172H46.0781V5.39062H72.9609V12.1172H62.8828V39ZM98.1797 39H96.6328L94.1484 35.5547C93.5391 36.1016 92.8906 36.6172 92.2031 37.1016C91.5312 37.5703 90.8203 37.9844 90.0703 38.3438C89.3203 38.6875 88.5469 38.9609 87.75 39.1641C86.9688 39.3672 86.1719 39.4688 85.3594 39.4688C83.5938 39.4688 81.9297 39.1719 80.3672 38.5781C78.8203 37.9844 77.4609 37.125 76.2891 36C75.1328 34.8594 74.2188 33.4688 73.5469 31.8281C72.875 30.1875 72.5391 28.3203 72.5391 26.2266C72.5391 24.2734 72.875 22.4844 73.5469 20.8594C74.2188 19.2188 75.1328 17.8125 76.2891 16.6406C77.4609 15.4688 78.8203 14.5625 80.3672 13.9219C81.9297 13.2656 83.5938 12.9375 85.3594 12.9375C86.1719 12.9375 86.9766 13.0391 87.7734 13.2422C88.5703 13.4453 89.3438 13.7266 90.0938 14.0859C90.8438 14.4453 91.5547 14.8672 92.2266 15.3516C92.9141 15.8359 93.5547 16.3594 94.1484 16.9219L96.6328 13.9453H98.1797V39ZM91.7344 26.2266C91.7344 25.3516 91.5625 24.5078 91.2188 23.6953C90.8906 22.8672 90.4375 22.1406 89.8594 21.5156C89.2812 20.875 88.6016 20.3672 87.8203 19.9922C87.0547 19.6016 86.2344 19.4062 85.3594 19.4062C84.4844 19.4062 83.6562 19.5547 82.875 19.8516C82.1094 20.1484 81.4375 20.5859 80.8594 21.1641C80.2969 21.7422 79.8516 22.4609 79.5234 23.3203C79.1953 24.1641 79.0312 25.1328 79.0312 26.2266C79.0312 27.3203 79.1953 28.2969 79.5234 29.1562C79.8516 30 80.2969 30.7109 80.8594 31.2891C81.4375 31.8672 82.1094 32.3047 82.875 32.6016C83.6562 32.8984 84.4844 33.0469 85.3594 33.0469C86.2344 33.0469 87.0547 32.8594 87.8203 32.4844C88.6016 32.0938 89.2812 31.5859 89.8594 30.9609C90.4375 30.3203 90.8906 29.5938 91.2188 28.7812C91.5625 27.9531 91.7344 27.1016 91.7344 26.2266ZM107.555 39H101.109V3.91406H107.555V26.0391L117.094 13.9453H124.453L116.133 24.3984L124.453 39H117.094L112.008 29.8828L107.555 35.7891V39ZM136.547 32.8594C136.797 32.9375 137.047 32.9922 137.297 33.0234C137.547 33.0391 137.797 33.0469 138.047 33.0469C138.672 33.0469 139.273 32.9609 139.852 32.7891C140.43 32.6172 140.969 32.375 141.469 32.0625C141.984 31.7344 142.438 31.3438 142.828 30.8906C143.234 30.4219 143.562 29.9062 143.812 29.3438L148.5 34.0547C147.906 34.8984 147.219 35.6562 146.438 36.3281C145.672 37 144.836 37.5703 143.93 38.0391C143.039 38.5078 142.094 38.8594 141.094 39.0938C140.109 39.3438 139.094 39.4688 138.047 39.4688C136.281 39.4688 134.617 39.1406 133.055 38.4844C131.508 37.8281 130.148 36.9141 128.977 35.7422C127.82 34.5703 126.906 33.1797 126.234 31.5703C125.562 29.9453 125.227 28.1641 125.227 26.2266C125.227 24.2422 125.562 22.4297 126.234 20.7891C126.906 19.1484 127.82 17.75 128.977 16.5938C130.148 15.4375 131.508 14.5391 133.055 13.8984C134.617 13.2578 136.281 12.9375 138.047 12.9375C139.094 12.9375 140.117 13.0625 141.117 13.3125C142.117 13.5625 143.062 13.9219 143.953 14.3906C144.859 14.8594 145.703 15.4375 146.484 16.125C147.266 16.7969 147.953 17.5547 148.547 18.3984L136.547 32.8594ZM139.828 19.6641C139.531 19.5547 139.234 19.4844 138.938 19.4531C138.656 19.4219 138.359 19.4062 138.047 19.4062C137.172 19.4062 136.344 19.5703 135.562 19.8984C134.797 20.2109 134.125 20.6641 133.547 21.2578C132.984 21.8516 132.539 22.5703 132.211 23.4141C131.883 24.2422 131.719 25.1797 131.719 26.2266C131.719 26.4609 131.727 26.7266 131.742 27.0234C131.773 27.3203 131.812 27.625 131.859 27.9375C131.922 28.2344 131.992 28.5234 132.07 28.8047C132.148 29.0859 132.25 29.3359 132.375 29.5547L139.828 19.6641ZM172.5 7.07812C172.5 7.67187 172.383 8.22656 172.148 8.74219C171.93 9.25781 171.625 9.71094 171.234 10.1016C170.859 10.4766 170.406 10.7812 169.875 11.0156C169.359 11.2344 168.812 11.3438 168.234 11.3438C167.625 11.3438 167.055 11.2344 166.523 11.0156C166.008 10.7812 165.555 10.4766 165.164 10.1016C164.773 9.71094 164.461 9.25781 164.227 8.74219C164.008 8.22656 163.898 7.67187 163.898 7.07812C163.898 6.5 164.008 5.95312 164.227 5.4375C164.461 4.90625 164.773 4.45312 165.164 4.07812C165.555 3.6875 166.008 3.38281 166.523 3.16406C167.055 2.92969 167.625 2.8125 168.234 2.8125C168.812 2.8125 169.359 2.92969 169.875 3.16406C170.406 3.38281 170.859 3.6875 171.234 4.07812C171.625 4.45312 171.93 4.90625 172.148 5.4375C172.383 5.95312 172.5 6.5 172.5 7.07812ZM155.32 48.5625V42.1172L158.859 42.1641C159.719 42.1641 160.516 41.9844 161.25 41.625C161.984 41.2812 162.617 40.8125 163.148 40.2188C163.695 39.6406 164.125 38.9688 164.438 38.2031C164.75 37.4375 164.906 36.6328 164.906 35.7891V13.8984H171.445V35.7891H171.398C171.383 36.9609 171.219 38.0938 170.906 39.1875C170.609 40.2812 170.18 41.2969 169.617 42.2344C169.055 43.1875 168.383 44.0469 167.602 44.8125C166.82 45.5938 165.953 46.2578 165 46.8047C164.062 47.3672 163.055 47.7969 161.977 48.0938C160.883 48.4062 159.75 48.5625 158.578 48.5625H155.32ZM200.555 26.2266C200.555 28.1016 200.219 29.8516 199.547 31.4766C198.875 33.0859 197.961 34.4844 196.805 35.6719C195.648 36.8438 194.289 37.7734 192.727 38.4609C191.18 39.1328 189.516 39.4688 187.734 39.4688C185.969 39.4688 184.305 39.1328 182.742 38.4609C181.195 37.7734 179.836 36.8438 178.664 35.6719C177.508 34.4844 176.594 33.0859 175.922 31.4766C175.25 29.8516 174.914 28.1016 174.914 26.2266C174.914 24.3203 175.25 22.5547 175.922 20.9297C176.594 19.3047 177.508 17.9062 178.664 16.7344C179.836 15.5469 181.195 14.6172 182.742 13.9453C184.305 13.2734 185.969 12.9375 187.734 12.9375C189.516 12.9375 191.18 13.2578 192.727 13.8984C194.289 14.5234 195.648 15.4219 196.805 16.5938C197.961 17.75 198.875 19.1484 199.547 20.7891C200.219 22.4141 200.555 24.2266 200.555 26.2266ZM194.109 26.2266C194.109 25.1953 193.938 24.2656 193.594 23.4375C193.266 22.5938 192.812 21.875 192.234 21.2812C191.656 20.6719 190.977 20.2109 190.195 19.8984C189.43 19.5703 188.609 19.4062 187.734 19.4062C186.859 19.4062 186.031 19.5703 185.25 19.8984C184.484 20.2109 183.812 20.6719 183.234 21.2812C182.672 21.875 182.227 22.5938 181.898 23.4375C181.57 24.2656 181.406 25.1953 181.406 26.2266C181.406 27.1953 181.57 28.0938 181.898 28.9219C182.227 29.75 182.672 30.4688 183.234 31.0781C183.812 31.6875 184.484 32.1719 185.25 32.5312C186.031 32.875 186.859 33.0469 187.734 33.0469C188.609 33.0469 189.43 32.8828 190.195 32.5547C190.977 32.2266 191.656 31.7656 192.234 31.1719C192.812 30.5781 193.266 29.8594 193.594 29.0156C193.938 28.1719 194.109 27.2422 194.109 26.2266ZM229.219 26.2266C229.219 28.1953 228.883 29.9922 228.211 31.6172C227.539 33.2422 226.625 34.6406 225.469 35.8125C224.312 36.9688 222.953 37.8672 221.391 38.5078C219.844 39.1484 218.18 39.4688 216.398 39.4688C214.633 39.4688 212.969 39.1406 211.406 38.4844C209.859 37.8281 208.5 36.9141 207.328 35.7422C206.172 34.5703 205.258 33.1797 204.586 31.5703C203.914 29.9453 203.578 28.1641 203.578 26.2266V3.91406H210V15.6328C210.344 15.1953 210.758 14.8047 211.242 14.4609C211.742 14.1172 212.273 13.8359 212.836 13.6172C213.414 13.3984 214.008 13.2344 214.617 13.125C215.227 13 215.82 12.9375 216.398 12.9375C218.18 12.9375 219.844 13.2734 221.391 13.9453C222.953 14.6016 224.312 15.5234 225.469 16.7109C226.625 17.8984 227.539 19.3047 228.211 20.9297C228.883 22.5391 229.219 24.3047 229.219 26.2266ZM222.773 26.2266C222.773 25.2578 222.602 24.3594 222.258 23.5312C221.93 22.6875 221.477 21.9609 220.898 21.3516C220.32 20.7422 219.641 20.2656 218.859 19.9219C218.094 19.5781 217.273 19.4062 216.398 19.4062C215.523 19.4062 214.695 19.6016 213.914 19.9922C213.148 20.3672 212.477 20.875 211.898 21.5156C211.32 22.1406 210.867 22.8672 210.539 23.6953C210.211 24.5078 210.047 25.3516 210.047 26.2266C210.047 27.1953 210.211 28.0938 210.539 28.9219C210.867 29.75 211.32 30.4688 211.898 31.0781C212.477 31.6875 213.148 32.1719 213.914 32.5312C214.695 32.875 215.523 33.0469 216.398 33.0469C217.273 33.0469 218.094 32.875 218.859 32.5312C219.641 32.1719 220.32 31.6875 220.898 31.0781C221.477 30.4688 221.93 29.75 222.258 28.9219C222.602 28.0938 222.773 27.1953 222.773 26.2266Z" transform="translate(276 25.6719) scale(4)" fill="white"/>
<defs>
<filter id="filter0_d" x="-16" y="0" width="1688" height="252" filterUnits="userSpaceOnUse" color-interpolation-filters="sRGB">
<feFlood flood-opacity="0" result="BackgroundImageFix"/>
<feColorMatrix in="SourceAlpha" type="matrix" values="0 0 0 0 0 0 0 0 0 0 0 0 0 0 0 0 0 0 255 0"/>
<feOffset dy="4"/>
<feGaussianBlur stdDeviation="2"/>
<feColorMatrix type="matrix" values="0 0 0 0 0 0 0 0 0 0 0 0 0 0 0 0 0 0 0.25 0"/>
<feBlend mode="normal" in2="BackgroundImageFix" result="effect1_dropShadow"/>
<feBlend mode="normal" in="SourceGraphic" in2="effect1_dropShadow" result="shape"/>
</filter>
</defs>
</svg>
