<svg width="96" height="96" viewBox="0 0 96 96" fill="none" xmlns="http://www.w3.org/2000/svg">
<path fill-rule="evenodd" clip-rule="evenodd" d="M9.71484 1.5C9.71484 0.671875 9.04297 0 8.21484 0C7.38672 0 6.71484 0.671875 6.71484 1.5L6.71094 6.5H1.5C0.671875 6.5 0 7.17188 0 8C0 8.36328 0.128906 8.69922 0.34375 8.95703C0.617188 9.28906 1.03125 9.5 1.49609 9.5H6.70703L6.70312 14.4961C6.70312 14.8359 6.81641 15.1523 7.00781 15.4062C7.28125 15.7656 7.71484 16 8.20312 16C9.03125 16 9.70312 15.3281 9.70312 14.5L9.70703 9.50391H14.4023C15.2305 9.50391 15.9023 8.83203 15.9023 8.00391C15.9062 7.17578 15.2344 6.50391 14.4062 6.50391H9.71094L9.71484 1.5Z" transform="translate(16.1875 16) scale(4)" fill="white"/>
<circle cx="12" cy="12" r="11" transform="scale(4)" stroke="white" stroke-width="2"/>
</svg>
