<svg width="109" height="46" viewBox="0 0 109 46" fill="none" xmlns="http://www.w3.org/2000/svg">
<rect x="1" y="1" width="107" height="44" rx="22" fill="white" fill-opacity="0.3" stroke="white" stroke-width="2"/>
<path d="M18.7071 0.707107C19.0976 0.316582 19.0976 -0.316582 18.7071 -0.707107L12.3431 -7.07107C11.9526 -7.46159 11.3195 -7.46159 10.9289 -7.07107C10.5384 -6.68054 10.5384 -6.04738 10.9289 -5.65685L16.5858 0L10.9289 5.65685C10.5384 6.04738 10.5384 6.68054 10.9289 7.07107C11.3195 7.46159 11.9526 7.46159 12.3431 7.07107L18.7071 0.707107ZM0 1H18V-1H0V1Z" transform="translate(35 23) rotate(180)" fill="white"/>
<path d="M13.2266 13.2207C13.2266 13.7422 13.127 14.2314 12.9277 14.6885C12.7285 15.1455 12.4561 15.5469 12.1104 15.8926C11.7705 16.2324 11.3721 16.502 10.915 16.7012C10.458 16.9004 9.96875 17 9.44727 17H3.14551V4.39648H9.44727C9.96875 4.39648 10.458 4.49609 10.915 4.69531C11.3721 4.89453 11.7705 5.16699 12.1104 5.5127C12.4561 5.85254 12.7285 6.25098 12.9277 6.70801C13.127 7.16504 13.2266 7.6543 13.2266 8.17578C13.2266 8.41016 13.1943 8.65039 13.1299 8.89648C13.0654 9.14258 12.9746 9.37988 12.8574 9.6084C12.7402 9.83691 12.5996 10.0449 12.4355 10.2324C12.2715 10.4199 12.0898 10.5752 11.8906 10.6982C12.0957 10.8096 12.2803 10.9619 12.4443 11.1553C12.6084 11.3428 12.749 11.5508 12.8662 11.7793C12.9834 12.0078 13.0713 12.248 13.1299 12.5C13.1943 12.7461 13.2266 12.9863 13.2266 13.2207ZM5.66797 14.4775H9.44727C9.62305 14.4775 9.78711 14.4453 9.93945 14.3809C10.0918 14.3164 10.2236 14.2285 10.335 14.1172C10.4521 14 10.543 13.8652 10.6074 13.7129C10.6719 13.5605 10.7041 13.3965 10.7041 13.2207C10.7041 13.0449 10.6719 12.8809 10.6074 12.7285C10.543 12.5762 10.4521 12.4443 10.335 12.333C10.2236 12.2158 10.0918 12.125 9.93945 12.0605C9.78711 11.9961 9.62305 11.9639 9.44727 11.9639H5.66797V14.4775ZM5.66797 9.44141H9.44727C9.62305 9.44141 9.78711 9.40918 9.93945 9.34473C10.0918 9.28027 10.2236 9.19238 10.335 9.08105C10.4521 8.96387 10.543 8.8291 10.6074 8.67676C10.6719 8.51855 10.7041 8.35156 10.7041 8.17578C10.7041 8 10.6719 7.83594 10.6074 7.68359C10.543 7.53125 10.4521 7.39941 10.335 7.28809C10.2236 7.1709 10.0918 7.08008 9.93945 7.01562C9.78711 6.95117 9.62305 6.91895 9.44727 6.91895H5.66797V9.44141ZM23.9932 17H23.4131L22.4814 15.708C22.2529 15.9131 22.0098 16.1064 21.752 16.2881C21.5 16.4639 21.2334 16.6191 20.9521 16.7539C20.6709 16.8828 20.3809 16.9854 20.082 17.0615C19.7891 17.1377 19.4902 17.1758 19.1855 17.1758C18.5234 17.1758 17.8994 17.0645 17.3135 16.8418C16.7334 16.6191 16.2236 16.2969 15.7842 15.875C15.3506 15.4473 15.0078 14.9258 14.7559 14.3105C14.5039 13.6953 14.3779 12.9951 14.3779 12.21C14.3779 11.4775 14.5039 10.8066 14.7559 10.1973C15.0078 9.58203 15.3506 9.05469 15.7842 8.61523C16.2236 8.17578 16.7334 7.83594 17.3135 7.5957C17.8994 7.34961 18.5234 7.22656 19.1855 7.22656C19.4902 7.22656 19.792 7.26465 20.0908 7.34082C20.3896 7.41699 20.6797 7.52246 20.9609 7.65723C21.2422 7.79199 21.5088 7.9502 21.7607 8.13184C22.0186 8.31348 22.2588 8.50977 22.4814 8.7207L23.4131 7.60449H23.9932V17ZM21.5762 12.21C21.5762 11.8818 21.5117 11.5654 21.3828 11.2607C21.2598 10.9502 21.0898 10.6777 20.873 10.4434C20.6562 10.2031 20.4014 10.0127 20.1084 9.87207C19.8213 9.72559 19.5137 9.65234 19.1855 9.65234C18.8574 9.65234 18.5469 9.70801 18.2539 9.81934C17.9668 9.93066 17.7148 10.0947 17.498 10.3115C17.2871 10.5283 17.1201 10.7979 16.9971 11.1201C16.874 11.4365 16.8125 11.7998 16.8125 12.21C16.8125 12.6201 16.874 12.9863 16.9971 13.3086C17.1201 13.625 17.2871 13.8916 17.498 14.1084C17.7148 14.3252 17.9668 14.4893 18.2539 14.6006C18.5469 14.7119 18.8574 14.7676 19.1855 14.7676C19.5137 14.7676 19.8213 14.6973 20.1084 14.5566C20.4014 14.4102 20.6562 14.2197 20.873 13.9854C21.0898 13.7451 21.2598 13.4727 21.3828 13.168C21.5117 12.8574 21.5762 12.5381 21.5762 12.21ZM34.0566 9.45898L32.2988 11.2256C32.2109 10.9795 32.0908 10.7598 31.9385 10.5664C31.7861 10.3672 31.6133 10.2002 31.4199 10.0654C31.2324 9.93066 31.0273 9.82812 30.8047 9.75781C30.582 9.6875 30.3535 9.65234 30.1191 9.65234C29.791 9.65234 29.4805 9.71973 29.1875 9.85449C28.9004 9.98926 28.6484 10.1797 28.4316 10.4258C28.2207 10.666 28.0537 10.9531 27.9307 11.2871C27.8076 11.6211 27.7461 11.9902 27.7461 12.3945C27.7461 12.7227 27.8076 13.0303 27.9307 13.3174C28.0537 13.6045 28.2207 13.8564 28.4316 14.0732C28.6484 14.29 28.9004 14.46 29.1875 14.583C29.4805 14.7061 29.791 14.7676 30.1191 14.7676C30.3535 14.7676 30.5791 14.7354 30.7959 14.6709C31.0127 14.6064 31.2148 14.5156 31.4023 14.3984C31.5957 14.2754 31.7656 14.1289 31.9121 13.959C32.0645 13.7832 32.1875 13.5898 32.2812 13.3789L34.0391 15.1455C33.8164 15.4619 33.5586 15.7461 33.2656 15.998C32.9785 16.25 32.665 16.4639 32.3252 16.6396C31.9912 16.8154 31.6367 16.9473 31.2617 17.0352C30.8926 17.1289 30.5117 17.1758 30.1191 17.1758C29.457 17.1758 28.833 17.0527 28.2471 16.8066C27.667 16.5547 27.1572 16.2119 26.7178 15.7783C26.2842 15.3447 25.9414 14.8379 25.6895 14.2578C25.4375 13.6777 25.3115 13.0566 25.3115 12.3945C25.3115 11.6738 25.4375 11 25.6895 10.373C25.9414 9.74609 26.2842 9.20117 26.7178 8.73828C27.1572 8.26953 27.667 7.90039 28.2471 7.63086C28.833 7.36133 29.457 7.22656 30.1191 7.22656C30.5117 7.22656 30.8955 7.27637 31.2705 7.37598C31.6514 7.47559 32.0117 7.62207 32.3516 7.81543C32.6973 8.00293 33.0137 8.23438 33.3008 8.50977C33.5938 8.78516 33.8457 9.10156 34.0566 9.45898ZM37.6514 17H35.2344V3.84277H37.6514V12.1396L41.2285 7.60449H43.9883L40.8682 11.5244L43.9883 17H41.2285L39.3213 13.5811L37.6514 15.7959V17Z" transform="translate(45 13)" fill="white"/>
</svg>
