<svg width="100" height="104" viewBox="0 0 100 104" fill="none" xmlns="http://www.w3.org/2000/svg">
<path fill-rule="evenodd" clip-rule="evenodd" d="M11.6996 0.28418C12.0902 -0.0947266 12.7074 -0.0947266 13.098 0.28418L24.4926 11.3896C25.1371 12.0146 24.6918 13.1045 23.7973 13.1045H21.3988V24.6045C21.3988 25.1553 20.9496 25.6045 20.3988 25.6045H14.3988V19.6045C14.3988 19.0537 13.9496 18.6045 13.3988 18.6045H11.3988C10.848 18.6045 10.3988 19.0537 10.3988 19.6045V25.6045H4.39883C3.84805 25.6045 3.39883 25.1553 3.39883 24.6045V13.1045H1.00039C0.105859 13.1045 -0.339454 12.0146 0.305077 11.3896L11.6996 0.28418Z" transform="scale(4)" fill="white"/>
</svg>
