<svg width="1280" height="204" viewBox="0 0 1280 204" fill="none" xmlns="http://www.w3.org/2000/svg">
<rect x="1" y="1" width="1278" height="202" rx="9" fill="white" fill-opacity="0.3" stroke="white" stroke-width="2"/>
<path d="M572.039 122.094C572.039 119.438 571.101 117.406 569.226 116C567.351 114.562 563.976 113.062 559.101 111.5C554.226 109.906 550.367 108.344 547.523 106.812C539.773 102.625 535.898 96.9844 535.898 89.8906C535.898 86.2031 536.929 82.9219 538.992 80.0469C541.086 77.1406 544.07 74.875 547.945 73.25C551.851 71.625 556.226 70.8125 561.07 70.8125C565.945 70.8125 570.289 71.7031 574.101 73.4844C577.914 75.2344 580.867 77.7188 582.961 80.9375C585.086 84.1562 586.148 87.8125 586.148 91.9062H572.086C572.086 88.7812 571.101 86.3594 569.132 84.6406C567.164 82.8906 564.398 82.0156 560.836 82.0156C557.398 82.0156 554.726 82.75 552.82 84.2188C550.914 85.6562 549.961 87.5625 549.961 89.9375C549.961 92.1562 551.07 94.0156 553.289 95.5156C555.539 97.0156 558.836 98.4219 563.179 99.7344C571.179 102.141 577.007 105.125 580.664 108.688C584.32 112.25 586.148 116.688 586.148 122C586.148 127.906 583.914 132.547 579.445 135.922C574.976 139.266 568.961 140.938 561.398 140.938C556.148 140.938 551.367 139.984 547.054 138.078C542.742 136.141 539.445 133.5 537.164 130.156C534.914 126.812 533.789 122.938 533.789 118.531H547.898C547.898 126.062 552.398 129.828 561.398 129.828C564.742 129.828 567.351 129.156 569.226 127.812C571.101 126.438 572.039 124.531 572.039 122.094ZM618.164 140.938C610.726 140.938 604.664 138.656 599.976 134.094C595.32 129.531 592.992 123.453 592.992 115.859V114.547C592.992 109.453 593.976 104.906 595.945 100.906C597.914 96.875 600.695 93.7812 604.289 91.625C607.914 89.4375 612.039 88.3438 616.664 88.3438C623.601 88.3438 629.054 90.5312 633.023 94.9062C637.023 99.2812 639.023 105.484 639.023 113.516V119.047H606.726C607.164 122.359 608.476 125.016 610.664 127.016C612.882 129.016 615.679 130.016 619.054 130.016C624.273 130.016 628.351 128.125 631.289 124.344L637.945 131.797C635.914 134.672 633.164 136.922 629.695 138.547C626.226 140.141 622.382 140.938 618.164 140.938ZM616.617 99.3125C613.929 99.3125 611.742 100.219 610.054 102.031C608.398 103.844 607.336 106.438 606.867 109.812H625.711V108.734C625.648 105.734 624.836 103.422 623.273 101.797C621.711 100.141 619.492 99.3125 616.617 99.3125ZM659.226 89.2812L659.648 95.1406C663.273 90.6094 668.132 88.3438 674.226 88.3438C679.601 88.3438 683.601 89.9219 686.226 93.0781C688.851 96.2344 690.195 100.953 690.257 107.234V140H676.711V107.562C676.711 104.688 676.086 102.609 674.836 101.328C673.586 100.016 671.507 99.3594 668.601 99.3594C664.789 99.3594 661.929 100.984 660.023 104.234V140H646.476V89.2812H659.226ZM698.461 114.266C698.461 106.359 700.226 100.062 703.757 95.375C707.32 90.6875 712.179 88.3438 718.336 88.3438C723.273 88.3438 727.351 90.1875 730.57 93.875V68H744.164V140H731.929L731.273 134.609C727.898 138.828 723.554 140.938 718.242 140.938C712.273 140.938 707.476 138.594 703.851 133.906C700.257 129.188 698.461 122.641 698.461 114.266ZM712.007 115.25C712.007 120 712.836 123.641 714.492 126.172C716.148 128.703 718.554 129.969 721.711 129.969C725.898 129.969 728.851 128.203 730.57 124.672V104.656C728.882 101.125 725.961 99.3594 721.804 99.3594C715.273 99.3594 712.007 104.656 712.007 115.25Z" fill="white"/>
</svg>
