<svg xmlns="http://www.w3.org/2000/svg" viewBox="0 0 700 700"><defs><style>.cls-1{fill:#fff;}.cls-1,.cls-10,.cls-2,.cls-3,.cls-4,.cls-5{stroke:#7f70df;stroke-miterlimit:10;}.cls-1,.cls-2,.cls-3,.cls-4{stroke-width:0.25px;}.cls-2,.cls-3,.cls-4,.cls-7,.cls-8,.cls-9{fill:#7f70df;}.cls-2{opacity:0.3;}.cls-3{opacity:0.35;}.cls-4{opacity:0.4;}.cls-10,.cls-5,.cls-6{fill:none;}.cls-5{stroke-width:3px;}.cls-7{opacity:0.3;}.cls-8{opacity:0.6;}.cls-10{stroke-width:5px;}</style></defs><title>Artboard 1</title><g id="BG"><path class="cls-1" d="M464.248,585.717a1.794,1.794,0,0,0-1.74,1,10.058,10.058,0,0,0-.51,3.955v15.68a13.132,13.132,0,0,0,.387,4.061,1.566,1.566,0,0,0,1.617.932,1.743,1.743,0,0,0,1.828-1.125,18.56,18.56,0,0,0,.422-5.1V590.674a13.5,13.5,0,0,0-.369-4.078A1.575,1.575,0,0,0,464.248,585.717Z"/><path class="cls-1" d="M296.061,585.717q-1.477,0-1.828.9a18.669,18.669,0,0,0-.352,4.834v3.41h4.148v-3.41a17.188,17.188,0,0,0-.387-4.676A1.529,1.529,0,0,0,296.061,585.717Z"/><path class="cls-1" d="M330.145,606.951a16.6,16.6,0,0,0-.545,4.852,14.133,14.133,0,0,0,.475,4.676,1.856,1.856,0,0,0,1.881,1.055,1.741,1.741,0,0,0,1.74-.826,13.359,13.359,0,0,0,.4-4.342v-9.6Q330.689,605.264,330.145,606.951Z"/><path class="cls-1" d="M368,408c0,4,2,16,2,16l15-19-3-7-34-68,2,61C366,397,368,408,368,408Z"/><path class="cls-1" d="M-.5-1.5v700h700V-1.5ZM237,99c4-1,7,5,7,5l11,21,7,15,47,95,20,39,9,16L334,92s-1-3-2-4,0-21,0-21h11l1,7-1,15,4,220,40,79,3,6,5,6h14l17-1,5,4,5-2,4,2-1,3,24,32c3,4,0,10,0,10l-37,22c-34,23-53,23-53,23-2-5-12-44-12-44v-2l-44,33-68-37-10-7c-2-8,13-20,13-20s12-10,20-15,18-17,18-17l13-8,37,12-1-77L258,149l-3-4-17-33S233,100,237,99Zm18.49,493.818h-14.8v-9.893q0-4.314-.475-5.385a2.04,2.04,0,0,0-2.092-1.07,2.187,2.187,0,0,0-2.32,1.3,19.774,19.774,0,0,0-.492,5.625v26.438a18.433,18.433,0,0,0,.492,5.414,2.106,2.106,0,0,0,2.215,1.266,2.081,2.081,0,0,0,2.162-1.269q.509-1.269.51-5.956v-7.154h14.8v2.218q0,8.837-1.248,12.534a12.807,12.807,0,0,1-5.52,6.479,18.9,18.9,0,0,1-10.529,2.781,21.811,21.811,0,0,1-10.723-2.355,11.453,11.453,0,0,1-5.59-6.521q-1.371-4.166-1.371-12.533V588.107a73.94,73.94,0,0,1,.422-9.229,12.919,12.919,0,0,1,2.514-5.924,14.009,14.009,0,0,1,5.8-4.482,23.737,23.737,0,0,1,19.318.894,12.128,12.128,0,0,1,5.59,6.3q1.336,3.773,1.336,11.743ZM275,624.951H260.377V568.033H275Zm37.266-22.5H293.881v10.09a11.2,11.2,0,0,0,.457,4.078,1.776,1.776,0,0,0,1.758.914,2.133,2.133,0,0,0,2.162-1.213,13.269,13.269,0,0,0,.545-4.693v-6.152h13.465v3.445a30.856,30.856,0,0,1-.545,6.645,13.531,13.531,0,0,1-2.549,4.957,12.411,12.411,0,0,1-5.08,3.955,19.666,19.666,0,0,1-7.717,1.318,22.41,22.41,0,0,1-7.945-1.3,12.716,12.716,0,0,1-5.361-3.568,12.89,12.89,0,0,1-2.654-4.992,32.23,32.23,0,0,1-.738-7.928V594.4a23.16,23.16,0,0,1,1.652-9.65,11.346,11.346,0,0,1,5.414-5.414,19.088,19.088,0,0,1,8.648-1.881,19.341,19.341,0,0,1,9.861,2.268,12.475,12.475,0,0,1,5.449,6.012q1.564,3.744,1.564,10.529Zm36.035,22.5H334.486v-4.157a8.664,8.664,0,0,1-8.262,5,12,12,0,0,1-6.838-2.092q-3.111-2.092-3.111-9.158v-3.832q0-5.238,1.652-7.137t8.191-4.43q7-2.742,7.488-3.691a9.81,9.81,0,0,0,.492-3.867,13.032,13.032,0,0,0-.545-4.764,1.871,1.871,0,0,0-1.811-1.107q-1.442,0-1.793.932a18.927,18.927,0,0,0-.352,4.834v4.887H316.275V593.24a22.069,22.069,0,0,1,1.248-8.35,11.579,11.579,0,0,1,5.01-5.186,18.854,18.854,0,0,1,9.773-2.25q7.206,0,10.863,2.549a9.933,9.933,0,0,1,4.395,6.258q.738,3.709.738,15.275Zm37.652,0h-14.2V592.643a30.052,30.052,0,0,0-.316-5.871q-.316-1.055-1.758-1.055a1.757,1.757,0,0,0-1.9,1.213,30.493,30.493,0,0,0-.387,6.486v31.535h-14.2V578.3h14.449l-.246,4.3a10.653,10.653,0,0,1,3.779-3.856,10.141,10.141,0,0,1,5.15-1.285,9.766,9.766,0,0,1,5.977,1.723,7.662,7.662,0,0,1,2.988,4.342,39.7,39.7,0,0,1,.668,8.736Zm19.512,0H390.842V578.3h14.625Zm0-49.5H390.842v-7.418h14.625Zm37.863,49.5h-14.2V592.643a30.052,30.052,0,0,0-.316-5.871q-.316-1.055-1.758-1.055a1.757,1.757,0,0,0-1.9,1.213,30.493,30.493,0,0,0-.387,6.486v31.535h-14.2V578.3h14.449l-.246,4.3a10.653,10.653,0,0,1,3.779-3.856,10.141,10.141,0,0,1,5.15-1.285,9.766,9.766,0,0,1,5.977,1.723,7.662,7.662,0,0,1,2.988,4.342,39.7,39.7,0,0,1,.668,8.736Zm37.16-10.723a79.405,79.405,0,0,1-.334,9.4,9.373,9.373,0,0,1-2.373,4.5,12.726,12.726,0,0,1-5.678,3.621A28.605,28.605,0,0,1,462.947,633q-6.785,0-10.9-2.3t-4.254-9.053h13.781q0,3.094,2.25,3.094a2.232,2.232,0,0,0,2.145-.95,9.6,9.6,0,0,0,.527-3.977v-3.52a13.5,13.5,0,0,1-3.85,2.5,10.874,10.874,0,0,1-4.236.846A11.737,11.737,0,0,1,452.1,618.1a7.913,7.913,0,0,1-3.393-4.061,21.843,21.843,0,0,1-.914-7.154V589.936q0-6.645,2.391-9.562t7.277-2.918a10.794,10.794,0,0,1,4.869,1.092,11.561,11.561,0,0,1,3.92,3.276l1.02-3.524H480.49Z"/></g><g id="Shading"><path class="cls-2" d="M323,477v-5l-74-41,15-8,32-17s5-4,14,0,47,21,47,21l-23,28s-10,12-10,15A35.483,35.483,0,0,1,323,477Z"/><path class="cls-3" d="M297,379s59,15,62,27c0,0,7,12-2,22l-23,26s-7,5-12,22l37-28v-5l4-2s-1-10,1-10,5-8,5-8,1-12-1-16a36.627,36.627,0,0,0-12-13c-5-3-33-12-33-12l-15-4Z"/><path class="cls-4" d="M241,436l-2-2s4-11,13-18,17-13,17-13,16-10,18-15,11-10,11-10l22,7s35,13.174,37,17.587,8.489,11.335,3.245,20.374S356,427,356,427l-48-22a23.942,23.942,0,0,0-15,2.75C285,412,259,427,253,428S241,436,241,436Z"/><path class="cls-4" d="M332,68s-2,19,0,20,11,1,11,1,4-17,1-21S332,68,332,68Z"/><path class="cls-4" d="M255,144s6-5,7-4-18-36-18-36l-6-5a5.568,5.568,0,0,0-2,6C237,109,255,144,255,144Z"/><path class="cls-2" d="M385,405s-20,21-21,28-1,8-1,8l32-18Z"/><path class="cls-2" d="M404,418l27-15s-4-5-9-5-25,4-27,2S404,418,404,418Z"/><path class="cls-4" d="M382,398l13,24-36,21,2,5,79-44-4-4-32,17-13-23A13.871,13.871,0,0,0,382,398Z"/></g><g id="Layer_8" data-name="Layer 8"><line class="cls-5" x1="334.337" y1="88.603" x2="342.466" y2="88.603"/><path class="cls-5" d="M338.687,386.9c-3.155-1.361-12.722-4.99-34.91-10.078a11.743,11.743,0,0,0-7.8.865,17.673,17.673,0,0,0-5.4,4.177s-4.377,10.63-21.26,21.26c0,0-11.88,6.253-24.386,20.009,0,0-5.628,6.253-6.253,13.756l77.287,42.937a2.667,2.667,0,0,0,2.882-.184c5.1-3.767,23.373-17.382,38.629-30.42.6-.513,2.507-2.329,2.507-2.329s-1.97-2.631-.625-3.752c1.163-.969,3.752-2.5,3.59-3.366a16.074,16.074,0,0,1,5.589-14.391c.674-.561.158-2.279.2-3.5V411.395a15.446,15.446,0,0,0-3.284-9.555c-3.537-4.5-10.567-10.581-23.971-13.987A18.6,18.6,0,0,1,338.687,386.9Z"/><path class="cls-5" d="M322.145,477.182c.939-11.6,10.942-21.538,10.942-21.538L358.1,426.881c10.63-17.508-3.752-26.887-6.253-28.763S306.2,379.984,306.2,379.984c-9.056-2.663-13.119,1.026-14.124,2.178-.262.3-.53.59-.816.867L288,386.2"/><path class="cls-5" d="M357.461,427.613l-47.51-21.992c-9.379-4.377-18.758,3.126-30.014,9.379-13.935,7.742-31.812,15.358-31.812,15.358a.351.351,0,0,0-.041.636l75.066,40.989"/><line class="cls-5" x1="239.05" y1="437.096" x2="248.048" y2="430.632"/><path class="cls-5" d="M254.926,144.878s1.876-5,8.129-4.377L245.547,106.11s-5.628-8.754-8.754-6.253.625,10.63.625,10.63Z"/><path class="cls-5" d="M389.362,393.115l-41.838-82.874L342.481,89.283a.665.665,0,0,1,.665-.681.67.67,0,0,0,.661-.564,68.883,68.883,0,0,0-.022-20.293.658.658,0,0,0-.457-.526,22.321,22.321,0,0,0-11.063.008.661.661,0,0,0-.49.552c-1.648,11.881-.68,17.3.068,19.5a1.968,1.968,0,0,0,1.869,1.321L338.4,292.161,261.807,140.45s-4.484-.194-6.308,3.368l83.3,166L340.579,387a.665.665,0,0,0,.482.624l7.414,2.118a.665.665,0,0,0,.848-.655l-1.394-61.077,34.554,68.858Z"/><path class="cls-5" d="M432.44,402.747,404.369,417.5l-12.744-22.693a2.508,2.508,0,0,0-2.83-1.2l-.67.178-5.64,3.077h0c-1.013.675,2.5,6.878,2.5,6.878A16.217,16.217,0,0,1,381.859,410l-15.182,17.518c-.495.571-4.827,5.618-4.2,12.5l-3.126,2.5s-1.876,4.377,2.5,5l78.16-43.77s-2.5-3.752-4.377-3.126l-3.752,2.5-1.625-1.625c-1.977-1.977-4.343-2.521-7.129-2.752a29.859,29.859,0,0,0-5,0,63.676,63.676,0,0,0-7.63.857,24.254,24.254,0,0,1-2.5.457c-3.288.141-11.382.434-12.375-.063l-1.251-.625"/><path class="cls-5" d="M360.245,441.8,394.99,422.5l-12.113-22.94a2.506,2.506,0,0,1,.814-3.247l.829-.56"/><line class="cls-5" x1="405.606" y1="416.851" x2="391.246" y2="424.582"/><path class="cls-5" d="M438,404.868c5.256,5.258,19.474,25.922,25.5,34.8a5.448,5.448,0,0,1-1.146,7.352c-14.017,10.982-39.234,24.878-39.234,24.878s-11.255,6.253-28.763,15.007-20.634,6.253-20.634,6.253c-15.632-41.269-11.88-45.02-11.88-45.02l.52-.917"/><path class="cls-5" d="M394.99,486.594s-3.752-4.689-5.628-15.319"/><path class="cls-5" d="M382.927,491.869s-2.944-4.962-2.944-9.964"/><path class="cls-5" d="M421.341,472.881a180.11,180.11,0,0,1-9.468-20.364"/><path class="cls-5" d="M408.483,479.709a15.4,15.4,0,0,1-2.239-6.558"/><path class="cls-5" d="M435.008,464.4a36.476,36.476,0,0,1-7.5-11.88"/><path class="cls-5" d="M452.516,453.142s-6.878-10.63-13.131-16.883"/><path class="cls-5" d="M445.012,458.144a93.708,93.708,0,0,0-6.253-10"/><path class="cls-5" d="M461.729,447.515s-7.337-10-9.838-11.88"/><line class="cls-5" x1="351.171" y1="334.467" x2="335.807" y2="303.85"/><line class="cls-5" x1="359.243" y1="333.454" x2="334.542" y2="284.526"/><path class="cls-5" d="M254.926,144.878s1.876-5,8.129-4.377L245.547,106.11s-5.628-8.754-8.754-6.253.625,10.63.625,10.63Z"/><path class="cls-5" d="M389.362,393.115l-41.838-82.874L342.481,89.283a.665.665,0,0,1,.665-.681.67.67,0,0,0,.661-.564,68.883,68.883,0,0,0-.022-20.293.658.658,0,0,0-.457-.526,22.321,22.321,0,0,0-11.063.008.661.661,0,0,0-.49.552c-1.648,11.881-.68,17.3.068,19.5a1.968,1.968,0,0,0,1.869,1.321L338.4,292.161,261.807,140.45s-4.484-.194-6.308,3.368l83.3,166L340.579,387a.665.665,0,0,0,.482.624l7.414,2.118a.665.665,0,0,0,.848-.655l-1.394-61.077,34.554,68.858Z"/><path class="cls-5" d="M432.44,402.747,404.369,417.5l-12.744-22.693a2.508,2.508,0,0,0-2.83-1.2l-.67.178-5.64,3.077h0c-1.013.675,2.5,6.878,2.5,6.878A16.217,16.217,0,0,1,381.859,410l-15.182,17.518c-.495.571-4.827,5.618-4.2,12.5l-3.126,2.5s-1.876,4.377,2.5,5l78.16-43.77s-2.5-3.752-4.377-3.126l-3.752,2.5-1.625-1.625c-1.977-1.977-4.343-2.521-7.129-2.752a29.859,29.859,0,0,0-5,0,63.676,63.676,0,0,0-7.63.857,24.254,24.254,0,0,1-2.5.457c-3.288.141-11.382.434-12.375-.063l-1.251-.625"/><path class="cls-5" d="M360.245,441.8,394.99,422.5l-12.113-22.94a2.506,2.506,0,0,1,.814-3.247l.829-.56"/><line class="cls-5" x1="405.606" y1="416.851" x2="391.246" y2="424.582"/><path class="cls-5" d="M438,404.868c5.256,5.258,19.474,25.922,25.5,34.8a5.448,5.448,0,0,1-1.146,7.352c-14.017,10.982-39.234,24.878-39.234,24.878s-11.255,6.253-28.763,15.007-20.634,6.253-20.634,6.253c-15.632-41.269-11.88-45.02-11.88-45.02l.52-.917"/><path class="cls-5" d="M394.99,486.594s-3.752-4.689-5.628-15.319"/><path class="cls-5" d="M382.927,491.869s-2.944-4.962-2.944-9.964"/><path class="cls-5" d="M421.341,472.881a180.11,180.11,0,0,1-9.468-20.364"/><path class="cls-5" d="M408.483,479.709a15.4,15.4,0,0,1-2.239-6.558"/><path class="cls-5" d="M435.008,464.4a36.476,36.476,0,0,1-7.5-11.88"/><path class="cls-5" d="M452.516,453.142s-6.878-10.63-13.131-16.883"/><path class="cls-5" d="M445.012,458.144a93.708,93.708,0,0,0-6.253-10"/><path class="cls-5" d="M461.729,447.515s-7.337-10-9.838-11.88"/><line class="cls-5" x1="351.171" y1="334.467" x2="335.807" y2="303.85"/></g><g id="Layer_12" data-name="Layer 12"><polygon class="cls-6" points="432.44 402.747 432.44 402.747 432.44 402.747 432.44 402.747"/><path class="cls-6" d="M368.728,421.878V411.394a15.446,15.446,0,0,0-3.284-9.555c-3.537-4.5-10.567-10.581-23.971-13.987a18.6,18.6,0,0,1-2.786-.957c-3.155-1.361-12.722-4.99-34.91-10.078a11.743,11.743,0,0,0-7.8.865,17.674,17.674,0,0,0-5.4,4.177s-4.377,10.63-21.26,21.26c0,0-11.88,6.253-24.386,20.009,0,0-5.628,6.253-6.253,13.756l77.287,42.937a2.667,2.667,0,0,0,2.882-.184c.8-.59,1.923-1.423,3.307-2.456,7.448-5.563,22.456-16.968,35.322-27.964.6-.513,2.507-2.329,2.507-2.329s-.067-.089-.166-.24a2.679,2.679,0,0,1-.839-1.786,1.861,1.861,0,0,1,.089-1.364,5.715,5.715,0,0,1,.291-.987l3.126-2.5a15.914,15.914,0,0,1,1.143-7.383,16.172,16.172,0,0,1,4.907-7.247l0,0C369.2,424.813,368.686,423.1,368.728,421.878Z"/><polygon class="cls-6" points="398.33 406.747 404.369 417.501 431.83 403.068 431.418 402.656 404.391 400.258 398.33 406.747"/><polygon class="cls-6" points="432.44 402.747 431.83 403.068 431.881 403.119 432.44 402.747"/><path class="cls-7" d="M653.5,100.5l-53-50c-21-11-36,7-36,7L347.065,290.105l.46,20.135,41.838,82.874-1.238.675.67-.178a2.508,2.508,0,0,1,2.83,1.2l4.058,7.227a4.6,4.6,0,0,1,1.54-.873,5.532,5.532,0,0,1,2.808-.85,5.029,5.029,0,0,1,3.212,1.174l1.147-1.229-.585-.052c-3.513.1-7.511.127-8.191-.213l-1.251-.625,9.441.838.652-.019L653.5,133.5C665.5,115.5,653.5,100.5,653.5,100.5Z"/><path class="cls-8" d="M363.618,432.628a18.671,18.671,0,0,1,3.058-5.113l1.849-2.133A16.172,16.172,0,0,0,363.618,432.628Z"/><path class="cls-7" d="M359.974,446.889s-1.906,1.816-2.507,2.329c-12.866,11-27.874,22.4-35.322,27.964-1.384,1.034-2.507,1.866-3.307,2.456a2.667,2.667,0,0,1-2.882.184l-77.287-42.937c.625-7.5,6.253-13.756,6.253-13.756,12.506-13.756,24.386-20.009,24.386-20.009,16.883-10.63,21.26-21.26,21.26-21.26a17.674,17.674,0,0,1,5.4-4.177,11.743,11.743,0,0,1,7.8-.865c22.188,5.088,31.755,8.717,34.91,10.078a18.6,18.6,0,0,0,2.786.957c13.4,3.406,20.434,9.489,23.971,13.987a15.446,15.446,0,0,1,3.284,9.555v10.484c-.042,1.221.471,2.935-.2,3.5L381.859,410a16.218,16.218,0,0,0,3.126-6.253s-3.514-6.2-2.5-6.878L347.93,328.008l1.394,61.077a.665.665,0,0,1-.848.655l-7.414-2.118a.665.665,0,0,1-.482-.625L338.8,309.821l-3.552-7.078L263.5,379.5l-99-137c-15-14-33-4-33-4L76,279c-15.5,15.5-5.5,33.5-5.5,33.5l157,214c34,28,59,0,59,0l74.091-79.34a2.906,2.906,0,0,1-.783-.511C359.907,446.8,359.974,446.889,359.974,446.889Z"/><path class="cls-8" d="M358.969,444.864a4.791,4.791,0,0,1,.089-1.364A1.861,1.861,0,0,0,358.969,444.864Z"/><polygon class="cls-9" points="432.44 402.747 432.44 402.747 431.418 402.656 431.83 403.068 432.44 402.747"/></g><g id="Border"><rect class="cls-10" y="-1" width="700" height="700"/></g></svg>