<?xml version="1.0" encoding="utf-8"?>
<!-- Generator: Adobe Illustrator 21.0.0, SVG Export Plug-In . SVG Version: 6.00 Build 0)  -->
<svg version="1.0" xmlns="http://www.w3.org/2000/svg" xmlns:xlink="http://www.w3.org/1999/xlink" x="0px" y="0px"
	 viewBox="0 0 700 700" style="enable-background:new 0 0 700 700;" xml:space="preserve">
<style type="text/css">
	.st0{opacity:0.1;fill:#7F70DF;}
	.st1{opacity:0.4;fill:#7F70DF;}
	.st2{opacity:0.8;fill:#7F70DF;}
	.st3{fill:none;}
	.st4{fill:#FFFFFF;}
	.st5{opacity:0.3;fill:#7F70DF;}
	.st6{fill:none;stroke:#7F70DF;stroke-width:5;stroke-miterlimit:10;}
	.st7{display:none;}
	.st8{display:inline;fill:none;stroke:#7F70DF;stroke-width:10;stroke-miterlimit:10;}
</style>
<g id="shading">
	<polygon class="st0" points="480,116 488,426 582,432 578,109 	"/>
	<path class="st1" d="M461.787,196.959L466,194l-4.975-5.557L460,177l-5.66,3.976L372,89l-250,43l12,303l33.754-16.507L151,452
		l321-30V311L461.787,196.959z M305,338h-40.549L240,226l79-9l58.659,33.52L380,271L305,338z"/>
	<polygon class="st2" points="277,229 364,236 361,301 314,348 258,326 241,238 	"/>
</g>
<g id="Layer_6">
</g>
<g id="Layer_5">
</g>
<g id="check">
	<g>
		<path class="st3" d="M428.266,580.178c-1.547-1.148-3.539-1.723-5.977-1.723c-1.945,0-3.662,0.429-5.15,1.285
			c-1.488,0.857-2.748,2.143-3.779,3.856l0.246-4.298h-14.449v46.652h14.203v-31.535c0-3.516,0.129-5.678,0.387-6.486
			s0.891-1.213,1.898-1.213c0.961,0,1.547,0.352,1.758,1.055s0.316,2.66,0.316,5.871v32.309h14.203v-32.695
			c0-4.078-0.223-6.99-0.668-8.736S429.813,581.326,428.266,580.178z"/>
		<rect x="379.434" y="569.033" class="st3" width="14.625" height="7.418"/>
		<path class="st3" d="M454.844,582.823c-1.148-1.456-2.455-2.548-3.92-3.276c-1.465-0.728-3.088-1.092-4.869-1.092
			c-3.258,0-5.684,0.973-7.277,2.918s-2.391,5.133-2.391,9.563v16.945c0,3.094,0.305,5.479,0.914,7.154s1.74,3.029,3.393,4.061
			s3.756,1.547,6.311,1.547c1.477,0,2.889-0.282,4.236-0.846s2.631-1.398,3.85-2.503v3.52c0,2.018-0.176,3.343-0.527,3.977
			s-1.066,0.95-2.145,0.95c-1.5,0-2.25-1.031-2.25-3.094h-13.781c0.094,4.5,1.512,7.518,4.254,9.053s6.375,2.303,10.898,2.303
			c3.68,0,6.732-0.416,9.158-1.248s4.318-2.039,5.678-3.621s2.15-3.082,2.373-4.5s0.334-4.553,0.334-9.404v-35.93h-13.219
			L454.844,582.823z M454.844,606.123c0,2.648-0.141,4.348-0.422,5.098s-0.891,1.125-1.828,1.125c-0.82,0-1.359-0.311-1.617-0.932
			s-0.387-1.975-0.387-4.061v-15.68c0-1.969,0.17-3.287,0.51-3.955s0.92-1.002,1.74-1.002c0.844,0,1.389,0.293,1.635,0.879
			s0.369,1.945,0.369,4.078V606.123z"/>
		<path class="st3" d="M497.247,128.484v0.961l3.492-3.736C498.729,125.896,497.247,128.484,497.247,128.484z"/>
		<path class="st3" d="M508.903,403.745c0,0,0.897,13.449,14.346,13.449c13.449,0,13.449-16.139,13.449-16.139l-6.142-135.901
			l-16.299,17.453L508.903,403.745z"/>
		<rect x="379.434" y="579.299" class="st3" width="14.625" height="46.652"/>
		<path class="st3" d="M259.586,570.366c-2.836-1.686-6.434-2.528-10.793-2.528c-3.211,0-6.053,0.545-8.525,1.635
			c-2.473,1.09-4.407,2.584-5.801,4.482c-1.395,1.898-2.232,3.873-2.514,5.924s-0.422,5.127-0.422,9.229v16.629
			c0,5.578,0.457,9.756,1.371,12.533s2.777,4.951,5.59,6.521s6.386,2.355,10.723,2.355c4.171,0,7.682-0.928,10.529-2.781
			c2.848-1.854,4.688-4.014,5.52-6.479c0.832-2.464,1.248-6.643,1.248-12.534v-2.218h-14.801v7.154c0,3.125-0.17,5.11-0.51,5.956
			c-0.34,0.846-1.061,1.269-2.162,1.269c-1.148,0-1.887-0.422-2.215-1.266c-0.329-0.844-0.492-2.648-0.492-5.414v-26.438
			c0-2.883,0.164-4.758,0.492-5.625c0.328-0.867,1.102-1.301,2.32-1.301c1.078,0,1.775,0.357,2.092,1.07s0.475,2.509,0.475,5.385
			v9.893h14.801v-5.407c0-5.313-0.445-9.228-1.336-11.743C264.285,574.152,262.421,572.051,259.586,570.366z"/>
		<polygon class="st3" points="375.602,579.299 363.666,579.299 359.236,592.927 359.219,569.033 345.016,569.033 345.016,625.951 
			359.219,625.951 359.236,605.618 363.666,625.951 377.324,625.951 369.836,597.879 		"/>
		<path class="st3" d="M300.297,583.588c-1.243-1.523-3.006-2.76-5.291-3.709s-5.022-1.424-8.209-1.424
			c-3.797,0-6.914,0.738-9.352,2.215c-2.438,1.477-4.125,3.434-5.063,5.871c-0.938,2.438-1.406,5.824-1.406,10.16v11.953
			c0,3.961,0.258,6.932,0.773,8.912c0.515,1.98,1.376,3.668,2.584,5.063c1.207,1.395,2.9,2.438,5.08,3.129s4.839,1.037,7.98,1.037
			c2.813,0,5.303-0.404,7.471-1.213c2.167-0.809,3.943-2.063,5.326-3.762c1.383-1.699,2.285-3.527,2.707-5.484
			s0.633-5.033,0.633-9.229v-11.426c0-3.305-0.229-5.766-0.686-7.383S301.539,585.111,300.297,583.588z M289.328,613.682
			c0,2.016-0.135,3.328-0.404,3.938c-0.27,0.609-0.826,0.914-1.67,0.914c-0.821,0-1.371-0.334-1.652-1.002s-0.422-2.104-0.422-4.307
			v-21.059c0-2.391,0.141-3.896,0.422-4.518s0.844-0.932,1.688-0.932s1.394,0.311,1.652,0.932c0.258,0.621,0.387,2.127,0.387,4.518
			V613.682z"/>
		<path class="st3" d="M337.105,583.588c-1.243-1.523-3.006-2.76-5.291-3.709s-5.022-1.424-8.209-1.424
			c-3.797,0-6.914,0.738-9.352,2.215c-2.438,1.477-4.125,3.434-5.063,5.871c-0.938,2.438-1.406,5.824-1.406,10.16v11.953
			c0,3.961,0.258,6.932,0.773,8.912c0.515,1.98,1.376,3.668,2.584,5.063c1.207,1.395,2.9,2.438,5.08,3.129s4.839,1.037,7.98,1.037
			c2.813,0,5.303-0.404,7.471-1.213c2.167-0.809,3.943-2.063,5.326-3.762c1.383-1.699,2.285-3.527,2.707-5.484
			s0.633-5.033,0.633-9.229v-11.426c0-3.305-0.229-5.766-0.686-7.383S338.348,585.111,337.105,583.588z M326.137,613.682
			c0,2.016-0.135,3.328-0.404,3.938c-0.27,0.609-0.826,0.914-1.67,0.914c-0.821,0-1.371-0.334-1.652-1.002s-0.422-2.104-0.422-4.307
			v-21.059c0-2.391,0.141-3.896,0.422-4.518s0.844-0.932,1.688-0.932s1.394,0.311,1.652,0.932c0.258,0.621,0.387,2.127,0.387,4.518
			V613.682z"/>
		<path class="st3" d="M218.233,316.858c3.881-20.248,15.073-40.396,15.073-40.396s4.718-14.153-2.359-25.947
			c-7.076-11.794-7.076-21.229-7.076-21.229s0-9.435,7.076-25.947c0,0,9.435-25.947,49.534-25.947s66.046,35.382,66.046,35.382
			s29.107,1.388,49.071,25.41l39.374-42.121C407.44,153.598,359.628,125.5,305.249,125.5c-70.516,0-129.993,47.243-148.52,111.803
			c2.608,1.159,5.232,2.828,7.771,5.197L218.233,316.858z"/>
		<path class="st3" d="M346.528,276.462c0-22.146-19.009-40.099-42.458-40.099s-42.458,17.953-42.458,40.099
			c0,22.146,19.009,40.099,42.458,40.099c9.986,0,19.159-3.264,26.409-8.713l9.901-10.591
			C344.281,291.194,346.528,284.076,346.528,276.462z M319.402,269.385c-4.56,0-8.256-3.696-8.256-8.256s3.696-8.256,8.256-8.256
			s8.256,3.696,8.256,8.256S323.961,269.385,319.402,269.385z"/>
		<path class="st4" d="M452.84,586.717c-0.82,0-1.4,0.334-1.74,1.002s-0.51,1.986-0.51,3.955v15.68c0,2.086,0.129,3.439,0.387,4.061
			s0.797,0.932,1.617,0.932c0.938,0,1.547-0.375,1.828-1.125s0.422-2.449,0.422-5.098v-14.449c0-2.133-0.123-3.492-0.369-4.078
			S453.684,586.717,452.84,586.717z"/>
		<path class="st4" d="M324.098,586.717c-0.844,0-1.406,0.311-1.688,0.932s-0.422,2.127-0.422,4.518v21.059
			c0,2.203,0.141,3.639,0.422,4.307s0.832,1.002,1.652,1.002c0.844,0,1.4-0.305,1.67-0.914c0.269-0.609,0.404-1.922,0.404-3.938
			v-21.516c0-2.391-0.129-3.896-0.387-4.518C325.492,587.027,324.941,586.717,324.098,586.717z"/>
		<path class="st4" d="M287.289,586.717c-0.844,0-1.406,0.311-1.688,0.932s-0.422,2.127-0.422,4.518v21.059
			c0,2.203,0.141,3.639,0.422,4.307s0.832,1.002,1.652,1.002c0.844,0,1.4-0.305,1.67-0.914c0.269-0.609,0.404-1.922,0.404-3.938
			v-21.516c0-2.391-0.129-3.896-0.387-4.518C288.683,587.027,288.133,586.717,287.289,586.717z"/>
		<path class="st4" d="M-0.5-1.5v700h700v-700H-0.5z M266.512,593.818h-14.801v-9.893c0-2.876-0.158-4.672-0.475-5.385
			s-1.014-1.07-2.092-1.07c-1.219,0-1.992,0.434-2.32,1.301c-0.329,0.867-0.492,2.742-0.492,5.625v26.438
			c0,2.766,0.164,4.57,0.492,5.414c0.328,0.844,1.066,1.266,2.215,1.266c1.102,0,1.822-0.423,2.162-1.269
			c0.339-0.846,0.51-2.831,0.51-5.956v-7.154h14.801v2.218c0,5.892-0.417,10.07-1.248,12.534c-0.832,2.465-2.672,4.624-5.52,6.479
			c-2.848,1.854-6.358,2.781-10.529,2.781c-4.336,0-7.91-0.785-10.723-2.355s-4.676-3.744-5.59-6.521s-1.371-6.955-1.371-12.533
			v-16.629c0-4.102,0.141-7.178,0.422-9.229s1.119-4.025,2.514-5.924c1.394-1.898,3.328-3.393,5.801-4.482
			c2.473-1.09,5.314-1.635,8.525-1.635c4.359,0,7.957,0.843,10.793,2.528c2.835,1.685,4.699,3.786,5.59,6.302
			c0.891,2.516,1.336,6.431,1.336,11.743V593.818z M303.531,607.107c0,4.195-0.211,7.271-0.633,9.229s-1.324,3.785-2.707,5.484
			c-1.383,1.699-3.159,2.953-5.326,3.762c-2.168,0.809-4.658,1.213-7.471,1.213c-3.141,0-5.801-0.346-7.98-1.037
			s-3.873-1.734-5.08-3.129c-1.208-1.395-2.069-3.082-2.584-5.063c-0.516-1.98-0.773-4.951-0.773-8.912v-11.953
			c0-4.336,0.469-7.723,1.406-10.16c0.937-2.438,2.625-4.395,5.063-5.871c2.438-1.477,5.555-2.215,9.352-2.215
			c3.187,0,5.924,0.475,8.209,1.424s4.048,2.186,5.291,3.709c1.242,1.523,2.092,3.094,2.549,4.711s0.686,4.078,0.686,7.383V607.107z
			 M340.34,607.107c0,4.195-0.211,7.271-0.633,9.229s-1.324,3.785-2.707,5.484c-1.383,1.699-3.159,2.953-5.326,3.762
			c-2.168,0.809-4.658,1.213-7.471,1.213c-3.141,0-5.801-0.346-7.98-1.037s-3.873-1.734-5.08-3.129
			c-1.208-1.395-2.069-3.082-2.584-5.063c-0.516-1.98-0.773-4.951-0.773-8.912v-11.953c0-4.336,0.469-7.723,1.406-10.16
			c0.937-2.438,2.625-4.395,5.063-5.871c2.438-1.477,5.555-2.215,9.352-2.215c3.187,0,5.924,0.475,8.209,1.424
			s4.048,2.186,5.291,3.709c1.242,1.523,2.092,3.094,2.549,4.711s0.686,4.078,0.686,7.383V607.107z M363.666,625.951l-4.43-20.333
			l-0.018,20.333h-14.203v-56.918h14.203l0.018,23.894l4.43-13.628h11.936l-5.766,18.58l7.488,28.072H363.666z M394.059,625.951
			h-14.625v-46.652h14.625V625.951z M394.059,576.451h-14.625v-7.418h14.625V576.451z M431.922,625.951h-14.203v-32.309
			c0-3.211-0.105-5.168-0.316-5.871s-0.797-1.055-1.758-1.055c-1.008,0-1.641,0.404-1.898,1.213s-0.387,2.971-0.387,6.486v31.535
			h-14.203v-46.652h14.449l-0.246,4.298c1.031-1.714,2.291-2.999,3.779-3.856c1.488-0.856,3.205-1.285,5.15-1.285
			c2.438,0,4.43,0.574,5.977,1.723s2.543,2.596,2.988,4.342s0.668,4.658,0.668,8.736V625.951z M469.082,615.229
			c0,4.852-0.111,7.986-0.334,9.404s-1.014,2.918-2.373,4.5s-3.252,2.789-5.678,3.621s-5.479,1.248-9.158,1.248
			c-4.523,0-8.156-0.768-10.898-2.303s-4.16-4.553-4.254-9.053h13.781c0,2.063,0.75,3.094,2.25,3.094
			c1.078,0,1.793-0.316,2.145-0.95s0.527-1.959,0.527-3.977v-3.52c-1.219,1.104-2.502,1.939-3.85,2.503s-2.76,0.846-4.236,0.846
			c-2.555,0-4.658-0.516-6.311-1.547s-2.783-2.385-3.393-4.061s-0.914-4.061-0.914-7.154v-16.945c0-4.43,0.797-7.617,2.391-9.563
			s4.02-2.918,7.277-2.918c1.781,0,3.404,0.364,4.869,1.092c1.465,0.729,2.771,1.82,3.92,3.276l1.02-3.524h13.219V615.229z
			 M653.5,133.5L530.556,265.154l6.142,135.901c0,0,0,16.139-13.449,16.139c-13.449,0-14.346-13.449-14.346-13.449l5.354-121.138
			L286.5,526.5c0,0-25,28-59,0l-157-214c0,0-10-18,5.5-33.5l55.5-40.5c0,0,12.424-6.889,25.229-1.197
			c18.526-64.56,78.004-111.803,148.52-111.803c54.379,0,102.191,28.098,129.724,70.564l62.274-66.619v-0.961
			c0,0,1.482-2.587,3.492-2.775L564.5,57.5c0,0,15-18,36-7l53,50C653.5,100.5,665.5,115.5,653.5,133.5z"/>
		<path class="st4" d="M346.528,212.775c0,0-25.947-35.382-66.046-35.382s-49.534,25.947-49.534,25.947
			c-7.076,16.511-7.076,25.947-7.076,25.947s0,9.435,7.076,21.229c7.076,11.794,2.359,25.947,2.359,25.947
			s-11.192,20.148-15.073,40.396L263.5,379.5l66.979-71.652c-7.25,5.449-16.424,8.713-26.409,8.713
			c-23.449,0-42.458-17.953-42.458-40.099c0-22.146,19.009-40.099,42.458-40.099s42.458,17.953,42.458,40.099
			c0,7.614-2.247,14.732-6.148,20.795l55.219-59.072C375.634,214.162,346.528,212.775,346.528,212.775z"/>
		<circle class="st4" cx="319.402" cy="261.13" r="8.256"/>
		<path class="st5" d="M340.379,297.257l-9.901,10.591C334.401,304.901,337.765,301.32,340.379,297.257z"/>
		<path class="st4" d="M600.5,50.5c-21-11-36,7-36,7l-63.761,68.209c1.118-0.104,2.399,0.531,3.681,2.775v63.66
			c0,0,0,2.69,3.586,2.69c3.586,0,4.483-2.69,4.483-2.69v-63.66c0,0,3.586-6.276,6.276,0v63.66c0,0,1.793,3.586,4.483,3.586
			c2.69,0,4.483-2.69,4.483-2.69v-64.556c0,0,3.586-6.276,6.276,0v64.556c0,0,1.793,3.586,4.483,2.69c0,0,3.586,0,3.586-3.586
			v-63.66c0,0,4.483-6.276,7.173,0v91.455c0,0-1.793,17.036-19.726,22.415l1.031,22.8L653.5,133.5c12-18,0-33,0-33L600.5,50.5z"/>
		<path class="st5" d="M600.5,50.5c-21-11-36,7-36,7l-63.761,68.209c1.118-0.104,2.399,0.531,3.681,2.775v63.66
			c0,0,0,2.69,3.586,2.69c3.586,0,4.483-2.69,4.483-2.69v-63.66c0,0,3.586-6.276,6.276,0v63.66c0,0,1.793,3.586,4.483,3.586
			c2.69,0,4.483-2.69,4.483-2.69v-64.556c0,0,3.586-6.276,6.276,0v64.556c0,0,1.793,3.586,4.483,2.69c0,0,3.586,0,3.586-3.586
			v-63.66c0,0,4.483-6.276,7.173,0v91.455c0,0-1.793,17.036-19.726,22.415l1.031,22.8L653.5,133.5c12-18,0-33,0-33L600.5,50.5z"/>
		<path class="st4" d="M497.247,218.146v-88.701l-62.274,66.619c15.67,24.168,24.776,52.987,24.776,83.936
			c0,85.328-69.172,154.5-154.5,154.5s-154.5-69.172-154.5-154.5c0-14.812,2.089-29.136,5.98-42.697
			c-12.806-5.692-25.229,1.197-25.229,1.197L76,279c-15.5,15.5-5.5,33.5-5.5,33.5l157,214c34,28,59,0,59,0l227.757-243.893
			l1.819-41.15C516.076,241.458,500.834,239.664,497.247,218.146z"/>
		<path class="st5" d="M497.247,218.146v-88.701l-62.274,66.619c15.67,24.168,24.776,52.987,24.776,83.936
			c0,85.328-69.172,154.5-154.5,154.5s-154.5-69.172-154.5-154.5c0-14.812,2.089-29.136,5.98-42.697
			c-12.806-5.692-25.229,1.197-25.229,1.197L76,279c-15.5,15.5-5.5,33.5-5.5,33.5l157,214c34,28,59,0,59,0l227.757-243.893
			l1.819-41.15C516.076,241.458,500.834,239.664,497.247,218.146z"/>
		<path class="st4" d="M330.479,307.848L263.5,379.5l-45.267-62.642c-1.753,9.145-2.015,18.311,0.921,25.65
			c9.435,23.588,30.664,37.74,47.176,40.099c16.511,2.359,44.817,7.076,66.046-7.076s25.947-33.023,33.023-44.817
			c7.076-11.794,9.435-9.435,9.435-9.435c21.229-9.435,33.023-21.229,35.382-30.664s0-23.588,0-23.588
			c-3.304-12.114-8.536-21.527-14.616-28.842l-55.219,59.072C337.765,301.32,334.401,304.901,330.479,307.848z"/>
	</g>
</g>
<g id="Border">
	<rect y="-1" class="st6" width="700" height="700"/>
</g>
<g id="guideLInes" class="st7">
	<rect x="63" y="56.25" class="st8" width="574" height="447.5"/>
	<rect x="23" y="555" class="st8" width="654" height="90"/>
</g>
<g id="Layer_7">
	<circle class="st6" cx="305.249" cy="280" r="154.5"/>
	<path class="st3" d="M230.948,203.34c0,0,9.435-25.947,49.534-25.947s66.046,35.382,66.046,35.382s49.534,2.359,63.687,54.252
		c0,0,2.359,14.153,0,23.588c-2.359,9.435-14.153,21.229-35.382,30.664c0,0-2.359-2.359-9.435,9.435s-11.794,30.664-33.023,44.817
		c-21.229,14.153-49.534,9.435-66.046,7.076c-16.511-2.359-37.74-16.511-47.176-40.099c-9.435-23.588,14.153-66.046,14.153-66.046
		s4.718-14.153-2.359-25.947c-7.076-11.794-7.076-21.229-7.076-21.229S223.871,219.851,230.948,203.34z"/>
	<ellipse class="st3" cx="304.07" cy="276.462" rx="42.458" ry="40.099"/>
	<circle class="st3" cx="319.402" cy="261.13" r="8.256"/>
	<path class="st6" d="M536.698,401.055c0,0,0,16.139-13.449,16.139c-13.449,0-14.346-13.449-14.346-13.449l7.173-162.288
		c0,0-15.242-1.793-18.829-23.312v-89.662c0,0,3.586-6.276,7.173,0v63.66c0,0,0,2.69,3.586,2.69c3.586,0,4.483-2.69,4.483-2.69
		v-63.66c0,0,3.586-6.276,6.276,0v63.66c0,0,1.793,3.586,4.483,3.586c2.69,0,4.483-2.69,4.483-2.69v-64.556c0,0,3.586-6.276,6.276,0
		v64.556c0,0,1.793,3.586,4.483,2.69c0,0,3.586,0,3.586-3.586v-63.66c0,0,4.483-6.276,7.173,0v91.455
		c0,0-1.793,17.036-19.726,22.415L536.698,401.055z"/>
</g>
</svg>
