<?xml version="1.0" encoding="utf-8"?>
<!-- Generator: Adobe Illustrator 21.0.0, SVG Export Plug-In . SVG Version: 6.00 Build 0)  -->
<svg version="1.0" xmlns="http://www.w3.org/2000/svg" xmlns:xlink="http://www.w3.org/1999/xlink" x="0px" y="0px"
	 viewBox="0 0 700 700" style="enable-background:new 0 0 700 700;" xml:space="preserve">
<style type="text/css">
	.st0{fill:none;}
	.st1{fill:#FFFFFF;}
	.st2{opacity:0.3;fill:#7F70DF;}
	.st3{fill:none;stroke:#7F70DF;stroke-width:6;stroke-miterlimit:10;}
	.st4{fill:none;stroke:#7F70DF;stroke-width:5;stroke-miterlimit:10;}
	.st5{opacity:0.4;fill:#7F70DF;}
	.st6{opacity:0.2;fill:#7F70DF;}
</style>
<g id="check">
	<g>
		<path class="st0" d="M434.349,374.485c0,0-1.384-1.182-2.896-3.207l-9.945,10.65C430.151,378.439,434.349,374.485,434.349,374.485
			z"/>
		<path class="st0" d="M453.251,354.119c0,0,2.096-5.159,3.818-10.272l-7.453,7.981
			C450.776,352.471,451.986,353.224,453.251,354.119z"/>
		<path class="st0" d="M94.77,385.269l12.885,21.518c0,0,14.093-12.9,25.035-4.821c0,0,10.957,6.078-1.186,25.992l21.921,11.157
			c0,0,1.363-3.88,4.217-7.835l-48.086-65.545C110.244,369.525,109.35,377.272,94.77,385.269z"/>
		<path class="st0" d="M361.449,273.346c-0.253,0.21,0.316,0.414,0.316,0.414c0.095,0.111,0.178,0.219,0.271,0.329l3.15-3.37
			C363.274,271.9,362.026,272.868,361.449,273.346z"/>
		<path class="st0" d="M493.191,598.998c0-4.383-0.434-7.77-1.301-10.16s-2.613-4.371-5.238-5.941s-5.789-2.355-9.492-2.355
			c-3.727,0-6.891,0.791-9.492,2.373s-4.301,3.381-5.098,5.396s-1.195,5.004-1.195,8.965v13.254c0,4.547,0.486,8.057,1.459,10.529
			s2.631,4.395,4.975,5.766s5.52,2.057,9.527,2.057c3.141,0,5.777-0.498,7.91-1.494s3.861-2.473,5.186-4.43s2.109-3.867,2.355-5.73
			s0.381-4.658,0.404-8.385h-12.656v5.555c0,2.414-0.17,4.055-0.51,4.922s-0.99,1.301-1.951,1.301c-0.82,0-1.441-0.416-1.863-1.248
			s-0.633-2.08-0.633-3.744v-22.008c0-2.039,0.141-3.352,0.422-3.938s0.832-0.879,1.652-0.879s1.383,0.334,1.688,1.002
			s0.457,1.939,0.457,3.814v5.379H493.191z"/>
		<path class="st0" d="M342.489,294.459c-0.365,0.491-0.727,1.066-1.084,1.701l1.373-1.469
			C342.588,294.543,342.489,294.459,342.489,294.459z"/>
		<path class="st0" d="M82.346,330.241l1.423,24.556l0.87,0.234c0,0,10.994-2.447,18.571,2.056l-19.693-26.843
			C83.128,330.243,82.749,330.248,82.346,330.241z"/>
		<path class="st0" d="M326.199,598.998c0-4.383-0.434-7.77-1.301-10.16c-0.867-2.391-2.614-4.371-5.238-5.941
			c-2.625-1.57-5.789-2.355-9.492-2.355c-3.727,0-6.891,0.791-9.492,2.373s-4.301,3.381-5.098,5.396
			c-0.797,2.016-1.195,5.004-1.195,8.965v13.254c0,4.547,0.486,8.057,1.459,10.529c0.972,2.473,2.631,4.395,4.975,5.766
			c2.343,1.371,5.52,2.057,9.527,2.057c3.141,0,5.777-0.498,7.91-1.494c2.132-0.996,3.861-2.473,5.186-4.43
			c1.324-1.957,2.109-3.867,2.355-5.73s0.381-4.658,0.404-8.385h-12.656v5.555c0,2.414-0.17,4.055-0.51,4.922
			c-0.34,0.867-0.99,1.301-1.951,1.301c-0.821,0-1.441-0.416-1.863-1.248s-0.633-2.08-0.633-3.744v-22.008
			c0-2.039,0.141-3.352,0.422-3.938s0.832-0.879,1.652-0.879c0.82,0,1.383,0.334,1.688,1.002c0.304,0.668,0.457,1.939,0.457,3.814
			v5.379H326.199z"/>
		<rect x="442.074" y="571.119" class="st0" width="14.625" height="7.418"/>
		<path class="st0" d="M283.15,582.809c-2.59-1.512-5.877-2.268-9.861-2.268c-3.258,0-6.141,0.627-8.648,1.881
			c-2.508,1.254-4.313,3.059-5.414,5.414c-1.102,2.355-1.652,5.572-1.652,9.65v13.605c0,3.469,0.246,6.111,0.738,7.928
			s1.376,3.48,2.654,4.992c1.277,1.512,3.064,2.701,5.361,3.568c2.297,0.867,4.945,1.301,7.945,1.301
			c3.094,0,5.666-0.439,7.717-1.318c2.051-0.879,3.744-2.197,5.08-3.955s2.185-3.41,2.549-4.957
			c0.363-1.547,0.545-3.762,0.545-6.645v-3.445h-13.465v6.152c0,2.32-0.182,3.885-0.545,4.693c-0.364,0.809-1.084,1.213-2.162,1.213
			c-0.867,0-1.454-0.305-1.758-0.914c-0.305-0.609-0.457-1.969-0.457-4.078v-10.09h18.387v-6.188c0-4.523-0.522-8.033-1.564-10.529
			C287.557,586.324,285.74,584.32,283.15,582.809z M275.926,597.943h-4.148v-3.41c0-2.625,0.117-4.236,0.352-4.834
			c0.234-0.598,0.844-0.896,1.828-0.896c0.796,0,1.324,0.352,1.582,1.055c0.258,0.703,0.387,2.262,0.387,4.676V597.943z"/>
		<path class="st0" d="M378.464,225.7c7.594-9.504,21.566-1.706,21.566-1.706c4.589-12.326,3.533-18.642,3.533-18.642
			s-14.377,1.138-18.337-10.234c0,0-1.239-12.143,16.732-13.566l0.36-0.224c0.43-7.198-4.755-18.066-4.755-18.066
			c-15.546,9.074-22.458-0.786-22.458-0.786c-4.322-11.372,9.497-19.437,9.497-19.437c-8.28-10.219-14.255-12.521-14.255-12.521
			s-6.331,12.958-18.137,10.586c0,0-11.086-5.108-3.172-21.306l-0.359-0.883c-6-4-18-5-18-5c0,18-12,19-12,19c-12-2-12-18-12-18
			c-13,2-18,6-18,6s8,12,0,21c0,0-10,7-20-8l-1.291-0.004c-6.423,3.279-13.162,13.258-13.162,13.258
			c15.702,8.8,10.708,19.757,10.708,19.757c-7.611,9.49-21.569,1.668-21.569,1.668c-4.611,12.318-3.566,18.636-3.566,18.636
			s14.379-1.112,18.319,10.266c0,0,1.218,12.146-16.756,13.536l-0.579,0.757c-0.406,7.2,4.816,18.05,4.816,18.05
			c15.515-9.126,22.461,0.711,22.461,0.711c4.36,11.357-9.432,19.469-9.432,19.469c8.315,10.192,14.297,12.473,14.297,12.473
			s6.288-12.979,18.101-10.646c0,0,11.103,5.071,3.244,21.295l1.157,2.001c6.076,3.884,18.093,4.652,18.093,4.652
			c-0.347-17.997,11.631-19.228,11.631-19.228c12.036,1.768,12.345,17.765,12.345,17.765c12.959-2.25,17.881-6.346,17.881-6.346
			s-8.23-11.844-0.405-20.996c0,0,9.863-7.192,20.151,7.613l0.946,0.117c0.23-0.118,0.461-0.247,0.692-0.381l12.196-13.047
			C373.553,236.544,378.464,225.7,378.464,225.7z M321.927,227.501c-16.983,0-30.75-13.696-30.75-30.591
			c0-16.895,13.767-30.591,30.75-30.591c16.983,0,30.75,13.696,30.75,30.591C352.677,213.805,338.91,227.501,321.927,227.501z"/>
		<path class="st0" d="M359.475,582.439c-1.746-1.266-3.861-1.898-6.346-1.898c-1.617,0-3.135,0.282-4.553,0.846
			c-1.418,0.564-2.736,1.41-3.955,2.538v-12.806h-14.203v56.918h14.203v-33.293c0-2.367,0.152-3.949,0.457-4.746
			s0.891-1.195,1.758-1.195c0.938,0,1.541,0.387,1.811,1.16s0.404,2.52,0.404,5.238v32.836h14.203v-32.168
			c0-4.383-0.193-7.4-0.58-9.053S361.221,583.705,359.475,582.439z"/>
		<path class="st0" d="M394.402,583.09c-2.438-1.699-6.059-2.549-10.863-2.549c-4.008,0-7.266,0.75-9.773,2.25
			s-4.178,3.229-5.01,5.186s-1.248,4.74-1.248,8.35v3.129h13.324v-4.887c0-2.602,0.117-4.213,0.352-4.834s0.832-0.932,1.793-0.932
			c0.844,0,1.447,0.369,1.811,1.107s0.545,2.326,0.545,4.764c0,1.945-0.164,3.234-0.492,3.867s-2.824,1.863-7.488,3.691
			c-4.359,1.688-7.09,3.164-8.191,4.43s-1.652,3.645-1.652,7.137v3.832c0,4.711,1.037,7.764,3.111,9.158s4.354,2.092,6.838,2.092
			c1.898,0,3.533-0.417,4.904-1.25c1.371-0.834,2.49-2.084,3.357-3.751v4.157h13.816v-23.414c0-7.711-0.246-12.803-0.738-15.275
			S396.84,584.789,394.402,583.09z M385.332,615.451c0,2.344-0.135,3.791-0.404,4.342s-0.85,0.826-1.74,0.826
			c-0.938,0-1.564-0.352-1.881-1.055s-0.475-2.262-0.475-4.676c0-2.109,0.182-3.727,0.545-4.852s1.682-2.52,3.955-4.184V615.451z"/>
		<rect x="442.074" y="581.385" class="st0" width="14.625" height="46.652"/>
		<path class="st0" d="M433.531,582.264c-1.547-1.148-3.539-1.723-5.977-1.723c-1.945,0-3.662,0.429-5.15,1.285
			c-1.488,0.857-2.748,2.143-3.779,3.856l0.246-4.298h-14.449v46.652h14.203v-31.535c0-3.516,0.129-5.678,0.387-6.486
			s0.891-1.213,1.898-1.213c0.961,0,1.547,0.352,1.758,1.055s0.316,2.66,0.316,5.871v32.309h14.203v-32.695
			c0-4.078-0.223-6.99-0.668-8.736S435.078,583.412,433.531,582.264z"/>
		<path class="st0" d="M229.818,597.697l-2.102-14.478c-0.604-4.646-1.189-8.679-1.757-12.101h-19.151v56.918h12.938l0.018-37.547
			l5.432,37.547h9.176l5.15-38.426l0.018,38.426h12.938v-56.918H233.22L229.818,597.697z"/>
		<path class="st0" d="M240.177,337.91c0,2.832-0.261,5.602-0.734,8.3L263.5,379.5l15.19-16.249
			c-1.03-2.143-1.562-4.593-1.248-7.378c0,0-0.182-11.118,19.302-11.936l3.599-3.85l-1.096-20.746c0,0-18.891,4.32-24.258-8.178
			c0,0-6.389-10.779,14.147-21.837l-12.719-21.617c0,0-14.192,12.79-25.072,4.628c0,0-10.91-6.163,1.387-25.982l-21.834-11.326
			l-0.646,0.628c0,0-5.951,18.155-19.449,16.484c0,0-12.53,0.079-11.72-23.23l-25.081,0.078c0,0,2.825,13.638-4.157,20.908
			l29.303,40.55C222.37,293.914,240.177,313.842,240.177,337.91z"/>
		<path class="st0" d="M564.194,258.369c5.193,16.077-3.699,33.341-19.859,38.561c-12.688,4.098-26.082-0.45-33.767-10.373
			l-28.066,30.054c7.287-3.178,12.425,0.521,12.425,0.521c7.814,9.324-2.592,21.477-2.592,21.477
			c11.175,6.936,17.575,7.15,17.575,7.15s1.728-14.318,13.659-15.951c0,0,12.149,1.187,9.989,19.085l1.744,1.517
			c7.008,1.698,18.623-1.481,18.623-1.481c-6.177-16.907,4.751-21.964,4.751-21.964c11.958-2.239,17.448,12.789,17.448,12.789
			c11.524-6.34,14.848-11.813,14.848-11.813s-11.632-8.526-7.206-19.725c0,0,6.991-10.007,21.531,0.651l0.932-0.197
			c4.999-5.197,8.109-16.83,8.109-16.83c-17.715-3.188-16.575-15.175-16.575-15.175c4.094-11.456,19.841-8.623,19.841-8.623
			c0.334-13.149-2.717-18.778-2.717-18.778s-13.227,5.748-20.668-3.719c0,0-5.118-11.082,11.415-18.267l0.268-0.329
			c-1.933-6.947-10.369-15.54-10.369-15.54c-10.426,12.094-19.264,7.892-21.127,6.789l-22.482,24.074
			C557.536,245.959,561.975,251.496,564.194,258.369z"/>
		<path class="st1" d="M199.148,290.447l40.296,55.763c0.473-2.698,0.734-5.468,0.734-8.3
			C240.177,313.842,222.37,293.914,199.148,290.447z"/>
		<ellipse class="st1" cx="321.927" cy="196.91" rx="30.75" ry="30.591"/>
		<path class="st1" d="M544.335,296.93c16.161-5.22,25.052-22.484,19.859-38.561c-2.22-6.873-6.659-12.41-12.271-16.096
			l-41.355,44.285C518.253,296.481,531.647,301.028,544.335,296.93z"/>
		<path class="st1" d="M381.377,610.037c-0.363,1.125-0.545,2.742-0.545,4.852c0,2.414,0.158,3.973,0.475,4.676
			s0.943,1.055,1.881,1.055c0.891,0,1.471-0.275,1.74-0.826s0.404-1.998,0.404-4.342v-9.598
			C383.059,607.518,381.74,608.912,381.377,610.037z"/>
		<path class="st1" d="M273.957,588.803c-0.984,0-1.594,0.299-1.828,0.896c-0.234,0.598-0.352,2.209-0.352,4.834v3.41h4.148v-3.41
			c0-2.414-0.129-3.973-0.387-4.676C275.281,589.154,274.753,588.803,273.957,588.803z"/>
		<path class="st1" d="M-0.5-1.5v700h700v-700H-0.5z M252.477,628.037h-12.938l-0.018-38.426l-5.15,38.426h-9.176l-5.432-37.547
			l-0.018,37.547h-12.938v-56.918h19.151c0.568,3.422,1.153,7.455,1.757,12.101l2.102,14.478l3.401-26.578h19.257V628.037z
			 M290.164,605.537h-18.387v10.09c0,2.109,0.152,3.469,0.457,4.078c0.304,0.609,0.891,0.914,1.758,0.914
			c1.078,0,1.798-0.404,2.162-1.213c0.363-0.809,0.545-2.373,0.545-4.693v-6.152h13.465v3.445c0,2.883-0.182,5.098-0.545,6.645
			c-0.364,1.547-1.213,3.199-2.549,4.957s-3.029,3.076-5.08,3.955c-2.051,0.879-4.623,1.318-7.717,1.318
			c-3,0-5.648-0.434-7.945-1.301c-2.297-0.867-4.084-2.057-5.361-3.568c-1.278-1.512-2.162-3.176-2.654-4.992
			s-0.738-4.459-0.738-7.928v-13.605c0-4.078,0.55-7.295,1.652-9.65c1.102-2.355,2.906-4.16,5.414-5.414
			c2.508-1.254,5.391-1.881,8.648-1.881c3.984,0,7.271,0.756,9.861,2.268c2.589,1.512,4.406,3.516,5.449,6.012
			c1.042,2.496,1.564,6.006,1.564,10.529V605.537z M312.348,589.805c-0.305-0.668-0.867-1.002-1.688-1.002
			c-0.821,0-1.371,0.293-1.652,0.879s-0.422,1.898-0.422,3.938v22.008c0,1.664,0.211,2.912,0.633,3.744s1.042,1.248,1.863,1.248
			c0.961,0,1.611-0.434,1.951-1.301c0.339-0.867,0.51-2.508,0.51-4.922v-5.555h12.656c-0.023,3.727-0.158,6.521-0.404,8.385
			s-1.032,3.773-2.355,5.73c-1.324,1.957-3.053,3.434-5.186,4.43c-2.133,0.996-4.77,1.494-7.91,1.494
			c-4.008,0-7.184-0.686-9.527-2.057c-2.344-1.371-4.002-3.293-4.975-5.766c-0.973-2.473-1.459-5.982-1.459-10.529v-13.254
			c0-3.961,0.398-6.949,1.195-8.965c0.796-2.016,2.496-3.814,5.098-5.396s5.766-2.373,9.492-2.373c3.703,0,6.867,0.785,9.492,2.355
			c2.625,1.57,4.371,3.551,5.238,5.941c0.867,2.391,1.301,5.777,1.301,10.16h-13.395v-5.379
			C312.805,591.744,312.652,590.473,312.348,589.805z M363.254,628.037h-14.203v-32.836c0-2.719-0.135-4.465-0.404-5.238
			s-0.873-1.16-1.811-1.16c-0.867,0-1.453,0.398-1.758,1.195s-0.457,2.379-0.457,4.746v33.293h-14.203v-56.918h14.203v12.806
			c1.219-1.128,2.537-1.974,3.955-2.538c1.418-0.563,2.936-0.846,4.553-0.846c2.484,0,4.6,0.633,6.346,1.898
			s2.813,2.725,3.199,4.377s0.58,4.67,0.58,9.053V628.037z M399.535,628.037h-13.816v-4.157c-0.867,1.667-1.986,2.917-3.357,3.751
			c-1.371,0.833-3.006,1.25-4.904,1.25c-2.484,0-4.764-0.697-6.838-2.092s-3.111-4.447-3.111-9.158v-3.832
			c0-3.492,0.551-5.871,1.652-7.137s3.832-2.742,8.191-4.43c4.664-1.828,7.16-3.059,7.488-3.691s0.492-1.922,0.492-3.867
			c0-2.438-0.182-4.025-0.545-4.764s-0.967-1.107-1.811-1.107c-0.961,0-1.559,0.311-1.793,0.932s-0.352,2.232-0.352,4.834v4.887
			h-13.324v-3.129c0-3.609,0.416-6.393,1.248-8.35s2.502-3.686,5.01-5.186s5.766-2.25,9.773-2.25c4.805,0,8.426,0.85,10.863,2.549
			s3.902,3.785,4.395,6.258s0.738,7.564,0.738,15.275V628.037z M437.188,628.037h-14.203v-32.309c0-3.211-0.105-5.168-0.316-5.871
			s-0.797-1.055-1.758-1.055c-1.008,0-1.641,0.404-1.898,1.213s-0.387,2.971-0.387,6.486v31.535h-14.203v-46.652h14.449
			l-0.246,4.298c1.031-1.714,2.291-2.999,3.779-3.856c1.488-0.856,3.205-1.285,5.15-1.285c2.438,0,4.43,0.574,5.977,1.723
			s2.543,2.596,2.988,4.342s0.668,4.658,0.668,8.736V628.037z M456.699,628.037h-14.625v-46.652h14.625V628.037z M456.699,578.537
			h-14.625v-7.418h14.625V578.537z M479.34,589.805c-0.305-0.668-0.867-1.002-1.688-1.002s-1.371,0.293-1.652,0.879
			s-0.422,1.898-0.422,3.938v22.008c0,1.664,0.211,2.912,0.633,3.744s1.043,1.248,1.863,1.248c0.961,0,1.611-0.434,1.951-1.301
			s0.51-2.508,0.51-4.922v-5.555h12.656c-0.023,3.727-0.158,6.521-0.404,8.385s-1.031,3.773-2.355,5.73s-3.053,3.434-5.186,4.43
			s-4.77,1.494-7.91,1.494c-4.008,0-7.184-0.686-9.527-2.057s-4.002-3.293-4.975-5.766s-1.459-5.982-1.459-10.529v-13.254
			c0-3.961,0.398-6.949,1.195-8.965s2.496-3.814,5.098-5.396s5.766-2.373,9.492-2.373c3.703,0,6.867,0.785,9.492,2.355
			s4.371,3.551,5.238,5.941s1.301,5.777,1.301,10.16h-13.395v-5.379C479.797,591.744,479.645,590.473,479.34,589.805z M653.5,133.5
			l-79.095,84.698c1.864,1.103,10.701,5.306,21.127-6.789c0,0,8.436,8.593,10.369,15.54l-0.268,0.329
			c-16.534,7.185-11.415,18.267-11.415,18.267c7.441,9.467,20.668,3.719,20.668,3.719s3.051,5.629,2.717,18.778
			c0,0-15.747-2.834-19.841,8.623c0,0-1.141,11.987,16.575,15.175c0,0-3.109,11.633-8.109,16.83l-0.932,0.197
			c-14.54-10.657-21.531-0.651-21.531-0.651c-4.426,11.199,7.206,19.725,7.206,19.725s-3.324,5.473-14.848,11.813
			c0,0-5.491-15.028-17.448-12.789c0,0-10.928,5.057-4.751,21.964c0,0-11.615,3.179-18.623,1.481l-1.744-1.517
			c2.16-17.898-9.989-19.085-9.989-19.085c-11.93,1.633-13.659,15.951-13.659,15.951s-6.4-0.214-17.575-7.15
			c0,0,10.406-12.153,2.592-21.477c0,0-5.138-3.699-12.425-0.521l-25.433,27.235c-1.722,5.113-3.818,10.272-3.818,10.272
			c-1.265-0.895-2.475-1.647-3.635-2.291l-18.164,19.45c1.512,2.026,2.896,3.207,2.896,3.207s-4.197,3.954-12.841,7.443L286.5,526.5
			c0,0-25,28-59,0l-69.857-95.22c-2.855,3.954-4.217,7.835-4.217,7.835l-21.921-11.157c12.143-19.914,1.186-25.992,1.186-25.992
			c-10.943-8.078-25.035,4.821-25.035,4.821L94.77,385.269c14.58-7.997,15.474-15.743,14.786-19.533l-6.346-8.65
			c-7.578-4.503-18.571-2.056-18.571-2.056l-0.87-0.234l-1.423-24.556c0.403,0.008,0.782,0.002,1.171,0.002L70.5,312.5
			c0,0-10-18,5.5-33.5l55.5-40.5c0,0,18-10,33,4l5.345,7.397c6.982-7.27,4.157-20.908,4.157-20.908l25.081-0.078
			c-0.81,23.31,11.72,23.23,11.72,23.23c13.499,1.67,19.449-16.484,19.449-16.484l0.646-0.628l21.834,11.326
			c-12.296,19.819-1.387,25.982-1.387,25.982c10.88,8.163,25.072-4.628,25.072-4.628l12.719,21.617
			c-20.536,11.058-14.147,21.837-14.147,21.837c5.367,12.498,24.258,8.178,24.258,8.178l1.096,20.746l41.062-43.927
			c0.357-0.635,0.719-1.21,1.084-1.701c0,0,0.1,0.084,0.29,0.232l19.258-20.601c-0.093-0.11-0.175-0.218-0.271-0.329
			c0,0-0.569-0.205-0.316-0.414c0.577-0.478,1.826-1.446,3.737-2.626l11.574-12.382c-0.231,0.135-0.461,0.263-0.692,0.381
			l-0.946-0.117c-10.287-14.804-20.151-7.613-20.151-7.613c-7.825,9.153,0.405,20.996,0.405,20.996s-4.922,4.096-17.881,6.346
			c0,0-0.308-15.997-12.345-17.765c0,0-11.978,1.231-11.631,19.228c0,0-12.017-0.768-18.093-4.652l-1.157-2.001
			c7.86-16.224-3.244-21.295-3.244-21.295c-11.813-2.333-18.101,10.646-18.101,10.646s-5.983-2.282-14.297-12.473
			c0,0,13.791-8.112,9.432-19.469c0,0-6.946-9.837-22.461-0.711c0,0-5.222-10.851-4.816-18.05l0.579-0.757
			c17.974-1.39,16.756-13.536,16.756-13.536c-3.94-11.379-18.319-10.266-18.319-10.266s-1.045-6.317,3.566-18.636
			c0,0,13.958,7.822,21.569-1.668c0,0,4.994-10.957-10.708-19.757c0,0,6.739-9.979,13.162-13.258l1.291,0.004c10,15,20,8,20,8
			c8-9,0-21,0-21s5-4,18-6c0,0,0,16,12,18c0,0,12-1,12-19c0,0,12,1,18,5l0.359,0.883c-7.914,16.198,3.172,21.306,3.172,21.306
			c11.806,2.372,18.137-10.586,18.137-10.586s5.975,2.302,14.255,12.521c0,0-13.818,8.065-9.497,19.437c0,0,6.913,9.86,22.458,0.786
			c0,0,5.185,10.868,4.755,18.066l-0.36,0.224c-17.972,1.422-16.732,13.566-16.732,13.566c3.96,11.372,18.337,10.234,18.337,10.234
			s1.056,6.315-3.533,18.642c0,0-13.971-7.797-21.566,1.706c0,0-4.911,10.844,10.492,19.591L564.5,57.5c0,0,15-18,36-7l53,50
			C653.5,100.5,665.5,115.5,653.5,133.5z"/>
		<path class="st1" d="M277.442,355.873c-0.314,2.785,0.218,5.235,1.248,7.378l18.054-19.313
			C277.26,344.755,277.442,355.873,277.442,355.873z"/>
		<path class="st2" d="M389.207,245.438c-0.087-0.049-0.165-0.098-0.251-0.147l-12.196,13.047
			C382.959,254.723,389.207,245.438,389.207,245.438z"/>
		<path class="st2" d="M300.544,343.904l-0.202-3.817l-3.599,3.85C297.938,343.887,299.198,343.871,300.544,343.904z"/>
		<path class="st1" d="M191.927,289.91c-26.648,0-48.25,21.49-48.25,48c0,26.51,21.602,48,48.25,48
			c23.801,0,43.563-17.149,47.516-39.7l-40.296-55.763C196.792,290.095,194.382,289.91,191.927,289.91z"/>
		<path class="st2" d="M191.927,289.91c-26.648,0-48.25,21.49-48.25,48c0,26.51,21.602,48,48.25,48
			c23.801,0,43.563-17.149,47.516-39.7l-40.296-55.763C196.792,290.095,194.382,289.91,191.927,289.91z"/>
		<ellipse class="st1" cx="396.927" cy="323.91" rx="25.75" ry="25.617"/>
		<ellipse class="st2" cx="396.927" cy="323.91" rx="25.75" ry="25.617"/>
		<path class="st1" d="M525.531,238.71c-16.161,5.22-25.052,22.484-19.859,38.561c1.116,3.454,2.794,6.57,4.897,9.286l41.355-44.285
			C544.407,237.336,534.783,235.722,525.531,238.71z"/>
		<path class="st2" d="M525.531,238.71c-16.161,5.22-25.052,22.484-19.859,38.561c1.116,3.454,2.794,6.57,4.897,9.286l41.355-44.285
			C544.407,237.336,534.783,235.722,525.531,238.71z"/>
		<path class="st1" d="M600.5,50.5c-21-11-36,7-36,7L388.956,245.291c0.086,0.049,0.164,0.098,0.251,0.147
			c0,0-6.248,9.285-12.447,12.9l-11.574,12.382c2.91-1.798,7.373-4.094,13.457-5.947c0,0,2.856,16.877,14.891,17.27
			c0,0,12.035,0.393,14.021-19.733c0,0,14.184,3.288,19.38,7.03c0,0-9.432,11.491-2.884,22.174c0,0,7.143,6.238,23.868-3.21
			c1.947-1.1,8.899,17.573,8.899,17.573c-16.827,3.855-17.27,14.891-17.27,14.891c1.655,12.933,19.733,14.021,19.733,14.021
			c0.085,1.678-0.966,5.355-2.213,9.057l25.433-27.235c-2.762,1.204-5.83,3.391-9.048,7.148c0,0-8.465-8.564-10.421-15.505
			l0.301-0.904c16.547-7.156,11.448-18.247,11.448-18.247c-7.424-9.48-20.661-3.755-20.661-3.755s-3.041-5.635-2.684-18.783
			c0,0,15.742,2.861,19.856-8.588c0,0,1.162-11.985-16.548-15.204c0,0,3.13-11.628,8.138-16.816l1.222-0.416
			c14.332,10.936,21.514,1.066,21.514,1.066c4.641-11.111-6.825-19.86-6.825-19.86s3.429-5.408,15.073-11.524
			c0,0,5.2,15.131,17.199,13.123c0,0,11.024-4.846,5.174-21.869c0,0,11.674-2.954,18.648-1.121l0.627,0.718
			c-2.22,17.891,9.924,19.118,9.924,19.118c11.936-1.593,13.712-15.906,13.712-15.906s6.399,0.235,17.551,7.209
			c0,0-10.447,12.118-2.664,21.469c0,0,0.13,0.093,0.367,0.233L653.5,133.5c12-18,0-33,0-33L600.5,50.5z"/>
		<path class="st2" d="M600.5,50.5c-21-11-36,7-36,7L388.956,245.291c0.086,0.049,0.164,0.098,0.251,0.147
			c0,0-6.248,9.285-12.447,12.9l-11.574,12.382c2.91-1.798,7.373-4.094,13.457-5.947c0,0,2.856,16.877,14.891,17.27
			c0,0,12.035,0.393,14.021-19.733c0,0,14.184,3.288,19.38,7.03c0,0-9.432,11.491-2.884,22.174c0,0,7.143,6.238,23.868-3.21
			c1.947-1.1,8.899,17.573,8.899,17.573c-16.827,3.855-17.27,14.891-17.27,14.891c1.655,12.933,19.733,14.021,19.733,14.021
			c0.085,1.678-0.966,5.355-2.213,9.057l25.433-27.235c-2.762,1.204-5.83,3.391-9.048,7.148c0,0-8.465-8.564-10.421-15.505
			l0.301-0.904c16.547-7.156,11.448-18.247,11.448-18.247c-7.424-9.48-20.661-3.755-20.661-3.755s-3.041-5.635-2.684-18.783
			c0,0,15.742,2.861,19.856-8.588c0,0,1.162-11.985-16.548-15.204c0,0,3.13-11.628,8.138-16.816l1.222-0.416
			c14.332,10.936,21.514,1.066,21.514,1.066c4.641-11.111-6.825-19.86-6.825-19.86s3.429-5.408,15.073-11.524
			c0,0,5.2,15.131,17.199,13.123c0,0,11.024-4.846,5.174-21.869c0,0,11.674-2.954,18.648-1.121l0.627,0.718
			c-2.22,17.891,9.924,19.118,9.924,19.118c11.936-1.593,13.712-15.906,13.712-15.906s6.399,0.235,17.551,7.209
			c0,0-10.447,12.118-2.664,21.469c0,0,0.13,0.093,0.367,0.233L653.5,133.5c12-18,0-33,0-33L600.5,50.5z"/>
		<path class="st1" d="M364.617,297.674c0,0,9.515-9.211-2.581-23.584l-19.258,20.601
			C344.612,296.119,354.848,303.462,364.617,297.674z"/>
		<path class="st2" d="M364.617,297.674c0,0,9.515-9.211-2.581-23.584l-19.258,20.601
			C344.612,296.119,354.848,303.462,364.617,297.674z"/>
		<path class="st1" d="M103.21,357.086l6.346,8.65c-0.277-1.526-0.808-2.413-0.808-2.413
			C107.48,360.433,105.499,358.446,103.21,357.086z"/>
		<path class="st2" d="M103.21,357.086l6.346,8.65c-0.277-1.526-0.808-2.413-0.808-2.413
			C107.48,360.433,105.499,358.446,103.21,357.086z"/>
		<path class="st1" d="M105.387,318.154c1.456-13.523-16.791-19.185-16.791-19.185l12.081-21.98c20,12,26,1,26,1c8-11-5-25-5-25
			l21.938-14.32c10.911,20.614,21.735,14.303,21.735,14.303c1.83-0.77,3.301-1.832,4.494-3.075L164.5,242.5c-15-14-33-4-33-4L76,279
			c-15.5,15.5-5.5,33.5-5.5,33.5l13.017,17.743C105.639,330.242,105.387,318.154,105.387,318.154z"/>
		<path class="st2" d="M105.387,318.154c1.456-13.523-16.791-19.185-16.791-19.185l12.081-21.98c20,12,26,1,26,1c8-11-5-25-5-25
			l21.938-14.32c10.911,20.614,21.735,14.303,21.735,14.303c1.83-0.77,3.301-1.832,4.494-3.075L164.5,242.5c-15-14-33-4-33-4L76,279
			c-15.5,15.5-5.5,33.5-5.5,33.5l13.017,17.743C105.639,330.242,105.387,318.154,105.387,318.154z"/>
		<path class="st1" d="M431.077,351.235c-6.28,8.361-2.687,15.941,0.376,20.043l18.164-19.45
			C437.446,345.079,431.077,351.235,431.077,351.235z"/>
		<path class="st2" d="M431.077,351.235c-6.28,8.361-2.687,15.941,0.376,20.043l18.164-19.45
			C437.446,345.079,431.077,351.235,431.077,351.235z"/>
		<path class="st1" d="M401.786,366.507c0,0-12.039-0.247-13.782,19.901c0,0-14.223-3.116-19.463-6.795
			c0,0,9.292-11.604,2.615-22.207c0,0-9.608-9.417-23.828,3.498l-1.494-0.523c0,0-5.21-5.818-8.635-17.704
			c0,0,16.918-2.603,17.491-14.631c0,0,0.573-12.028-19.521-14.315c0,0,2.863-11.559,6.236-17.571l-41.062,43.927l0.202,3.817
			c-1.347-0.032-2.607-0.016-3.801,0.034l-18.054,19.313c3.969,8.26,15.445,11.893,15.445,11.893l-12.193,21.918
			c-19.939-12.102-25.995-1.132-25.995-1.132c-8.056,10.959,4.873,25.025,4.873,25.025l0.232,0.871l-20.554,13.51
			c-11.279-20.415-21.988-13.911-21.988-13.911c-12.44,5.501-8.219,24.134-8.219,24.134l-25.076,0.528
			c0.392-23.32-12.134-23.017-12.134-23.017c-7.152-0.755-12.235,3.775-15.438,8.211L227.5,526.5c34,28,59,0,59,0l135.007-144.572
			c-1.424,0.575-2.955,1.138-4.623,1.668C416.885,383.596,413.825,366.754,401.786,366.507z"/>
		<path class="st2" d="M401.786,366.507c0,0-12.039-0.247-13.782,19.901c0,0-14.223-3.116-19.463-6.795
			c0,0,9.292-11.604,2.615-22.207c0,0-9.608-9.417-23.828,3.498l-1.494-0.523c0,0-5.21-5.818-8.635-17.704
			c0,0,16.918-2.603,17.491-14.631c0,0,0.573-12.028-19.521-14.315c0,0,2.863-11.559,6.236-17.571l-41.062,43.927l0.202,3.817
			c-1.347-0.032-2.607-0.016-3.801,0.034l-18.054,19.313c3.969,8.26,15.445,11.893,15.445,11.893l-12.193,21.918
			c-19.939-12.102-25.995-1.132-25.995-1.132c-8.056,10.959,4.873,25.025,4.873,25.025l0.232,0.871l-20.554,13.51
			c-11.279-20.415-21.988-13.911-21.988-13.911c-12.44,5.501-8.219,24.134-8.219,24.134l-25.076,0.528
			c0.392-23.32-12.134-23.017-12.134-23.017c-7.152-0.755-12.235,3.775-15.438,8.211L227.5,526.5c34,28,59,0,59,0l135.007-144.572
			c-1.424,0.575-2.955,1.138-4.623,1.668C416.885,383.596,413.825,366.754,401.786,366.507z"/>
	</g>
</g>
<g id="BG">
	<g id="Layer_7">
	</g>
</g>
<g id="Layer_6">
	<g>
		<path class="st3" d="M274.988,311.163c0,0-6.389-10.779,14.147-21.837l-12.719-21.617c0,0-14.192,12.79-25.072,4.628
			c0,0-10.91-6.163,1.387-25.982l-21.834-11.326l-0.646,0.628c0,0-5.951,18.155-19.449,16.484c0,0-12.53,0.079-11.72-23.23
			l-25.081,0.078c0,0,3.886,18.706-8.65,23.983c0,0-10.824,6.311-21.735-14.303l-21.938,14.32c0,0,13,14,5,25c0,0-6,11-26-1
			l-12.081,21.98c0,0,18.247,5.662,16.791,19.185c0,0,0.278,12.527-23.042,12.087l1.423,24.556l0.87,0.234
			c0,0,18.646-4.163,24.109,8.293c0,0,6.472,10.729-13.978,21.946l12.885,21.518c0,0,14.093-12.9,25.035-4.821
			c0,0,10.957,6.078-1.186,25.992l21.921,11.157c0,0,6.129-17.474,19.656-16.046c0,0,12.526-0.304,12.134,23.017l25.076-0.528
			c0,0-4.22-18.633,8.219-24.134c0,0,10.709-6.504,21.988,13.911l20.554-13.51l-0.232-0.871c0,0-12.929-14.066-4.873-25.025
			c0,0,6.056-10.969,25.995,1.132l12.193-21.918c0,0-18.218-5.755-16.693-19.27c0,0-0.214-12.528,23.103-11.969l-1.298-24.562
			C299.246,319.341,280.355,323.661,274.988,311.163z M191.927,385.91c-26.648,0-48.25-21.49-48.25-48c0-26.51,21.602-48,48.25-48
			c26.648,0,48.25,21.49,48.25,48C240.177,364.42,218.575,385.91,191.927,385.91z"/>
		<path class="st3" d="M355.377,271.986c0,0-8.23-11.844-0.405-20.996c0,0,9.863-7.192,20.151,7.613l0.946,0.117
			c6.417-3.29,13.138-13.281,13.138-13.281c-15.718-8.772-10.743-19.738-10.743-19.738c7.594-9.504,21.566-1.706,21.566-1.706
			c4.589-12.326,3.533-18.642,3.533-18.642s-14.377,1.138-18.337-10.234c0,0-1.239-12.143,16.732-13.566l0.36-0.224
			c0.43-7.198-4.755-18.066-4.755-18.066c-15.546,9.074-22.458-0.786-22.458-0.786c-4.322-11.372,9.497-19.437,9.497-19.437
			c-8.28-10.219-14.255-12.521-14.255-12.521s-6.331,12.958-18.137,10.586c0,0-11.086-5.108-3.172-21.306l-0.359-0.883
			c-6-4-18-5-18-5c0,18-12,19-12,19c-12-2-12-18-12-18c-13,2-18,6-18,6s8,12,0,21c0,0-10,7-20-8l-1.291-0.004
			c-6.423,3.279-13.162,13.258-13.162,13.258c15.702,8.8,10.708,19.757,10.708,19.757c-7.611,9.49-21.569,1.668-21.569,1.668
			c-4.611,12.318-3.566,18.636-3.566,18.636s14.379-1.112,18.319,10.266c0,0,1.218,12.146-16.756,13.536l-0.579,0.757
			c-0.406,7.2,4.816,18.05,4.816,18.05c15.515-9.126,22.461,0.711,22.461,0.711c4.36,11.357-9.432,19.469-9.432,19.469
			c8.315,10.192,14.297,12.473,14.297,12.473s6.288-12.979,18.101-10.646c0,0,11.103,5.071,3.244,21.295l1.157,2.001
			c6.076,3.884,18.093,4.652,18.093,4.652c-0.347-17.997,11.631-19.228,11.631-19.228c12.036,1.768,12.345,17.765,12.345,17.765
			C350.455,276.081,355.377,271.986,355.377,271.986z M321.927,227.501c-16.983,0-30.75-13.696-30.75-30.591
			c0-16.895,13.767-30.591,30.75-30.591c16.983,0,30.75,13.696,30.75,30.591C352.677,213.805,338.91,227.501,321.927,227.501z"/>
		<path class="st3" d="M439.549,320.768c0,0,0.443-11.036,17.27-14.891c0,0-6.952-18.673-8.899-17.573
			c-16.726,9.448-23.868,3.21-23.868,3.21c-6.548-10.683,2.884-22.174,2.884-22.174c-5.196-3.742-19.38-7.03-19.38-7.03
			c-1.986,20.126-14.021,19.733-14.021,19.733c-12.035-0.393-14.891-17.27-14.891-17.27c-10.08,3.069-15.739,7.367-17.194,8.573
			c-0.253,0.21,0.316,0.414,0.316,0.414c12.526,14.564,2.852,23.914,2.852,23.914c-10.78,6.387-22.128-3.215-22.128-3.215
			c-3.82,5.139-7.32,19.272-7.32,19.272c20.094,2.287,19.521,14.315,19.521,14.315c-0.573,12.028-17.491,14.631-17.491,14.631
			c3.425,11.886,8.635,17.704,8.635,17.704l1.494,0.523c14.22-12.915,23.828-3.498,23.828-3.498
			c6.677,10.603-2.615,22.207-2.615,22.207c5.241,3.679,19.463,6.795,19.463,6.795c1.743-20.149,13.782-19.901,13.782-19.901
			c12.039,0.247,15.099,17.089,15.099,17.089c11.789-3.745,17.464-9.111,17.464-9.111s-12.653-10.761-3.272-23.25
			c0,0,7.636-7.395,22.174,2.884c0,0,6.233-15.334,6.031-19.329C459.282,334.789,441.204,333.701,439.549,320.768z M396.927,349.527
			c-14.221,0-25.75-11.469-25.75-25.617s11.529-25.617,25.75-25.617c14.221,0,25.75,11.469,25.75,25.617
			S411.149,349.527,396.927,349.527z"/>
		<path class="st3" d="M617.603,268.043c0.334-13.149-2.717-18.778-2.717-18.778s-13.227,5.748-20.668-3.719
			c0,0-5.118-11.082,11.415-18.267l0.268-0.329c-1.933-6.947-10.369-15.54-10.369-15.54c-11.753,13.633-21.495,6.555-21.495,6.555
			c-7.783-9.35,2.664-21.469,2.664-21.469c-11.152-6.974-17.551-7.209-17.551-7.209s-1.776,14.312-13.712,15.906
			c0,0-12.145-1.228-9.924-19.118l-0.627-0.718c-6.974-1.833-18.648,1.121-18.648,1.121c5.85,17.023-5.174,21.869-5.174,21.869
			c-11.999,2.008-17.199-13.123-17.199-13.123c-11.644,6.116-15.073,11.524-15.073,11.524s11.466,8.749,6.825,19.86
			c0,0-7.182,9.87-21.514-1.066l-1.222,0.416c-5.008,5.188-8.138,16.816-8.138,16.816c17.71,3.219,16.548,15.204,16.548,15.204
			c-4.114,11.449-19.856,8.588-19.856,8.588c-0.357,13.148,2.684,18.783,2.684,18.783s13.237-5.725,20.661,3.755
			c0,0,5.099,11.091-11.448,18.247l-0.301,0.904c1.956,6.941,10.421,15.505,10.421,15.505c11.707-13.673,21.473-6.627,21.473-6.627
			c7.814,9.324-2.592,21.477-2.592,21.477c11.175,6.936,17.575,7.15,17.575,7.15s1.728-14.318,13.659-15.951
			c0,0,12.149,1.187,9.989,19.085l1.744,1.517c7.008,1.698,18.623-1.481,18.623-1.481c-6.177-16.907,4.751-21.964,4.751-21.964
			c11.958-2.239,17.448,12.789,17.448,12.789c11.524-6.34,14.848-11.813,14.848-11.813s-11.632-8.526-7.206-19.725
			c0,0,6.991-10.007,21.531,0.651l0.932-0.197c4.999-5.197,8.109-16.83,8.109-16.83c-17.715-3.188-16.575-15.175-16.575-15.175
			C601.856,265.209,617.603,268.043,617.603,268.043z M544.335,296.93c-16.161,5.22-33.471-3.582-38.664-19.659
			s3.699-33.341,19.859-38.561c16.161-5.22,33.471,3.582,38.664,19.659S560.496,291.711,544.335,296.93z"/>
	</g>
</g>
<g id="Border">
	<rect y="-1" class="st4" width="700" height="700"/>
</g>
<g id="shading">
</g>
<g id="shading2">
	<path class="st5" d="M278,355c3-11,23-11,23-11l-2-25c0,0-19,6-25-10c0,0-3-10,15-19l-13-22c0,0-15,13-27,2c0,0-5-15,3-22l-19-12
		c0,0-15,20-22,16c0,0-14-3-12-23h-24c0,0,2,21-10,24s-21-13-21-13l-21,12c0,0,11,14,4,26s-26-1-26-1l-12,22c0,0,18,9,16,21
		s-23,10-23,10l2,25c0,0,23-4,25,9s-13,22-13,22l12,21c0,0,15-14,25-5s-1,26-1,26l21,11c0,0,9-18,19-16s15,18,13,23h25
		c0,0-4-22,9-25s21,13,21,13l21-12c0,0-11-15-5-26s25,1,25,1l13-22C294,375,275,366,278,355z M192,386c-26.51,0-48-21.49-48-48
		c0-26.51,21.49-48,48-48s48,21.49,48,48C240,364.51,218.51,386,192,386z"/>
	<path class="st6" d="M256.049,199.409c-0.188,8.462-14.595,12.05-14.595,12.05l5.925,17.651c0,0,12.611-7.73,19.803,2.719
		c0,0,3.955,6.666-7.398,16.378l13.311,13.516c0,0,8.474-12.055,19.091-6.284c0,0,7.321,12.084,2.814,18.561l16,4
		c0,0,6.029-18.036,11.789-16.411c0,0,13.064,0.644,15.211,15.411l14.848-5.299c0,0-5.208-14.769,2.899-19.083
		C363.853,248.304,375,258,375,258l11.182-12.195c0,0-10.435-8.112-7.545-18.012C381.527,217.893,400,224,400,224l2.244-18.151
		c0,0-14.581-3.255-15.293-12.258s14.775-11.329,14.775-11.329l-5.925-17.651c0,0-15.851,7.007-19.624-1.999
		C372.405,153.606,384,142,384,142l-14.815-10.543c0,0-8.294,12.776-17.112,8.086c-8.818-4.69-3.943-18.909-3.943-18.909
		l-17.101-4.157c0,0-3.255,14.581-10.817,14.934c-7.562,0.353-14.034-10.276-13.49-14.237l-18.009,4.484
		c0,0,6.828,15.131-1.999,19.624C277.886,145.775,267,136,267,136l-10.723,12.095c0,0,10.615,8.832,8.265,17.833
		C262.194,174.928,244,169,244,169l-3.064,18.872C240.936,187.872,256.237,190.947,256.049,199.409z M313,167
		c19.097-4.755,34.245,2.903,39,22c4.755,19.097-2.903,33.245-22,38s-33.245-3.903-38-23C287.245,184.903,293.903,171.755,313,167z"
		/>
	<path class="st2" d="M469.814,258.034c-1.775,8.276-16.6,9.092-16.6,9.092l2.502,18.45c0,0,13.839-5.222,18.939,6.393
		c0,0,2.632,7.29-10.344,14.695l10.533,15.777c0,0,10.588-10.248,19.932-2.584c0,0,4.92,13.244-0.725,18.759l14.963,6.936
		c0,0,9.311-16.582,14.663-13.903c0,0,12.71,3.088,12.044,17.995l15.579-2.414c0,0-2.339-15.485,6.434-18.198
		s17.899,8.905,17.899,8.905l13.274-9.876c0,0-8.725-9.929-4.025-19.109s21.696,0.29,21.696,0.29l5.615-17.406
		c0,0-13.709-5.937-12.716-14.914c0.993-8.977,16.641-8.35,16.641-8.35l-2.502-18.45c0,0-16.885,3.903-18.898-5.652
		c-2.013-9.555,11.557-18.775,11.557-18.775l-12.57-13.14c0,0-10.548,10.989-18.327,4.726c-7.779-6.263-0.319-19.313-0.319-19.313
		l-16.015-7.297c0,0-5.937,13.709-13.431,12.635c-7.494-1.075-11.853-12.731-10.574-16.518l-18.531,1.02
		c0,0,3.862,16.144-5.652,18.898c-9.514,2.754-18.368-8.892-18.368-8.892l-12.805,9.864c0,0,8.765,10.67,4.767,19.068
		c-3.999,8.398-20.754-0.843-20.754-0.843l-6.557,17.959C457.138,243.862,471.589,249.758,469.814,258.034z M531.841,236.906
		c19.65-1.081,33.089,9.288,34.17,28.938c1.081,19.65-9.1,32.107-28.75,33.188s-31.919-10.082-33-29.732
		C503.18,249.65,512.191,237.988,531.841,236.906z"/>
</g>
</svg>
