<?xml version="1.0" encoding="utf-8"?>
<!-- Generator: Adobe Illustrator 21.0.0, SVG Export Plug-In . SVG Version: 6.00 Build 0)  -->
<svg version="1.0" xmlns="http://www.w3.org/2000/svg" xmlns:xlink="http://www.w3.org/1999/xlink" x="0px" y="0px"
	 viewBox="0 0 700 700" style="enable-background:new 0 0 700 700;" xml:space="preserve">
<style type="text/css">
	.st0{fill:#FFFFFF;}
	.st1{fill:none;}
	.st2{opacity:0.3;fill:#7F70DF;}
	.st3{fill:none;stroke:#7F70DF;stroke-width:7;stroke-linecap:round;stroke-linejoin:round;stroke-miterlimit:10;}
	.st4{display:none;}
	.st5{display:inline;opacity:0.4;fill:#7F70DF;stroke:#7F70DF;stroke-linecap:round;stroke-linejoin:round;stroke-miterlimit:10;}
	
		.st6{display:inline;opacity:0.4;fill:#7F70DF;fill-opacity:0.1;stroke:#7F70DF;stroke-linecap:round;stroke-linejoin:round;stroke-miterlimit:10;}
	.st7{opacity:0.15;fill:#7F70DF;stroke:#7F70DF;stroke-linecap:round;stroke-linejoin:round;stroke-miterlimit:10;}
	.st8{fill:none;stroke:#7F70DF;stroke-width:5;stroke-miterlimit:10;}
	.st9{fill:#7F70DF;}
	.st10{font-family:'Impact';}
	.st11{font-size:72px;}
</style>
<g id="idk">
	<rect x="40" y="52" class="st0" width="629" height="621"/>
</g>
<g id="check">
	<g>
		<path class="st1" d="M438.436,582.809c-2.59-1.512-5.877-2.268-9.861-2.268c-3.258,0-6.141,0.627-8.648,1.881
			s-4.313,3.059-5.414,5.414s-1.652,5.572-1.652,9.65v13.605c0,3.469,0.246,6.111,0.738,7.928s1.377,3.48,2.654,4.992
			s3.064,2.701,5.361,3.568s4.945,1.301,7.945,1.301c3.094,0,5.666-0.439,7.717-1.318s3.744-2.197,5.08-3.955
			s2.186-3.41,2.549-4.957s0.545-3.762,0.545-6.645v-3.445h-13.465v6.152c0,2.32-0.182,3.885-0.545,4.693s-1.084,1.213-2.162,1.213
			c-0.867,0-1.453-0.305-1.758-0.914s-0.457-1.969-0.457-4.078v-10.09h18.387v-6.188c0-4.523-0.521-8.033-1.564-10.529
			S441.025,584.32,438.436,582.809z M431.211,597.943h-4.148v-3.41c0-2.625,0.117-4.236,0.352-4.834s0.844-0.896,1.828-0.896
			c0.797,0,1.324,0.352,1.582,1.055s0.387,2.262,0.387,4.676V597.943z"/>
		<path class="st1" d="M146.5,431.5c1.455,0.291,4.099-2.137,7.112-5.714l-7.498-10.22C145.295,424.909,146.5,431.5,146.5,431.5z"/>
		<path class="st1" d="M526.5,448.5c19,17,42-13,32-22c-24.887-22.398-61.783-55.589-97.068-87.326l-26.421,28.293L526.5,448.5z"/>
		<path class="st1" d="M407.023,584.021c-0.75-1.102-1.84-1.957-3.27-2.566s-3.117-0.914-5.063-0.914
			c-1.688,0-3.252,0.335-4.693,1.004c-1.441,0.67-2.748,1.686-3.92,3.048v-13.474h-14.203v56.918h13.289l0.914-3.524
			c1.195,1.456,2.514,2.548,3.955,3.276c1.441,0.728,2.994,1.092,4.658,1.092c2.32,0,4.324-0.615,6.012-1.846
			s2.76-2.684,3.217-4.359s0.686-4.225,0.686-7.646v-21.023c0-3.445-0.076-5.695-0.229-6.75S407.773,585.123,407.023,584.021z
			 M394.402,614.291c0,2.766-0.135,4.512-0.404,5.238s-0.85,1.09-1.74,1.09c-0.867,0-1.447-0.352-1.74-1.055
			s-0.439-2.309-0.439-4.816v-20.109c0-2.602,0.129-4.225,0.387-4.869s0.82-0.967,1.688-0.967c0.891,0,1.488,0.369,1.793,1.107
			s0.457,2.314,0.457,4.729V614.291z"/>
		<path class="st1" d="M301.063,612.779c0,3.82-0.1,6.082-0.299,6.785c-0.199,0.703-0.826,1.055-1.881,1.055
			c-0.984,0-1.588-0.34-1.811-1.02c-0.223-0.68-0.334-2.836-0.334-6.469v-31.746h-14.203v31.465c0,4.008,0.082,6.686,0.246,8.033
			c0.164,1.348,0.58,2.643,1.248,3.885s1.705,2.238,3.111,2.988s3.176,1.125,5.309,1.125c1.875,0,3.533-0.394,4.975-1.18
			c1.441-0.787,2.654-1.967,3.639-3.54l-0.246,3.876h14.449v-46.652h-14.203V612.779z"/>
		<rect x="263.023" y="571.119" class="st1" width="14.625" height="56.918"/>
		<path class="st1" d="M256.396,574.811c-1.09-1.195-2.719-2.109-4.887-2.742c-2.168-0.633-5.268-0.949-9.299-0.949h-14.906v56.918
			h14.801v-22.922h3.973c3.234,0,5.854-0.445,7.857-1.336s3.38-2.168,4.131-3.832c0.75-1.664,1.125-4.313,1.125-7.945v-4.957
			c0-3.563-0.193-6.193-0.58-7.893S257.486,576.006,256.396,574.811z M246.816,590.209c0,2.109-0.264,3.498-0.791,4.166
			s-1.471,1.002-2.83,1.002c-0.305,0-0.668-0.012-1.09-0.035v-14.484c1.921,0,3.187,0.293,3.797,0.879
			c0.609,0.586,0.914,1.852,0.914,3.797V590.209z"/>
		<path class="st1" d="M374.381,260.883l114.853-122.866c-5.283-3.798-10.49-9.894-14.735-19.516c0,0,0-6,9-19c0,0,8-10,10-16
			c0,0-27,3-39,24c0,0-3,6-4,13l-10,26c0,0-1,4-8,12l-78.868,76.872L359.5,247.5C359.5,247.5,365.045,252.487,374.381,260.883z"/>
		<path class="st1" d="M367.279,582.299c-1.582-1.172-3.58-1.758-5.994-1.758c-1.828,0-3.492,0.44-4.992,1.32
			c-1.5,0.881-2.848,2.201-4.043,3.962c-2.18-3.521-5.168-5.282-8.965-5.282c-1.945,0-3.68,0.44-5.203,1.32
			c-1.523,0.881-2.836,2.201-3.938,3.962l0.246-4.438h-14.027v46.652h13.781v-32.344c0-2.25,0.023-3.721,0.07-4.412
			s0.293-1.277,0.738-1.758s0.984-0.721,1.617-0.721c1.008,0,1.623,0.457,1.846,1.371s0.334,3.656,0.334,8.227v29.637h13.781v-30.41
			c0-4.008,0.146-6.48,0.439-7.418s0.943-1.406,1.951-1.406c0.984,0,1.611,0.475,1.881,1.424s0.404,3.416,0.404,7.4v30.41h13.781
			v-33.152c0-3.82-0.223-6.58-0.668-8.279S368.861,583.471,367.279,582.299z"/>
		<path class="st1" d="M463.73,587.52l0.563-6.135H450.09v46.652h14.203v-18.422c0-4.523,0.141-7.412,0.422-8.666
			s1.031-2.232,2.25-2.936s3.129-1.055,5.73-1.055v-16.418C468.781,580.8,465.793,583.126,463.73,587.52z"/>
		<path class="st1" d="M374.34,260.927L359.5,247.5l-6-12l0.132-0.128L344.5,216.5l-72-64L216,204l-0.5,0.5l-32-30l-0.2-0.248
			l57.2-51.752l-24-21l-76.706,54.653c-3.071,2.188-5.435,5.248-6.675,8.809c-1.577,4.53-2.073,10.629,3.381,15.537
			c10,9,20,18,20,18l7.882-7.131l0.118,0.131l32.822,29.838L189.5,228.5l31,27l9.539-8.455l0.461,0.455l28,23l5.46-4.964
			c0.042,0.025,0.083,0.052,0.125,0.077L258.5,270.5l-11,10c18,18,31,10,31,10l2-1l9,7c-10.026,10.026-37.489,33.899-52.272,46.644
			L263.5,379.5L374.34,260.927z M318.236,269.729L303.5,282.5L303,283l-3.455-3.501L318.236,269.729z M274.203,256.225
			l-26.665-24.69l-1.281,1.136l-3.358,3.161c-0.036-0.029-0.072-0.059-0.108-0.088l3.466-3.072l1.244-1.171l0.038,0.035L264.5,216.5
			l27,24L274.203,256.225z"/>
		<polygon class="st0" points="264.5,216.5 247.538,231.535 274.203,256.225 291.5,240.5 		"/>
		<path class="st0" d="M242.105,580.857v14.484c0.422,0.023,0.785,0.035,1.09,0.035c1.359,0,2.303-0.334,2.83-1.002
			s0.791-2.057,0.791-4.166v-4.676c0-1.945-0.305-3.211-0.914-3.797C245.292,581.15,244.027,580.857,242.105,580.857z"/>
		<path class="st0" d="M392.152,588.803c-0.867,0-1.43,0.322-1.688,0.967s-0.387,2.268-0.387,4.869v20.109
			c0,2.508,0.146,4.113,0.439,4.816s0.873,1.055,1.74,1.055c0.891,0,1.471-0.363,1.74-1.09s0.404-2.473,0.404-5.238v-19.652
			c0-2.414-0.152-3.99-0.457-4.729S393.043,588.803,392.152,588.803z"/>
		<path class="st0" d="M429.242,588.803c-0.984,0-1.594,0.299-1.828,0.896s-0.352,2.209-0.352,4.834v3.41h4.148v-3.41
			c0-2.414-0.129-3.973-0.387-4.676S430.039,588.803,429.242,588.803z"/>
		<path class="st0" d="M242.898,235.831l3.358-3.161l-3.466,3.072C242.826,235.773,242.862,235.802,242.898,235.831z"/>
		<path class="st0" d="M0,0v700h700V0H0z M259.191,592.002c0,3.633-0.375,6.281-1.125,7.945c-0.75,1.664-2.127,2.941-4.131,3.832
			s-4.623,1.336-7.857,1.336h-3.973v22.922h-14.801v-56.918h14.906c4.031,0,7.131,0.316,9.299,0.949
			c2.167,0.633,3.797,1.547,4.887,2.742s1.828,2.643,2.215,4.342s0.58,4.33,0.58,7.893V592.002z M277.648,628.037h-14.625v-56.918
			h14.625V628.037z M315.266,628.037h-14.449l0.246-3.876c-0.984,1.573-2.197,2.753-3.639,3.54c-1.441,0.786-3.1,1.18-4.975,1.18
			c-2.133,0-3.902-0.375-5.309-1.125s-2.443-1.746-3.111-2.988s-1.084-2.537-1.248-3.885c-0.164-1.348-0.246-4.025-0.246-8.033
			v-31.465h14.203v31.746c0,3.633,0.111,5.789,0.334,6.469c0.223,0.68,0.826,1.02,1.811,1.02c1.055,0,1.682-0.352,1.881-1.055
			c0.199-0.703,0.299-2.965,0.299-6.785v-31.395h14.203V628.037z M370.988,628.037h-13.781v-30.41c0-3.984-0.135-6.451-0.404-7.4
			s-0.896-1.424-1.881-1.424c-1.008,0-1.658,0.469-1.951,1.406s-0.439,3.41-0.439,7.418v30.41H338.75V598.4
			c0-4.57-0.111-7.313-0.334-8.227s-0.838-1.371-1.846-1.371c-0.633,0-1.172,0.24-1.617,0.721s-0.691,1.066-0.738,1.758
			s-0.07,2.162-0.07,4.412v32.344h-13.781v-46.652h14.027l-0.246,4.438c1.102-1.761,2.414-3.081,3.938-3.962
			c1.523-0.88,3.258-1.32,5.203-1.32c3.797,0,6.785,1.761,8.965,5.282c1.195-1.761,2.543-3.081,4.043-3.962
			c1.5-0.88,3.164-1.32,4.992-1.32c2.414,0,4.412,0.586,5.994,1.758s2.596,2.607,3.041,4.307s0.668,4.459,0.668,8.279V628.037z
			 M408.605,615.029c0,3.422-0.229,5.971-0.686,7.646s-1.529,3.129-3.217,4.359s-3.691,1.846-6.012,1.846
			c-1.664,0-3.217-0.364-4.658-1.092c-1.441-0.729-2.76-1.82-3.955-3.276l-0.914,3.524h-13.289v-56.918h14.203v13.474
			c1.172-1.362,2.479-2.378,3.92-3.048c1.441-0.669,3.006-1.004,4.693-1.004c1.945,0,3.633,0.305,5.063,0.914s2.52,1.465,3.27,2.566
			s1.201,2.18,1.354,3.234s0.229,3.305,0.229,6.75V615.029z M445.449,605.537h-18.387v10.09c0,2.109,0.152,3.469,0.457,4.078
			s0.891,0.914,1.758,0.914c1.078,0,1.799-0.404,2.162-1.213s0.545-2.373,0.545-4.693v-6.152h13.465v3.445
			c0,2.883-0.182,5.098-0.545,6.645s-1.213,3.199-2.549,4.957s-3.029,3.076-5.08,3.955s-4.623,1.318-7.717,1.318
			c-3,0-5.648-0.434-7.945-1.301s-4.084-2.057-5.361-3.568s-2.162-3.176-2.654-4.992s-0.738-4.459-0.738-7.928v-13.605
			c0-4.078,0.551-7.295,1.652-9.65s2.906-4.16,5.414-5.414s5.391-1.881,8.648-1.881c3.984,0,7.271,0.756,9.861,2.268
			s4.406,3.516,5.449,6.012s1.564,6.006,1.564,10.529V605.537z M472.695,596.959c-2.602,0-4.512,0.352-5.73,1.055
			s-1.969,1.682-2.25,2.936s-0.422,4.143-0.422,8.666v18.422H450.09v-46.652h14.203l-0.563,6.135
			c2.063-4.394,5.051-6.72,8.965-6.979V596.959z M653.5,133.5L461.432,339.174c35.284,31.737,72.18,64.927,97.068,87.326
			c10,9-13,39-32,22l-91.489-81.033L286.5,526.5c0,0-25,28-59,0l-73.888-100.714c-3.013,3.577-5.657,6.005-7.112,5.714
			c0,0-1.205-6.591-0.386-15.934L70.5,312.5c0,0-10-18,5.5-33.5l55.5-40.5c0,0,18-10,33,4l72.728,100.644
			c14.783-12.745,42.246-36.617,52.272-46.644l-9-7l-2,1c0,0-13,8-31-10l11-10l-28-23l-0.461-0.455L220.5,255.5l-31-27l7.822-7.162
			L164.5,191.5l-0.118-0.131L156.5,198.5c0,0-10-9-20-18c-5.454-4.909-4.959-11.007-3.381-15.537
			c1.24-3.561,3.604-6.621,6.675-8.809L216.5,101.5l24,21l-57.2,51.752l0.2,0.248l32,30l0.5-0.5l56.5-51.5l72,64l9.132,18.872
			L432.5,158.5c7-8,8-12,8-12l10-26c1-7,4-13,4-13c12-21,39-24,39-24c-2,6-10,16-10,16c-9,13-9,19-9,19
			c4.245,9.622,9.451,15.718,14.735,19.516L564.5,57.5c0,0,15-18,36-7l53,50C653.5,100.5,665.5,115.5,653.5,133.5z"/>
		<polygon class="st0" points="303.5,282.5 318.236,269.729 299.545,279.499 303,283 		"/>
		<polygon class="st0" points="359.5,247.5 353.632,235.372 353.5,235.5 		"/>
		<path class="st0" d="M374.34,260.927l0.041-0.044C365.045,252.487,359.5,247.5,359.5,247.5L374.34,260.927z"/>
		<path class="st0" d="M263.96,265.536l-5.46,4.964l5.585-4.887C264.043,265.588,264.002,265.561,263.96,265.536z"/>
		<polygon class="st0" points="246.256,232.671 247.538,231.535 247.5,231.5 		"/>
		<path class="st0" d="M262.5,383.5c0,0-10,15-14,31s-6,20-6,20s-21,32-46,30l18-28c0,0,6-12-3-22c0,0-7-10-27-17c0,0-9-2-14,4
			c0,0-9.547,15.573-16.888,24.286L227.5,526.5c34,28,59,0,59,0l148.511-159.033L351.5,293.5L262.5,383.5z"/>
		<path class="st0" d="M600.5,50.5c-21-11-36,7-36,7l-75.265,80.516c13.385,9.622,27.265,4.484,27.265,4.484c12-19,21-29,21-29
			c10,15-6,45-13,51s-19,10-19,10l-21,4c-15,4-23,12-23,12c-25.522,21.595-78.981,74.019-80.939,75.94
			c19.241,17.304,49.416,44.441,80.871,72.734L653.5,133.5c12-18,0-33,0-33L600.5,50.5z"/>
		<path class="st0" d="M170.5,370.5c0,0,8-8,32-8c0,0,20-7,25-11c0,0,3.869-3.305,9.728-8.356L164.5,242.5c-15-14-33-4-33-4L76,279
			c-15.5,15.5-5.5,33.5-5.5,33.5l75.614,103.066C147.263,402.459,152.401,383.928,170.5,370.5z"/>
		<path class="st0" d="M375.237,261.738l5.263,4.762c0,0,0.024-0.024,0.061-0.06c-1.864-1.676-3.627-3.262-5.277-4.746
			C375.268,261.709,375.253,261.724,375.237,261.738z"/>
		<path class="st2" d="M375.237,261.738l5.263,4.762c0,0,0.024-0.024,0.061-0.06c-1.864-1.676-3.627-3.262-5.277-4.746
			C375.268,261.709,375.253,261.724,375.237,261.738z"/>
		<path class="st0" d="M375.237,261.738l-0.233-0.295c-0.213-0.192-0.414-0.372-0.623-0.56l-0.041,0.044L375.237,261.738z"/>
		<path class="st2" d="M375.237,261.738l-0.233-0.295c-0.213-0.192-0.414-0.372-0.623-0.56l-0.041,0.044L375.237,261.738z"/>
	</g>
</g>
<g id="Layer_10">
	<path class="st3" d="M145.5,432.5c0,0-7-38,24-61c0,0,8-8,32-8c0,0,20-7,25-11c0,0,48-41,62-55l9,7l13-14l-8-7l15-13c0,0,4-4,7,1
		l26,23l-89,90c0,0-10,15-14,31s-6,20-6,20s-21,32-46,30l18-28c0,0,6-12-3-22c0,0-7-10-27-17c0,0-9-2-14,4
		C169.5,402.5,150.5,433.5,145.5,432.5z"/>
	<path class="st3" d="M243.5,424.5c0,0-1-55-64-57"/>
	<path class="st3" d="M379.5,267.5c0,0,55-54,81-76c0,0,8-8,23-12l21-4c0,0,12-4,19-10s23-36,13-51c0,0-9,10-21,29c0,0-27,10-42-24
		c0,0,0-6,9-19c0,0,8-10,10-16c0,0-27,3-39,24c0,0-3,6-4,13l-10,26c0,0-1,4-8,12l-79,77l6,12L379.5,267.5z"/>
	<path class="st3" d="M449.5,124.5c0,0,9,52,53,51"/>
	<path class="st3" d="M357.5,241.5c0,0,55-55,78-69c0,0,26-13,14,12c0,0-12.526,20.476-75.263,78.238"/>
	<line class="st3" x1="325.37" y1="272.27" x2="307.94" y2="288.26"/>
	<path class="st3" d="M345.545,290.116c0,0-63.045,62.384-77.045,73.384c0,0-9,7-18,11c0,0-17,4-11-12c0,0,1-6,14-20
		c0,0,32-34,40-40"/>
</g>
<g id="Layer_11">
	<g>
		<path class="st3" d="M216.5,101.5l-76.706,54.653c-3.071,2.188-5.435,5.248-6.675,8.809c-1.577,4.53-2.073,10.629,3.381,15.537
			c10,9,20,18,20,18l84-76L216.5,101.5z"/>
		<path class="st3" d="M189.5,228.5l83-76l72,64l15,31c0,0,136.9,123.11,199,179c10,9-13,39-32,22l-204-181l-44,23c0,0-13,8-31-10
			l44-40l-27-24l-44,39L189.5,228.5z"/>
		<polygon class="st3" points="183.5,174.5 215.5,204.5 197.5,221.5 164.5,191.5 		"/>
		<polygon class="st3" points="247.5,231.5 274.5,256.5 258.5,270.5 230.5,247.5 		"/>
		<polygon class="st3" points="280.5,289.5 298.5,303.5 311.5,289.5 300.5,280.5 		"/>
	</g>
</g>
<g id="shading" class="st4">
	<polygon class="st5" points="280.5,289.5 298.5,303.5 311.5,289.5 300.5,280.5 	"/>
	<polygon class="st5" points="247.5,231.5 274.5,256.5 258.5,270.5 230.5,247.5 	"/>
	<path class="st5" d="M183.5,174.5"/>
	<path class="st5" d="M197.5,221.5"/>
	<path class="st5" d="M197.5,221.5"/>
	<path class="st6" d="M183.5,174.5"/>
	<path class="st5" d="M359.219,239.783c6.531-6.493,55.827-55.225,77.281-68.283c0,0,26-13,14,12c0,0-12.526,20.476-75.263,78.238
		l-13.431-12.151c-1.518-1.373-2.701-3.074-3.462-4.975L357.5,242.5l0.545-1.091C358.348,240.805,358.74,240.26,359.219,239.783z"/>
	<path class="st5" d="M346.545,289.116c0,0-63.045,62.384-77.045,73.384c0,0-9,7-18,11c0,0-17,4-11-12c0,0,1-6,14-20
		c0,0,27.109-28.752,38.143-38.604c1.559-1.392,3.927-1.327,5.404,0.151l0.453,0.453l13-14l-2.56-2.24l17.56-15.76L346.545,289.116z
		"/>
	<polygon class="st5" points="165.5,191.5 197.5,221.5 215.5,203.5 183.5,174.5 	"/>
	<path class="st5" d="M184.5,397.5c0,0-8-2-14,4"/>
	<path class="st5" d="M176.5,366.5"/>
</g>
<g id="shading2">
	<path class="st7" d="M176.5,366.5c0,0,63-5,69,59c0,0-1,5-4,10c0,0-17,29-45,29l18-28c0,0,6-11-3-22c0,0-9-12-27-17c0,0-8-3-14,4
		c0,0-14,24-24,30C146.5,431.5,139.5,385.5,176.5,366.5"/>
	<path class="st7" d="M491.5,83.5c0,0-35,3-41,38c0,0,6,51,53,53c0,0,15-3,20-9c0,0,24-26,14-52c0,0-18,23-20,28c0,0-8,6-24-1
		c0,0-14-7-19-23c0,0,5-14,10-19C484.5,98.5,491.5,90.5,491.5,83.5z"/>
</g>
<g id="Border">
	<rect y="-1" class="st8" width="700" height="700"/>
</g>
<g id="Layer_8">
	<rect x="224" y="571" class="st1" width="351" height="111"/>
	<text transform="matrix(1 0 0 1 224 627.9512)" class="st9 st10 st11">Plumber</text>
</g>
</svg>
