<?xml version="1.0" encoding="utf-8"?>
<!-- Generator: Adobe Illustrator 21.0.0, SVG Export Plug-In . SVG Version: 6.00 Build 0)  -->
<svg version="1.0" xmlns="http://www.w3.org/2000/svg" xmlns:xlink="http://www.w3.org/1999/xlink" x="0px" y="0px"
	 viewBox="0 0 700 700" style="enable-background:new 0 0 700 700;" xml:space="preserve">
<style type="text/css">
	.st0{fill:#FFFFFF;}
	.st1{fill:none;}
	.st2{display:none;}
	.st3{display:inline;opacity:0.3;fill:#7F70DF;}
	.st4{fill:none;stroke:#7F70DF;stroke-width:10;stroke-linecap:round;stroke-miterlimit:10;}
	.st5{fill:none;stroke:#7F70DF;stroke-width:10;stroke-linecap:round;stroke-linejoin:round;stroke-miterlimit:10;}
	.st6{fill:none;stroke:#7F70DF;stroke-width:10;stroke-miterlimit:10;}
	.st7{fill:#7F70DF;stroke:#7F70DF;stroke-miterlimit:10;}
	.st8{fill:none;stroke:#7F70DF;stroke-width:5;stroke-miterlimit:10;}
	.st9{fill:#7F70DF;}
	.st10{font-family:'Impact';}
	.st11{font-size:72px;}
</style>
<g id="nu">
	<rect x="67" y="47" class="st0" width="591" height="611"/>
</g>
<g id="check">
	<g>
		<path class="st1" d="M353.182,579.311c-1.605-1.184-3.51-1.775-5.713-1.775c-1.805,0-3.469,0.411-4.992,1.232
			c-1.523,0.822-2.918,2.066-4.184,3.733l0.246-4.122H324.09v53.297h14.203v-10.696c1.242,1.62,2.613,2.841,4.113,3.663
			c1.5,0.821,3.129,1.232,4.887,1.232c2.203,0,4.084-0.533,5.643-1.6s2.59-2.496,3.094-4.289s0.756-4.811,0.756-9.053v-19.652
			c0-3.703-0.199-6.328-0.598-7.875S354.787,580.494,353.182,579.311z M342.582,611.953c0,2.484-0.111,4.049-0.334,4.693
			s-0.791,0.967-1.705,0.967c-0.938,0-1.547-0.352-1.828-1.055s-0.422-2.461-0.422-5.273v-19.336c0-2.695,0.135-4.395,0.404-5.098
			s0.873-1.055,1.811-1.055c0.961,0,1.547,0.305,1.758,0.914s0.316,2.355,0.316,5.238V611.953z"/>
		<path class="st1" d="M390.553,579.311c-1.605-1.184-3.51-1.775-5.713-1.775c-1.805,0-3.469,0.411-4.992,1.232
			c-1.523,0.822-2.918,2.066-4.184,3.733l0.246-4.122h-14.449v53.297h14.203v-10.696c1.242,1.62,2.613,2.841,4.113,3.663
			c1.5,0.821,3.129,1.232,4.887,1.232c2.203,0,4.084-0.533,5.643-1.6s2.59-2.496,3.094-4.289s0.756-4.811,0.756-9.053v-19.652
			c0-3.703-0.199-6.328-0.598-7.875S392.158,580.494,390.553,579.311z M379.953,611.953c0,2.484-0.111,4.049-0.334,4.693
			s-0.791,0.967-1.705,0.967c-0.938,0-1.547-0.352-1.828-1.055s-0.422-2.461-0.422-5.273v-19.336c0-2.695,0.135-4.395,0.404-5.098
			s0.873-1.055,1.811-1.055c0.961,0,1.547,0.305,1.758,0.914s0.316,2.355,0.316,5.238V611.953z"/>
		<rect x="398.832" y="578.379" class="st1" width="14.625" height="46.652"/>
		<rect x="398.832" y="568.113" class="st1" width="14.625" height="7.418"/>
		<path class="st1" d="M230.324,588.721c-2.298-1.358-3.692-2.519-4.183-3.48c-0.514-0.961-0.771-2.393-0.771-4.292
			c0-1.478,0.229-2.579,0.686-3.307s1.13-1.091,2.021-1.091c0.82,0,1.406,0.27,1.758,0.809s0.527,1.793,0.527,3.762v4.219h13.746
			v-2.25c0-4.523-0.439-7.729-1.318-9.615s-2.672-3.451-5.379-4.693s-5.982-1.863-9.826-1.863c-3.516,0-6.516,0.568-9,1.705
			c-2.484,1.137-4.284,2.713-5.396,4.729c-1.113,2.016-1.67,5.203-1.67,9.563c0,3.023,0.392,5.508,1.178,7.453
			c0.785,1.945,1.775,3.469,2.971,4.57s3.633,2.871,7.313,5.309c3.679,2.414,5.988,4.137,6.926,5.168
			c0.914,1.031,1.371,3.223,1.371,6.574c0,1.523-0.241,2.672-0.721,3.445c-0.48,0.773-1.213,1.16-2.197,1.16
			s-1.67-0.305-2.057-0.914s-0.58-1.98-0.58-4.113v-6.926h-13.746v3.727c0,4.266,0.434,7.559,1.301,9.879
			c0.867,2.32,2.701,4.23,5.502,5.73c2.8,1.5,6.182,2.25,10.143,2.25c3.609,0,6.773-0.65,9.492-1.951
			c2.719-1.301,4.553-2.912,5.502-4.834s1.424-4.91,1.424-8.965c0-5.578-0.856-9.621-2.566-12.129
			C241.063,595.84,236.913,592.631,230.324,588.721z"/>
		<path class="st1" d="M316.18,582.668c-1.243-1.523-3.006-2.76-5.291-3.709s-5.022-1.424-8.209-1.424
			c-3.797,0-6.914,0.738-9.352,2.215c-2.438,1.477-4.125,3.434-5.063,5.871c-0.938,2.438-1.406,5.824-1.406,10.16v11.953
			c0,3.961,0.258,6.932,0.773,8.912c0.515,1.98,1.376,3.668,2.584,5.063c1.207,1.395,2.9,2.438,5.08,3.129s4.839,1.037,7.98,1.037
			c2.813,0,5.303-0.404,7.471-1.213c2.167-0.809,3.943-2.063,5.326-3.762c1.383-1.699,2.285-3.527,2.707-5.484
			s0.633-5.033,0.633-9.229v-11.426c0-3.305-0.229-5.766-0.686-7.383S317.422,584.191,316.18,582.668z M305.211,612.762
			c0,2.016-0.135,3.328-0.404,3.938c-0.27,0.609-0.826,0.914-1.67,0.914c-0.821,0-1.371-0.334-1.652-1.002s-0.422-2.104-0.422-4.307
			v-21.059c0-2.391,0.141-3.896,0.422-4.518s0.844-0.932,1.688-0.932s1.394,0.311,1.652,0.932c0.258,0.621,0.387,2.127,0.387,4.518
			V612.762z"/>
		<path class="st1" d="M447.664,579.258c-1.547-1.148-3.539-1.723-5.977-1.723c-1.945,0-3.662,0.429-5.15,1.285
			c-1.488,0.857-2.748,2.143-3.779,3.856l0.246-4.298h-14.449v46.652h14.203v-31.535c0-3.516,0.129-5.678,0.387-6.486
			s0.891-1.213,1.898-1.213c0.961,0,1.547,0.352,1.758,1.055s0.316,2.66,0.316,5.871v32.309h14.203v-32.695
			c0-4.078-0.223-6.99-0.668-8.736S449.211,580.406,447.664,579.258z"/>
		<path class="st1" d="M278.615,579.434c-1.746-1.266-3.862-1.898-6.346-1.898c-1.617,0-3.135,0.282-4.553,0.846
			c-1.418,0.564-2.737,1.41-3.955,2.538v-12.806h-14.203v56.918h14.203v-33.293c0-2.367,0.152-3.949,0.457-4.746
			c0.304-0.797,0.891-1.195,1.758-1.195c0.937,0,1.541,0.387,1.811,1.16c0.269,0.773,0.404,2.52,0.404,5.238v32.836h14.203v-32.168
			c0-4.383-0.193-7.4-0.58-9.053S280.361,580.699,278.615,579.434z"/>
		<path class="st1" d="M490,482l43-216h23c0,0,14.5-0.5,13.5-16.5c-0.719-11.502,0.618-20.401-0.053-25.992l-241.127,258.21L490,482
			z"/>
		<path class="st1" d="M474.242,581.903c-1.148-1.456-2.455-2.548-3.92-3.276c-1.465-0.728-3.088-1.092-4.869-1.092
			c-3.258,0-5.684,0.973-7.277,2.918s-2.391,5.133-2.391,9.563v16.945c0,3.094,0.305,5.479,0.914,7.154s1.74,3.029,3.393,4.061
			s3.756,1.547,6.311,1.547c1.477,0,2.889-0.282,4.236-0.846s2.631-1.398,3.85-2.503v3.52c0,2.018-0.176,3.343-0.527,3.977
			s-1.066,0.95-2.145,0.95c-1.5,0-2.25-1.031-2.25-3.094h-13.781c0.094,4.5,1.512,7.518,4.254,9.053s6.375,2.303,10.898,2.303
			c3.68,0,6.732-0.416,9.158-1.248s4.318-2.039,5.678-3.621s2.15-3.082,2.373-4.5s0.334-4.553,0.334-9.404v-35.93h-13.219
			L474.242,581.903z M474.242,605.203c0,2.648-0.141,4.348-0.422,5.098s-0.891,1.125-1.828,1.125c-0.82,0-1.359-0.311-1.617-0.932
			s-0.387-1.975-0.387-4.061v-15.68c0-1.969,0.17-3.287,0.51-3.955s0.92-1.002,1.74-1.002c0.844,0,1.389,0.293,1.635,0.879
			s0.369,1.945,0.369,4.078V605.203z"/>
		<path class="st1" d="M164.5,242.5l99,137L528.556,95.951C514.05,87.278,501.354,79.927,500.5,79.5c-2-1-18,18-16,24s11,6-13,28
			c0,0-33,15-38,34c0,0-47-25-53-21c0,0-19,1-14-10s8-21,7-24s-8,20-8,20s-4-12-6-15s-20-23-39-19s22,46,23,45s9,6,1,9
			c-7.232,2.712-43.065,16.868-46.922,50.59c-2.665-7.374-9.995-18.971-28.078-36.59c0,0-53-63-77-55c0,0-55,10-60,30
			c0,0-13,40,5,51l23,22c0,0-11,7-13,6s-16-4-17,3c-0.457,3.197-1.537,11.191-1.911,19.125l2.911-2.125
			C131.5,238.5,149.5,228.5,164.5,242.5z"/>
		<path class="st0" d="M377.879,585.797c-0.938,0-1.541,0.352-1.811,1.055s-0.404,2.402-0.404,5.098v19.336
			c0,2.813,0.141,4.57,0.422,5.273s0.891,1.055,1.828,1.055c0.914,0,1.482-0.322,1.705-0.967s0.334-2.209,0.334-4.693v-20.004
			c0-2.883-0.105-4.629-0.316-5.238S378.84,585.797,377.879,585.797z"/>
		<path class="st0" d="M340.508,585.797c-0.938,0-1.541,0.352-1.811,1.055s-0.404,2.402-0.404,5.098v19.336
			c0,2.813,0.141,4.57,0.422,5.273s0.891,1.055,1.828,1.055c0.914,0,1.482-0.322,1.705-0.967s0.334-2.209,0.334-4.693v-20.004
			c0-2.883-0.105-4.629-0.316-5.238S341.469,585.797,340.508,585.797z"/>
		<path class="st0" d="M303.172,585.797c-0.844,0-1.406,0.311-1.688,0.932s-0.422,2.127-0.422,4.518v21.059
			c0,2.203,0.141,3.639,0.422,4.307s0.832,1.002,1.652,1.002c0.844,0,1.4-0.305,1.67-0.914c0.269-0.609,0.404-1.922,0.404-3.938
			v-21.516c0-2.391-0.129-3.896-0.387-4.518C304.566,586.107,304.016,585.797,303.172,585.797z"/>
		<path class="st0" d="M0.5-0.5v700h700v-700H0.5z M243.916,619.441c-0.949,1.922-2.783,3.533-5.502,4.834
			c-2.719,1.301-5.883,1.951-9.492,1.951c-3.961,0-7.342-0.75-10.143-2.25c-2.801-1.5-4.635-3.41-5.502-5.73
			c-0.867-2.32-1.301-5.613-1.301-9.879v-3.727h13.746v6.926c0,2.133,0.193,3.504,0.58,4.113s1.072,0.914,2.057,0.914
			s1.717-0.387,2.197-1.16c0.48-0.773,0.721-1.922,0.721-3.445c0-3.352-0.457-5.543-1.371-6.574
			c-0.938-1.031-3.247-2.754-6.926-5.168c-3.68-2.438-6.117-4.207-7.313-5.309s-2.186-2.625-2.971-4.57
			c-0.786-1.945-1.178-4.43-1.178-7.453c0-4.359,0.557-7.547,1.67-9.563c1.113-2.016,2.912-3.592,5.396-4.729
			c2.484-1.137,5.484-1.705,9-1.705c3.844,0,7.119,0.621,9.826,1.863s4.5,2.807,5.379,4.693s1.318,5.092,1.318,9.615v2.25h-13.746
			v-4.219c0-1.969-0.176-3.223-0.527-3.762s-0.938-0.809-1.758-0.809c-0.891,0-1.564,0.363-2.021,1.091s-0.686,1.829-0.686,3.307
			c0,1.899,0.256,3.331,0.771,4.292c0.491,0.962,1.885,2.122,4.183,3.48c6.588,3.91,10.738,7.119,12.449,9.627
			c1.71,2.508,2.566,6.551,2.566,12.129C245.34,614.531,244.865,617.52,243.916,619.441z M282.395,625.031h-14.203v-32.836
			c0-2.719-0.135-4.465-0.404-5.238c-0.27-0.773-0.874-1.16-1.811-1.16c-0.867,0-1.454,0.398-1.758,1.195
			c-0.305,0.797-0.457,2.379-0.457,4.746v33.293h-14.203v-56.918h14.203v12.806c1.218-1.128,2.537-1.974,3.955-2.538
			c1.418-0.563,2.936-0.846,4.553-0.846c2.484,0,4.6,0.633,6.346,1.898c1.746,1.266,2.813,2.725,3.199,4.377s0.58,4.67,0.58,9.053
			V625.031z M319.414,606.188c0,4.195-0.211,7.271-0.633,9.229s-1.324,3.785-2.707,5.484c-1.383,1.699-3.159,2.953-5.326,3.762
			c-2.168,0.809-4.658,1.213-7.471,1.213c-3.141,0-5.801-0.346-7.98-1.037s-3.873-1.734-5.08-3.129
			c-1.208-1.395-2.069-3.082-2.584-5.063c-0.516-1.98-0.773-4.951-0.773-8.912v-11.953c0-4.336,0.469-7.723,1.406-10.16
			c0.937-2.438,2.625-4.395,5.063-5.871c2.438-1.477,5.555-2.215,9.352-2.215c3.187,0,5.924,0.475,8.209,1.424
			s4.048,2.186,5.291,3.709c1.242,1.523,2.092,3.094,2.549,4.711s0.686,4.078,0.686,7.383V606.188z M356.785,610.934
			c0,4.242-0.252,7.26-0.756,9.053s-1.535,3.223-3.094,4.289s-3.439,1.6-5.643,1.6c-1.758,0-3.387-0.411-4.887-1.232
			c-1.5-0.822-2.871-2.043-4.113-3.663v10.696H324.09v-53.297h14.449l-0.246,4.122c1.266-1.667,2.66-2.911,4.184-3.733
			c1.523-0.821,3.188-1.232,4.992-1.232c2.203,0,4.107,0.592,5.713,1.775s2.607,2.549,3.006,4.096s0.598,4.172,0.598,7.875V610.934z
			 M394.156,610.934c0,4.242-0.252,7.26-0.756,9.053s-1.535,3.223-3.094,4.289s-3.439,1.6-5.643,1.6
			c-1.758,0-3.387-0.411-4.887-1.232c-1.5-0.822-2.871-2.043-4.113-3.663v10.696h-14.203v-53.297h14.449l-0.246,4.122
			c1.266-1.667,2.66-2.911,4.184-3.733c1.523-0.821,3.188-1.232,4.992-1.232c2.203,0,4.107,0.592,5.713,1.775
			s2.607,2.549,3.006,4.096s0.598,4.172,0.598,7.875V610.934z M413.457,625.031h-14.625v-46.652h14.625V625.031z M413.457,575.531
			h-14.625v-7.418h14.625V575.531z M451.32,625.031h-14.203v-32.309c0-3.211-0.105-5.168-0.316-5.871s-0.797-1.055-1.758-1.055
			c-1.008,0-1.641,0.404-1.898,1.213s-0.387,2.971-0.387,6.486v31.535h-14.203v-46.652h14.449l-0.246,4.298
			c1.031-1.714,2.291-2.999,3.779-3.856c1.488-0.856,3.205-1.285,5.15-1.285c2.438,0,4.43,0.574,5.977,1.723
			s2.543,2.596,2.988,4.342s0.668,4.658,0.668,8.736V625.031z M488.48,614.309c0,4.852-0.111,7.986-0.334,9.404
			s-1.014,2.918-2.373,4.5s-3.252,2.789-5.678,3.621s-5.479,1.248-9.158,1.248c-4.523,0-8.156-0.768-10.898-2.303
			s-4.16-4.553-4.254-9.053h13.781c0,2.063,0.75,3.094,2.25,3.094c1.078,0,1.793-0.316,2.145-0.95s0.527-1.959,0.527-3.977v-3.52
			c-1.219,1.104-2.502,1.939-3.85,2.503s-2.76,0.846-4.236,0.846c-2.555,0-4.658-0.516-6.311-1.547s-2.783-2.385-3.393-4.061
			s-0.914-4.061-0.914-7.154v-16.945c0-4.43,0.797-7.617,2.391-9.563s4.02-2.918,7.277-2.918c1.781,0,3.404,0.364,4.869,1.092
			c1.465,0.729,2.771,1.82,3.92,3.276l1.02-3.524h13.219V614.309z M653.5,133.5l-84.053,90.008
			c0.671,5.591-0.666,14.49,0.053,25.992c1,16-13.5,16.5-13.5,16.5h-23l-43,216l-161.681-0.282L286.5,526.5c0,0-25,28-59,0l-157-214
			c0,0-10-18,5.5-33.5l52.589-38.375c0.375-7.933,1.455-15.928,1.911-19.125c1-7,15-4,17-3s13-6,13-6l-23-22c-18-11-5-51-5-51
			c5-20,60-30,60-30c24-8,77,55,77,55c18.083,17.619,25.413,29.216,28.078,36.59c3.857-33.722,39.69-47.878,46.922-50.59
			c8-3,0-10-1-9s-42-41-23-45s37,16,39,19s6,15,6,15s7-23,8-20s-2,13-7,24s14,10,14,10c6-4,53,21,53,21c5-19,38-34,38-34
			c24-22,15-22,13-28s14-25,16-24c0.854,0.427,13.55,7.778,28.056,16.451L564.5,57.5c0,0,15-18,36-7l53,50
			C653.5,100.5,665.5,115.5,653.5,133.5z"/>
		<path class="st0" d="M472.238,585.797c-0.82,0-1.4,0.334-1.74,1.002s-0.51,1.986-0.51,3.955v15.68
			c0,2.086,0.129,3.439,0.387,4.061s0.797,0.932,1.617,0.932c0.938,0,1.547-0.375,1.828-1.125s0.422-2.449,0.422-5.098v-14.449
			c0-2.133-0.123-3.492-0.369-4.078S473.082,585.797,472.238,585.797z"/>
		<path class="st0" d="M600.5,50.5c-21-11-36,7-36,7l-35.944,38.451c19.48,11.648,42.224,25.683,43.944,28.549c3,5-11,21-11,21
			s-5,0-10,1s-5,34-5,41s-3,14-6,17s1,13,1,13s22-3,26,1c1.125,1.125,1.684,2.821,1.947,5.008L653.5,133.5c12-18,0-33,0-33
			L600.5,50.5z"/>
		<path class="st0" d="M160.5,265.5c-3,3-21-3-28-5c-3.803-1.087-4.357-10.438-3.911-19.875L76,279c-15.5,15.5-5.5,33.5-5.5,33.5
			l157,214c34,28,59,0,59,0l41.819-44.782L203.5,481.5L160.5,265.5z"/>
	</g>
</g>
<g id="shading" class="st2">
	<path class="st3" d="M135.5,216.5h428c0,0,11,34,5,41l-34,6L491,477l-5,4H205l-44-216l-28-2l-5-16l3-28L135.5,216.5z"/>
</g>
<g id="Basket">
	<g>
		<g>
			<path class="st4" d="M165.458,214.82l-33.49-33.49c0,0-11.163-16.125,0-42.173s62.018-34.73,78.143-26.048
				s21.086,11.163,32.25,23.567l54.576,58.297"/>
			<path class="st4" d="M257.866,214.2c0,0,13.644-16.125,33.49-21.086"/>
			<path class="st4" d="M202.049,179.47c0,0,19.846-27.288,47.134-35.971"/>
		</g>
		<g>
			<path class="st4" d="M297.558,211.72c-6.202-66.98,125.277-111.633,150.085-3.721"/>
			<path class="st4" d="M350.893,145.98c0,0-40.932-24.807-33.49-49.615c0,0,32.25-11.163,49.615,39.692
				c0,0,4.961-7.442,4.961-26.048"/>
		</g>
		<path class="st5" d="M431.517,164.586c0,0,18.606-26.048,35.971-32.25c0,0,21.086-19.846,22.327-24.807l-7.442-6.202L498.497,79
			l75.663,44.653l-13.644,22.327l-8.683-3.721c0,0-8.683,24.807-7.442,38.451c0,0,1.24,13.644-6.202,28.529"/>
		<line class="st5" x1="486.094" y1="105.048" x2="551.833" y2="142.259"/>
		<g>
			<path class="st6" d="M545.113,263.195h9.739c7.581,0,13.726-6.145,13.726-13.726v-24.725c0-4.795-3.887-8.683-8.683-8.683
				H138.377c-5.594,0-10.13,4.535-10.13,10.13v23.278c0,7.581,6.145,13.726,13.726,13.726h6.081
				C154.574,263.195,538.565,263.195,545.113,263.195z"/>
			<path class="st6" d="M526.832,263.195h-360.52c-3.644,0-6.372,3.342-5.642,6.912l42.298,206.788
				c0.548,2.68,2.906,4.604,5.642,4.604h277.1c2.747,0,5.112-1.941,5.648-4.635l41.123-206.788
				C533.188,266.515,530.463,263.195,526.832,263.195z"/>
		</g>
	</g>
</g>
<g id="things">
	<path class="st7" d="M434.176,315.81c0,0,0,97.989,0,106.672c0,11.163,16.125,11.163,16.125,0c0,0,0-91.787,0-106.672
		C450.301,305.887,434.176,305.887,434.176,315.81z"/>
	<path class="st7" d="M372.158,315.81c0,0,0,97.989,0,106.672c0,11.163,16.125,11.163,16.125,0c0,0,0-91.787,0-106.672
		C388.282,305.887,372.158,305.887,372.158,315.81z"/>
	<path class="st7" d="M308.899,315.81c0,0,0,97.989,0,106.672c0,11.163,16.125,11.163,16.125,0c0,0,0-91.787,0-106.672
		C325.024,305.887,308.899,305.887,308.899,315.81z"/>
	<path class="st7" d="M245.64,315.81c0,0,0,97.989,0,106.672c0,11.163,16.125,11.163,16.125,0c0,0,0-91.787,0-106.672
		C261.765,305.887,245.64,305.887,245.64,315.81z"/>
</g>
<g id="Layer_5">
	<rect y="-1" class="st8" width="700" height="700"/>
</g>
<g id="text">
	<rect x="209.424" y="567.954" class="st1" width="448.478" height="106.495"/>
	<text transform="matrix(1 0 0 1 209.4243 624.9053)" class="st9 st10 st11">Shopping</text>
</g>
</svg>
